<svg width="136" height="40" viewBox="0 0 136 40" fill="none" xmlns="http://www.w3.org/2000/svg">
<path d="M48.2231 16.1525C48.2231 12.3544 47.1385 10.4044 44.9693 10.2977C44.1061 10.257 43.2634 10.3943 42.4436 10.7121C41.7893 10.946 41.3488 11.1773 41.1171 11.4112V20.4769C42.5047 21.3464 43.737 21.7506 44.8114 21.6871C47.085 21.5371 48.2231 19.6939 48.2231 16.1525ZM50.899 16.3102C50.899 18.2397 50.4458 19.8414 49.5343 21.1151C48.5184 22.5565 47.1105 23.2989 45.3104 23.3396C43.9534 23.3828 42.5556 22.9582 41.1171 22.0684V30.3079L38.79 29.4792V11.19C39.1719 10.7222 39.6633 10.3206 40.2591 9.97989C41.6441 9.17399 43.3271 8.75959 45.3079 8.73926L45.341 8.77231C47.1512 8.74943 48.5464 9.49177 49.5266 10.9968C50.4407 12.3773 50.899 14.1467 50.899 16.3102Z" fill="white"/>
<path d="M65.1213 21.7176C65.1213 24.3056 64.8616 26.0979 64.3422 27.0945C63.8202 28.0911 62.8273 28.8868 61.3608 29.4792C60.1718 29.9469 58.886 30.2012 57.5061 30.2444L57.1216 28.78C58.5245 28.5894 59.5124 28.3987 60.0852 28.208C61.2131 27.8267 61.9871 27.2419 62.4123 26.4589C62.7535 25.8208 62.9215 24.6031 62.9215 22.8006V22.1955C61.3302 22.9175 59.6626 23.276 57.9186 23.276C56.7728 23.276 55.7621 22.9175 54.8913 22.1955C53.9136 21.41 53.4248 20.4134 53.4248 19.2058V9.53499L55.7519 8.73926V18.4736C55.7519 19.5134 56.088 20.3142 56.7601 20.8761C57.4323 21.4379 58.303 21.7074 59.3698 21.6871C60.4366 21.6642 61.5797 21.2523 62.7942 20.4464V9.09009H65.1213V21.7176Z" fill="white"/>
<path d="M74.205 23.2125C73.9275 23.2354 73.6729 23.2455 73.4386 23.2455C72.1223 23.2455 71.0963 22.9328 70.363 22.3049C69.6323 21.6769 69.2657 20.81 69.2657 19.7041V10.5519H67.6719V9.09014H69.2657V5.20808L71.5902 4.38184V9.09014H74.205V10.5519H71.5902V19.6406C71.5902 20.5126 71.8244 21.1304 72.2929 21.4914C72.6952 21.7888 73.3342 21.9591 74.205 22.0024V23.2125Z" fill="white"/>
<path d="M88.2953 23.0218H85.9682V14.0526C85.9682 13.1399 85.7544 12.3544 85.3292 11.6985C84.8378 10.9561 84.1555 10.585 83.2796 10.585C82.2128 10.585 80.8787 11.1468 79.2773 12.2705V23.0218H76.9502V1.58276L79.2773 0.850586V10.6155C80.7641 9.535 82.3885 8.9935 84.1529 8.9935C85.3852 8.9935 86.3832 9.40789 87.1471 10.2341C87.9134 11.0604 88.2953 12.09 88.2953 13.3205V23.0218Z" fill="white"/>
<path d="M100.664 15.7864C100.664 14.3272 100.386 13.1221 99.8335 12.1688C99.1767 11.007 98.1557 10.3943 96.7758 10.3307C94.2246 10.4782 92.9516 12.3035 92.9516 15.8017C92.9516 17.4059 93.2164 18.7457 93.7511 19.821C94.4334 21.1913 95.4569 21.8676 96.8216 21.8447C99.3829 21.8244 100.664 19.8058 100.664 15.7864ZM103.212 15.8017C103.212 17.8787 102.68 19.6075 101.618 20.9879C100.45 22.5337 98.8355 23.309 96.7758 23.309C94.7338 23.309 93.1426 22.5337 91.9943 20.9879C90.953 19.6075 90.4336 17.8787 90.4336 15.8017C90.4336 13.8492 90.9963 12.2069 92.1216 10.8697C93.3106 9.45109 94.8739 8.73926 96.8063 8.73926C98.7387 8.73926 100.312 9.45109 101.524 10.8697C102.649 12.2069 103.212 13.8492 103.212 15.8017Z" fill="white"/>
<path d="M116.554 23.0218H114.227V13.5442C114.227 12.5044 113.913 11.6934 113.287 11.1087C112.661 10.5265 111.826 10.2443 110.784 10.2672C109.679 10.2875 108.628 10.6485 107.63 11.3476V23.0218H105.303V11.0604C106.642 10.0867 107.874 9.45109 109 9.15365C110.061 8.87654 110.998 8.73926 111.805 8.73926C112.358 8.73926 112.877 8.79265 113.366 8.89942C114.28 9.11043 115.023 9.50194 115.596 10.0765C116.235 10.7121 116.554 11.4747 116.554 12.3671V23.0218Z" fill="white"/>
<path d="M15.8062 1.66821C14.6089 1.67376 13.4656 1.77572 12.4595 1.95348C9.49575 2.47631 8.95765 3.57062 8.95765 5.58872V8.25402H15.9613V9.14245H8.95765H6.32924C4.29377 9.14245 2.51146 10.3641 1.95398 12.688C1.31093 15.3518 1.28241 17.0141 1.95398 19.7955C2.45183 21.8659 3.64075 23.3411 5.67621 23.3411H8.08424V20.146C8.08424 17.8377 10.0844 15.8016 12.4595 15.8016H19.455C21.4023 15.8016 22.9568 14.2006 22.9568 12.2479V5.58872C22.9568 3.69349 21.3556 2.26979 19.455 1.95348C18.2519 1.7535 17.0035 1.66265 15.8062 1.66821ZM12.0187 3.81186C12.7421 3.81186 13.3329 4.4114 13.3329 5.14858C13.3329 5.88315 12.7421 6.47715 12.0187 6.47715C11.2927 6.47715 10.7045 5.88315 10.7045 5.14858C10.7045 4.4114 11.2927 3.81186 12.0187 3.81186Z" fill="url(#paint0_linear_107_3686)"/>
<path d="M23.8306 9.14258V12.248C23.8306 14.6556 21.7864 16.682 19.4554 16.682H12.4598C10.5437 16.682 8.95801 18.3196 8.95801 20.2358V26.8949C8.95801 28.7902 10.6085 29.9049 12.4598 30.4487C14.6768 31.0996 16.8028 31.2172 19.4554 30.4487C21.2186 29.9389 22.9572 28.913 22.9572 26.8949V24.2296H15.9617V23.3412H22.9572H26.459C28.4945 23.3412 29.253 21.9235 29.9609 19.7956C30.6921 17.605 30.661 15.4983 29.9609 12.6882C29.4578 10.6648 28.4971 9.14258 26.459 9.14258H23.8306ZM19.8961 26.0065C20.6222 26.0065 21.2104 26.6005 21.2104 27.3351C21.2104 28.0722 20.6222 28.6718 19.8961 28.6718C19.1727 28.6718 18.5819 28.0722 18.5819 27.3351C18.5819 26.6005 19.1727 26.0065 19.8961 26.0065Z" fill="url(#paint1_linear_107_3686)"/>
<path d="M121.085 7.01883H121.493V4.46373H122.459V4.15918H120.118V4.46373H121.085V7.01883ZM122.821 7.01883H123.17V4.68523L123.926 7.01854H124.314L125.103 4.69314V7.01883H125.483V4.15918H124.98L124.118 6.60906L123.383 4.15918H122.821V7.01883Z" fill="white"/>
<path opacity="0.44382" d="M25.4263 34.9754C25.4263 35.2141 25.1835 35.4504 24.7119 35.6709C24.2402 35.8914 23.5489 36.0917 22.6773 36.2604C21.8058 36.4292 20.7712 36.563 19.6325 36.6544C18.4938 36.7457 17.2733 36.7927 16.0408 36.7927C14.8083 36.7927 13.5878 36.7457 12.4491 36.6544C11.3104 36.563 10.2757 36.4292 9.40422 36.2604C8.5327 36.0917 7.84137 35.8914 7.3697 35.6709C6.89804 35.4504 6.65527 35.2141 6.65527 34.9754C6.65527 34.7368 6.89804 34.5005 7.3697 34.28C7.84137 34.0595 8.5327 33.8592 9.40422 33.6905C10.2757 33.5217 11.3104 33.3879 12.4491 33.2965C13.5878 33.2052 14.8083 33.1582 16.0408 33.1582C17.2733 33.1582 18.4938 33.2052 19.6325 33.2965C20.7712 33.3879 21.8058 33.5217 22.6773 33.6905C23.5489 33.8592 24.2402 34.0595 24.7119 34.28C25.1835 34.5005 25.4263 34.7368 25.4263 34.9754Z" fill="url(#paint2_radial_107_3686)"/>
<defs>
<linearGradient id="paint0_linear_107_3686" x1="1.46094" y1="1.66797" x2="17.5906" y2="15.433" gradientUnits="userSpaceOnUse">
<stop stop-color="#5A9FD4"/>
<stop offset="1" stop-color="#306998"/>
</linearGradient>
<linearGradient id="paint1_linear_107_3686" x1="19.7278" y1="27.111" x2="13.9453" y2="18.9959" gradientUnits="userSpaceOnUse">
<stop stop-color="#FFD43B"/>
<stop offset="1" stop-color="#FFE873"/>
</linearGradient>
<radialGradient id="paint2_radial_107_3686" cx="0" cy="0" r="1" gradientUnits="userSpaceOnUse" gradientTransform="translate(16.0408 34.9754) rotate(-90) scale(1.81725 7.99935)">
<stop stop-color="#B8B8B8" stop-opacity="0.498039"/>
<stop offset="1" stop-color="#7F7F7F" stop-opacity="0"/>
</radialGradient>
</defs>
</svg>
