<svg width="132" height="40" viewBox="0 0 132 40" fill="none" xmlns="http://www.w3.org/2000/svg">
<g clip-path="url(#clip0_107_3747)">
<path fill-rule="evenodd" clip-rule="evenodd" d="M18.378 0C18.3953 0.00885536 18.4116 0.0236143 18.4297 0.0261971C19.4005 0.166407 20.1277 0.665997 20.6162 1.51132C20.6669 1.59839 20.7223 1.61574 20.8128 1.61574C24.5769 1.61389 28.341 1.61352 32.1051 1.61647C32.2067 1.61647 32.2581 1.58622 32.3087 1.49729C32.6882 0.831666 33.2447 0.376353 33.9749 0.14021C34.1593 0.0804362 34.3515 0.0461217 34.5403 0.000368974H41.1609C41.1723 0.00885536 41.183 0.0232453 41.1956 0.0250902C42.1801 0.160135 42.9128 0.666735 43.4065 1.52202C43.4498 1.59729 43.4971 1.6161 43.5776 1.61574C44.1833 1.61278 44.7886 1.6161 45.3943 1.61352C45.8355 1.61131 46.2712 1.65374 46.705 1.73528C49.1096 2.18691 51.1202 4.18674 51.5729 6.58323C51.6213 6.83929 51.6564 7.09831 51.6978 7.35586V10.5519C51.5319 10.5519 51.3659 10.5453 51.2008 10.5545C51.0965 10.56 51.0736 10.5246 51.074 10.4253C51.0777 9.55641 51.0781 8.68748 51.0759 7.81892C51.0692 5.26341 49.3365 3.0385 46.8654 2.4094C46.3964 2.29022 45.9201 2.2345 45.4364 2.2345C32.5134 2.23487 19.5904 2.23377 6.66743 2.23561C3.91292 2.23598 1.59187 4.21036 1.13624 6.93006C1.08598 7.23114 1.06492 7.53518 1.06492 7.84143C1.06602 12.1392 1.06418 16.4367 1.06602 20.7345C1.06713 23.5003 3.02936 25.8149 5.76281 26.2768C6.07395 26.3296 6.38954 26.3499 6.70623 26.3495C10.9378 26.348 15.1697 26.3495 19.4012 26.3447C19.5546 26.3447 19.6111 26.3753 19.5934 26.5351C19.5775 26.6783 19.59 26.8244 19.59 26.969H6.16264C5.98638 26.91 5.79976 26.9118 5.61832 26.8823C3.09957 26.4713 1.04533 24.477 0.563458 21.9672C0.520223 21.7421 0.483269 21.5156 0.443359 21.2898V7.32412C0.503224 7.11639 0.503224 6.89981 0.543873 6.68875C1.11591 3.71519 3.66348 1.61463 6.70106 1.61389C7.5654 1.61352 8.42974 1.61205 9.29408 1.6161C9.409 1.61684 9.47404 1.58954 9.53612 1.4818C9.93559 0.78739 10.5268 0.331707 11.2973 0.105526C11.4392 0.0638324 11.5904 0.0634634 11.7264 0H18.378ZM51.2318 15.2659C51.3863 15.2788 51.5422 15.2689 51.6978 15.2689V21.2584C51.6571 21.5005 51.6202 21.7429 51.5751 21.9838C51.1269 24.3888 49.1151 26.3978 46.7057 26.8458C46.4541 26.8926 46.2006 26.9277 45.9478 26.9686C39.6277 26.969 33.3079 26.969 26.9878 26.969C26.9878 26.7982 26.9926 26.6273 26.9859 26.4572C26.9822 26.3672 27.0133 26.3366 27.0994 26.3477C27.1348 26.3525 27.1718 26.3484 27.208 26.3484C33.2839 26.3484 39.3601 26.3488 45.436 26.3484C48.0874 26.3484 50.3205 24.5866 50.9343 22.0093C51.0341 21.5905 51.077 21.1643 51.0766 20.7334C51.0755 18.9645 51.0777 17.1956 51.0729 15.4268C51.0725 15.2999 51.0991 15.2548 51.2318 15.2659ZM2.71858 16.5079C2.83683 16.5186 2.9573 16.5178 3.07555 16.5079C3.18346 16.499 3.2145 16.5315 3.21302 16.6422C3.20637 17.1281 3.20969 17.6144 3.21043 18.1004C3.2145 20.6795 4.92692 22.8871 7.42645 23.5379C8.0129 23.6907 8.61081 23.7265 9.21315 23.7077C9.33029 23.704 9.37981 23.7291 9.36725 23.8567C9.35505 23.9848 9.36133 24.115 9.36577 24.2441C9.36798 24.312 9.3447 24.329 9.27782 24.3327C5.77426 24.512 3.21819 22.1141 2.68754 19.2468C2.5837 18.6845 2.5789 18.1159 2.58851 17.6786C2.58851 17.2469 2.59294 16.947 2.58592 16.647C2.5837 16.5433 2.60366 16.4975 2.71858 16.5079ZM14.7706 8.68968C17.8676 8.69634 20.3731 11.2098 20.3676 14.3051C20.362 17.3964 17.8436 19.8991 14.744 19.8936C11.648 19.888 9.14109 17.3731 9.14662 14.2782C9.15218 11.1869 11.672 8.68305 14.7706 8.68968ZM14.7569 9.31031C12.0017 9.31031 9.7693 11.5467 9.76856 14.3069C9.76819 17.0359 12.0157 19.2726 14.7573 19.2722C17.5062 19.2722 19.7456 17.0359 19.7456 14.2911C19.7456 11.5467 17.5059 9.31031 14.7569 9.31031ZM39.798 10.2818C41.5175 10.9766 42.608 12.7111 42.4927 14.5575C42.3641 16.6141 40.791 18.314 38.7474 18.5815C37.5232 18.7416 36.4209 18.4262 35.4442 17.669C35.3444 17.5919 35.3403 17.5491 35.4597 17.5078C35.5743 17.4683 35.6707 17.3901 35.769 17.3288C35.8832 17.258 35.9493 17.2702 36.0447 17.3347C38.2682 18.8391 41.2108 17.6694 41.7961 15.0501C42.2421 13.0528 40.8649 10.9973 38.8454 10.646C38.5642 10.5969 38.2804 10.5648 37.9954 10.5881C37.896 10.5962 37.8469 10.5453 37.8188 10.4811C37.749 10.3198 37.623 10.1918 37.5601 10.004C38.335 9.89513 39.08 9.99143 39.798 10.2818ZM18.9692 15.3154C18.5845 16.7676 17.6895 17.7723 16.2979 18.3384C16.262 18.3531 16.2254 18.3819 16.1711 18.3609C16.1711 18.1742 16.1759 17.9834 16.1693 17.7934C16.1659 17.6952 16.2424 17.6915 16.2975 17.665C17.3196 17.1772 17.9974 16.3939 18.3266 15.3113C18.3909 15.1005 18.3938 15.0843 18.5901 15.083L18.828 15.083C19.0258 15.0842 19.0263 15.1003 18.9692 15.3154ZM18.8074 12.7421C18.8728 12.9104 18.8728 12.9108 18.6854 12.9108C18.5354 12.9108 18.3684 12.9506 18.2398 12.8978C18.1071 12.8436 18.0942 12.6532 18.024 12.5248C17.2779 11.1596 15.7425 10.3896 14.2166 10.6205C12.6646 10.8552 11.4182 12.0385 11.1129 13.5668C10.7944 15.1626 11.5508 16.7658 13.0016 17.5558C13.0992 17.6089 13.1343 17.6639 13.1273 17.7694C13.1188 17.8982 13.1165 18.0284 13.1276 18.1568C13.1406 18.3029 13.0855 18.293 12.9817 18.2446C12.0116 17.7926 11.2877 17.0912 10.8288 16.1241C10.5523 15.5412 10.4219 14.9239 10.4208 14.4228C10.4278 12.1167 12.0456 10.2744 14.1804 9.99808C16.1811 9.73906 18.0794 10.8648 18.8074 12.7421ZM34.8659 11.4784C35.0177 11.6378 35.0665 11.8503 35.1848 12.0219C35.2154 12.0662 35.1648 12.0964 35.1434 12.1278C34.4594 13.1255 34.2705 14.2066 34.6127 15.3689C34.6619 15.5356 34.5111 15.5283 34.4605 15.5936C34.4047 15.6659 34.2702 15.6637 34.1844 15.7478C34.1227 15.8087 34.0684 15.7319 34.0436 15.6544C33.7177 14.6364 33.7536 13.6321 34.1541 12.6414C34.3256 12.2175 34.5621 11.8322 34.8659 11.4784ZM23.4084 4.27972C23.5315 4.27972 23.5884 4.29891 23.571 4.4358C23.5515 4.58745 23.6346 4.7926 23.537 4.87967C23.4524 4.95495 23.2518 4.90329 23.1025 4.90329L8.85285 4.90366C6.1996 4.90403 3.9702 6.66255 3.35233 9.24057C3.27991 9.54313 3.23815 9.85049 3.22115 10.1601C3.21561 10.2593 3.18161 10.2796 3.09218 10.2744C2.96839 10.2671 2.84312 10.2667 2.71932 10.2744C2.61992 10.2807 2.58814 10.2541 2.59294 10.1471C2.72376 7.3636 4.84599 4.92026 7.58276 4.40333C8.01142 4.32253 8.44267 4.28157 8.87909 4.28194C11.236 4.28341 13.5929 4.28268 15.9494 4.28268C18.4356 4.28268 20.9218 4.28378 23.4084 4.27972ZM12.0685 0.623565C11.331 0.626148 10.7293 0.934241 10.2652 1.50726C10.2419 1.53604 10.1976 1.56002 10.219 1.61241C13.4517 1.61205 16.684 1.61205 19.9267 1.61205C19.9215 1.58696 19.9223 1.57589 19.9175 1.56888C19.9001 1.54342 19.8816 1.51833 19.862 1.49434C19.3968 0.930551 18.7989 0.626148 18.0672 0.623565C16.0676 0.616555 14.0681 0.616186 12.0685 0.623565ZM34.8825 0.620245C34.6948 0.620245 34.51 0.6398 34.3286 0.684815C33.7717 0.82318 33.3249 1.12426 32.9727 1.60503H42.7248C42.6911 1.55818 42.6701 1.5246 42.6449 1.49434C42.1716 0.921327 41.5633 0.623565 40.8191 0.622089C38.8402 0.6184 36.8613 0.621351 34.8825 0.620245Z" fill="white"/>
<path fill-rule="evenodd" clip-rule="evenodd" d="M30.1946 4.28486C34.5662 4.28338 38.9381 4.28338 43.3097 4.28375C46.2941 4.28375 48.7759 6.25997 49.441 9.16712C49.536 9.58147 49.5837 10.0025 49.5837 10.4275C49.5844 13.0137 49.5929 15.5994 49.5818 18.1856C49.5692 21.1484 47.4034 23.7106 44.4867 24.233C44.1038 24.3017 43.7177 24.333 43.3278 24.333L36.11 24.3316L28.892 24.3316C23.9764 24.3316 19.0605 24.3308 14.1449 24.3353C13.996 24.3353 13.9428 24.3032 13.9617 24.1519C13.9757 24.0397 13.9698 23.9242 13.9628 23.8109C13.9572 23.7253 13.9908 23.701 14.0692 23.7102C14.1102 23.715 14.152 23.7109 14.1934 23.7109H43.3141C45.9752 23.7109 48.2134 21.9458 48.8228 19.3648C48.9203 18.9508 48.9632 18.5298 48.9628 18.104C48.9617 15.5751 48.9636 13.0458 48.9621 10.5168C48.9603 7.7521 46.9958 5.43495 44.2638 4.97521C43.9316 4.91949 43.5957 4.90252 43.258 4.90289C38.8188 4.90437 34.3799 4.90289 29.9407 4.90806C29.7822 4.90806 29.7334 4.86931 29.7515 4.71508C29.7674 4.57782 29.7079 4.38965 29.7788 4.31253C29.8612 4.22213 30.0515 4.28486 30.1946 4.28486ZM38.1721 8.69003C41.2695 8.69483 43.7764 11.2072 43.7724 14.3021C43.7683 17.3941 41.2514 19.898 38.1521 19.8939C35.0558 19.8899 32.5474 17.3764 32.5518 14.2818C32.5555 11.1898 35.0735 8.68487 38.1721 8.69003ZM38.1595 9.31102C35.4046 9.31176 33.1726 11.5492 33.173 14.3095C33.1734 17.0381 35.4213 19.2737 38.1636 19.2729C40.9125 19.2718 43.1512 17.0347 43.1501 14.2899C43.1493 11.5455 40.9085 9.31028 38.1595 9.31102Z" fill="#E87D6F"/>
<path fill-rule="evenodd" clip-rule="evenodd" d="M4.94141 39.8492V35.6289H6.4188C6.69263 35.6289 6.91694 35.6518 7.09247 35.6968C7.26799 35.7418 7.4232 35.8175 7.55808 35.9233C7.7373 36.0639 7.86405 36.2362 7.93833 36.4399C8.01261 36.644 8.04956 36.9229 8.04956 37.2771V38.1981C8.04956 38.4464 8.03552 38.6434 8.0078 38.7899C7.97972 38.936 7.93131 39.0736 7.86184 39.2028C7.73841 39.4279 7.56177 39.5921 7.33119 39.695C7.10097 39.7983 6.79684 39.8496 6.41917 39.8496H4.94141V39.8492ZM5.85231 39.1246H6.24845C6.59914 39.1246 6.83231 39.0581 6.94798 38.9253C7.0751 38.781 7.13866 38.5154 7.13866 38.1287V37.3494C7.13866 36.9627 7.0751 36.6971 6.94798 36.5528C6.83231 36.42 6.59914 36.3536 6.24845 36.3536H5.85231V39.1246Z" fill="#E87D6F"/>
<path fill-rule="evenodd" clip-rule="evenodd" d="M12.6019 38.1693V39.8492H11.6914V35.6289H13.2959C13.6082 35.6289 13.8473 35.6569 14.0128 35.7127C14.2478 35.7935 14.4208 35.9274 14.5316 36.1141C14.6425 36.3008 14.6979 36.5528 14.6979 36.8705C14.6979 37.2325 14.6388 37.5081 14.5202 37.6974C14.4016 37.8874 14.2065 38.0202 13.9348 38.0973L14.8483 39.8496H13.8366L13.0443 38.1697H12.6019V38.1693ZM12.5875 37.4705H13.2205C13.4134 37.4705 13.5531 37.435 13.6396 37.3638C13.7438 37.2793 13.7955 37.1292 13.7955 36.9133C13.7955 36.7093 13.7508 36.565 13.661 36.4801C13.5712 36.3956 13.4197 36.3532 13.2058 36.3532H12.5872V37.4705H12.5875Z" fill="#E87D6F"/>
<path fill-rule="evenodd" clip-rule="evenodd" d="M20.7306 39.0581H19.2532L19.0045 39.8492H18.0186L19.5481 35.6289H20.4298L21.9622 39.8492H20.9763L20.7306 39.0581ZM20.5137 38.3339L19.9933 36.6912L19.4701 38.3339H20.5137Z" fill="#E87D6F"/>
<path fill-rule="evenodd" clip-rule="evenodd" d="M25.0889 39.8492V35.6289H27.717V36.368H25.9998V37.3812H27.4339V38.1202H25.9998V39.8492H25.0889Z" fill="#E87D6F"/>
<path fill-rule="evenodd" clip-rule="evenodd" d="M32.0907 39.8492V36.368H30.9688V35.6289H34.1231V36.368H33.0012V39.8492H32.0907Z" fill="#E87D6F"/>
<path fill-rule="evenodd" clip-rule="evenodd" d="M38.5047 37.6062L37.3251 35.6289H38.3225L39.1059 36.9539L39.8084 35.6289H40.7626L39.5741 37.7306L40.8376 39.8496H39.8402L38.9729 38.3859L38.1895 39.8496H37.2354L38.5047 37.6062Z" fill="white"/>
<path fill-rule="evenodd" clip-rule="evenodd" d="M44.9529 38.1693V39.8492H44.042V35.6289H45.6465C45.9588 35.6289 46.1979 35.6569 46.3634 35.7127C46.5984 35.7935 46.7714 35.9274 46.8822 36.1141C46.9931 36.3008 47.0485 36.5528 47.0485 36.8705C47.0485 37.2325 46.9894 37.5081 46.8708 37.6974C46.7522 37.8874 46.557 38.0202 46.2854 38.0973L47.1989 39.8496H46.1871L45.3949 38.1697H44.9529V38.1693ZM44.9385 37.4705H45.5715C45.7644 37.4705 45.9041 37.435 45.9905 37.3638C46.0948 37.2793 46.1465 37.1292 46.1465 36.9133C46.1465 36.7093 46.1018 36.565 46.012 36.4801C45.9222 36.3956 45.7707 36.3532 45.5567 36.3532H44.9381V37.4705H44.9385Z" fill="white"/>
</g>
<path d="M60.9814 15.1289H64.8643C66.3317 15.1289 67.4688 15.555 68.2754 16.4072C69.0866 17.2549 69.4922 18.4512 69.4922 19.9961C69.4922 21.5957 69.0889 22.8307 68.2822 23.7012C67.4801 24.5671 66.3408 25 64.8643 25H60.9814V15.1289ZM63.0459 16.8926V23.2363H64.5361C65.4521 23.2363 66.1562 22.9629 66.6484 22.416C67.1406 21.8646 67.3867 21.0693 67.3867 20.0303C67.3867 19.0368 67.1361 18.2666 66.6348 17.7197C66.1335 17.1683 65.4339 16.8926 64.5361 16.8926H63.0459ZM73.5049 16.8037V19.8389H75.3164C75.8359 19.8389 76.2393 19.7067 76.5264 19.4424C76.818 19.1735 76.9639 18.8021 76.9639 18.3281C76.9639 17.8587 76.8135 17.4873 76.5127 17.2139C76.2119 16.9404 75.8063 16.8037 75.2959 16.8037H73.5049ZM73.5049 21.4248V25H71.4404V15.1357H75.583C76.6676 15.1357 77.5221 15.4183 78.1465 15.9834C78.7708 16.5485 79.083 17.321 79.083 18.3008C79.083 18.9388 78.9235 19.5107 78.6045 20.0166C78.29 20.5179 77.8525 20.8802 77.292 21.1035L79.3701 25H77.0322L75.1934 21.4248H73.5049ZM87.498 25L86.7529 22.6484H83.2871L82.5283 25H80.457L83.8818 15.1357H86.3086L89.7334 25H87.498ZM84.9688 17.1865L83.7314 21.0557H86.3154L85.0918 17.1865H84.9688ZM93.4795 25H91.415V15.1357H97.875V16.8994H93.4795V19.4697H97.4922V21.1582H93.4795V25ZM104.239 25H102.175V16.8994H99.2148V15.1357H107.199V16.8994H104.239V25Z" fill="#E87D6F"/>
<path d="M112.039 25L115.19 20.0303L112.06 15.1357H114.486L116.544 18.5879H116.667L118.745 15.1357H121.056L117.809 20.0645L121.008 25H118.656L116.537 21.6572H116.414L114.268 25H112.039ZM124.911 16.8037V19.8389H126.723C127.242 19.8389 127.646 19.7067 127.933 19.4424C128.224 19.1735 128.37 18.8021 128.37 18.3281C128.37 17.8587 128.22 17.4873 127.919 17.2139C127.618 16.9404 127.213 16.8037 126.702 16.8037H124.911ZM124.911 21.4248V25H122.847V15.1357H126.989C128.074 15.1357 128.928 15.4183 129.553 15.9834C130.177 16.5485 130.489 17.321 130.489 18.3008C130.489 18.9388 130.33 19.5107 130.011 20.0166C129.696 20.5179 129.259 20.8802 128.698 21.1035L130.776 25H128.438L126.6 21.4248H124.911Z" fill="white"/>
<defs>
<clipPath id="clip0_107_3747">
<rect width="51.36" height="40" fill="white" transform="translate(0.424805)"/>
</clipPath>
</defs>
</svg>
