<svg width="117" height="40" viewBox="0 0 117 40" fill="none" xmlns="http://www.w3.org/2000/svg">
<g clip-path="url(#clip0_107_3556)">
<path fill-rule="evenodd" clip-rule="evenodd" d="M25.343 0.0646237L3.21272 1.72597C1.42183 1.85376 0.782227 3.06782 0.782227 4.47357V28.7547C0.782227 29.841 1.16599 30.7994 2.1254 32.0135L7.30619 38.7867C8.13768 39.8729 8.96916 40.1285 10.5682 40.0007L36.2803 38.4672C38.4549 38.3394 39.0945 37.317 39.0945 35.5918V8.24354C39.0945 7.34897 38.7747 7.09338 37.6874 6.3266C37.6234 6.26271 37.5595 6.26271 37.4955 6.19881L30.4599 1.27868C28.7969 0.000725969 28.0933 -0.12707 25.343 0.0646237ZM11.1438 7.79625C9.03312 7.92405 8.5854 7.98795 7.37015 6.96558L4.36401 4.60136C4.04421 4.28188 4.17213 3.89849 5.00361 3.83459L26.3024 2.30105C28.0933 2.17325 28.9888 2.74833 29.6923 3.32341L33.3381 5.94322C33.53 6.00712 33.9137 6.4544 33.402 6.4544L11.3997 7.79625H11.1438ZM8.71332 35.3362V12.1413C8.71332 11.1189 9.03312 10.6717 9.92857 10.6078L35.1929 9.13811C36.0244 9.07421 36.4082 9.58539 36.4082 10.6078V33.6109C36.4082 34.6333 36.2163 35.464 34.8731 35.5279L10.6961 36.9336C9.35292 37.0614 8.71332 36.5502 8.71332 35.3362ZM32.5706 13.4193C32.6985 14.1221 32.5706 14.825 31.867 14.8889L30.7157 15.1445V32.2691C29.6923 32.8442 28.7969 33.0998 28.0294 33.0998C26.8141 33.0998 26.4943 32.7164 25.5349 31.5662L17.8597 19.5534V31.1189L20.2902 31.694C20.2902 31.694 20.2902 33.0998 18.3713 33.0998L12.9987 33.4193C12.8707 33.0998 12.9987 32.333 13.5104 32.2052L14.9175 31.8218V16.4863L12.9987 16.2947C12.8707 15.5918 13.2545 14.5694 14.3418 14.5055L20.0983 14.1221L28.0294 26.2627V15.5279L25.9826 15.2723C25.8547 14.4416 26.4304 13.8026 27.1979 13.7387L32.5706 13.4193Z" fill="white"/>
<path d="M56.1102 28.3714V17.8283H56.302L63.9133 28.3714H66.3438V12.8442H63.6575V23.3874H63.4656L55.8543 12.8442H53.4238V28.3714H56.1102ZM73.8272 28.5631C77.345 28.5631 79.4557 26.2628 79.4557 22.4289C79.4557 18.6589 77.2811 16.2947 73.8272 16.2947C70.3094 16.2947 68.1987 18.595 68.1987 22.4289C68.1347 26.2628 70.3094 28.5631 73.8272 28.5631ZM73.8272 26.3267C71.9723 26.3267 70.885 24.9209 70.885 22.4289C70.885 20.0008 71.9723 18.5311 73.8272 18.5311C75.6821 18.5311 76.7694 19.9369 76.7694 22.4289C76.7054 24.9209 75.6821 26.3267 73.8272 26.3267ZM81.8862 13.7388V16.6781H80.0314V18.7867H81.8862V25.1765C81.8862 27.4768 82.9735 28.3714 85.6599 28.3714C86.1716 28.3714 86.6832 28.3075 87.067 28.2436V26.1989C86.7472 26.2628 86.5553 26.2628 86.1716 26.2628C85.0842 26.2628 84.5726 25.7516 84.5726 24.6014V18.8506H87.067V16.742H84.5726V13.8027H81.8862V13.7388ZM88.666 28.3714H91.3524V16.6142H88.666V28.3714ZM90.0092 14.6334C90.9046 14.6334 91.6082 13.9305 91.6082 13.0359C91.6082 12.1414 90.9046 11.4385 90.0092 11.4385C89.1137 11.4385 88.4102 12.1414 88.4102 13.0359C88.4102 13.9305 89.1137 14.6334 90.0092 14.6334ZM98.6439 28.5631C102.162 28.5631 104.272 26.2628 104.272 22.4289C104.272 18.6589 102.098 16.2947 98.6439 16.2947C95.126 16.2947 93.0153 18.595 93.0153 22.4289C92.9514 26.2628 95.126 28.5631 98.6439 28.5631ZM98.6439 26.3267C96.789 26.3267 95.7017 24.9209 95.7017 22.4289C95.7017 20.0008 96.789 18.5311 98.6439 18.5311C100.499 18.5311 101.586 19.9369 101.586 22.4289C101.522 24.9209 100.499 26.3267 98.6439 26.3267ZM105.871 28.3714H108.558V21.4704C108.558 19.7452 109.581 18.6589 111.116 18.6589C112.715 18.6589 113.483 19.5535 113.483 21.3426V28.3075H116.169V20.7037C116.169 17.8922 114.762 16.2947 112.14 16.2947C110.413 16.2947 109.197 17.1254 108.622 18.4033H108.43V16.6142H105.871V28.3714Z" fill="white"/>
</g>
<defs>
<clipPath id="clip0_107_3556">
<rect width="115.385" height="40" fill="white" transform="translate(0.785156)"/>
</clipPath>
</defs>
</svg>
