<svg width="44" height="40" viewBox="0 0 44 40" fill="none" xmlns="http://www.w3.org/2000/svg">
<g clip-path="url(#clip0_107_3710)">
<path d="M27.3428 19L10.3428 16V38.167C10.3428 39.1793 11.1634 40 12.1758 40H41.5098C42.5221 40 43.3428 39.1793 43.3428 38.167V30L27.3428 19Z" fill="#185C37"/>
<path d="M27.3428 0H12.1758C11.1634 0 10.3428 0.820657 10.3428 1.833V10L27.3428 20L36.3428 23L43.3428 20V10L27.3428 0Z" fill="#21A366"/>
<path d="M10.3428 10H27.3428V20H10.3428V10Z" fill="#107C41"/>
<path opacity="0.1" d="M22.5098 8H10.3428V33H22.5098C23.5207 32.9967 24.3395 32.178 24.3428 31.167V9.833C24.3395 8.82203 23.5207 8.00329 22.5098 8Z" fill="black"/>
<path opacity="0.2" d="M21.5098 9H10.3428V34H21.5098C22.5207 33.9967 23.3395 33.178 23.3428 32.167V10.833C23.3395 9.82203 22.5207 9.00329 21.5098 9Z" fill="black"/>
<path opacity="0.2" d="M21.5098 9H10.3428V32H21.5098C22.5207 31.9967 23.3395 31.178 23.3428 30.167V10.833C23.3395 9.82203 22.5207 9.00329 21.5098 9Z" fill="black"/>
<path opacity="0.2" d="M20.5098 9H10.3428V32H20.5098C21.5207 31.9967 22.3395 31.178 22.3428 30.167V10.833C22.3395 9.82203 21.5207 9.00329 20.5098 9Z" fill="black"/>
<path d="M2.17577 9H20.5098C21.5221 9 22.3428 9.82066 22.3428 10.833V29.167C22.3428 30.1793 21.5221 31 20.5098 31H2.17577C1.16343 31 0.342773 30.1793 0.342773 29.167V10.833C0.342773 9.82066 1.16343 9 2.17577 9Z" fill="url(#paint0_linear_107_3710)"/>
<path d="M6.01953 25.958L9.87553 19.983L6.34254 14.041H9.18453L11.1125 17.841C11.2905 18.202 11.4125 18.47 11.4785 18.647H11.5035C11.6302 18.359 11.7635 18.0793 11.9035 17.808L13.9645 14.043H16.5735L12.9505 19.95L16.6655 25.958H13.8895L11.6625 21.787C11.5576 21.6096 11.4686 21.4232 11.3965 21.23H11.3636C11.2983 21.4192 11.2118 21.6004 11.1055 21.77L8.81255 25.958H6.01953Z" fill="white"/>
<path d="M41.5098 0H27.3428V10H43.3428V1.833C43.3428 0.820657 42.5221 0 41.5098 0Z" fill="#33C481"/>
<path d="M27.3428 20H43.3428V30H27.3428V20Z" fill="#107C41"/>
</g>
<defs>
<linearGradient id="paint0_linear_107_3710" x1="4.16462" y1="7.56773" x2="18.5209" y2="32.4323" gradientUnits="userSpaceOnUse">
<stop stop-color="#18884F"/>
<stop offset="0.5" stop-color="#117E43"/>
<stop offset="1" stop-color="#0B6631"/>
</linearGradient>
<clipPath id="clip0_107_3710">
<rect width="43" height="40" fill="white" transform="translate(0.342773)"/>
</clipPath>
</defs>
</svg>
