<svg width="21" height="20" viewBox="0 0 21 20" fill="none" xmlns="http://www.w3.org/2000/svg">
<path d="M15 18V2C15.55 2 16.021 2.196 16.413 2.588C16.805 2.98 17.0007 3.45067 17 4V16C17 16.55 16.804 17.021 16.412 17.413C16.02 17.805 15.5493 18.0007 15 18ZM2 20C1.45 20 0.979002 19.804 0.587002 19.412C0.195002 19.02 -0.000664969 18.5493 1.69779e-06 18V2C1.69779e-06 1.45 0.196002 0.979002 0.588002 0.587002C0.980002 0.195002 1.45067 -0.000664969 2 1.69779e-06H11C11.55 1.69779e-06 12.021 0.196002 12.413 0.588002C12.805 0.980002 13.0007 1.45067 13 2V18C13 18.55 12.804 19.021 12.412 19.413C12.02 19.805 11.5493 20.0007 11 20H2ZM19 16V4C19.4167 4 19.771 4.146 20.063 4.438C20.355 4.73 20.5007 5.084 20.5 5.5V14.5C20.5 14.9167 20.354 15.271 20.062 15.563C19.77 15.855 19.416 16.0007 19 16Z" fill="#333333"/>
</svg>
