<svg width="18" height="16" viewBox="0 0 18 16" fill="none" xmlns="http://www.w3.org/2000/svg">
<path d="M15.89 3.01197C16.698 2.51597 17.233 1.83897 17.495 0.977975C16.7571 1.37708 15.9652 1.6671 15.144 1.83897C14.441 1.08297 13.551 0.698975 12.484 0.698975C11.441 0.698975 10.56 1.06497 9.84102 1.77697C9.4938 2.11508 9.21927 2.52052 9.03425 2.96846C8.84923 3.41639 8.75761 3.89739 8.76502 4.38197C8.76502 4.69097 8.80402 4.96697 8.88202 5.20097C5.80602 5.09597 3.26002 3.81997 1.25402 1.36397C0.914024 1.96497 0.744023 2.57697 0.744023 3.20997C0.744023 4.51097 1.29302 5.54197 2.38902 6.29897C1.76402 6.24597 1.21302 6.08798 0.744023 5.82898C0.744023 6.75798 1.01702 7.53397 1.56402 8.21697C2.09538 8.88251 2.8442 9.33959 3.67902 9.50797C3.36702 9.58797 3.03802 9.62597 2.70002 9.62597C2.38802 9.62597 2.16702 9.59997 2.03602 9.54297C2.26602 10.3 2.70002 10.914 3.32702 11.384C3.94686 11.8546 4.70085 12.1149 5.47902 12.127C4.14702 13.172 2.62402 13.689 0.901023 13.689C0.479023 13.689 0.180023 13.683 -0.000976562 13.651C1.69602 14.753 3.58502 15.3 5.67502 15.3C7.81402 15.3 9.70402 14.758 11.349 13.674C12.994 12.596 14.208 11.266 14.988 9.69997C15.7594 8.18468 16.161 6.50829 16.16 4.80797V4.33997C16.879 3.8099 17.5014 3.16009 18 2.41897C17.3266 2.71084 16.6169 2.91031 15.89 3.01197Z" fill="#7D7D7D"/>
</svg>
