<svg width="42" height="40" viewBox="0 0 42 40" fill="none" xmlns="http://www.w3.org/2000/svg">
<g clip-path="url(#clip0_104_3319)">
<path d="M33.8486 40H7.32642C3.30531 40 0.0541992 36.7521 0.0541992 32.735V7.26496C0.0541992 3.24786 3.30531 0 7.32642 0H33.8486C37.8697 0 41.1208 3.24786 41.1208 7.26496V32.735C41.1208 36.7521 37.8697 40 33.8486 40Z" fill="#26C9FF"/>
<path d="M33.1982 38.2902H7.97646C4.55425 38.2902 1.76514 35.5039 1.76514 32.0851V7.91411C1.76514 4.49531 4.55425 1.70898 7.97646 1.70898H33.1811C36.6204 1.70898 39.3924 4.49531 39.3924 7.91411V32.068C39.4095 35.5039 36.6204 38.2902 33.1982 38.2902Z" fill="#061E26"/>
<path fill-rule="evenodd" clip-rule="evenodd" d="M10.1499 10.0176C10.1499 9.91508 10.1841 9.82961 10.321 9.82961C11.399 9.77833 12.939 9.74414 14.5988 9.74414C19.2188 9.74414 21.2379 12.2741 21.2379 15.5219C21.2379 19.7612 18.1237 21.5732 14.3592 21.5732C13.7261 21.5732 13.5037 21.539 13.0588 21.539V28.0347C13.0588 28.1715 13.0075 28.2228 12.8706 28.2228H10.3381C10.2012 28.2228 10.1499 28.1715 10.1499 28.0347V10.0176ZM13.0588 18.8723C13.4352 18.9065 13.7432 18.9065 14.4106 18.9065C16.3612 18.9065 18.2263 18.2228 18.2263 15.5732C18.2263 13.4535 16.8917 12.3766 14.6501 12.3766C13.9828 12.3766 13.3497 12.4108 13.0588 12.4279V18.8723ZM27.9797 16.8894C26.6621 16.8894 26.2172 17.5561 26.2172 18.1031C26.2172 18.7014 26.5252 19.1288 28.2877 20.0347C30.9057 21.2997 31.727 22.5134 31.727 24.3082C31.727 26.9749 29.6908 28.4108 26.9359 28.4108C25.4814 28.4108 24.181 28.1031 23.4623 27.6929C23.3597 27.6416 23.3254 27.5561 23.3254 27.4194V24.9578C23.3254 24.7869 23.411 24.7356 23.5137 24.8211C24.5574 25.5048 25.8408 25.8125 26.9359 25.8125C28.2534 25.8125 28.801 25.2655 28.801 24.5134C28.801 23.9151 28.4246 23.3852 26.7306 22.4963C24.3521 21.3681 23.3768 20.2057 23.3768 18.2911C23.3768 16.1373 25.0537 14.3595 27.9797 14.3595C29.417 14.3595 30.4779 14.5817 31.0254 14.8211C31.1623 14.9065 31.1966 15.0433 31.1966 15.1458V17.4364C31.1966 17.5732 31.111 17.6587 30.957 17.6074C30.2041 17.1629 29.0577 16.8894 27.9797 16.8894Z" fill="#D9F5FF"/>
</g>
<defs>
<clipPath id="clip0_104_3319">
<rect width="41.0666" height="40" fill="white" transform="translate(0.0522461)"/>
</clipPath>
</defs>
</svg>
