<svg width="281" height="49" viewBox="0 0 281 49" fill="none" xmlns="http://www.w3.org/2000/svg">
<g clip-path="url(#clip0_542_1703)">
<rect x="8" y="5" width="252" height="38" fill="#333333"/>
<path d="M280.936 5.44054C280.936 5.30697 280.701 5.34307 280.532 5.33946C280.146 5.33946 279.77 5.33946 279.394 5.31419C278.999 5.15534 278.388 5.20227 277.946 5.09036C277.862 4.80877 277.279 4.9279 276.893 4.89541C275.876 4.76361 274.816 4.68706 273.744 4.66798H269.39C269.299 4.64477 269.188 4.63574 269.08 4.64271C268.582 4.57411 268.516 4.39722 268.591 4.18783C268.591 4.15173 268.591 4.11202 268.591 4.07231C268.899 3.59196 268.979 3.0942 268.826 2.60299C268.826 2.51635 268.826 2.33585 268.272 2.46581C268.095 2.48888 267.908 2.49789 267.722 2.4923C267.536 2.48672 267.355 2.46665 267.19 2.43332C267.049 2.40805 266.918 2.37917 266.786 2.35029C266.727 2.32432 266.648 2.30654 266.56 2.29974C265.952 2.13114 265.266 2.00861 264.539 1.93873V1.54884V1.43693C264.586 1.29252 264.624 1.14812 264.671 1.00733C264.792 0.90966 264.829 0.799482 264.774 0.693246C264.774 0.606604 264.633 0.584943 264.313 0.570503C263.794 0.606211 263.259 0.588781 262.762 0.519961C262.536 0.274474 261.765 0.49108 261.436 0.325015C261.408 0.311208 261.389 0.295163 261.38 0.278084C261.363 0.273889 261.343 0.271656 261.323 0.271656C261.303 0.271656 261.284 0.273889 261.267 0.278084C261.267 0.241983 261.267 0.209492 261.201 0.173391C260.938 -0.108198 260.515 0.0362068 260.12 0.112019C259.875 0.00732589 259.659 -0.0359954 259.311 0.0867483C258.963 0.209492 258.785 0.278084 258.757 0.389997C258.727 0.476295 258.636 0.557784 258.494 0.62536C258.351 0.692936 258.162 0.743938 257.948 0.772669C257.57 1.02231 257.452 1.31775 257.619 1.59938C257.337 1.66798 257.44 1.77628 257.431 1.87014C257.431 2.50191 257.431 3.13368 257.431 3.76906C257.431 3.85931 257.365 3.90624 257.158 3.90624C255.908 3.90624 254.657 3.90624 253.397 3.88819C253.245 3.88235 253.103 3.8569 252.993 3.81599C252.561 3.6752 252.579 3.6752 252.326 3.8557C252.222 3.92429 252.006 3.8918 251.837 3.88458H249.806C249.505 4.02177 249.195 3.90263 248.866 3.88458H248.809L248.518 3.9279L247.446 3.86653C247.133 3.93558 246.763 3.95623 246.412 3.92429C245.613 3.90264 244.812 3.90264 244.014 3.92429C243.018 3.8918 242.011 3.88458 241.005 3.88819H240.423C239.576 3.88819 238.73 3.88819 237.884 3.88819H237.762C237.452 3.90985 237.132 3.98567 236.822 3.88819H236.765C235.532 3.83025 234.283 3.84486 233.061 3.93151L228.614 3.87736H228.548C228.44 3.89442 228.325 3.90302 228.209 3.90263C228.078 3.90263 227.946 3.90263 227.814 3.90263C227.827 3.91792 227.827 3.93428 227.814 3.94956H227.457L223.442 3.90263C222.765 3.84487 222.079 3.97123 221.402 3.90263C221.29 3.90634 221.176 3.90634 221.064 3.90263C221.034 3.90437 221.005 3.90889 220.98 3.91581C220.956 3.92273 220.936 3.93183 220.923 3.94234H220.725C219.892 3.89926 219.048 3.89926 218.215 3.94234H218.121C217.778 3.99546 217.404 4.01169 217.04 3.98928C216.961 4.00799 216.867 4.01466 216.777 4.00797C216.686 4.00128 216.605 3.98171 216.551 3.95317C216.495 3.93623 216.431 3.92394 216.363 3.91707C215.992 3.89536 215.618 3.8845 215.244 3.88458H215.14C214.969 3.90654 214.788 3.91467 214.609 3.90845C214.429 3.90224 214.255 3.88182 214.097 3.84848C213.747 3.91455 213.35 3.93362 212.968 3.90263C212.784 3.89365 212.598 3.89365 212.414 3.90263C212.329 3.90963 212.247 3.92054 212.169 3.93512H211.756L211.097 3.90985H210.947C210.926 3.91499 210.901 3.91772 210.877 3.91772C210.852 3.91772 210.827 3.91499 210.806 3.90985C210.531 3.90273 210.254 3.90273 209.979 3.90985L209.349 3.93151C208.886 3.9501 208.418 3.93789 207.967 3.89541C207.212 3.96224 206.427 3.96224 205.672 3.89541C204.854 3.79794 204.074 4.04343 203.266 3.89541C203.068 3.91707 202.824 3.87375 202.645 3.94234L200.765 3.89541C199.364 3.91707 197.944 3.94234 196.562 3.95317C196.242 3.95317 195.875 3.9965 195.622 3.8918H194.399H194.24H193.788C193.27 3.94238 192.727 3.94238 192.209 3.8918C191.598 3.87375 190.949 4.03621 190.328 3.83043C190.328 3.83043 190.15 3.85209 190.056 3.85931L189.2 3.90985H188.974C188.155 3.94895 187.326 3.94287 186.511 3.8918C186.022 3.9176 185.529 3.93086 185.035 3.93151C184.471 3.93151 184.095 3.79794 183.653 3.74379C183.211 3.68964 182.863 3.95317 182.308 3.8918H180.757H180.447C180.202 3.8918 179.93 3.93873 179.742 3.82682C179.742 3.79433 179.591 3.70769 179.506 3.80516C179.494 3.82502 179.471 3.84365 179.439 3.85983C179.406 3.87601 179.365 3.88937 179.318 3.89902C179.14 3.93151 178.905 3.87736 178.726 3.89902H178.453C177.993 3.8827 177.528 3.89736 177.081 3.94234H176.987H176.855C176.535 3.94234 176.169 3.94234 175.971 3.87014C175.614 3.75462 175.501 3.87014 175.294 3.90985H174.965H174.364C174.285 3.92155 174.198 3.92155 174.119 3.90985C173.94 3.87375 174.006 3.7474 173.856 3.68242C173.555 3.75462 173.564 3.97123 173.085 3.91707C172.765 3.95317 172.549 3.72935 172.389 3.80877C171.947 4.03621 171.449 3.8918 170.941 3.90263C171.261 3.74379 170.941 3.59216 170.866 3.44415C170.866 3.3539 170.725 3.22754 170.405 3.23837C170.086 3.2492 170.189 3.37556 170.133 3.45498C170.021 3.5707 169.961 3.69269 169.954 3.81599C169.954 3.94956 169.757 3.964 169.512 3.87375L169.033 3.93151C168.951 3.94472 168.863 3.95152 168.774 3.95152C168.685 3.95152 168.597 3.94472 168.515 3.93151C168.305 3.86594 168.115 3.79078 167.951 3.70769C167.716 3.59938 167.5 3.5705 167.641 3.41527C167.641 3.36834 167.34 3.32141 167.143 3.30335C166.945 3.2853 166.842 3.35751 166.832 3.43332C166.823 3.50913 166.832 3.55245 166.691 3.59216C166.569 3.71491 166.908 3.92429 166.24 3.95317V3.97845L166.297 3.95317C166.293 3.93878 166.293 3.92425 166.297 3.90985C165.958 3.85209 165.526 3.51996 165.356 3.95678C165.046 3.95678 164.717 4.03621 164.416 3.92068C164.32 3.95165 164.205 3.9731 164.082 3.98317C163.959 3.99323 163.832 3.99161 163.711 3.97845C163.021 3.92975 162.314 3.92975 161.624 3.97845C162.178 3.75823 161.878 3.52357 161.708 3.29613C161.708 3.23476 161.605 3.1409 161.351 3.18422C161.312 3.18823 161.276 3.19602 161.248 3.20685C161.219 3.21768 161.198 3.23118 161.186 3.24605C161.175 3.26092 161.174 3.27666 161.183 3.29175C161.192 3.30685 161.211 3.32079 161.238 3.33224C161.605 3.55245 161.191 3.64271 160.853 3.76545L160.768 3.79433V3.77628L160.392 3.50913C159.96 3.72213 160.674 3.79794 160.637 3.94956C160.414 3.97819 160.173 3.97819 159.95 3.94956C159.755 3.9036 159.547 3.86607 159.33 3.83765C158.909 3.70207 158.448 3.58576 157.957 3.49108C157.289 3.42971 156.923 3.66437 156.5 3.82321H156.349H156.189H156.124H156.076C155.832 3.89541 155.588 3.97484 155.249 3.90263C155.245 3.88773 155.232 3.87339 155.211 3.86083C155.19 3.84827 155.161 3.83785 155.127 3.83043C155.02 3.81768 154.91 3.8104 154.798 3.80877C154.298 3.79485 153.796 3.8194 153.322 3.88097L153.162 3.91346H153.087C153.037 3.91518 152.986 3.91518 152.936 3.91346C152.766 3.91294 152.602 3.89142 152.466 3.85209H152.363C152.003 3.91305 151.598 3.92076 151.225 3.87375C151.165 3.86585 151.108 3.85492 151.056 3.84126H150.793C149.645 3.84126 148.489 3.964 147.342 3.79794C146.881 3.72935 146.402 3.93151 145.856 3.79794C145.386 3.81599 144.916 3.82321 144.446 3.83043H144.004C142.576 3.81174 141.147 3.83104 139.726 3.88819C139.495 3.88821 139.264 3.8773 139.04 3.8557C138.197 3.91134 137.335 3.91134 136.492 3.8557C136.474 3.86069 136.453 3.86338 136.431 3.86338C136.409 3.86338 136.387 3.86069 136.37 3.8557H135.9C135.854 3.86273 135.804 3.86273 135.759 3.8557C135.063 3.88819 134.348 4.02538 133.775 3.71852C133.606 3.62826 133.314 3.6752 133.164 3.78711C133.013 3.89902 132.675 3.93151 132.374 3.84487C132.344 3.83893 132.315 3.83166 132.289 3.82321C131.975 3.81308 131.658 3.82038 131.349 3.84487H131.095C130.614 3.89178 130.11 3.89178 129.628 3.84487H129.365C128.583 3.86832 127.797 3.86832 127.015 3.84487H126.874C126.554 3.84487 126.234 3.84487 125.933 3.84487C124.326 3.88819 122.699 3.80516 121.082 3.86292C120.981 3.85885 120.882 3.84784 120.79 3.83043C120.786 3.82088 120.786 3.8111 120.79 3.80155V3.77628C120.565 3.7113 120.621 3.51996 120.161 3.56689C119.7 3.61382 119.559 3.63548 119.822 3.80516C119.822 3.80516 119.549 3.84126 119.446 3.80516C119.308 3.74813 119.188 3.68513 119.089 3.61743C118.807 3.46942 118.666 3.41166 118.149 3.56689C117.811 3.71723 117.337 3.81271 116.823 3.83404C115.737 3.87015 114.646 3.87015 113.56 3.83404C112.624 3.87973 111.676 3.87973 110.74 3.83404C110.11 3.88097 109.555 3.62465 108.859 3.76545C108.54 3.93512 108.022 3.79794 107.646 3.87375C107.524 3.79794 107.27 3.87375 107.167 3.82682C106.725 3.68603 106.415 3.70408 105.879 3.82682C105.732 3.85311 105.571 3.86666 105.409 3.86653H105.051C104.722 3.86653 104.374 3.83043 104.045 3.82682C103.105 3.82682 102.071 3.82682 101.084 3.82682C100.501 3.82682 100.068 3.79794 100.144 3.51996C99.8332 3.36473 99.2691 3.44776 98.9024 3.33224C98.3853 3.58855 98.4699 3.29613 98.3007 3.23476C97.8212 3.19505 97.2947 2.87375 96.8904 3.26725L96.6083 3.22754C96.3545 3.32863 96.9186 3.39 96.7024 3.48386C96.4861 3.57772 96.1194 3.53801 96.4579 3.66076C96.7964 3.7835 96.8434 3.61382 97.0314 3.5705C97.7742 3.39722 98.2067 3.44415 98.611 3.7474C98.3665 3.83404 98.0657 3.81599 97.7648 3.83765H97.5673C97.3517 3.84666 97.1342 3.84666 96.9186 3.83765C96.1126 3.72593 95.2372 3.71082 94.4082 3.79433C93.7753 3.872 93.095 3.872 92.462 3.79433C92.2078 3.75557 91.9322 3.74219 91.6609 3.75544C91.3896 3.7687 91.1315 3.80817 90.9107 3.87014L87.3943 3.85209C86.7079 3.85209 85.9182 3.9279 85.6643 3.55245C85.6643 3.51274 85.5985 3.47303 85.4669 3.48747C85.4307 3.49223 85.3981 3.50031 85.3718 3.511C85.3456 3.52169 85.3266 3.53468 85.3164 3.54884C85.2412 3.7474 85.1942 3.76184 84.6677 3.7474C84.5364 3.74729 84.406 3.75584 84.2822 3.77267C83.9907 3.71491 83.6617 3.88097 83.342 3.77267C83.2574 3.73296 83.6147 3.62465 83.2198 3.64632C82.9753 3.64632 82.9659 3.75462 82.9753 3.83404C82.7475 3.85058 82.5124 3.84468 82.2921 3.81691C82.0718 3.78913 81.8734 3.74038 81.7154 3.6752C81.5556 3.60299 81.565 3.54884 81.7154 3.50191C81.8659 3.45498 82.0351 3.45137 82.0915 3.53079C82.242 3.73657 82.4018 3.64632 82.6839 3.55967C83.2762 3.37917 83.2198 3.19866 82.6839 2.99289C82.5052 3.37195 81.8659 3.3539 81.1889 3.28891C80.7282 3.31419 80.6624 3.48747 80.4274 3.59577C80.512 3.79072 80.2299 3.84487 79.788 3.83404H79.6376C79.3179 3.80877 78.923 3.88458 78.6974 3.69325C78.4717 3.50191 78.058 3.55967 77.7572 3.66076C77.6819 3.68242 77.6255 3.71491 77.5503 3.73657C77.5157 3.75143 77.471 3.76234 77.4212 3.76807C77.3714 3.7738 77.3185 3.77414 77.2683 3.76906L77.0896 3.82321L77.1554 3.85209V3.8196C76.6947 3.8196 76.2152 3.88458 75.9332 3.64993C75.7169 3.61743 75.4537 3.51635 75.322 3.6752C75.2468 3.76906 75.228 3.85209 74.9083 3.83043C74.5887 3.80877 74.6921 3.71491 74.6357 3.64632C74.5793 3.57772 74.551 3.57411 74.504 3.53801C73.9869 3.41166 73.0749 3.51635 72.9715 3.14812C72.9715 3.14812 72.8681 3.14812 72.8305 3.14812C72.6271 3.09295 72.3805 3.06641 72.1321 3.07299C71.8837 3.07957 71.6488 3.11886 71.4672 3.18422C71.3543 3.21671 71.0723 3.18422 71.1099 3.27808C71.1475 3.37195 71.3449 3.3539 71.5424 3.33946C72.633 3.26725 72.8775 3.3178 73.4792 3.70047L72.3698 3.82321C72.3455 3.8307 72.3235 3.83917 72.304 3.84848C72.3282 3.84099 72.3503 3.83252 72.3698 3.82321C72.0877 3.78711 72.4732 3.58133 71.9655 3.59938C71.6884 3.60701 71.4107 3.58789 71.1578 3.54375C70.9049 3.49961 70.6848 3.43186 70.5176 3.34668C70.1227 3.18061 69.7184 3.09036 69.1355 3.24198C68.9944 3.27808 68.7876 3.26725 68.8064 3.36112C68.8252 3.45498 69.0602 3.46581 69.2671 3.46581C69.7471 3.46482 70.2176 3.5175 70.621 3.61743C70.1133 3.61743 70.3107 3.90263 69.803 3.87375C68.5431 3.79794 67.2832 3.90624 66.0422 3.87375C65.8435 3.89459 65.6317 3.88556 65.4498 3.84848C64.9797 3.70769 64.5096 3.79433 64.1147 3.84848L63.9737 3.87014C63.9548 3.88871 63.9548 3.90933 63.9737 3.9279H60.3821C59.7698 3.86339 59.1287 3.84985 58.5017 3.88819H58.3889C58.394 3.87624 58.394 3.86405 58.3889 3.85209C57.8247 3.87375 57.2418 3.91346 56.9974 3.62826C56.941 3.56328 56.6589 3.49108 56.6401 3.59216C56.5649 3.98928 55.8409 3.84487 55.305 3.85931H54.1109C53.3624 3.8648 52.6154 3.8865 51.8732 3.92429C51.3843 3.95678 51.3843 3.92429 51.2903 3.75823C51.1748 3.80778 51.0258 3.84412 50.8599 3.86323C50.694 3.88234 50.5176 3.88349 50.3501 3.86653C49.8424 3.82321 49.7202 4.02177 49.4099 4.08675C49.0056 4.08675 48.4697 4.19866 48.2252 4.08675C48.1697 4.05452 48.0968 4.02723 48.0115 4.00671C47.9262 3.9862 47.8305 3.97293 47.7308 3.9678C47.631 3.96267 47.5295 3.9658 47.4332 3.97697C47.3369 3.98815 47.2479 4.00712 47.1722 4.0326C46.7115 4.13729 46.3918 4.10841 46.2978 3.88819L46.514 3.63548C45.8274 3.61492 45.1369 3.6234 44.455 3.66076H43.7968C43.1168 3.69581 42.4252 3.67613 41.766 3.60299L41.5874 3.67159H41.5309C41.2395 3.6391 41.042 3.7835 41.0326 3.77989C40.1394 3.52357 39.1522 3.74018 38.212 3.71852C37.3428 3.68604 36.4674 3.68604 35.5982 3.71852C35.345 3.73255 35.0939 3.75183 34.8461 3.77628H34.7897C34.0774 3.74976 33.3586 3.77052 32.6648 3.83765C32.2135 3.77267 31.8186 3.90624 31.3767 3.88819H31.2921C31.1638 3.86593 31.0275 3.85132 30.8878 3.84487H30.4647C30.2022 3.85735 29.9416 3.87543 29.6843 3.89902H28.1518C27.9637 3.96761 27.7945 4.06148 27.503 3.97123C27.2116 3.88097 26.9671 3.91707 26.6851 3.92429C25.2371 3.96039 25.2371 3.964 24.8517 3.47664C24.8517 3.39722 24.8517 3.3178 24.8517 3.23837C25.0335 2.98383 25.1407 2.72228 25.1713 2.45859C25.153 2.41096 25.1061 2.36562 25.0343 2.32614C24.9625 2.28667 24.8678 2.25415 24.7576 2.23115H24.6824H24.626C24.3627 2.15173 23.9961 2.16617 23.6858 2.10841C23.3755 2.05065 22.849 2.01094 23.1687 1.80516L23.2157 1.77989C23.5542 1.85209 23.714 2.08675 24.3345 1.90985C24.5414 1.84848 24.7012 2.09397 25.1525 2.13729C25.0773 1.84848 25.0115 1.5705 24.9457 1.28891L24.532 1.15173L24.4474 0.992886C24.2405 0.859311 24.1183 0.693246 23.6576 0.631875C23.6362 0.558335 23.5854 0.486498 23.5072 0.418878C23.3379 0.296135 23.1781 0.321405 23.0935 0.444149C22.8114 0.444149 22.7644 0.350286 22.6422 0.281694C22.6422 0.610214 21.843 0.534402 21.3917 0.642705C21.3917 0.765449 21.5703 0.899023 21.2224 1.00372C21.0438 1.02538 21.0626 1.14451 20.8088 1.12646C20.6677 1.01455 20.207 1.03621 20.1694 0.884582C20.1793 0.877343 20.1845 0.869291 20.1845 0.861117C20.1845 0.852943 20.1793 0.84489 20.1694 0.837651C19.8215 0.769059 19.4643 0.624654 19.107 0.837651C18.6745 0.859311 18.5523 1.05065 18.1668 1.09036C17.565 0.920683 17.2266 1.00011 17.0761 1.25642C16.9253 1.70763 16.875 2.16295 16.9257 2.61743V2.78711C16.7471 2.92068 16.9257 3.0687 16.8035 3.20588C16.9949 3.34986 17.0352 3.51653 16.9163 3.67159V3.69686C16.9257 3.71473 16.9257 3.73314 16.9163 3.75101C16.9163 4.05787 16.3334 4.0687 15.6564 4.05426C14.7162 4.03621 13.8418 4.05426 12.9298 4.05426C12.9298 4.11924 12.8828 4.18783 12.9298 4.24559C12.8546 4.18783 12.9298 4.11924 12.9298 4.05426L12.0742 4.0326H11.3879H10.8237C9.28181 4.0326 7.74927 4.0326 6.20733 4.00733C6.1039 4.00733 5.98168 4.05065 5.87825 4.07592C5.86003 4.07141 5.83882 4.06901 5.81714 4.06901C5.79546 4.06901 5.77425 4.07141 5.75603 4.07592H5.6432C5.6432 4.07592 5.6432 4.05787 5.6432 4.05065C5.6432 4.04343 5.47396 3.97123 5.37054 3.97123C4.43033 4.14812 3.49013 4.00011 2.54992 3.97123C1.84476 3.93512 1.17721 4.04343 0.472057 4.02177C0.180593 4.02177 0.321624 4.15534 0.114778 4.18422L0.00195312 4.29974C0.669501 4.37917 1.29004 4.4622 0.989172 4.8196C0.989172 4.8557 1.1302 4.91707 1.21482 4.964L1.40286 5.02899C1.93878 5.06148 1.70373 5.29613 2.0422 5.39C2.0422 5.41166 2.0422 5.43332 2.0422 5.45137C2.23025 5.51996 2.33367 5.62104 2.11742 5.67159C1.95845 5.71511 1.83628 5.77561 1.76607 5.84557C1.69587 5.91552 1.68073 5.99186 1.72253 6.06509C1.90117 6.27447 1.5721 6.29252 1.25243 6.34668L0.942161 6.40083C0.942161 6.51635 1.20542 6.51274 1.42167 6.51996C1.44217 6.51342 1.46105 6.50617 1.47808 6.4983C1.45857 6.50761 1.43651 6.51608 1.41227 6.52357C1.70373 6.71852 2.13623 6.59216 2.50291 6.58494C3.03058 6.54062 3.57313 6.52844 4.11066 6.54884C4.20143 6.55892 4.28957 6.57221 4.37392 6.58855C4.66124 6.61537 4.9536 6.63348 5.24831 6.6427C5.48299 6.64993 5.7188 6.64993 5.95347 6.6427C6.21784 6.63526 6.47942 6.61711 6.73384 6.58855C6.89399 6.53969 7.03909 6.48398 7.16634 6.42249C7.20322 6.40035 7.26044 6.38435 7.32663 6.37766C7.39282 6.37097 7.46313 6.37409 7.52362 6.38639C7.75867 6.41888 7.52362 6.45137 7.52362 6.48747C7.52362 6.66076 7.93731 6.62104 8.18176 6.61743C9.79892 6.61743 11.4067 6.61743 13.0144 6.58494C13.3558 6.63035 13.7223 6.64031 14.0769 6.61382C14.4247 6.61382 14.6504 6.61382 14.735 6.67881C14.8196 6.74379 14.7914 6.80155 14.641 6.91346C14.5752 6.964 14.5188 7.01816 14.453 7.07231C14.1809 7.50786 13.9737 7.94901 13.8324 8.39361C13.7245 9.47666 13.7622 10.5611 13.9452 11.6427C14.1001 13.2205 14.4673 14.7942 15.0453 16.3575C15.3743 17.0553 15.5161 17.7642 15.4684 18.473C15.2333 19.6066 14.9889 20.7402 14.8008 21.8774C14.4624 23.8918 14.5376 25.9099 14.5376 27.9279C14.5376 30.4766 14.5376 33.0218 15.0359 35.5633C15.1724 36.3123 15.4077 37.0581 15.741 37.7979C15.7204 37.825 15.7147 37.8535 15.7244 37.8815C15.7342 37.9094 15.759 37.9363 15.7974 37.9604C15.7974 37.9604 15.7974 37.9604 15.7974 37.9893C15.8633 38.242 15.9197 38.4983 15.9761 38.7546C15.9211 39.1822 15.9557 39.6108 16.0795 40.0362C16.2205 40.6319 16.3522 41.2312 16.465 41.8413C16.512 42.0831 16.1359 42.1698 15.5248 42.0579C15.3321 42.0314 15.1273 42.0204 14.9231 42.0254C13.8136 41.9821 12.723 42.0723 11.6041 42.047C11.0212 42.047 10.269 41.9279 9.7237 42.1192C9.48865 42.0976 9.31941 42.1734 9.11257 42.1878C9.06938 42.2243 9.00879 42.2574 8.93393 42.2853C8.88049 42.3017 8.81709 42.3126 8.74967 42.317C8.68226 42.3214 8.61302 42.3192 8.54844 42.3106C8.36981 42.3106 8.19117 42.26 8.01253 42.2456L7.74927 42.3503C7.54242 42.4297 8.28519 42.5561 7.79628 42.5488C7.30737 42.5416 6.73384 42.8774 6.14151 42.6066C5.60044 42.5926 5.05707 42.6134 4.53376 42.668C4.34571 42.6896 4.2611 42.7221 4.42093 42.7907C4.42093 42.8521 4.2987 42.8774 4.18588 42.9171C3.91322 43.0109 3.73458 43.1337 4.2705 43.2059C4.56196 43.3792 4.2705 43.3756 3.93202 43.3828C3.59355 43.39 3.20806 43.473 3.33029 43.5019C3.8474 43.6247 4.04485 43.9712 4.90044 43.8629C4.94381 43.8665 4.98869 43.8665 5.03207 43.8629C5.43636 43.9568 5.76543 44.1084 6.30135 44.0904C6.50819 44.1265 6.83727 44.1481 6.89368 44.2059C7.11933 44.4261 7.55182 44.4081 8.01253 44.3972C8.14868 44.462 8.33618 44.508 8.54658 44.5282C8.75699 44.5484 8.97881 44.5417 9.17838 44.5091C9.5134 44.4727 9.86819 44.4727 10.2032 44.5091C10.5086 44.5477 10.8381 44.5477 11.1434 44.5091C13.1273 44.5886 15.1111 44.4514 17.0855 44.5091L17.2454 44.6283C17.1935 44.8013 17.2629 44.9765 17.4464 45.1358C17.6298 45.2951 17.9207 45.4327 18.289 45.5344C18.5429 45.6174 18.6369 45.5705 18.7967 45.5344C18.8956 45.5753 19.0147 45.6081 19.1471 45.6311C19.2795 45.654 19.4225 45.6665 19.5677 45.668L19.7557 45.7149C20.4327 45.8846 21.4669 45.7474 21.937 46.0759C21.937 46.0759 22.1815 46.0759 22.2003 46.0506C22.3131 45.9207 22.6986 45.964 22.8772 45.881C23.1311 45.6824 23.7046 45.5922 23.9773 45.4008C23.9773 45.3431 23.9773 45.2817 23.9773 45.2239C23.9855 45.2209 23.9921 45.2173 23.9966 45.2132C24.001 45.2092 24.0033 45.2049 24.0033 45.2005C24.0033 45.1961 24.001 45.1917 23.9966 45.1877C23.9921 45.1837 23.9855 45.18 23.9773 45.177C24.1017 45.0267 24.1433 44.8681 24.0995 44.7113C24.0995 44.5741 24.2311 44.5091 24.579 44.5055H25.9987C26.8449 44.5055 27.7005 44.5452 28.5561 44.5055C28.7454 44.5208 28.9424 44.5132 29.1202 44.4839C29.5339 44.4586 29.9476 44.5488 30.3613 44.4839H33.5204C33.7622 44.5127 34.0213 44.5127 34.2631 44.4839H36.294H38.8043H40.036C40.7882 44.5994 41.4933 44.4261 42.2267 44.4261C43.1463 44.5211 44.1087 44.5383 45.0473 44.4766C45.2006 44.482 45.3548 44.482 45.508 44.4766H48.1782C48.5406 44.5073 48.9159 44.5073 49.2783 44.4766C50.1465 44.4459 51.0214 44.4568 51.8826 44.5091C51.9444 44.5163 52.0103 44.5164 52.0721 44.5094C52.134 44.5023 52.1891 44.4884 52.2305 44.4694L52.3997 44.4117C53.3964 44.5019 54.44 44.3719 55.4178 44.4911C55.6705 44.5154 55.9376 44.5039 56.17 44.4586C56.3627 44.4891 56.579 44.4891 56.7717 44.4586C57.8142 44.4857 58.8602 44.4857 59.9026 44.4586L65.7883 44.3972C65.9426 44.3924 66.0977 44.4024 66.2396 44.4261C66.3588 44.4653 66.5105 44.4868 66.6674 44.4868C66.8243 44.4868 66.976 44.4653 67.0952 44.4261C67.1728 44.3995 67.2732 44.3847 67.3773 44.3847C67.4813 44.3847 67.5818 44.3995 67.6593 44.4261C67.7623 44.4574 67.8899 44.4745 68.0213 44.4745C68.1527 44.4745 68.2803 44.4574 68.3833 44.4261C68.9004 44.5344 69.3987 44.4261 69.897 44.4261C70.7714 44.4261 71.6458 44.4694 72.5108 44.4803C73.2941 44.4461 74.0831 44.4352 74.8707 44.4478C75.3596 44.5777 75.8109 44.3828 76.2998 44.4225C76.8828 44.3431 77.4563 44.5813 78.0298 44.4225C79.3797 44.488 80.7418 44.5086 82.1009 44.4839H84.9215C86.9994 44.4839 89.0773 44.5127 91.1457 44.4839C91.7287 44.4839 92.3492 44.5633 92.9227 44.4478C92.9629 44.4513 93.0047 44.4513 93.0449 44.4478H94.5869C95.2011 44.516 95.8531 44.516 96.4673 44.4478C96.5155 44.4613 96.5704 44.4708 96.6287 44.4758C96.6869 44.4808 96.7472 44.4811 96.8058 44.4766C97.5294 44.5416 98.2823 44.5416 99.0059 44.4766L99.2597 44.4514C99.3174 44.434 99.3709 44.4147 99.4196 44.3936C99.6452 44.3936 99.8238 44.4803 100.068 44.455L100.313 44.4875C100.957 44.5513 101.636 44.5425 102.268 44.4622H102.4C102.776 44.4369 103.133 44.5777 103.528 44.4803H104.13C104.647 44.4803 105.164 44.6644 105.681 44.4803H106.311C106.441 44.5239 106.609 44.548 106.781 44.548C106.954 44.548 107.121 44.5239 107.251 44.4803C108.079 44.4803 108.887 44.6355 109.724 44.5127C110.229 44.4413 110.768 44.4142 111.304 44.4333C111.623 44.6066 111.943 44.4333 112.244 44.4333C112.601 44.6138 113.024 44.5127 113.438 44.4803C113.607 44.4803 113.654 44.3828 113.908 44.4225L114.256 44.4658C114.447 44.5052 114.66 44.5251 114.877 44.5236C115.995 44.5626 117.121 44.553 118.233 44.4947H120.114C120.171 44.4474 120.194 44.395 120.179 44.3431C120.255 44.3431 120.255 44.3972 120.114 44.4947C120.421 44.5278 120.746 44.5278 121.054 44.4947H121.289C122.127 44.5236 122.97 44.5236 123.809 44.4947H124.41H125.67H125.83C126.469 44.5272 127.09 44.39 127.71 44.4694C128.019 44.4988 128.342 44.4988 128.651 44.4694H129.459H131.631C133.211 44.5127 134.8 44.4044 136.389 44.4694C137.049 44.4725 137.708 44.4471 138.354 44.3936H138.636C139.47 44.4506 140.32 44.4664 141.165 44.4405H141.926H142.425C143.2 44.4694 143.981 44.4694 144.756 44.4405H146.016C146.126 44.4549 146.242 44.459 146.357 44.4528C146.471 44.4465 146.58 44.4299 146.674 44.4044C147.445 44.5741 148.254 44.4514 149.044 44.4586C150.03 44.4839 151.019 44.4839 152.005 44.4586C152.56 44.5127 153.134 44.3647 153.604 44.4117C155.202 44.5741 156.81 44.3503 158.399 44.4766C158.516 44.4839 158.637 44.4808 158.75 44.4677C158.864 44.4545 158.969 44.4317 159.057 44.4008H159.123H159.189C159.917 44.4513 160.659 44.4695 161.398 44.455H161.868L164.181 44.4081C164.205 44.4226 164.236 44.4352 164.273 44.445C164.309 44.4549 164.351 44.4619 164.395 44.4656C164.438 44.4693 164.483 44.4696 164.528 44.4665C164.572 44.4635 164.614 44.4571 164.651 44.4478C164.88 44.3919 165.146 44.3622 165.417 44.3622C165.689 44.3622 165.955 44.3919 166.184 44.4478C166.291 44.4648 166.406 44.4736 166.522 44.4736C166.638 44.4736 166.753 44.4648 166.861 44.4478C167.687 44.4279 168.516 44.4279 169.343 44.4478L169.691 44.4153C169.785 44.2673 169.775 44.2673 170.123 44.3286C170.471 44.39 170.734 44.3286 170.763 44.2275C170.772 44.1939 170.772 44.1601 170.763 44.1265C170.678 43.8918 170.979 43.8088 171.552 43.8377C171.664 43.855 171.764 43.8822 171.844 43.9171C171.94 43.9595 172.004 44.011 172.031 44.0662C172.057 44.1215 172.045 44.1784 171.994 44.2312C171.881 44.3683 171.947 44.4153 172.098 44.4297H172.182H172.483V44.455L173.104 44.4297C173.367 44.4297 173.762 44.4766 173.856 44.4297C174.307 44.1878 174.693 44.3358 175.116 44.4297C175.27 44.3974 175.44 44.3781 175.615 44.3731C175.79 44.3681 175.966 44.3776 176.131 44.4008C176.555 44.4739 177.034 44.4841 177.476 44.4297C177.692 44.4514 177.861 44.4514 177.965 44.3503C178.068 44.2492 178.247 44.2095 178.425 44.2997C178.848 44.5127 179.422 44.4369 179.948 44.4442C180.464 44.5092 181.021 44.5092 181.537 44.4442C181.744 44.3756 181.951 44.4658 182.158 44.4442C183.051 44.5127 183.935 44.3647 184.828 44.4442C184.859 44.4565 184.898 44.4653 184.941 44.4694C185.063 44.4694 185.214 44.52 185.298 44.5055C185.534 44.4593 185.795 44.4351 186.06 44.4351C186.325 44.4351 186.586 44.4593 186.821 44.5055C186.906 44.5055 187.056 44.4839 187.169 44.473C187.259 44.4388 187.376 44.4168 187.501 44.4103C187.627 44.4037 187.754 44.4131 187.865 44.4369C188.386 44.5182 188.97 44.5182 189.491 44.4369H189.68C190.14 44.5019 190.45 44.4586 190.479 44.2348C190.836 44.3034 190.911 44.4622 191.344 44.4514C192.19 44.4514 193.036 44.4514 193.873 44.4514H195.923C196.12 44.4514 196.261 44.3575 196.534 44.4514C196.806 44.5452 197.295 44.4803 197.681 44.4514C197.568 44.3034 197.182 44.3792 197.004 44.2997C197.342 44.2023 197.624 44.2709 197.944 44.2997C198.264 44.3286 198.254 44.4947 198.621 44.4478H199.072H199.147H199.204C199.204 44.4478 199.204 44.4478 199.147 44.4478C199.293 44.467 199.45 44.4687 199.598 44.4525C199.746 44.4364 199.877 44.4032 199.975 44.3575C200.153 44.2673 200.247 44.2131 200.276 44.3828C200.276 44.4586 200.511 44.4333 200.652 44.4261H201.902C202.325 44.2889 202.72 44.4514 203.134 44.4261C204.488 44.3936 205.87 44.5308 207.186 44.2961C207.44 44.2528 207.374 44.3864 207.515 44.4117L207.656 44.4333C208.004 44.4803 208.371 44.4333 208.719 44.4333C209.603 44.4803 210.383 44.1806 211.276 44.3395C211.624 44.4478 211.972 44.3395 212.32 44.3395C212.493 44.3827 212.696 44.4056 212.903 44.4056C213.11 44.4056 213.312 44.3827 213.486 44.3395C213.584 44.3137 213.7 44.2999 213.819 44.2999C213.938 44.2999 214.055 44.3137 214.153 44.3395C214.618 44.4256 215.145 44.4485 215.648 44.4044C216.372 44.3178 217.115 44.4405 217.839 44.3575C218.125 44.419 218.46 44.4371 218.779 44.4081L218.948 44.1878C219.719 44.047 220.18 44.2456 220.659 44.4153C220.847 44.4442 220.97 44.3828 221.12 44.3611C221.073 44.2239 221.214 44.1662 221.571 44.1878C221.938 44.2781 221.947 44.1337 221.976 44.0723C222.079 43.8954 222.361 43.8557 222.775 43.8701C223.189 43.8846 223.113 43.9965 223.095 44.1084C223.076 44.2203 223.405 44.2925 223.32 44.4117H223.762C224.016 44.3828 224.204 44.2312 224.533 44.3503C224.862 44.4694 225.05 44.4008 225.313 44.3503C225.595 44.4586 225.934 44.39 226.254 44.3972C226.893 44.2889 227.532 44.455 228.134 44.3972H228.896H229.206C229.573 44.3683 229.949 44.5308 230.315 44.3972H230.767H235.327C236.004 44.52 235.994 44.3214 236.004 44.112C236.199 44.2072 236.449 44.2836 236.735 44.335C237.02 44.3864 237.334 44.4114 237.649 44.4081C237.855 44.4314 238.073 44.4314 238.279 44.4081C238.505 44.3214 238.674 44.2564 239.031 44.3611C239.147 44.3939 239.283 44.4151 239.426 44.4227C239.569 44.4302 239.714 44.424 239.849 44.4044H240.94H242.294C242.406 44.4044 242.641 44.4044 242.576 44.3467C242.181 44.0867 242.905 44.1481 243.14 44.029C242.632 44.408 243.271 44.39 243.845 44.39H245.312L245.509 44.3467C245.829 44.2961 245.65 44.112 245.932 44.0543C245.979 44.0507 246.027 44.0507 246.073 44.0543C246.365 44.1445 246.731 44.2023 246.891 44.3431C247.139 44.3941 247.418 44.419 247.7 44.4153C248.414 44.4153 249.138 44.4153 249.853 44.4153H250.163C251.009 44.4803 251.808 44.2745 252.664 44.3539C253.331 44.4171 254.028 44.4171 254.695 44.3539C254.883 44.3539 254.977 44.1626 255.306 44.2853C255.635 44.408 255.889 44.4622 255.814 44.6463C255.67 44.8454 255.714 45.0575 255.936 45.2456C256.108 45.3602 256.358 45.4544 256.66 45.5181C256.962 45.5817 257.303 45.6123 257.647 45.6066C257.788 45.7077 258.202 45.6499 258.305 45.7727C258.33 46.2564 258.235 46.7398 258.023 47.2167C258.023 47.2781 258.089 47.3358 258.117 47.3972C258.117 47.5813 258.117 47.7582 258.117 47.9423V48.2781C258.399 48.2781 258.747 48.3828 258.879 48.1698C259.01 47.9568 258.7 48.0001 258.428 47.9821C258.475 47.8413 258.512 47.7041 258.55 47.5669C258.738 47.5669 259.039 47.52 259.114 47.603C259.349 47.8882 260.148 47.9171 260.571 48.112C260.806 48.2528 260.994 48.0723 261.201 48.112C261.483 48.1181 261.75 48.1629 261.953 48.2384C262.068 48.2886 262.216 48.3256 262.382 48.3454C262.548 48.3651 262.725 48.3668 262.894 48.3503V48.1842C261.953 48.0362 263.147 47.9207 262.894 47.7654C262.677 47.8738 262.17 47.6535 262.01 47.8918C261.963 47.9604 261.869 48.0362 261.652 48.0109C261.551 47.9999 261.463 47.9743 261.409 47.9394C261.355 47.9045 261.338 47.8629 261.361 47.8232C261.671 47.7402 261.718 47.6716 261.361 47.5813C261.039 47.5286 260.741 47.4567 260.477 47.3683L260.421 47.3395C260.778 47.1553 261.361 47.1842 261.793 47.1626C261.953 47.2348 261.323 47.5236 262.235 47.3756C262.311 47.3756 262.489 47.4369 262.621 47.4442C262.753 47.4514 263.091 47.5308 263.185 47.4442C263.279 47.3575 263.11 47.3178 262.865 47.3503C262.8 47.3503 262.715 47.3683 262.649 47.3106C262.818 47.2131 263.157 47.3106 263.364 47.2456C263.364 47.1698 263.364 47.0976 263.364 47.0254L262.564 46.7546C263.505 46.8413 263.373 46.6066 263.373 46.4297V46.3683C263.411 46.2473 263.385 46.1245 263.298 46.0073C263.301 45.9965 263.301 45.9856 263.298 45.9748L263.382 45.5488C263.388 45.5393 263.388 45.5295 263.382 45.52V45.3864L263.213 44.964C263.213 44.9062 263.213 44.8449 263.213 44.7871C263.227 44.7283 263.227 44.6691 263.213 44.6102C263.147 44.4369 263.213 44.3575 263.777 44.3178C264.341 44.2781 264.783 44.3864 265.253 44.2961C266.25 44.4044 267.256 44.0687 268.262 44.2961C268.262 44.2961 268.347 44.2961 268.375 44.2709C269.005 43.9893 269.907 44.094 270.678 44.0326C271.205 43.9893 271.778 44.0615 272.267 43.9351H273.057C273.367 43.9351 273.791 43.9929 273.95 43.9351C274.524 43.7221 275.144 43.9351 275.709 43.8738C275.932 43.8857 276.159 43.8665 276.348 43.8196C276.594 43.8204 276.84 43.8301 277.081 43.8485C277.439 43.8846 277.862 43.946 278.21 43.8124L278.36 43.6896C278.539 43.5127 278.633 43.3286 279.3 43.3286C279.563 43.3286 279.62 43.26 279.535 43.1626C279.457 43.101 279.431 43.0316 279.46 42.964C279.676 42.7582 279.385 42.7077 278.952 42.6608C278.61 42.6176 278.25 42.5992 277.89 42.6066C277.514 42.4478 276.827 42.5597 276.489 42.3647C276.414 42.2203 276.16 42.1842 275.803 42.1878C275.396 42.2383 274.967 42.2555 274.543 42.2384C274.373 42.2384 274.204 42.2059 274.035 42.1987C274.001 42.195 273.965 42.195 273.932 42.1987H273.866C272.167 42.2486 270.463 42.2606 268.76 42.2348L268.413 42.2095C267.796 42.1171 267.12 42.0995 266.476 42.159H266.372C265.432 42.0254 264.407 42.0831 263.467 41.964C263.376 41.9111 263.323 41.8498 263.313 41.7864C263.303 41.723 263.337 41.6598 263.411 41.603C263.61 41.0045 263.669 40.4005 263.589 39.7979C263.539 38.8196 263.63 37.841 263.862 36.8665C264.069 36.2528 264.21 35.6391 264.379 35.0254C264.617 34.3034 264.78 33.5813 264.868 32.8593C264.918 32.8024 264.94 32.7424 264.934 32.6824C265.122 32.0831 265.056 31.4766 265.131 30.8774C265.225 30.1084 265.225 29.3395 265.216 28.5741C265.216 27.1517 265.112 25.733 265.141 24.3142C265.141 23.5561 265.376 22.8016 265.498 22.0434C265.498 22.0073 265.498 21.9712 265.498 21.9351C265.601 21.686 265.705 21.4405 265.78 21.1914C266.118 20.1084 266.448 19.0434 266.551 17.964C266.551 17.8557 266.654 17.751 266.664 17.6427C266.664 16.9062 266.664 16.1698 266.664 15.4333L266.805 13.6283C267.072 12.9939 267.233 12.3536 267.284 11.7113C267.444 11.1698 267.595 10.6283 267.745 10.0867C267.66 9.58855 267.914 9.09397 267.924 8.59938L267.98 8.42971L268.065 8.16978V7.97845C268.065 7.90263 268.065 7.82682 268.065 7.75101V7.00372C268.159 6.54523 268.958 6.84848 269.447 6.81599C269.571 6.79554 269.706 6.78569 269.842 6.78711C270.62 6.75835 271.404 6.75835 272.183 6.78711C273.264 6.78711 274.317 6.58494 275.389 6.76184L275.709 6.70408L275.991 6.66076C276.047 6.66076 276.122 6.7113 276.169 6.70769L279.592 6.45498C279.667 6.41888 279.808 6.37917 279.808 6.33946C279.808 6.12646 280.062 6.02899 280.607 6.01094C280.927 6.01094 280.917 5.89902 280.861 5.80516C280.804 5.7113 281.124 5.55967 280.936 5.44054ZM7.96552 4.77628C7.94139 4.7856 7.92223 4.79663 7.9091 4.80877L7.96552 4.77628ZM7.19455 4.41527C7.19455 4.34668 7.26036 4.30336 7.37318 4.29252C7.25096 4.28891 7.19455 4.33224 7.19455 4.40444V4.41527ZM258.559 47.4189C258.559 47.3575 258.456 47.3214 258.324 47.2817C258.446 47.3214 258.559 47.3575 258.559 47.4189ZM251.385 43.9243C251.32 44.0109 251.263 44.0976 251.385 44.1517C251.244 44.0976 251.301 44.0109 251.385 43.9243ZM248.988 44.029C248.943 43.9879 248.869 43.9525 248.775 43.9269C248.68 43.9013 248.568 43.8867 248.452 43.8846C248.57 43.8885 248.683 43.9056 248.777 43.9339C248.87 43.9621 248.94 44.0002 248.978 44.0434L248.988 44.029ZM236.728 6.70408C236.743 6.66523 236.786 6.62873 236.851 6.5985C236.917 6.56827 237.002 6.54544 237.099 6.53245C237.195 6.51947 237.299 6.51682 237.4 6.5248C237.5 6.53277 237.593 6.55107 237.668 6.57772C237.788 6.58947 237.911 6.59553 238.034 6.59577C237.893 6.66798 237.602 6.59577 237.574 6.70769C237.762 6.8196 238.514 6.70769 238.345 6.9279C238.175 7.14812 237.752 7.00733 237.404 6.9965C236.878 6.98205 236.615 6.85931 236.728 6.70408ZM267.124 4.22754V4.20227C267.124 4.20227 267.124 4.22032 267.124 4.22754ZM263.74 20.9387C263.918 20.7221 263.354 20.6283 263.166 20.473C263.354 20.6283 263.918 20.7221 263.749 20.9387H263.74ZM263.119 20.4008C263.042 20.4233 262.951 20.4372 262.854 20.4411C262.758 20.4449 262.661 20.4385 262.574 20.4225C262.662 20.4363 262.759 20.4405 262.854 20.4348C262.948 20.4291 263.037 20.4136 263.11 20.39L263.119 20.4008ZM261.041 46.4875L260.966 46.455H261.07C261.063 46.4554 261.057 46.4563 261.052 46.4577C261.047 46.459 261.042 46.4607 261.039 46.4627C261.035 46.4648 261.033 46.467 261.032 46.4694C261.03 46.4718 261.031 46.4743 261.032 46.4766L261.041 46.4875ZM264.943 29.2889C265.009 29.2889 265.018 29.325 265.018 29.3539C264.975 29.3316 264.946 29.3056 264.934 29.2781L264.943 29.2889ZM243.516 4.01455C243.256 4.01994 242.995 4.01994 242.735 4.01455C242.995 4.02175 243.256 4.02175 243.516 4.01455ZM220.951 3.93151C221.665 4.00372 221.985 4.10841 221.976 4.29252C221.976 4.10841 221.665 4.00372 220.951 3.93151ZM220.951 3.93151C220.526 3.96071 220.094 3.97401 219.663 3.97123C220.076 3.97264 220.488 3.95935 220.894 3.93151H220.951ZM216.795 6.4983C217.284 6.55606 217.905 6.45859 218.478 6.47303C218.704 6.47303 218.92 6.47303 219.155 6.4983C220.514 6.61452 221.925 6.60586 223.273 6.47303L224.091 6.54162C224.522 6.60815 224.981 6.64246 225.445 6.6427C226.321 6.58167 227.207 6.54188 228.096 6.52357L227.88 6.49469C227.959 6.49374 228.036 6.50402 228.096 6.52357C228.172 6.55278 228.27 6.57253 228.375 6.58025C228.481 6.58798 228.59 6.58332 228.689 6.56689C228.687 6.55886 228.691 6.55075 228.701 6.54365C228.711 6.53656 228.726 6.53081 228.745 6.52718C229.187 6.52718 229.629 6.52718 230.071 6.52718C230.879 6.52718 231.011 6.6066 230.729 6.9279C230.96 6.94064 231.194 6.94064 231.425 6.9279C231.735 6.88819 231.904 6.90263 232.027 7.02538C232.057 7.0694 232.108 7.11097 232.177 7.14812C232.214 7.16625 232.268 7.17822 232.327 7.18158C232.387 7.18494 232.447 7.17942 232.497 7.16617C232.522 7.16228 232.545 7.15609 232.562 7.14812C232.75 7.06509 232.252 6.83043 232.948 6.82682C232.948 6.82682 232.995 6.77628 232.882 6.76906H232.797C232.638 6.76906 232.478 6.76906 232.515 6.67159C232.553 6.57411 232.694 6.59216 232.835 6.58855H232.948C232.962 6.57459 232.962 6.55919 232.948 6.54523L233.098 6.51996H233.239C233.446 6.58494 233.709 6.62826 233.728 6.75101L233.945 6.79433C234.17 6.83043 234.396 6.84487 234.546 6.77267C234.697 6.70047 234.292 6.63548 234.208 6.54884C234.198 6.52008 234.198 6.49096 234.208 6.4622H234.819L235.242 6.82321L235.298 6.87014C235.985 6.97484 236.671 7.09036 237.367 7.18783C237.66 7.21559 237.969 7.20115 238.236 7.14726C238.502 7.09337 238.709 7.00376 238.815 6.89541C239.051 6.97318 239.238 7.07076 239.36 7.18061C239.411 7.15953 239.471 7.14237 239.539 7.13007C239.887 7.05787 240.319 7.13007 240.827 7.07953C240.376 6.964 240.093 6.85209 239.67 6.83765C239.247 6.82321 238.73 6.80877 239.435 6.6066C239.511 6.58494 239.492 6.51635 239.511 6.46581H241.081L241.194 6.6427C241.194 6.68242 241.241 6.71852 241.269 6.75823L241.504 6.80516L241.927 6.88458L242.162 6.90263C242.331 6.90263 242.463 6.87375 242.717 6.80877C242.547 6.74018 242.134 6.80877 242.124 6.66437C242.115 6.51996 242.51 6.57411 242.698 6.52718C242.742 6.5197 242.783 6.50999 242.82 6.4983L242.952 6.46581C243.262 6.42249 243.365 6.54884 243.582 6.58494C243.742 6.74018 244.23 6.85209 244.005 7.05787C244.127 7.05787 244.221 7.11924 244.334 7.14451C244.38 7.15952 244.438 7.16776 244.498 7.16776C244.559 7.16776 244.617 7.15952 244.663 7.14451C244.663 7.12646 244.663 7.10841 244.663 7.09036L244.465 6.96761C244.071 6.71852 244.136 6.64992 244.86 6.57411C245.49 6.60299 245.509 6.73657 245.349 6.89902L245.274 6.964C245.399 7.00917 245.547 7.04351 245.709 7.06469C245.872 7.08587 246.044 7.09339 246.214 7.08675C246.251 7.08308 246.29 7.08308 246.327 7.08675C246.525 7.08675 246.722 7.18061 246.891 7.08675C246.968 7.04646 247.01 6.99776 247.01 6.94776C247.01 6.89776 246.968 6.84906 246.891 6.80877C247.211 6.5705 247.549 6.76906 247.596 6.84126C247.622 6.91938 247.718 6.99163 247.867 7.04564C248.016 7.09965 248.21 7.13205 248.414 7.13729C248.668 7.15534 248.668 7.25642 248.734 7.36473C248.73 7.38274 248.73 7.40086 248.734 7.41888C248.781 7.38958 248.841 7.36388 248.913 7.34307C249.195 7.26364 249.58 7.24559 249.59 7.05065C249.59 6.95317 249.89 7.02538 249.994 7.07592C250.081 7.12228 250.201 7.15812 250.339 7.17923C250.477 7.20034 250.628 7.20583 250.774 7.19505H250.953H251.705L251.818 7.177C252.457 7.07592 252.354 6.76545 252.815 6.60299L253.134 6.76184C253.388 6.83043 253.303 7.12285 253.473 7.0326C253.905 6.84126 254.234 7.01455 254.582 6.9965C254.648 6.99685 254.714 6.99162 254.774 6.98116C254.834 6.97071 254.888 6.95529 254.931 6.936C254.974 6.91671 255.006 6.89402 255.023 6.86954C255.041 6.84506 255.044 6.81938 255.033 6.79433C255.033 6.70769 254.902 6.62104 255.033 6.53079C255.31 6.59883 255.624 6.64111 255.95 6.65428C256.277 6.66744 256.607 6.65111 256.914 6.6066C257.45 6.5344 257.516 6.73296 257.516 6.88458C257.516 7.51274 257.45 8.14451 257.45 8.77267C257.303 9.06494 257.381 9.36728 257.675 9.6427C257.873 9.76184 257.45 9.79794 257.375 9.88458H257.281L257.196 11.2781C257.196 11.5958 257.196 11.9171 257.13 12.2348V12.2745C257.29 12.8842 257.29 13.4986 257.13 14.1084C257.13 14.2564 257.196 14.4044 257.215 14.5525C257.175 15.2139 257.235 15.8756 257.393 16.5344C257.293 16.6357 257.267 16.7455 257.318 16.8521C257.318 17.1842 257.534 17.52 257.497 17.8377C257.497 17.9243 257.497 18.0109 257.497 18.1012C257.544 18.3251 257.525 18.5504 257.44 18.7727C257.299 19.0687 257.76 19.3611 257.563 19.6644C257.713 21.3972 258.07 23.1265 258.249 24.8629C258.226 25.9705 258.016 27.0763 257.619 28.1734C257.44 28.9496 257.309 29.7257 257.158 30.5019C257.158 30.5777 257.074 30.6608 257.29 30.7185C257.365 30.7402 257.393 30.7799 257.44 30.8088C256.5 30.9965 257.299 31.3395 256.998 31.6102C256.827 31.8989 256.77 32.1959 256.829 32.4911C256.726 33.0182 256.641 33.5416 256.575 34.0651C256.397 35.4478 256.434 36.8304 256.472 38.2131L256.162 39.9532C256.162 40.0073 256.162 40.0651 256.162 40.1192C255.941 40.62 255.846 41.1278 255.88 41.6355C255.729 41.7366 255.456 41.6788 255.25 41.7041C255.11 41.6797 254.961 41.6639 254.808 41.6571C252.326 41.6247 249.843 41.6247 247.361 41.6571C247.283 41.655 247.204 41.6612 247.134 41.6753C247.065 41.6893 247.006 41.7105 246.966 41.7366C246.91 41.7357 246.854 41.7397 246.802 41.7482C246.751 41.7568 246.705 41.7696 246.668 41.7859C246.631 41.8022 246.604 41.8215 246.589 41.8423C246.574 41.8631 246.571 41.885 246.581 41.9062C245.998 42.1012 245.265 41.9387 244.635 42.029C244.457 42.0382 244.281 42.0527 244.108 42.0723C244.221 42.029 244.447 42.0434 244.635 42.029C244.576 42.0028 244.498 41.9839 244.41 41.9749C244.323 41.9659 244.231 41.9671 244.146 41.9784C243.594 42.0579 242.986 42.0579 242.435 41.9784C242.265 41.9784 242.077 41.946 241.946 42.0182C240.123 42.0783 238.29 42.0663 236.474 41.9821C236.238 41.9546 235.989 41.9485 235.746 41.9641C235.503 41.9798 235.272 42.0168 235.073 42.0723C234.079 42.018 233.077 41.9855 232.074 41.9748C230.71 41.9748 229.338 41.9748 227.984 41.9965C226.235 42.0434 224.495 42.0362 222.747 42.0182C222.281 41.957 221.783 41.9421 221.299 41.9748C219.418 41.9748 217.463 42.0037 215.535 42.0218H211.821C211.746 42.0218 211.68 41.9857 211.615 41.9893H211.154H210.994C210.148 42.0109 209.311 41.9893 208.465 41.9893H208.183C207.694 41.9893 207.196 41.9893 206.707 41.9893C206.218 41.9893 205.597 41.899 205.052 41.9893H203.501C202.006 42.0723 200.501 41.9099 198.997 41.9893C197.795 41.9586 196.59 41.9514 195.387 41.9676C193.691 42.0169 191.99 42.0301 190.291 42.0073C187.677 41.9784 185.063 41.9784 182.449 41.9676C180.447 41.9676 178.444 42.0182 176.432 41.9676C175.319 41.9244 174.198 41.9244 173.085 41.9676C173.01 41.9676 172.906 41.9676 172.803 41.9676C172.535 41.9304 172.248 41.9181 171.966 41.9315C170.086 41.9315 168.205 41.9929 166.325 41.9676C162.479 41.9207 158.634 41.9929 154.788 41.9676C153.848 41.9676 152.842 41.9676 151.855 41.9496C151.659 41.935 151.458 41.935 151.263 41.9496H147.041C145.518 41.9496 144.004 41.9712 142.481 41.9821C142.293 41.9279 142.077 41.9532 141.879 41.9532C139.595 41.9532 137.31 41.9821 135.025 41.9748C134.527 41.9748 134.019 41.9748 133.54 41.9748C131.02 41.9496 128.5 41.9748 126.018 41.9748C125.294 41.9748 124.57 42.0073 123.856 41.9965C123.067 41.973 122.275 41.973 121.486 41.9965C121.264 42.0039 121.041 42.0039 120.819 41.9965C119.526 41.9417 118.223 41.932 116.926 41.9676H116.748C116.647 41.9617 116.544 41.9694 116.456 41.9893H112.912C112.798 41.9694 112.678 41.956 112.554 41.9496L107.496 41.9784C107.222 41.9424 106.924 41.9424 106.65 41.9784H105.869C104.067 41.9393 102.259 41.9562 100.463 42.029C99.8056 42.0235 99.1494 42.003 98.4982 41.9676C98.2401 41.953 97.9769 41.9604 97.7272 41.9893C96.8732 41.9604 96.0143 41.9604 95.1604 41.9893H95.0946C95.0378 41.9782 94.975 41.9724 94.9113 41.9724C94.8475 41.9724 94.7847 41.9782 94.7279 41.9893C92.4526 41.9893 90.1773 41.9387 87.902 41.9893C87.711 41.9697 87.51 41.9697 87.3191 41.9893C86.1532 41.9893 84.9874 42.0434 83.8215 41.9893C83.3326 41.9135 82.8813 42.0182 82.3736 41.9893C79.4777 41.9026 76.5913 41.9893 73.6955 41.9676C69.991 41.9676 66.2772 41.9171 62.5634 41.9676C62.4318 41.9676 62.2907 41.9207 62.1873 41.946C61.6326 41.946 61.0779 41.9857 60.5231 41.946C60.4491 41.9334 60.369 41.927 60.2881 41.927C60.2072 41.927 60.1271 41.9334 60.053 41.946C58.6975 41.9117 57.3375 41.9117 55.9819 41.946C55.0417 41.946 54.1015 41.9243 53.1613 41.9207C49.5039 41.9207 45.8465 41.8954 42.1891 41.9207C40.4685 41.9207 38.7479 41.8774 37.0273 41.9568C36.5478 41.9821 36.0119 41.9062 35.4948 41.9315C34.8697 41.9067 34.2395 41.9067 33.6144 41.9315C31.9502 41.9315 30.2955 41.8665 28.6313 41.9315C28.3774 41.9315 28.1706 42.0254 27.8885 41.9748C27.0791 41.8657 26.2063 41.8457 25.3688 41.9171C24.4756 41.9423 24.4756 41.9748 24.4944 41.621C24.5445 39.9219 24.5978 38.2215 24.6542 36.52C24.8422 29.7005 24.8517 22.8846 24.8234 16.0651C24.8234 14.1842 24.6918 12.3034 24.9927 10.4261C25.1901 9.21671 25.679 8.02538 26.1867 6.81599C26.309 6.52357 26.5534 6.45498 27.2022 6.50913H27.6723C28.197 6.53257 28.7271 6.53257 29.2518 6.50913C30.1644 6.58835 31.1202 6.54502 31.9596 6.38639C32.1007 6.35751 32.4109 6.28891 32.5144 6.47303C32.6178 6.65715 33.1725 6.63187 33.4546 6.57772C34.1901 6.4739 34.9989 6.47647 35.7299 6.58494C35.8709 6.58494 36.2658 6.51996 36.5666 6.51996C36.759 6.47463 36.9803 6.45064 37.206 6.45064C37.4317 6.45064 37.653 6.47463 37.8453 6.51996V6.58133C38.0052 6.58133 38.165 6.58133 38.3248 6.58133C38.6433 6.57834 38.9609 6.59541 39.265 6.63187C39.3497 6.58494 39.5189 6.55967 39.5941 6.58133C40.5343 6.83765 41.3335 6.55606 42.1985 6.52718C42.5558 6.72935 43.1387 6.66076 43.6276 6.68964C43.676 6.71346 43.7369 6.73314 43.8062 6.7474C43.9379 6.77267 44.0695 6.80155 44.0037 6.88458C43.9379 6.96761 44.0037 6.94956 44.0037 6.964C44.0332 6.97505 44.0688 6.98339 44.1079 6.98839C44.147 6.99339 44.1885 6.99493 44.2293 6.99289C44.455 6.99289 44.8875 7.01094 44.8687 6.96039C44.8687 6.87375 44.8687 6.83404 44.9439 6.8196C45.0191 6.80516 45.2166 6.8196 45.3576 6.8196H45.4892C45.5531 6.85276 45.6329 6.88094 45.7243 6.90263C45.9969 6.96762 46.326 6.98567 46.6081 7.04343C46.9653 7.11202 47.0594 6.92068 47.3696 6.93512H47.4543C47.6724 6.88994 47.9163 6.86628 48.1641 6.86628C48.4119 6.86628 48.6559 6.88994 48.874 6.93512C49 6.95758 49.1225 6.98289 49.2406 7.01094C49.3065 7.06509 49.4475 7.05426 49.5603 7.06509C49.6731 7.07592 49.8706 7.06509 49.9834 7.03621C50.0962 7.00733 50.115 7.00011 50.0868 6.95317C50.0304 6.84487 49.7108 6.77628 49.4287 6.72574C49.3065 6.70408 48.9962 6.79794 49.0714 6.66437C49.1184 6.58855 49.3629 6.5344 49.6167 6.62465C49.8706 6.71491 50.0304 6.59216 50.1903 6.52718H50.2467C50.7826 6.54523 51.3843 6.45137 51.8074 6.67881C51.8339 6.6896 51.8675 6.69748 51.9046 6.70161C51.9417 6.70574 51.9811 6.70597 52.0185 6.70228C52.0559 6.6986 52.0901 6.69113 52.1175 6.68065C52.1448 6.67017 52.1644 6.65707 52.1741 6.6427C52.428 6.37917 52.8793 6.4983 53.1143 6.61382C53.5844 6.85209 53.8289 6.97483 54.1673 6.97483H54.2896C54.6149 6.96262 54.9326 6.92968 55.2298 6.87736C55.1775 6.92591 55.1775 6.98043 55.2298 7.02899C55.2661 7.05889 55.321 7.08492 55.3896 7.1048C55.5816 7.1569 55.8174 7.17949 56.0506 7.16813C56.2838 7.15677 56.4975 7.11228 56.6495 7.04343C56.7563 6.98872 56.9014 6.94679 57.0678 6.9225C57.2342 6.89822 57.4152 6.89258 57.5897 6.90624C57.9094 6.79072 56.7905 6.75462 57.5897 6.63187L57.9094 6.75101C58.276 6.90985 58.906 6.93512 59.2257 7.13368C59.3009 7.18422 59.5171 7.08314 59.6111 7.09036C60.1659 7.1409 60.4291 6.80516 61.0309 6.93873H61.2847C61.2847 6.93873 61.3787 6.93873 61.3881 6.92068C61.5292 6.77989 61.8018 6.82321 62.0651 6.79072C62.7702 6.70047 63.3344 6.87014 63.9455 6.83043C64.1524 6.83043 64.4062 6.80155 64.5002 6.89541C64.5942 6.98928 64.378 7.01816 64.2558 7.06509C64.1335 7.11202 64.0677 7.15173 64.1241 7.18783C64.1667 7.21288 64.2295 7.23189 64.3028 7.24198C64.3462 7.23837 64.391 7.23837 64.4344 7.24198C64.5035 7.23095 64.5763 7.22366 64.6507 7.22032H64.7071C65.3934 7.11563 64.9421 6.83043 65.0173 6.57411C65.3751 6.69814 65.7053 6.83339 66.0046 6.97845C66.1926 7.08675 66.3806 7.07592 66.4277 6.97845C66.6157 6.58855 67.3679 6.52357 68.2141 6.46581H68.5149C68.5149 6.57411 68.5149 6.68242 68.75 6.75823C68.985 6.83404 69.2107 6.84487 69.2107 6.73296C69.2107 6.54884 69.5585 6.5344 69.8312 6.48386L69.9346 6.4622H70.2449C70.5458 6.7113 69.709 6.66798 69.6244 6.82321C69.6145 6.84713 69.6145 6.87149 69.6244 6.89541C69.6449 6.91786 69.6846 6.93696 69.7372 6.94956C69.737 6.97804 69.7651 7.00546 69.8158 7.02625C69.8665 7.04704 69.9358 7.05964 70.0098 7.06148C70.0143 7.07707 70.0143 7.09281 70.0098 7.10841C70.2355 7.19144 70.5082 7.17339 70.7714 7.18061C70.8859 7.16889 70.9879 7.14363 71.0629 7.10841C71.2885 6.9965 71.3637 6.81599 71.8903 6.84848C71.9843 6.84848 71.9749 6.79072 71.8903 6.75462C71.8056 6.71852 71.7962 6.67159 71.627 6.66437C71.2227 6.66437 71.2227 6.6427 71.3637 6.45498H72.1441C72.1784 6.49269 72.2225 6.52898 72.2758 6.56328C72.4074 6.64993 72.1253 6.8196 72.4544 6.83765H72.6236C72.7773 6.82973 72.9207 6.80355 73.0337 6.76276C73.1466 6.72197 73.2235 6.66863 73.2536 6.61021C73.3288 6.45498 73.639 6.51996 73.8647 6.50552C73.8647 6.57772 73.6673 6.64993 73.8647 6.74018C74.1938 6.69686 74.2032 6.48386 74.6357 6.49469C74.9459 6.46942 74.8989 6.83404 75.3878 6.59577C75.4181 6.60743 75.4435 6.62083 75.4631 6.63548C75.6878 6.75374 76.0057 6.84109 76.3697 6.88465C76.7337 6.9282 77.1246 6.92565 77.4845 6.87736H77.5973C77.729 6.80155 77.5973 6.72213 77.5973 6.64632C77.7384 6.57411 77.8418 6.49469 78.1426 6.53801C78.4435 6.58133 78.1991 6.65354 78.2273 6.7113C78.2555 6.76906 78.3025 6.89541 78.5469 6.9279C78.7914 6.96039 78.8854 6.87014 79.0452 6.82321C79.4401 6.69686 79.8538 6.58133 80.2581 6.4622H81.6402C81.6538 6.50149 81.6421 6.54147 81.606 6.57861C81.57 6.61575 81.5107 6.64892 81.4334 6.6752C81.33 6.72213 81.1325 6.77628 81.3582 6.84487C81.5838 6.91346 81.7907 6.87736 81.8283 6.81599C81.9693 6.59216 82.5334 6.60299 82.8907 6.50552V6.4983C82.9 6.48777 82.9 6.47634 82.8907 6.46581C83.8309 6.46581 84.7147 6.43332 85.6079 6.46581C86.3952 6.49724 87.177 6.54666 87.949 6.61382C88.2029 6.63187 88.3627 6.65715 88.5978 6.54162C88.8328 6.4261 89.3123 6.45137 89.6508 6.57411C89.8106 6.71852 90.1491 6.73296 90.4688 6.75823C90.6657 6.76362 90.8532 6.79267 91.0047 6.84126L91.1081 6.8196C91.1833 6.80155 91.2491 6.78711 91.2774 6.79433C91.8509 6.96039 92.3398 6.84848 92.8381 6.75462L93.0355 6.71852L94.145 6.83404C94.2488 6.84276 94.3475 6.85866 94.4365 6.88097C94.5869 6.91346 94.7279 6.94956 94.8784 6.97845C95.0244 7.00541 95.1887 7.01424 95.3485 7.00372C95.3909 6.98409 95.4258 6.9622 95.4519 6.93873C95.5177 6.87736 95.4519 6.83765 95.1698 6.84126C94.9833 6.84249 94.8 6.82239 94.6433 6.7835C94.638 6.76836 94.6421 6.75296 94.6551 6.73854C94.6682 6.72412 94.6899 6.71108 94.7185 6.70047C94.7937 6.67159 94.9348 6.66798 95.0476 6.65354C95.1097 6.65095 95.1669 6.63932 95.2074 6.62104C95.2114 6.61512 95.2114 6.60891 95.2074 6.60299C96.1476 6.65715 97.2007 6.49108 98.0845 6.77628C98.182 6.80966 98.2976 6.83432 98.4229 6.84848C98.4883 6.85921 98.5587 6.86474 98.6298 6.86474C98.7009 6.86474 98.7712 6.85921 98.8366 6.84848C99.0698 6.78826 99.2789 6.71529 99.4572 6.63187H99.5136C99.711 6.66076 99.805 6.74379 99.9555 6.80155C100.027 6.83364 100.128 6.85425 100.238 6.85931C100.642 6.81599 101.065 6.97483 101.469 6.85931C101.503 6.82586 101.558 6.79611 101.629 6.77267C101.658 6.76098 101.693 6.75197 101.732 6.74633C101.771 6.7407 101.813 6.73859 101.855 6.74018C102.278 6.74018 102.109 6.63909 102.099 6.56328C102.691 6.44415 103.237 6.65715 103.857 6.58855C104.197 6.56838 104.539 6.55632 104.882 6.55245C105.236 6.62109 105.578 6.69826 105.907 6.7835C106.019 6.80477 106.14 6.81732 106.264 6.82042C106.389 6.82351 106.513 6.8171 106.631 6.80155L106.772 6.77989C107.006 6.75315 107.245 6.73264 107.487 6.71852C107.627 6.71054 107.761 6.69049 107.878 6.65985C107.995 6.62922 108.093 6.5888 108.163 6.54162C108.165 6.53201 108.165 6.52236 108.163 6.51274H110.166C110.375 6.50189 110.587 6.50189 110.796 6.51274H111.247C111.511 6.51274 111.802 6.49108 112 6.60299C112.076 6.62795 112.172 6.64199 112.272 6.6427C112.648 6.39722 113.053 6.55606 113.457 6.61382H113.626C114.138 6.52342 114.699 6.48134 115.262 6.49108C116.005 6.49108 116.513 6.74018 117.349 6.6752C117.989 6.62826 118.628 6.57411 119.23 6.51635C120.715 6.38278 122.257 6.55967 123.752 6.42249C123.799 6.42249 123.874 6.42249 123.903 6.42249C124.467 6.64271 125.322 6.27447 125.849 6.56328L130.493 6.4983C130.539 6.50717 130.588 6.5118 130.639 6.5118C130.69 6.5118 130.74 6.50717 130.785 6.4983C131.499 6.4983 132.233 6.47664 132.938 6.4983C133.771 6.45877 134.609 6.44067 135.448 6.44415C136.012 6.59938 136.389 6.52357 136.567 6.2492C136.567 6.52718 137.009 6.52357 137.507 6.50913C139.237 6.45498 140.977 6.47664 142.716 6.48747C143.3 6.50619 143.887 6.49771 144.465 6.4622C144.549 6.46605 144.633 6.45696 144.7 6.43693C145.866 6.45859 147.022 6.47664 148.01 6.10841C148.01 6.25642 147.69 6.29613 147.821 6.39361C147.953 6.49108 148.038 6.44054 148.16 6.42249C148.821 6.36968 149.5 6.35629 150.172 6.38278C150.398 6.38278 150.811 6.38278 150.83 6.36473C151.046 6.06509 151.648 6.25642 152.024 6.19144C152.165 6.29613 151.752 6.28891 151.911 6.4261C152.852 6.4261 153.848 6.4261 154.845 6.4261C155.465 6.4261 156.302 6.50191 156.65 6.37917C156.869 6.30368 157.14 6.25426 157.43 6.23695C157.721 6.21964 158.018 6.23519 158.286 6.28169C158.495 6.30342 158.709 6.31792 158.925 6.32502C159.028 6.35794 159.159 6.37472 159.292 6.37195L159.565 6.3539L160.007 6.37556C161.144 6.44415 162.207 6.26364 163.326 6.37556C164.318 6.4027 165.314 6.4027 166.306 6.37556C167.174 6.4201 168.055 6.40666 168.91 6.33585C169.324 6.44415 169.775 6.36473 170.189 6.35751C170.86 6.31349 171.548 6.32209 172.21 6.38278C173.64 6.45859 175.106 6.38278 176.535 6.46942C176.977 6.49469 177.476 6.39 177.805 6.42971C179.121 6.58494 180.428 6.4622 181.735 6.4622C181.99 6.45262 182.247 6.47409 182.468 6.52357C182.797 6.61021 183.107 6.69686 183.408 6.50552C183.406 6.461 183.45 6.41792 183.53 6.38576C183.61 6.3536 183.72 6.335 183.836 6.33404C183.952 6.33308 184.064 6.34985 184.148 6.38066C184.232 6.41146 184.28 6.45378 184.283 6.4983C184.443 6.70408 184.678 6.59216 184.903 6.54162C185.129 6.49108 185.42 6.39361 185.843 6.49469C185.959 6.51959 186.092 6.52985 186.224 6.52402C186.356 6.51818 186.479 6.49655 186.577 6.4622C186.746 6.54162 186.981 6.52718 187.207 6.51996C187.207 6.55245 187.16 6.62826 187.207 6.61743C187.809 6.51996 188.335 6.67159 188.899 6.68964C188.922 6.67259 188.938 6.65434 188.946 6.63548C188.946 6.55606 189.003 6.45859 189.388 6.51635C190.093 6.84487 190.648 6.51635 191.268 6.45137H191.532C191.532 6.51274 191.682 6.59938 191.804 6.56689C192.658 6.41399 193.601 6.34929 194.54 6.37917C194.622 6.43104 194.749 6.47027 194.898 6.49005C195.048 6.50983 195.211 6.50892 195.358 6.48747C196.43 6.32502 197.549 6.44054 198.64 6.38639C198.768 6.37621 198.9 6.37641 199.028 6.38698C199.156 6.39755 199.277 6.41825 199.382 6.44776C199.549 6.50274 199.759 6.53472 199.979 6.53865C200.199 6.54257 200.416 6.51821 200.595 6.46942C200.84 6.42249 201.075 6.38639 201.282 6.49108C201.468 6.4573 201.672 6.43979 201.879 6.43979C202.085 6.43979 202.289 6.4573 202.476 6.49108C203.059 6.6066 203.557 6.36834 204.178 6.43332C204.971 6.46763 205.772 6.46763 206.566 6.43332C206.566 6.45498 206.566 6.47664 206.566 6.4983C207.139 6.68603 207.619 6.4983 208.117 6.42971C208.165 6.42246 208.219 6.42246 208.267 6.42971C208.418 6.53079 209.02 6.42971 208.926 6.65354C208.926 6.68964 209.029 6.72213 209.142 6.68964C209.762 6.51635 209.885 6.64993 209.979 6.80516L210.035 6.89541C210.211 6.91574 210.4 6.90996 210.566 6.8792C210.731 6.84845 210.861 6.79497 210.928 6.72935C210.948 6.70451 210.964 6.67918 210.975 6.65354L211.097 6.44415C211.765 6.44415 212.451 6.29974 213.091 6.51635C213.326 6.59577 213.42 6.38278 213.655 6.41888C213.784 6.43664 213.916 6.45111 214.05 6.4622H214.106H214.266C215.075 6.52718 215.94 6.39361 216.795 6.4983ZM125.99 44.2167C125.99 44.2167 126.046 44.2167 126.093 44.2167H125.99ZM82.618 43.899C82.6265 43.8848 82.6265 43.87 82.618 43.8557C82.6178 43.8736 82.6048 43.891 82.5804 43.9062L82.618 43.899ZM166.757 42.1445C166.874 42.1319 166.998 42.1319 167.115 42.1445H166.757ZM129.083 42.1445H128.923H129.121H129.083ZM121.204 42.4442C121.298 42.5091 121.42 42.5669 121.561 42.5488C121.42 42.5488 121.298 42.5091 121.204 42.4442ZM120.565 42.1481C120.565 42.1481 120.508 42.1156 120.499 42.1192L120.565 42.1481ZM31.7622 4.00733C32.1477 4.00733 32.5426 3.93512 32.8998 4.02899C32.5426 3.93512 32.1477 4.00372 31.7622 4.00733ZM22.1815 45.0145C22.1544 45.0543 22.1674 45.0964 22.218 45.1326C22.2686 45.1688 22.3529 45.1962 22.4541 45.2095C22.3606 45.1957 22.2828 45.1697 22.2346 45.136C22.1864 45.1023 22.1709 45.0631 22.1909 45.0254L22.1815 45.0145ZM14.0017 9.41888C13.9901 9.46202 13.9649 9.50445 13.9264 9.54523C13.9091 9.52349 13.9069 9.50037 13.9201 9.4782C13.9333 9.45603 13.9614 9.43557 14.0017 9.41888ZM15.0453 43.8557H15.2615C15.2051 43.8557 15.1581 43.8774 15.0923 43.8557H15.0453ZM55.0417 6.52357L55.1734 6.45498H55.493C55.6529 6.55967 55.7845 6.65715 56.1888 6.58855C56.2345 6.57845 56.2858 6.57259 56.3385 6.57146C56.3912 6.57032 56.4439 6.57392 56.4923 6.58199C56.5407 6.59006 56.5835 6.60236 56.6174 6.61792C56.6512 6.63348 56.6751 6.65185 56.6871 6.67159C56.7341 6.76545 56.5179 6.80155 56.3204 6.83043C55.9637 6.87057 55.5903 6.88405 55.2204 6.87014C55.1546 6.76184 54.9383 6.65354 55.0417 6.52718V6.52357ZM50.1433 4.177C50.1433 4.177 50.2091 4.1409 50.1433 4.17339V4.177ZM49.8048 4.177C49.9458 4.29252 49.7296 4.36112 49.5133 4.43332C49.739 4.37195 49.9552 4.30336 49.833 4.18783L49.8048 4.177ZM189.651 6.54162C189.708 6.55098 189.768 6.55706 189.83 6.55967C189.769 6.55822 189.709 6.55335 189.651 6.54523V6.54162ZM188.626 4.05426C188.626 4.05426 188.561 4.05426 188.495 4.05426L188.645 4.0326C188.645 4.0326 188.636 4.05426 188.626 4.05787V4.05426ZM127.278 6.4983H127.222H127.269H127.278ZM98.8178 3.83404C98.7523 3.83053 98.6859 3.83053 98.6204 3.83404C98.6828 3.83086 98.746 3.83086 98.8084 3.83404H98.8178ZM76.6947 4.03982C76.7048 4.04958 76.721 4.05825 76.7417 4.06509C76.7311 4.05724 76.7247 4.04864 76.7229 4.03982H76.6947ZM70.1791 6.87736C70.1791 6.78711 70.2637 6.68964 70.5834 6.74018C70.6328 6.74673 70.677 6.75813 70.7114 6.77323C70.7459 6.78834 70.7695 6.80663 70.78 6.82632C70.7904 6.846 70.7873 6.86639 70.771 6.88547C70.7546 6.90455 70.7256 6.92166 70.6868 6.93512C70.4141 7.06148 70.3389 6.90985 70.1791 6.87736ZM209.903 3.98928V4.00733L209.838 3.98567L209.903 3.98928ZM48.4697 4.12646C48.1993 4.13081 47.9334 4.0989 47.7175 4.03621C47.9291 4.11278 48.2072 4.15651 48.4979 4.15895L48.4697 4.12646ZM43.5806 4.03621V4.05426C43.5611 4.04495 43.539 4.03648 43.5148 4.02899L43.5806 4.03621ZM23.2251 1.75823C23.1686 1.77729 23.1228 1.80056 23.0905 1.82662C23.0582 1.85269 23.04 1.88101 23.0371 1.90985C23.0447 1.85068 23.1121 1.79498 23.2251 1.75462V1.75823ZM24.8234 1.46581C24.673 1.61743 24.2217 1.48386 23.9396 1.55606C23.7674 1.55242 23.5948 1.55242 23.4225 1.55606C23.2854 1.56315 23.1608 1.59031 23.0747 1.63187C23.0427 1.64457 23.0028 1.65395 22.9588 1.65914C22.9148 1.66434 22.8682 1.66517 22.8231 1.66156C22.7781 1.65796 22.7361 1.65004 22.7012 1.63853C22.6663 1.62703 22.6395 1.61232 22.6234 1.59577C22.5669 1.54884 22.6234 1.51635 22.7738 1.49469H22.8208C23.1311 1.49469 23.0465 1.44415 22.99 1.38639C23.3473 1.22393 23.6294 1.20227 23.9302 1.32863C24.1089 1.39 24.2311 1.38639 24.3627 1.32863C24.3935 1.33911 24.4284 1.34764 24.4662 1.3539C24.6636 1.35751 24.9081 1.38278 24.8234 1.46581ZM14.6974 26.3936C14.6974 26.473 14.6786 26.5525 14.641 26.6319C14.6008 26.5933 14.5849 26.5516 14.5947 26.5101C14.6045 26.4687 14.6397 26.4288 14.6974 26.3936ZM18.1574 45.3683H18.2326C18.2301 45.3816 18.2301 45.3948 18.2326 45.408L18.1574 45.3683ZM57.2794 44.372H57.223H57.3923C57.3546 44.3683 57.3546 44.4044 57.2794 44.372ZM94.5587 44.4586C94.5726 44.4541 94.5839 44.4486 94.592 44.4424C94.6001 44.4362 94.6047 44.4294 94.6057 44.4225C94.5994 44.4404 94.5833 44.4576 94.5587 44.473V44.4586ZM108.352 44.4333C108.352 44.2781 108.728 44.1517 108.737 43.9965C108.737 44.1517 108.342 44.2781 108.352 44.4333ZM147.163 44.3286C147.281 44.3451 147.408 44.3514 147.533 44.347C147.658 44.3426 147.779 44.3277 147.887 44.3034C147.782 44.3301 147.662 44.3475 147.537 44.3544C147.412 44.3613 147.284 44.3574 147.163 44.3431V44.3286ZM216.87 43.9532C216.865 43.9571 216.863 43.9614 216.863 43.9658C216.863 43.9702 216.865 43.9745 216.87 43.9784C216.869 43.9749 216.869 43.9712 216.87 43.9676V43.9532ZM271.553 42.2997V42.3286L271.487 42.2997H271.553ZM264.605 32.4514C264.646 32.453 264.685 32.4593 264.717 32.4696C264.749 32.48 264.772 32.4937 264.783 32.5091L264.605 32.4514ZM265.489 22.0579C265.432 22.0904 265.338 22.1192 265.319 22.1517C265.319 22.1192 265.432 22.0904 265.489 22.0579Z" fill="#333333"/>
<path d="M224.045 6.917H224.205C224.181 6.91079 224.153 6.90747 224.125 6.90747C224.096 6.90747 224.068 6.91079 224.045 6.917Z" fill="#333333"/>
<path d="M225.887 6.85925L225.728 6.88813V6.90618L225.887 6.85925Z" fill="#333333"/>
<path d="M214.369 6.55984L214.436 6.5415H214.369V6.55984Z" fill="#333333"/>
<path d="M260.619 48.6281C260.523 48.6205 260.423 48.6217 260.329 48.6316C260.234 48.6416 260.147 48.66 260.075 48.6853C260.002 48.7107 259.946 48.7423 259.912 48.7775C259.877 48.8128 259.865 48.8507 259.876 48.8881C260.308 48.8375 260.891 48.8267 261.117 48.9314C261.343 49.0361 261.615 48.9531 261.85 48.9567C261.719 48.7003 261.117 48.6534 260.619 48.6281Z" fill="#333333"/>
<path d="M95.4616 3.36107C96.0728 3.48742 96.0728 3.25277 96.3078 3.1589C96.3078 3.11197 96.3078 3.0506 96.3078 3.01811C96.054 2.86287 95.6309 2.95313 95.3676 2.96035C95.2078 2.96035 95.5368 3.03977 95.5933 3.09753C95.9035 3.19861 95.3958 3.27082 95.4616 3.36107Z" fill="#333333"/>
<path d="M94.6059 3.61014C94.4555 3.46934 94.2862 3.35021 93.8161 3.40075C93.6469 3.53433 93.3084 3.49822 93.0264 3.51266C93.4589 3.79064 94.023 3.68956 94.6059 3.61014Z" fill="#333333"/>
<path d="M61.6333 3.65715L61.6991 3.6391L61.9059 3.57412C61.8339 3.52952 61.8022 3.47703 61.8158 3.42481C61.8294 3.37258 61.8875 3.32355 61.9812 3.28531C61.8883 3.32308 61.8313 3.37177 61.8193 3.42352C61.8074 3.47527 61.8412 3.52705 61.9153 3.57051C62.141 3.46942 61.9153 3.30336 62.2444 3.2095L61.9153 3.15173C61.7085 3.177 61.2666 3.15173 61.3512 3.22394C61.5205 3.37195 61.0033 3.57412 61.6333 3.65715Z" fill="#333333"/>
<path d="M57.3556 3.49132C57.5156 3.49132 57.5439 3.44071 57.5345 3.3901C57.5398 3.36955 57.5241 3.34901 57.4908 3.33282C57.4574 3.31663 57.4089 3.30606 57.3556 3.30334C57.2426 3.30334 57.1014 3.32865 57.1108 3.38649C57.1202 3.44433 57.2049 3.48771 57.3556 3.49132Z" fill="#333333"/>
<path d="M64.2568 7.23828H63.9932C64.0347 7.24525 64.0796 7.24884 64.125 7.24884C64.1703 7.24884 64.2152 7.24525 64.2568 7.23828Z" fill="#333333"/>
<path d="M49.5615 7.05786C49.6693 7.08278 49.7935 7.09532 49.9193 7.09401L49.5615 7.05786Z" fill="#333333"/>
<path d="M163.806 3.61011C163.806 3.61011 163.721 3.63541 163.712 3.65349C163.712 3.80893 164.098 3.74748 164.249 3.81254C164.249 3.81254 164.249 3.81254 164.296 3.81254C164.294 3.76151 164.243 3.71256 164.152 3.67516C164.062 3.63776 163.938 3.61458 163.806 3.61011Z" fill="#333333"/>
<path d="M68.0648 6.88809C67.858 6.96752 67.4161 6.98196 67.4725 7.12636C67.4636 7.13815 67.4636 7.15067 67.4725 7.16246C67.5665 7.20578 67.8016 7.16246 67.9614 7.16246C68.0178 7.10831 68.14 7.1047 68.2623 7.09748C68.3845 7.09026 68.5537 7.03611 68.5443 6.97835C68.5331 6.95686 68.5071 6.93692 68.4691 6.92059C68.3845 6.88087 68.2529 6.81589 68.0648 6.88809Z" fill="#333333"/>
<path d="M52.4008 6.85926C52.0995 6.8195 51.9489 6.85926 51.9395 6.95687V6.99663C51.9819 6.99939 52.0212 7.00694 52.0524 7.01832C52.1912 7.03259 52.3373 7.03259 52.4761 7.01832C52.5146 7.0113 52.5487 7.00122 52.5763 6.98876C52.6039 6.9763 52.6243 6.96173 52.6361 6.94602C52.655 6.89541 52.5232 6.85926 52.4008 6.85926Z" fill="#333333"/>
</g>
<defs>
<clipPath id="clip0_542_1703">
<rect width="281" height="49" fill="white"/>
</clipPath>
</defs>
</svg>
