<svg width="64" height="64" viewBox="0 0 64 64" fill="none" xmlns="http://www.w3.org/2000/svg">
<path d="M13.333 34.6666H44.9597L35.2797 46.2932C34.827 46.8378 34.6093 47.5399 34.6743 48.245C34.7393 48.9502 35.0818 49.6006 35.6263 50.0532C36.1709 50.5059 36.873 50.7237 37.5781 50.6586C38.2833 50.5936 38.9337 50.2512 39.3863 49.7066L52.7197 33.7066C52.8094 33.5793 52.8896 33.4456 52.9597 33.3066C52.9597 33.1732 52.9597 33.0932 53.1463 32.9599C53.2672 32.6542 53.3305 32.3287 53.333 31.9999C53.3305 31.6711 53.2672 31.3457 53.1463 31.0399C53.1463 30.9066 53.1463 30.8266 52.9597 30.6932C52.8896 30.5542 52.8094 30.4205 52.7197 30.2932L39.3863 14.2933C39.1356 13.9922 38.8216 13.7501 38.4668 13.5842C38.1119 13.4183 37.7248 13.3326 37.333 13.3332C36.7099 13.332 36.1061 13.549 35.6263 13.9466C35.3563 14.1704 35.1331 14.4454 34.9695 14.7556C34.8059 15.0659 34.7051 15.4054 34.6729 15.7547C34.6407 16.1039 34.6777 16.4561 34.7818 16.7911C34.886 17.126 35.0551 17.4371 35.2797 17.7066L44.9597 29.3332L13.333 29.3332C12.6258 29.3332 11.9475 29.6142 11.4474 30.1143C10.9473 30.6144 10.6663 31.2927 10.6663 31.9999C10.6663 32.7072 10.9473 33.3854 11.4474 33.8855C11.9475 34.3856 12.6258 34.6666 13.333 34.6666Z" fill="#E5322E"/>
</svg>
