<svg width="130" height="59" viewBox="0 0 130 59" fill="none" xmlns="http://www.w3.org/2000/svg">
<g clip-path="url(#clip0_418_1701)">
<rect x="11" y="7" width="113" height="47" fill="#333333"/>
<path d="M55.7132 57.1223H56.3706L55.7132 57.1363L55.773 57.1642H58.6195L58.7139 57.1747L55.6377 57.2131L46.3873 57.0194L50.9826 56.7908C49.324 56.8862 47.6643 56.9624 46.0036 57.0194H45.2298L57.3614 56.4959L40.3766 56.7768L52.0709 56.9234L48.3437 57.0141H51.0455L51.2531 56.9897C46.4253 56.6893 41.5462 56.7544 36.75 57.1834C37.0943 57.1712 37.4399 57.1782 37.7817 57.2043L41.8706 57.1101C40.1344 57.1345 38.396 57.1345 36.6556 57.1101H41.9115L19.8281 57.9826L21.3032 57.843V57.8308C20.4508 57.8884 19.6016 57.9408 18.7461 57.9861L17.7742 57.7907L23.6339 57.4417V57.5202L17.9723 57.939L18.1327 57.9896L22.2751 57.6964H22.3066C21.5702 57.7297 20.8414 57.8021 20.13 57.9128C20.3086 57.9428 20.4903 57.9667 20.6742 57.9844L21.1648 57.8727L20.52 57.9146L21.1743 57.9303L21.3252 57.953H20.671L21.3252 57.9722L21.9858 57.7854C21.1701 57.6691 20.3617 57.5446 19.5607 57.412L23.6496 57.5656L23.7188 57.5778L22.8602 57.4801C24.0711 57.1764 25.3764 57.2235 26.6346 57.4138H26.8547L27.921 57.3021L26.3955 57.4103H26.3767L27.2196 57.323C26.7164 57.3562 26.2131 57.3858 25.7067 57.4138L25.7287 57.3963L26.3578 57.3056L25.5211 57.405L25.8891 57.4138C26.6721 57.3373 27.471 57.3244 28.2607 57.3754L27.8581 57.4138L32.1326 57.1328C31.6347 57.2359 31.1276 57.325 30.6134 57.3998L30.0944 57.4138L40.1029 56.9042C39.1247 57.0141 38.1465 57.1171 37.162 57.2113H37.0394C34.1456 57.09 31.2362 57.1573 28.3708 57.412H28.4652C30.6696 57.2762 32.8933 57.2651 35.1018 57.3788C34.8879 57.3928 34.6741 57.405 34.4728 57.4155L34.6112 57.3911C34.9257 56.6407 34.8471 55.5378 36.0266 54.9986C37.1432 54.4856 37.6401 55.3476 37.14 55.845C35.7246 57.241 30.6732 57.2881 28.2481 57.4155H28.2261C27.5824 57.3829 26.9397 57.3399 26.298 57.2864C30.5095 56.8159 34.8066 56.6237 39.0996 56.714C34.6906 57.1636 30.2104 57.3618 25.7287 57.3056L41.2856 56.5116C38.1043 56.9264 34.8822 57.2381 31.6357 57.4452L31.6577 57.4905C32.0162 57.4905 32.378 57.4905 32.7365 57.4748L32.79 57.4521L31.4941 57.4696L31.6262 57.5865L32.7145 57.5394L31.6262 57.5883L29.0093 57.4015C28.8998 57.3341 28.8068 57.259 28.7325 57.1782C30.1304 57.0805 31.5501 57.1832 32.8561 57.4766L33.7997 57.4085C34.7543 57.1022 35.6215 56.7187 36.3725 56.2707C36.4415 56.4297 36.4522 56.5946 36.4041 56.7559C36.356 56.9172 36.2501 57.0714 36.0926 57.2096L35.8064 57.2235C32.6364 57.0623 29.4423 57.1256 26.3012 57.412H25.1405L29.4905 57.0909L24.0648 57.412L23.7503 57.4993C21.1523 57.6057 18.5416 57.6458 15.9373 57.6179L15.9153 57.7802C16.7416 57.642 17.5147 57.4201 18.1956 57.1258C16.2499 56.7965 14.2059 56.6842 12.1815 56.7953C10.1571 56.9064 8.19235 57.2388 6.40061 57.7732V57.7244C8.73963 56.9658 11.4691 56.6635 14.1539 56.8658C11.472 57.0751 8.766 57.1748 6.05777 57.1642L6.09237 57.2043C7.75233 57.0439 9.45675 57.0995 11.0714 57.3666C10.7335 57.4553 10.3832 57.5289 10.024 57.5865L10.4392 57.6022C9.64771 57.4108 8.92684 57.1399 8.31298 56.803C10.6531 56.0491 13.8614 56.4383 15.5881 57.5656L13.5468 57.597C11.0988 57.2659 8.56495 57.1761 6.06091 57.3317L6.02946 57.2515C8.32152 56.5305 11.0318 56.3369 13.5783 56.7122C11.9647 57.6179 8.91688 57.4382 7.68076 56.3632C8.53716 56.1051 9.48617 55.9558 10.4593 55.9259C11.4324 55.896 12.4053 55.9864 13.3078 56.1905C12.5403 57.3143 9.56797 57.679 8.01417 56.8396C8.92347 56.5471 9.95433 56.3908 11.0054 56.3862C12.0565 56.3817 13.0917 56.5289 14.0092 56.8135C13.2855 57.1716 12.4363 57.4431 11.5149 57.6109H11.3891C12.4501 57.5644 13.5101 57.5406 14.5691 57.5394L14.1759 57.6057H14.7389C15.4035 57.5398 16.0617 57.4553 16.711 57.3527C15.0775 56.8497 13.2561 56.5635 11.3898 56.5166C9.5234 56.4696 7.66283 56.6632 5.95397 57.0822L6.12697 57.0211L23.8572 56.1626C19.8993 56.1905 15.9518 56.3947 12.0528 56.7733C17.1802 56.7772 22.3001 56.5554 27.3643 56.1102C22.5586 56.7388 17.6922 57.2148 12.7888 57.5359L30.5442 56.9286C24.8982 57.3131 19.1979 57.3902 13.5248 57.159C18.6658 57.2483 23.8109 57.0836 28.8992 56.6669L10.76 57.4748C12.2027 57.5411 13.6485 57.5859 15.0975 57.6092L15.0094 57.5813C15.286 57.4833 15.5507 57.3755 15.802 57.2584C12.6191 56.7552 9.23299 56.8125 6.11124 57.4225C6.57046 57.4888 7.03282 57.5446 7.49519 57.597L7.71222 57.5656C7.7199 57.3655 7.65464 57.1667 7.52035 56.981L9.98315 56.9374L9.32577 57.6127L6.98879 57.3195C7.06167 57.4725 7.16727 57.6202 7.30332 57.7593L6.712 57.7889L6.73087 57.3056C6.55363 57.3899 6.39238 57.484 6.24963 57.5865L6.13011 57.5952C6.49284 57.6508 6.86312 57.6899 7.23727 57.7122L7.22154 57.6964C6.80594 57.6375 6.40068 57.5581 6.01059 57.4591L11.0243 57.6074C11.8515 57.5376 12.6944 57.5725 13.5185 57.5045C12.6467 57.5187 11.7801 57.4254 10.9811 57.2313C10.1822 57.0373 9.47071 56.7474 8.89801 56.3824C11.6061 56.336 14.2511 56.8413 16.3336 57.8029H16.9627C17.164 57.7907 17.3716 57.7628 17.5666 57.7418C14.7328 57.4282 11.842 57.3016 8.95462 57.3649C9.15278 57.4417 9.35408 57.515 9.56167 57.583L9.4799 57.6109C9.15068 57.5644 8.82357 57.5121 8.49855 57.4539C9.87409 57.0379 11.423 56.8306 12.989 56.8526C14.5551 56.8747 16.083 57.1254 17.4187 57.5795C17.0476 57.6546 16.6701 57.7209 16.2896 57.782V57.7977C17.1451 56.0613 13.9997 55.5378 11.798 55.7123C11.1689 55.7123 10.5399 56.0613 9.6466 56.0823L27.7543 55.742L11.7194 56.365C22.1682 56.0526 32.5478 55.7036 42.9778 55.4925C35.5931 55.4614 28.212 55.6806 20.8755 56.1486L42.1474 55.4331L14.9528 55.9392C30.3649 55.8851 45.4468 55.7106 60.9534 55.5623C51.7407 55.7368 42.4934 55.9235 33.3813 56.7646C43.2451 56.5901 52.9957 56.4156 62.7305 56.1085L62.8469 56.2201L61.5415 56.2516L66.1841 56.0561L67.2598 56.0439L70.7574 55.8694L72.7012 55.7699H72.5251C65.3097 55.8781 58.0974 56.0736 50.8757 56.1015C52.4138 56.0683 53.9487 56.0282 55.4868 56.0072C53.9518 56.0526 52.4138 56.0788 50.8757 56.1015C62.4317 56.0648 74.384 55.3668 86.1727 55.3546L59.4939 55.7036C74.0694 55.5396 88.8525 55.7141 103.277 55.2551C94.5519 55.489 85.811 55.4035 77.0858 55.6652H77.4349C85.8204 55.4227 94.2216 55.3738 102.62 55.372L102.642 55.3406C97.1164 55.4104 91.589 55.4215 86.0595 55.3738L102.692 55.5657C99.5173 55.7414 96.3342 55.8578 93.1428 55.9148L91.8217 55.8589C95.3468 55.7106 98.8475 55.419 102.296 54.9864C94.3043 54.2893 86.1762 54.2177 78.1489 54.7735L96.999 54.8084C90.5058 54.6989 84.0067 54.8026 77.5356 55.119C84.614 55.5262 91.7507 55.511 98.8233 55.0736C95.7862 54.4055 92.4151 54.372 89.3369 54.9794C91.9844 55.238 94.6842 55.2897 97.3575 55.133L85.0907 55.6704H84.924C91.005 55.4052 97.1069 55.2383 103.23 55.1696L104.954 55.0859C96.2472 54.9114 87.5346 55.0527 78.8472 55.2115C87.9942 55.362 97.1493 55.2146 106.265 54.77C96.999 54.688 87.7391 54.8799 78.476 54.9602C75.834 54.9846 73.1919 54.9986 70.5498 54.9934C72.5282 54.9428 74.5161 54.8625 76.4976 54.8538C74.5255 54.948 72.5251 54.9794 70.5498 54.9934C85.7103 54.6636 101.122 54.6636 116.072 55.2761H115.632L110.813 55.2185H110.835C113.035 55.2185 115.237 55.208 117.441 55.1871C115.26 55.1557 113.078 55.1376 110.895 55.133L110.993 55.1906H118.431H118.4L116.884 55.2604L118.604 55.0736C111.829 54.9445 105.052 54.916 98.2728 54.9881C104.176 55.049 110.081 54.915 115.956 54.5868C109.745 54.3111 103.507 54.2936 97.2915 54.5344C104.734 54.9862 112.233 55.0825 119.705 54.8224C112.377 54.5594 105.037 54.4809 97.6878 54.5868C105.047 54.9498 112.451 54.92 119.8 54.4978C113.605 54.1245 107.364 54.0527 101.148 54.2831C108.493 54.7039 115.893 54.7384 123.25 54.3861C115.418 54.3314 107.589 54.4227 99.7637 54.6601C107.86 54.8422 115.97 54.5973 123.983 53.9289V53.8957C118.253 53.4701 112.435 53.5763 106.768 54.2098C112.097 54.513 117.474 54.4214 122.759 53.9376C116.867 53.7631 110.971 53.7433 105.07 53.8783C110.356 54.1051 115.666 54.0999 120.951 53.8626C117.6 53.4949 114.141 53.5654 110.848 54.0685C115.02 54.502 119.303 54.4901 123.467 54.0336C119.321 53.7508 115.124 53.7966 111.002 54.1697C115.077 54.5152 119.224 54.5117 123.297 54.1592C119.485 53.5491 115.471 53.4327 111.565 53.819C115.018 54.2714 118.605 54.3089 122.086 53.9289C119.038 53.5914 115.892 53.6433 112.886 54.0807C116.328 54.5306 119.918 54.4982 123.332 53.9865C120.293 53.4206 116.982 53.5141 114.062 54.2482C117.308 54.6058 120.626 54.7203 123.926 54.5885L123.91 54.4786C120.714 54.3244 117.498 54.3413 114.308 54.5292C116.237 54.7633 118.214 54.8554 120.186 54.8032L116.884 54.8293C117.599 55.0072 118.384 55.0825 119.165 55.0483C119.947 55.0142 120.7 54.8717 121.356 54.6339C119.151 54.1696 116.741 54.0947 114.456 54.4193C116.226 54.6269 118.055 54.6269 119.825 54.4193C112.221 54.1982 104.613 54.1336 96.999 54.2255C102.258 54.2922 107.52 54.199 112.76 53.9463L85.6411 53.6619L99.9178 53.4507L84.4113 53.3984L110.401 55.0719C111.158 54.9761 111.938 54.9496 112.71 54.9934H108.039L110.87 54.9812C107.839 55.1666 104.772 54.9789 101.887 54.4315L95.2218 56.0561C96.5764 55.9665 97.931 55.8665 99.2856 55.756C94.3663 55.614 89.4386 55.5855 84.5025 55.6704H83.7413L96.2032 55.2028C94.1356 55.468 92.0534 55.6809 89.9565 55.8415L89.8685 55.8502C94.1273 55.8362 98.386 55.7943 102.642 55.66L102.755 55.6181C100.436 55.6286 98.1166 55.6175 95.7974 55.5849C98.0495 55.4942 100.304 55.4314 102.56 55.3965L102.73 55.4488C92.6301 55.5361 82.565 55.5361 72.4087 55.5902C74.1386 55.578 75.8686 55.5466 77.6048 55.5588C75.878 55.5989 74.1449 55.5972 72.4087 55.5902C82.8795 55.5361 92.9446 55.1871 103.296 55.2796V55.2516C102.038 55.2743 100.78 55.3075 99.5215 55.3127C100.799 55.2726 102.082 55.2621 103.362 55.2464L103.343 55.222C93.9658 55.2022 84.5916 55.0975 75.2206 54.9079C77.9571 54.8578 80.6956 54.8206 83.4362 54.7962C93.1113 54.7089 102.786 54.7793 112.461 55.0073L105.218 54.9689L79.6933 54.852L103.356 55.1434L103.422 55.1749C100.035 55.1679 96.6562 55.3579 93.3409 55.742C96.3353 55.9072 99.3401 55.9944 102.355 56.0038L102.598 55.5727C98.364 55.5657 94.1325 55.6146 89.9031 55.7193L89.2237 55.6704C91.6729 55.5541 94.1262 55.4558 96.5838 55.3755L87.4403 55.667H86.2828L90.4189 55.5361C82.4864 55.3034 74.5475 55.2836 66.6024 55.4767C74.2623 55.6303 81.9254 55.6303 89.5917 55.4767C84.75 55.4151 79.9103 55.4773 75.0728 55.6635H78.7811C66.5143 55.7036 54.2475 55.5291 42.3801 56.3475C44.0246 56.3755 45.6699 56.3095 47.29 56.1503C45.6639 56.1364 44 56.2707 42.3801 56.3475C48.1141 56.4819 53.8512 56.4138 59.582 56.2882L58.8712 56.8257C42.6097 56.7506 26.5685 56.7506 10.2505 56.1992C11.0978 55.6339 12.2199 55.2155 13.4834 54.9937C14.7469 54.7719 16.0986 54.756 17.3778 54.948C15.5598 55.3546 13.6726 55.5291 11.7854 55.7036C10.2128 56.0526 7.69649 56.4016 7.06742 55.1801C5.49475 51.1665 6.75289 47.3274 6.83467 43.5459V55.8484L6.45408 44.7639C6.65807 47.8758 6.54675 50.9915 6.12067 54.0964C5.25762 51.2843 5.28529 48.4101 6.20245 45.6033L6.04204 53.7474L6.13955 45.181C5.83178 48.4296 6.06976 51.6872 6.85039 54.9114L6.83467 44.4987C7.61173 48.3479 7.37545 52.2394 6.13326 56.0509C5.28526 52.0684 5.52811 48.0377 6.85354 44.0956C6.6469 46.9339 6.75194 49.7766 7.16807 52.6079L6.88499 38.6964C6.74974 44.3678 6.74974 49.7774 6.77805 55.3843C6.68054 54.6304 6.59877 53.8748 6.62393 53.1157C6.74345 53.8678 6.73716 54.6252 6.77805 55.3843C6.12067 49.2539 5.49161 42.9718 5.44443 36.796C5.50104 37.618 5.54508 38.4416 5.50104 39.2635C5.43499 38.4416 5.45701 37.618 5.44443 36.796C5.80614 42.7972 6.43521 48.7304 6.72772 54.6985C6.50259 53.9016 6.4246 53.0942 6.49497 52.2886C6.70885 53.086 6.67111 53.8957 6.72772 54.6985C5.18451 48.4167 4.54817 42.0765 4.82479 35.7385C4.95219 36.5847 4.94588 37.4355 4.80592 38.2811C4.67382 37.4347 4.80592 36.5849 4.82479 35.7385C5.4979 42.2737 5.81243 48.5559 6.42263 54.9812C6.39746 54.1278 6.36601 53.2728 6.29681 52.4212C6.31569 53.2745 6.37545 54.1278 6.42263 54.9812C6.12697 48.7304 6.12697 42.4482 5.87534 36.0945C6.05871 36.9293 6.10083 37.7718 6.00115 38.6109C5.82816 37.775 5.89736 36.9339 5.87534 36.0945C6.75603 42.2737 7.3851 48.3814 6.75603 54.4768C6.64104 53.6512 6.69591 52.8211 6.91959 52.0024C7.02968 52.826 6.84725 53.6479 6.77176 54.4699C6.77176 48.1999 5.51362 41.9177 6.34399 35.564C6.82838 40.5304 7.09154 45.5009 7.13347 50.4754C5.66068 45.5339 5.50807 40.4989 6.68054 35.5326C7.08629 40.8707 7.40083 46.4549 6.74345 51.7807L6.46037 36.9967C6.14584 42.7903 5.8313 48.5489 5.27143 54.3512L5.32176 53.7788C5.46015 53.9882 5.60798 54.1941 5.76525 54.4001C5.65516 53.7858 5.49475 53.1785 5.2903 52.5712L5.26829 51.6778C5.3249 50.4842 5.38991 49.2906 5.4633 48.0969C5.71807 43.949 6.07035 39.8045 6.42577 35.6583C5.50811 40.7466 5.05356 45.8573 5.06384 50.971L4.98521 50.999C5.19909 43.4953 5.19909 36.1661 5.2274 28.72C5.21167 30.3638 5.089 33.5974 5.2274 28.72C4.88456 34.9376 5.19909 41.2197 4.6864 47.4967L4.72414 47.4844C4.66963 47.125 4.6214 46.7643 4.57946 46.4025L7.17436 42.5791L6.79063 39.4782L8.01102 49.8664C7.04016 45.7679 6.41843 41.6519 6.14584 37.5185C6.15253 42.5828 6.98843 47.6362 8.64324 52.6166L6.17729 37.4609C6.38698 41.4954 6.89023 45.5201 7.68705 49.5349C7.91352 50.6726 8.162 51.8087 8.4325 52.9429C7.35679 48.6536 6.65853 44.3329 6.35028 40.0052C6.4415 45.5893 6.75603 51.1735 9.43272 56.4278C8.92946 55.2377 8.51742 51.8401 9.43272 56.4278C8.01417 50.4807 7.3851 44.722 5.89736 38.7226C6.03191 43.6089 7.00614 48.4769 8.80679 53.2605C7.94287 49.1248 7.29179 44.9774 6.85354 40.8184C6.46774 45.5057 7.14724 50.2013 8.87599 54.7944C8.45661 50.782 7.7919 46.78 6.88185 42.7885C6.54677 46.7891 7.10031 50.7973 8.53 54.7229C8.46704 50.6813 7.82865 46.6487 6.62078 42.6629C5.71812 46.3085 5.87528 50.0108 7.08629 53.6287C7.35376 49.6267 7.21199 45.6195 6.66167 41.6263C5.99251 46.2991 6.40688 51.0003 7.89465 55.6146C7.85441 50.8346 7.22387 46.0618 6.00744 41.3297C5.42051 45.7309 5.99054 50.1561 7.69963 54.4664C7.33897 50.1259 6.7099 45.7976 5.81243 41.4815C4.85651 45.6938 5.46885 49.9701 7.61157 54.0458L5.61428 40.5287C4.91661 42.8195 4.63422 45.1432 4.77132 47.4652L4.72729 47.4495C3.92523 42.2737 5.18336 37.0386 5.51677 31.7267C5.4633 32.9011 4.82794 35.7839 5.51677 31.7267C5.4979 37.0386 4.86883 42.2737 4.78076 47.5246L4.8185 47.4932C4.71366 46.6881 4.62559 45.8842 4.5543 45.0815V44.4219L4.6518 47.4652L4.73987 47.4146C4.67277 46.0058 4.61196 44.597 4.55744 43.1881V43.0712C6.13011 35.8136 8.33185 28.3099 5.48532 20.965C6.11438 22.5355 5.20538 24.1619 5.48532 20.965C5.20433 24.1619 5.00827 27.3612 4.89714 30.5627V30.8995C5.81243 24.1253 7.07057 17.1451 6.539 10.2958C6.61135 11.814 5.57339 14.5851 6.539 10.2958C5.81243 15.9305 4.5543 21.3402 4.45364 26.8929L4.47881 26.9034L5.03239 13.0233L4.56688 28.4949L4.78705 28.4216L4.62978 25.9785C4.60252 26.502 4.57526 27.0255 4.54801 27.549V27.2838C4.64237 27.6764 4.73043 28.0726 4.81536 28.4669L4.76189 28.4896C4.69898 28.0499 4.63293 27.6171 4.56059 27.1686L4.5197 26.9295C4.41905 26.3293 4.3142 25.7295 4.20516 25.1304V25.3328C4.46623 21.3716 4.35299 17.4051 4.49453 13.4421L4.63293 13.4613C4.41905 17.9321 4.23033 22.4029 4.2146 26.8755L4.33727 26.8475C4.86883 22.2755 4.81536 17.6913 4.90657 13.1105H4.92859C4.84367 18.2183 4.9915 23.3278 4.63922 28.4338L4.66753 28.4739C4.74721 27.1814 4.86044 25.8889 5.00722 24.5964C5.74009 26.5474 5.89421 28.5455 5.91308 30.5296C5.9697 37.8378 5.71493 45.1531 5.59855 52.4631C5.70549 45.1531 5.52935 51.1839 5.59855 52.4631C5.48532 46.6265 5.17078 40.8602 4.65495 35.1644H4.8531L4.79334 47.2279L4.52913 36.9967L4.2146 37.6947C4.2146 38.4986 4.22508 39.3042 4.24605 40.1116V40.1256C4.22718 39.883 4.20831 39.6387 4.19258 39.3962V39.4066C4.19258 38.8447 4.22404 38.2828 4.25549 37.7209L4.29009 37.7349L4.22089 40.0488L4.40646 40.1378L4.32783 37.6947L4.36872 37.7296C4.38759 38.494 4.40856 39.2589 4.43163 40.0244L4.35928 40.0418C4.30267 39.6387 4.25234 39.2356 4.20202 38.8342L4.89714 34.6217C5.79985 40.8515 4.85625 47.3082 7.68705 53.3583C7.37252 52.0198 5.45072 48.6938 7.68705 53.3583C6.1265 47.3295 5.17094 41.2573 4.82479 35.1697L4.79334 35.1592C4.74721 40.3455 4.92335 45.5312 5.32176 50.7163C5.16449 49.8752 5.02505 49.0329 4.90343 48.1894L4.92859 48.713C5.69056 48.2297 6.11174 47.6099 6.11438 46.9679C6.11438 33.5311 6.11438 20.1163 6.11438 6.72366C6.11438 10.0392 6.08922 12.3462 6.11438 6.72366C6.11438 15.9061 6.11438 24.9803 6.16471 34.2727L6.19616 51.9483C5.57968 49.0899 5.02924 46.2268 4.54486 43.3592V43.7745C4.86778 47.4612 5.27668 51.1461 5.77154 54.8293C6.12697 48.0603 6.47924 41.2791 5.77154 34.5135C5.57024 32.6079 5.28716 30.7058 4.89399 28.809V31.2642C5.79356 24.1096 5.79356 16.7804 5.67404 9.7042H5.87534L5.59226 11.0287V11.6883C5.86777 9.53382 6.48668 7.3971 7.44172 5.30319L7.58011 5.31715C6.73402 13.641 7.67762 21.8427 6.5736 30.2905C6.17729 35.6862 5.94454 41.0836 5.5325 46.4793L5.72436 42.0905L6.41634 26.3642V31.4702L6.3723 49.3429C6.26326 47.9667 6.18358 46.5892 6.13326 45.2106C5.96341 40.385 6.1731 35.5629 6.76232 30.7442C6.55263 31.9878 6.3723 33.2327 6.22133 34.4786C5.68242 38.8994 5.50104 43.3277 5.67718 47.7636C5.06699 43.7954 4.80068 39.8167 4.87827 35.8275L5.04811 39.4817L5.66146 52.2816C5.37418 51.1275 5.13094 49.9711 4.93174 48.8124V48.8787C5.12077 50.2905 5.46636 51.6944 5.96655 53.0825C6.43807 48.5374 6.2656 43.9787 5.45072 39.4485C5.21796 38.1514 4.93174 36.8583 4.59204 35.5693V35.3948C4.90657 40.8777 4.90657 46.2873 5.77469 51.6516C5.83445 45.8773 5.65516 50.458 5.77469 51.6516C5.85018 44.3678 5.85018 36.8641 4.94746 29.4564V29.2452C6.79692 38.0856 7.42599 46.9854 7.24985 55.9043C7.17122 48.9677 7.1492 53.9987 7.24985 55.9043C6.79692 47.3344 6.48239 38.6091 5.88477 29.9886C6.23705 36.721 5.88477 31.7337 5.88477 29.9886C5.85332 37.9111 5.85332 45.9383 5.84388 53.8539C6.02946 51.786 5.84388 47.6432 5.84388 53.8539C6.47295 44.3678 6.15842 35.119 5.70864 25.7307C6.08608 33.0337 5.76525 27.7637 5.70864 25.7307C5.85332 34.9445 6.16785 44.1933 6.47924 53.4193C6.36601 51.7109 6.27794 46.2228 6.47924 53.4193C5.85018 45.5893 5.53564 37.9111 4.94432 30.0078V29.9363L4.99779 19.4573C5.07328 23.785 5.18651 28.1127 5.22111 32.4421C5.22111 39.1327 5.85018 45.9383 5.57024 52.498C5.61427 51.6254 5.74009 50.7389 5.65202 49.8699C5.53668 50.7444 5.50938 51.6218 5.57024 52.498C6.16785 41.0522 6.48239 29.7094 7.27187 18.2427C7.27187 19.1641 7.31276 20.0942 7.2184 21.0138C7.14606 20.0925 7.2184 19.1623 7.27187 18.2427C6.79692 22.5547 6.79692 27.0918 7.11146 31.4544C7.11146 39.1326 6.79692 46.8109 6.9825 54.5379C7.08 51.8837 6.86297 54.4001 6.9825 54.5379C6.86297 54.4001 5.74009 52.9203 6.37545 52.8156C7.01081 52.7109 6.9825 54.4088 6.9825 54.5379C5.34063 52.6027 5.26829 50.4109 5.4979 48.3151C6.79692 38.6091 8.05506 29.0114 6.08922 19.1728C6.63022 21.8009 5.28716 23.7099 6.08922 19.1728C3.96612 30.7582 5.53879 42.45 7.41026 54.0388C7.35679 52.9377 7.44801 51.7825 7.17436 50.6901C7.02024 51.786 7.253 52.9464 7.41026 54.0388C6.4415 40.1797 5.81243 26.5683 5.34692 12.7388C5.36579 13.338 5.39829 13.9365 5.44443 14.5345C5.44443 13.9063 5.46644 13.2781 5.51048 12.6498L5.11417 13.0529C5.00722 16.4715 4.57317 19.8831 4.07935 23.2911L4.19887 23.2458L4.02588 16.4244L4.20516 23.4883L4.29323 26.8999H4.26492C4.45365 22.4291 4.64761 17.9577 4.84681 13.4857L4.78391 13.4316C4.62035 17.9234 4.29952 22.4151 4.46937 26.9086V26.9243C4.39074 26.6102 4.30896 26.2943 4.22404 25.9802L10.0649 5.14788L9.59313 6.08497L9.612 5.13392L9.63402 5.16534L9.90452 5.7255L9.27545 5.26131H9.31948C9.31948 5.5126 9.22827 5.59462 9.63402 5.70281C9.98251 5.76154 10.3574 5.74916 10.6909 5.66791C11.2948 5.4934 11.1564 5.08855 10.9582 4.75001L10.9173 4.7727C10.5263 5.63858 10.3236 6.52731 10.3134 7.41993L10.2977 4.90183L10.2128 4.97862C13.2984 5.07692 16.3942 4.9815 19.4412 4.69417H18.4001L6.41634 5.61032C10.3761 5.23469 14.4158 5.19527 18.3969 5.4934C16.6302 5.86924 14.7083 5.96117 12.8517 5.75865C15.6518 5.37878 18.5395 5.2364 21.4165 5.33635L9.39497 6.20887C12.0465 5.81973 13.8456 7.0814 16.2738 7.3798L8.95462 7.10234C13.1592 6.5259 17.4939 6.29658 21.8191 6.42177L15.802 5.95061L19.4758 5.89825C18.722 5.30547 17.6182 4.87765 16.3556 4.68894H13.7827L11.8389 4.83901L13.789 4.68545L14.6697 4.73431C14.0343 5.65046 10.3543 6.28216 9.7504 5.06936L9.80072 5.13567C9.57426 5.62777 10.5179 6.5003 11.4615 6.32579C12.4051 5.97678 12.0905 5.10426 12.1471 4.52316V4.48651C12.1377 5.14289 11.867 5.79002 11.3545 6.38163L11.8389 4.58773C11.575 5.14535 11.1906 5.68324 10.694 6.18968C10.6474 5.72469 10.6474 5.25863 10.694 4.79364L10.6657 4.75001V5.47421C10.9584 5.18991 11.2158 4.8949 11.4363 4.59121L11.5181 4.49873C11.993 4.76746 12.7762 4.92975 13.4053 4.69941L13.2103 4.71162C12.6281 5.00667 11.9199 5.21442 11.1526 5.31519C10.3854 5.41596 9.58444 5.40643 8.82567 5.28749L9.02068 5.33809L8.88857 5.93316L8.97035 5.3346V5.32239L8.85712 5.79704L8.92946 5.32064V7.21925L8.89801 5.28749L8.87914 5.30145L8.8351 6.7289L9.57426 5.09728L9.55224 5.15137C11.6384 4.80259 13.8805 4.87871 15.8744 5.36602C14.0633 5.51408 12.2136 5.3699 10.5462 4.95069C11.7456 4.83436 12.9492 4.74652 14.157 4.68719H14.2671C13.4021 5.05191 12.0402 4.90358 11.2979 4.51269L11.3168 4.49873L11.3954 5.77959L11.1595 4.71162L11.0463 4.78317L10.8733 5.75342L10.4581 4.93848L10.694 4.68196C11.2948 6.06229 14.4307 5.96806 15.1887 4.68196H15.2076L11.7823 5.00305C14.7409 5.03022 17.6987 4.92518 20.627 4.68894L22.6809 5.10251C22.346 5.26105 22.0593 5.44841 21.8316 5.65744C22.0415 5.72639 22.2803 5.76365 22.5242 5.76548C22.7682 5.76732 23.0087 5.73368 23.2219 5.66791C23.5364 5.57542 24.3857 5.11473 23.571 5.09204L25.0399 5.07459C24.4072 5.17697 23.735 5.17697 23.1024 5.07459L23.1244 5.08332C24.7303 5.38349 26.4692 5.38349 28.0751 5.08332H28.3897C29.0409 5.27081 29.7682 5.36208 30.5014 5.34832C31.2347 5.33457 31.9492 5.21626 32.5761 5.00479C32.5327 4.96295 32.4843 4.92273 32.4314 4.88438L32.5415 4.8076C33.0442 4.73319 33.5321 4.63088 33.9978 4.50222H33.9695C33.4031 4.6671 32.8846 4.87828 32.4314 5.12869C33.4232 5.34346 34.4958 5.41779 35.5524 5.34498C36.6089 5.27216 37.6161 5.05449 38.4831 4.71162L38.5743 4.70115C36.5982 5.18691 34.3939 5.3092 32.2836 5.05016H32.1798C33.6182 5.06336 35.0497 4.93758 36.4103 4.67847L36.3474 4.50396C32.3967 5.29495 28.1826 5.59865 23.9988 5.39394C24.4895 5.27644 24.9822 5.16534 25.4771 5.06063H25.6627C25.0012 5.10339 24.3331 5.10339 23.6717 5.06063H23.7188C23.8859 5.18722 24.1027 5.29104 24.3529 5.36421C24.603 5.43739 24.8799 5.47799 25.1626 5.48293C25.5652 5.48293 26.6157 5.35904 26.4207 5.08855H26.2697C27.3649 5.25996 28.5253 5.25572 29.6164 5.07634H30.0347C29.2432 5.16794 28.4262 5.16794 27.6348 5.07634H27.7386C25.9615 5.46025 23.7597 5.63475 21.7624 4.90183L21.8316 4.88089C21.5643 5.63126 23.137 5.98027 24.0806 5.98027C25.0242 5.80577 25.9678 5.80577 26.5654 5.13567L26.8422 5.09204C26.0818 5.26729 25.256 5.33736 24.436 5.29621C24.4737 5.24037 24.5115 5.18628 24.5555 5.13218V5.10077C24.4045 5.58764 26.7887 5.195 27.2165 5.08855L27.3045 5.09728C26.9145 5.25782 24.3888 5.59287 24.6593 5.11996L24.5775 5.06063C24.4002 5.32691 24.099 5.56241 23.7046 5.74323C23.3102 5.92406 22.8365 6.04377 22.3318 6.09021C22.3095 5.92236 22.3797 5.75473 22.5331 5.60951C22.6864 5.46429 22.9157 5.34834 23.1904 5.27702C23.8195 5.12694 23.9988 5.35729 23.5616 5.62603C22.6589 6.17048 21.5863 5.48293 21.9008 4.92801L21.6461 4.84599C21.0525 4.79809 20.4529 4.77708 19.8532 4.78317C20.4587 4.84554 21.0833 4.81662 21.6618 4.69941H21.1868C20.9748 4.75877 20.7412 4.79071 20.5037 4.79283C20.2662 4.79494 20.0309 4.76718 19.8155 4.71162L20.1835 4.6837C16.9322 5.00264 13.6171 5.07076 10.3323 4.88613C10.7196 4.96638 11.1366 4.99243 11.5464 4.962C11.9562 4.93156 12.3462 4.84557 12.6819 4.71162L12.2038 4.60169C11.6565 4.63833 11.1123 4.6837 10.5682 4.7378L10.521 4.80237C12.3893 4.80237 14.2566 4.76339 16.1229 4.68545L16.0631 4.69417C12.9035 5.17001 9.63567 5.38753 6.36287 5.33984H6.40061C6.29981 5.63013 6.16426 5.91637 5.99486 6.19666L5.95712 6.08846L5.97913 6.01168C6.06031 6.2354 6.16534 6.45624 6.29367 6.67305C6.53365 6.23065 6.61382 5.76632 6.52957 5.30668L6.62393 5.29796L6.18044 7.6625C6.57075 6.88218 6.80595 6.0805 6.88185 5.27178L5.96341 5.7953L6.10495 6.51949L6.12382 5.67489L6.25907 5.68536L5.78727 13.7859L6.39432 5.55099C6.05587 7.94444 6.10113 10.3498 6.52957 12.7388L6.79692 5.35729L6.72143 5.30145L6.51699 7.0622L6.83152 5.36951L6.86297 5.35555C7.00137 8.6595 7.07266 11.9635 7.07686 15.2674L7.41341 6.31707L6.52328 16.5954C5.60081 12.827 5.81339 8.99976 7.15235 5.27004H7.11146C7.12289 5.76002 7.26059 6.24658 7.52035 6.71494L5.97599 9.35693L6.79378 5.50213L6.81579 6.69051L6.97935 5.36253L7.02024 5.31192L5.66146 11.3027L7.23412 5.30145L7.12404 5.33286L6.95419 8.09178L7.89779 5.28749L8.19031 5.30843C8.85397 6.39734 11.2224 6.87897 13.1316 6.90864C15.9247 6.94005 18.7178 6.14256 21.4731 6.72017L11.364 6.48808L21.58 5.61556L14.3678 6.3415L35.3566 5.37649L15.412 6.73762L37.0582 5.73771C29.3657 6.01981 21.6492 6.03846 13.9526 5.79355C22.3851 6.35163 30.9137 6.28885 39.3166 5.60683C34.0157 5.4695 28.704 5.67092 23.4861 6.20713C32.8498 5.97678 42.2858 5.45327 51.7375 6.11464L42.4619 6.4113C47.005 6.60677 51.5698 6.58575 56.1064 6.34848L55.7352 5.20024C53.9988 5.19745 52.2651 5.12278 50.5486 4.97687C52.3184 4.82447 54.1007 4.70406 55.8957 4.61565L55.7352 4.60518C52.4641 4.57376 49.1898 4.55631 45.9124 4.55282V4.53537C49.2086 4.30242 52.5444 4.2989 55.8422 4.5249H55.7478C53.7914 4.51676 51.835 4.47953 49.8786 4.41322C51.8476 4.36436 53.8166 4.34516 55.7856 4.35563L55.7573 4.34167C53.4014 4.37649 51.0511 4.48661 48.718 4.67149C51.0843 4.8941 53.4799 5.00733 55.8799 5.01003H55.8359C51.7561 5.04674 47.6757 4.95936 43.6131 4.74827L44.0283 4.70639H43.0847C42.0436 4.88438 40.9301 4.88438 39.889 4.70639L40.2728 4.74652C41.1409 5.73771 43.6383 6.21934 45.3682 5.63126C43.6038 4.97216 41.4565 4.70611 39.3543 4.88613C43.5952 5.24709 47.8856 5.39776 52.1747 5.33635L37.9798 5.75691C43.222 5.71386 48.4643 5.73771 53.7065 5.82845L39.0429 5.75865C44.6144 6.03954 50.2176 6.07105 55.7982 5.85288V5.78832L54.2632 5.83718C54.7979 5.76156 55.3379 5.70339 55.8831 5.66267H55.7793C50.8962 5.50359 46.0011 5.49194 41.1157 5.62777C45.8075 5.99963 50.5888 5.80378 55.1313 5.05365C49.5803 4.72339 43.9886 4.65626 38.417 4.85297C44.1933 5.04522 49.9854 5.0394 55.7604 4.83552L55.7038 4.8076C52.0468 4.82854 48.3888 4.81167 44.7297 4.75699L55.8453 4.85472H55.8957L53.4863 4.80935L55.8831 4.77444V4.45336L55.2383 4.42718L55.8674 4.37308L35.7686 4.51443C34.6547 4.78318 33.4668 4.94543 32.2553 4.99432L32.1892 4.91928C33.0904 4.8423 33.9741 4.71184 34.825 4.53014L32.6233 4.51094C33.7907 4.64376 34.9945 4.64376 36.1618 4.51094L36.1083 4.52141C34.9663 4.66045 33.7986 4.7243 32.6296 4.71162L80.0896 3.70997L78.1143 3.74312L78.1489 3.76581L79.882 3.71346L74.3305 3.90716C74.8935 3.94206 75.4534 3.98045 76.0132 4.02582C72.3994 4.31405 68.7582 4.48477 65.1084 4.53712L65.0392 4.61216L70.0497 4.53886C68.5504 4.47721 67.048 4.43823 65.5424 4.42195V4.32597C70.0868 4.49179 74.6476 4.46203 79.1838 4.23697C75.8941 3.97538 72.5662 3.89297 69.2476 3.99092L69.2162 3.97696C70.4554 3.95253 71.6926 3.92577 72.9277 3.89669L69.2445 4.03455C74.5253 4.39435 79.8518 4.50411 85.1662 4.36261C79.8862 4.17299 74.5989 4.12529 69.3042 4.21952L67.7882 4.2963L85.4902 4.79539C78.2523 4.65644 71.006 4.74909 63.7873 5.07285L63.7276 5.19151C66.0553 5.50604 68.4902 5.48079 70.7951 5.11822L64.0043 4.99083L62.0133 5.91745L62.8563 5.83543C62.6581 5.80751 62.4505 5.77436 62.2524 5.75691L62.5921 5.5667C82.8764 4.75525 102.692 4.40624 122.668 4.86868C122.008 4.51967 118.265 4.76746 122.668 4.86868C122.012 4.51191 121.565 4.05318 121.388 3.55291V3.53372C121.065 3.8637 120.839 4.22007 120.718 4.58947C121.108 4.4931 121.459 4.35366 121.749 4.17965C122.038 4.00564 122.261 3.80071 122.404 3.57734L122.442 3.56338C121.778 4.24046 120.583 4.95942 119.111 5.00828C117.434 5.06761 117.623 4.17938 118.208 3.55466L117.507 3.5756C118.283 5.04842 121.702 4.79713 122.621 3.54419L122.423 3.53023L121.143 4.6139C121.671 4.26489 122.177 3.91588 122.668 3.54768C122.431 3.8468 122.139 4.13158 121.797 4.39752L122.709 3.60003L122.81 3.57036C122.832 3.6995 122.863 3.82863 122.901 3.95602C122.92 3.84259 122.948 3.72567 122.957 3.60701L122.895 3.51801L122.354 4.16368C122.669 4.00869 122.916 3.81594 123.077 3.60003L123.011 3.58258C122.595 3.9485 122.071 4.27295 121.46 4.54235L122.278 3.56338L122.347 3.58781C121.661 4.13086 120.775 4.58752 119.749 4.92801C119.938 4.41905 120.336 3.94122 120.913 3.53197L121.083 3.54942C120.595 5.20024 115.289 5.36776 115.619 3.52499L114.647 3.50754C109.183 3.60294 103.717 3.59421 98.2508 3.48137C101.816 3.36503 105.387 3.27952 108.964 3.22484H108.992C105.652 3.27022 102.312 3.35747 98.9742 3.4866C102.796 3.5582 106.622 3.50576 110.433 3.32955L105.02 3.02416C100.664 3.02416 96.3091 3.03522 91.9538 3.05732C96.3573 3.03463 100.78 3.01544 105.193 2.97356H105.13C100.403 3.04685 95.6758 3.10502 90.9473 3.14806L91.0197 3.19518L96.524 3.16551C93.9763 3.28185 91.4244 3.38597 88.8683 3.47788V3.36794C97.4299 3.36794 105.991 3.37724 114.553 3.39586L114.468 3.35921C106.152 3.4517 97.8356 3.53372 89.5193 3.56164C91.0897 3.41665 92.6877 3.38731 94.2719 3.47439C92.6993 3.61922 91.1014 3.54942 89.5193 3.56164C93.4051 3.21337 97.3269 3.00237 101.261 2.92993H99.2888C96.4915 3.0579 93.6953 3.18005 90.9001 3.29639L90.9316 3.26324C99.8311 3.29449 108.722 3.57755 117.569 4.11133L92.0325 3.78326L84.773 3.68728L84.6912 3.60526C85.7145 3.57734 86.7368 3.5471 87.758 3.51452L97.2097 2.93342C98.8872 2.96134 100.565 2.99682 102.242 3.03987C101.11 3.09346 99.9708 3.07707 98.8453 2.99101C99.9493 2.92819 101.138 3.01195 102.242 3.03987C97.8388 3.24578 93.4133 3.33653 88.9909 3.37492L88.9532 3.38364L90.4598 3.32257L92.0325 2.98228L92.8754 3.06604H91.9947V3.07477L93.061 3.0643H91.9947L92.1017 3.10618C97.7234 3.09222 103.345 3.11374 108.967 3.17075L107.885 3.14108C107.051 3.22484 106.218 3.31559 105.391 3.4168C109.331 3.67119 113.308 3.7051 117.261 3.51801L117.23 3.54244C117.72 4.5598 119.894 4.28583 121.196 4.02059C120.983 3.82569 120.699 3.65751 120.363 3.52674L119.825 3.58432C120.105 4.88438 116.399 4.44289 116.623 3.51976H116.903C116.186 4.14448 119.007 4.5441 119.664 4.5982C120.123 4.63659 121.319 4.75176 121.721 4.5982C122.036 4.47081 122.011 3.72567 121.674 3.53197L121.731 3.56513C121.636 3.70299 121.548 3.84085 121.463 3.98045L121.542 3.62097L121.341 3.53372C120.866 4.13401 119.343 4.23174 119.026 3.53372H119.425C118.214 3.90716 117.223 4.91056 119.343 5.02748C120.8 5.10775 121.743 4.26489 122.077 3.58956L126.128 3.56164L126.178 4.65578L126.279 3.57385H126.314L125.999 5.62428L126.247 3.5913L126.304 3.61922C125.36 9.12135 124.417 14.88 123.391 20.4921C124.146 16.1295 123.583 19.2583 123.391 20.4921C124.102 14.88 125.36 9.12135 126.631 3.5756L127.386 4.58074L127.002 7.22798C126.94 6.00146 127.018 4.77397 127.235 3.55291L126.983 3.54244C125.608 7.49258 124.638 11.483 124.08 15.4943C124.074 11.48 124.678 7.47252 125.886 3.51452L125.911 3.60352C125.759 4.41149 125.516 5.21343 125.184 6.0047C125.008 5.17988 124.903 4.35214 124.87 3.5215H124.986C124.424 5.83543 124.061 8.16216 123.898 10.5017L125.109 3.60177L125.068 3.62795C124.766 6.26337 124.738 8.9063 124.986 11.5435L124.801 3.64366H124.819C124.306 6.76044 124.109 9.89073 124.228 13.0198C123.823 9.89807 123.841 6.76388 124.282 3.64366L124.304 3.55466C123.582 7.45658 123.01 11.3655 122.586 15.2814L122.633 15.2325C122.61 11.8692 122.825 8.51001 123.278 5.15487C123.325 5.76563 123.41 6.48284 123.127 7.07442C122.97 6.46016 123.196 5.76214 123.278 5.15487C124.401 12.6184 123.772 19.9476 124.964 27.399C124.722 26.3963 124.625 25.3844 124.675 24.3731C124.93 25.3642 124.889 26.4008 124.964 27.399C122.828 19.5986 125.03 11.5714 125.741 3.63144L125.766 3.62271L125.25 5.90872L125.653 3.59828V3.58258C124.119 11.5737 123.732 19.6199 124.496 27.645C123.866 21.389 124.609 25.8755 124.496 27.645C125.342 19.5986 125.342 11.5714 126.027 3.60701L126.005 3.64191C125.647 6.37349 125.533 9.10739 125.666 11.8436L125.813 3.57909H125.854C125.569 5.35438 125.319 7.13142 125.103 8.9102C124.335 15.2564 124.015 21.6124 124.143 27.9783C124.489 24.985 124.814 21.9911 125.118 18.9966V17.625C124.909 16.3278 124.692 15.0324 124.467 13.7387C124.496 14.4961 124.483 15.3093 124.766 16.0579C124.823 15.2936 124.59 14.4978 124.467 13.7387C125.011 19.2426 124.697 25.0013 124.961 30.5645C124.873 28.5728 124.795 26.5829 124.728 24.5947C124.728 25.7743 124.728 26.9592 124.835 28.1371C124.857 26.9575 124.772 25.7743 124.728 24.5947C124.694 33.3792 124.694 42.279 124.763 50.9972C124.691 41.7485 124.691 32.3252 124.816 23.0765C124.958 24.3713 125.106 25.7447 124.879 27.0377C124.64 25.7394 124.816 24.38 124.816 23.0765C125.09 24.996 125.266 26.9156 125.37 28.8351L125.423 28.8561C125.175 25.2421 124.766 21.6316 124.052 18.0368C124.536 21.656 125.018 25.277 125.379 28.9014H125.395C125.417 28.699 125.436 28.4983 125.455 28.2959L125.511 27.6904C125.722 25.2683 125.782 22.8426 125.791 20.417L125.351 20.3071C125.351 23.1748 125.357 26.0425 125.37 28.9102L123.363 28.809C123.432 21.1639 125.32 13.6602 125.42 5.89476C125.42 6.70272 125.499 7.53162 125.379 8.33783C125.3 7.52381 125.314 6.70782 125.42 5.89476C125.385 9.81065 125.363 13.7259 125.354 17.6407L125.244 17.6721C125.714 12.9767 126.133 8.28024 126.502 3.58258L126.537 3.62446C126.952 6.89341 126.866 10.176 126.279 13.4369C125.916 10.148 125.843 6.85396 126.059 3.55466L126.027 3.54244C124.443 10.2978 124.03 17.122 124.794 23.9211C124.646 22.4221 124.389 18.6214 124.794 23.9211C124.392 17.1416 123.763 10.3359 125.565 3.58258V3.60352C125.257 8.2244 124.989 12.8464 124.763 17.4697C124.672 16.6791 124.417 15.7002 124.763 14.9219C125.052 15.7229 124.807 16.6669 124.763 17.4697C124.392 13.128 124.392 8.59086 124.706 4.22825C125.021 4.22825 123.763 4.22825 123.763 4.40275C122.819 11.2084 123.134 17.8396 123.926 24.5284C123.744 23.7 123.671 22.8654 123.709 22.0312C123.895 22.8531 123.87 23.703 123.926 24.5284C123.583 23.0032 123.344 21.471 123.193 19.9354C122.659 14.4943 123.212 9.04108 124.093 3.62097L124.071 3.55466C123.92 4.95069 123.854 6.34673 123.873 7.74277C124.198 6.34673 124.446 4.94255 124.618 3.53023L124.826 3.60003L124.587 6.00645C124.524 5.21071 124.505 4.41148 124.524 3.61399L124.467 3.56513L123.866 9.42325L124.602 3.59654L124.546 3.57385L124.816 16.2254C123.989 12.0181 123.414 7.78814 123.577 3.55291L123.785 3.53546C123.636 8.24709 123.385 12.9587 123.033 17.6703V16.7559L123.266 15.5309C123.178 16.379 123.099 17.2283 123.03 18.0787V18.0979C123.448 25.8668 123.763 33.545 124.319 41.4134C124.222 39.0192 123.986 35.3511 124.319 41.4134C123.763 30.5784 123.448 19.5846 122.989 8.78107C123.162 13.0233 123.096 11.1002 122.989 8.78107C123.134 15.222 123.763 21.5042 123.873 28.0045L124.436 40.2722C123.872 35.6687 123.519 31.0589 123.379 26.4427L125.82 26.9104C125.61 25.1793 125.347 23.4517 125.03 21.7276L125.291 28.7933L125.228 28.8613C125.398 26.0692 125.503 23.2772 125.543 20.4851V20.4607C125.785 22.2807 125.99 24.1026 126.131 25.9261L122.951 25.0309C123.161 20.4252 123.566 15.8235 124.165 11.2259L124.64 26.851L124.772 31.245V31.1054C124.706 23.7762 124.392 16.2726 123.857 8.96605C123.788 9.78098 123.564 10.671 123.744 11.4841C124.058 10.6936 123.901 9.77051 123.857 8.96605C123.763 14.353 123.134 19.9371 123.351 25.3538L123.206 25.3642C123.08 23.5366 122.94 21.7101 122.784 19.8848L122.806 19.8394L122.844 20.3263C122.844 20.164 122.869 20.0017 122.879 19.8412V19.904C122.789 21.2407 122.718 22.5786 122.668 23.9176V22.5722C122.737 21.6834 122.815 20.7957 122.901 19.9092C124.373 30.5854 125.002 41.2302 124.565 51.8697L124.483 51.8872C125.316 38.0891 124.687 24.1287 124.275 10.3917C124.112 11.3725 123.533 12.6935 123.936 13.6742C124.565 12.7301 124.31 11.376 124.275 10.3917C122.8 18.3701 124.373 26.3973 124.75 34.4507L124.785 34.9323C124.967 37.4225 125.099 39.9127 125.099 42.4046L125.068 42.3924C125.084 42.0434 125.103 41.6769 125.118 41.3192V41.2215L124.948 42.443L124.983 42.4709C124.709 35.304 124.08 28.1493 123.41 20.9754C123.476 22.3122 123.508 23.6523 123.627 24.9891C123.627 23.6523 123.511 22.3122 123.41 20.9754C123.442 30.0689 124.385 38.9686 124.766 48.1284L124.999 50.9553L125.115 50.1125V49.7966C125.063 50.1922 125.008 50.5883 124.952 50.985H124.92C125.008 50.4629 125.021 49.9378 124.961 49.4145C124.646 50.2381 124.744 51.1595 124.678 51.9936L124.492 51.9692C124.492 51.7633 124.508 51.5539 124.54 51.3497C124.558 51.5539 124.54 51.7598 124.54 51.964L124.643 51.9203C124.689 51.0443 124.74 50.1677 124.794 49.2906C124.794 49.8722 124.794 50.4493 124.794 51.0216V50.978C124.794 50.4266 124.794 49.8734 124.794 49.322H124.86C124.886 49.8839 124.911 50.4475 124.939 51.0094L124.854 49.3342C124.886 49.8926 124.914 50.4528 124.945 51.0129L124.87 49.3307L124.992 49.4005C125.008 49.6815 125.027 49.9641 125.046 50.2451L125.065 49.3953L124.791 48.9503C124.751 49.9461 124.713 50.9431 124.675 51.9413C124.722 50.273 124.769 48.6048 124.801 46.9365V46.0186C124.524 47.4146 124.22 48.8107 123.888 50.2067L124.81 43.6471V33.0686C124.543 34.3722 124.209 35.6705 123.794 36.9636C123.719 32.6044 123.804 28.2453 124.049 23.8862C124.29 19.5561 124.709 15.2331 125.307 10.917C125.65 8.47394 126.03 6.03088 126.402 3.59654L126.364 3.55117C124.75 13.306 122.863 22.9037 123.873 32.7039C123.81 31.4387 123.826 30.1579 123.646 28.8945C123.602 30.1596 123.744 31.4405 123.873 32.7039C123.502 25.434 123.425 18.163 123.643 10.8908C123.706 8.81888 123.793 6.74751 123.904 4.67672C124.077 9.75481 124.275 14.8364 124.219 19.9162C124.109 27.7951 123.794 35.6478 122.089 43.5563C122.171 42.6297 122.089 41.6124 122.454 40.6997C122.621 41.6193 122.278 42.6419 122.089 43.5563L123.347 29.5401L123.297 29.5174C123.176 31.6499 123.053 33.7823 122.929 35.9148C122.822 37.8064 122.7 39.7888 124.058 41.567C123.92 37.0194 123.705 32.4724 123.414 27.926V27.4461C123.794 21.1639 124.109 14.8818 124.499 8.5577C124.417 9.93804 123.87 11.9326 124.499 8.5577C123.87 11.9326 123.42 15.3145 123.071 18.7017V18.8971C124.029 22.8278 124.604 26.7843 124.791 30.7495L125.052 30.6011C125.081 27.1599 125.052 23.7187 125.052 20.2774C124.917 21.5391 124.917 22.8042 125.052 24.0659C125.191 22.8112 125.052 21.5321 125.052 20.2774C124.423 29.7146 123.794 39.3124 123.112 48.8211C123.19 47.5281 123.266 46.2332 123.369 44.9402C123.3 46.235 123.2 47.5281 123.112 48.8211C123.483 38.2654 124.426 27.6206 124.999 17.1695C124.999 17.9565 124.999 18.7523 124.886 19.5375C124.86 18.7505 124.952 17.9565 124.999 17.1695C124.999 19.1781 124.999 21.1831 124.952 23.1969C124.813 30.3935 124.464 37.59 124.615 44.7883C124.697 44.5248 124.753 44.2648 124.797 43.9909L124.782 44.1915C124.728 44.3905 124.672 44.5894 124.615 44.7883C124.615 43.8129 124.643 42.8356 124.719 41.8619C124.703 41.5859 124.749 41.3099 124.854 41.04C125.071 41.485 124.958 42.0329 124.942 42.4901L124.829 42.4378C124.81 40.5409 124.747 38.644 124.615 36.7472C124.634 41.517 124.269 46.2763 123.52 51.0251C124.175 46.6986 124.477 42.3627 124.426 38.0176L123.152 50.6622C124.075 45.7342 124.704 40.7899 125.04 35.8293L123.203 48.9834L125.26 35.4244L125.228 35.4035C125.316 35.9671 125.401 36.529 125.489 37.0927C125.389 36.5308 125.293 35.9689 125.203 35.407V35.4314C125.287 37.2532 125.367 39.0751 125.442 40.8969L125.688 39.2827L125.543 35.3843L125.76 35.4C125.785 36.2481 125.808 37.0962 125.829 37.9443L126.024 36.4819C126.024 36.1608 126.002 35.8415 125.986 35.5204H125.923L125.184 40.8533L125.162 40.8376C125.213 39.7975 125.262 38.7569 125.31 37.7157L125.244 40.8742H125.316C125.408 39.0262 125.48 37.1799 125.508 35.3319L125.452 35.3162C125.464 36.6425 125.479 37.9687 125.496 39.2949V39.356C125.477 38.5638 125.496 37.7645 125.401 36.9723C125.367 37.9617 125.452 38.9547 125.486 39.9389V40.3681C125.344 38.7104 125.239 37.0508 125.172 35.3895V35.4017C124.123 40.2972 123.353 45.206 122.86 50.1282C123.877 45.1048 124.524 40.0645 124.801 35.0074V34.9777C124.851 36.8856 124.917 38.7935 124.999 40.7014C124.972 38.797 124.936 36.8938 124.892 34.9917H124.917C125.043 40.7049 124.414 46.6381 123.955 52.4753C124.03 51.6464 124.109 50.8175 124.172 49.9886C124.09 50.8157 124.024 51.6464 123.955 52.4753C124.099 42.9735 125.672 33.5503 124.269 24.1235C124.201 25.3824 124.274 26.6425 124.489 27.8963C124.562 26.6451 124.357 25.373 124.269 24.1235C124.303 26.1222 124.303 28.1197 124.269 30.116C124.175 37.2515 123.782 44.3852 123.741 51.5207C123.741 50.2765 123.725 49.0288 123.797 47.7863C123.822 49.0305 123.763 50.2765 123.741 51.5207C123.48 41.225 124.423 30.7547 123.612 20.4589C123.671 21.8358 123.734 23.2231 123.653 24.5999C123.561 23.2231 123.618 21.8375 123.612 20.4589C124.423 29.5332 124.423 38.6074 124.807 47.7671V47.6397C124.807 47.4024 124.785 47.1651 124.779 46.926L124.807 47.5228V47.5577C124.711 49.0315 124.462 50.5009 124.061 51.9587C124.118 50.9326 123.904 49.6902 124.376 48.6955C124.691 49.7181 124.263 50.9414 124.061 51.9587C124.423 37.7384 125.052 23.778 123.631 9.66057C123.58 10.9519 123.294 12.3462 123.58 13.634C123.951 12.3619 123.722 10.9414 123.631 9.66057C123.48 17.3213 123.794 24.825 124.794 32.5067V32.2607C123.48 22.731 122.536 13.1332 125.505 3.59479L125.703 3.5215L125.521 15.3878C125.165 11.4388 124.892 7.47054 125.521 3.5215H125.59C125.43 4.21952 125.112 5.0362 125.276 5.7412C125.65 5.06761 125.628 4.26664 125.747 3.56862C125.777 8.04873 125.803 12.5277 125.826 17.0055L125.574 16.9566C125.574 15.421 125.543 13.8847 125.48 12.3479C125.386 13.2309 125.184 14.2308 125.464 15.1086C125.732 14.2361 125.508 13.2344 125.48 12.3479C125.049 19.4032 124.105 26.2088 123.307 33.1646C122.797 37.6668 122.363 42.1708 121.894 46.673C121.951 41.663 122.008 36.6512 122.209 31.6429L122.07 31.7267C122.363 35.4105 122.744 39.089 123.121 42.7693L122.659 31.4475L122.674 31.4387C122.704 32.6533 122.75 33.8684 122.813 35.0841C122.798 33.6288 122.798 32.1746 122.813 30.7215L124.797 31.5731C124.426 37.2044 123.483 42.963 123.706 48.5524C123.914 47.3483 124.124 45.9907 123.826 44.7883C123.495 46.0099 123.715 47.3291 123.706 48.5524C124.505 44.0345 124.848 39.4956 124.989 34.9568L124.923 35.0213L125.121 41.6124C123.895 33.5991 124.074 25.5457 124.565 17.515C124.7 15.2465 124.864 12.9919 125.027 10.7303C124.752 16.9601 124.648 23.1922 124.713 29.4267C124.731 31.1939 124.763 32.9604 124.807 34.7264V34.6985C124.348 39.2542 123.72 43.8006 122.923 48.3378L124.222 26.5247L124.593 20.3088L123.234 43.7169L122.854 50.3009L124.285 28.4669L124.694 22.2458C124.882 25.0379 124.959 27.8341 124.923 30.6343L124.882 30.6133C125.314 27.2628 125.86 23.9182 126.518 20.5793L122.882 15.4157L122.385 6.38163C121.995 8.9992 121.756 11.629 121.611 14.257L121.926 14.5362L121.684 8.56992C121.91 10.5977 122.12 12.6254 122.313 14.6531L122.102 14.6741L122.788 7.60491L122.354 15.2534" fill="#333333"/>
<path d="M55.7132 57.1223H56.3706L55.7132 57.1363L55.773 57.1642H58.6195L58.7139 57.1747L55.6377 57.2131L46.3873 57.0194L50.9826 56.7908C49.324 56.8862 47.6643 56.9624 46.0036 57.0194H45.2298L57.3614 56.4959L40.3766 56.7768L52.0709 56.9234L48.3437 57.0141H51.0455L51.2531 56.9897C46.4253 56.6893 41.5462 56.7544 36.75 57.1834C37.0943 57.1712 37.4399 57.1782 37.7817 57.2043L41.8706 57.1101C40.1344 57.1345 38.396 57.1345 36.6556 57.1101H41.9115L19.8281 57.9826L21.3032 57.843V57.8308C20.4508 57.8884 19.6016 57.9408 18.7461 57.9861L17.7742 57.7907L23.6339 57.4417V57.5202L17.9723 57.939L18.1327 57.9896L22.2751 57.6964H22.3066C21.5702 57.7297 20.8414 57.8021 20.13 57.9128C20.3086 57.9428 20.4903 57.9667 20.6742 57.9844L21.1648 57.8727L20.52 57.9146L21.1743 57.9303L21.3252 57.953H20.671L21.3252 57.9722L21.9858 57.7854C21.1701 57.6691 20.3617 57.5446 19.5607 57.412L23.6496 57.5656L23.7188 57.5778L22.8602 57.4801C24.0711 57.1764 25.3764 57.2235 26.6346 57.4138H26.8547L27.921 57.3021L26.3955 57.4103H26.3767L27.2196 57.323C26.7164 57.3562 26.2131 57.3858 25.7067 57.4138L25.7287 57.3963L26.3578 57.3056L25.5211 57.405L25.8891 57.4138C26.6721 57.3373 27.471 57.3244 28.2607 57.3754L27.8581 57.4138L32.1326 57.1328C31.6347 57.2359 31.1276 57.325 30.6134 57.3998L30.0944 57.4138L40.1029 56.9042C39.1247 57.0141 38.1465 57.1171 37.162 57.2113H37.0394C34.1456 57.09 31.2362 57.1573 28.3708 57.412H28.4652C30.6696 57.2762 32.8933 57.2651 35.1018 57.3788C34.8879 57.3928 34.6741 57.405 34.4728 57.4155L34.6112 57.3911C34.9257 56.6407 34.8471 55.5378 36.0266 54.9986C37.1432 54.4856 37.6401 55.3476 37.14 55.845C35.7246 57.241 30.6732 57.2881 28.2481 57.4155H28.2261C27.5824 57.3829 26.9397 57.3399 26.298 57.2864C30.5095 56.8159 34.8066 56.6237 39.0996 56.714C34.6906 57.1636 30.2104 57.3618 25.7287 57.3056L41.2856 56.5116C38.1043 56.9264 34.8822 57.2381 31.6357 57.4452L31.6577 57.4905C32.0162 57.4905 32.378 57.4905 32.7365 57.4748L32.79 57.4521L31.4941 57.4696L31.6262 57.5865L32.7145 57.5394L31.6262 57.5883L29.0093 57.4015C28.8998 57.3341 28.8068 57.259 28.7325 57.1782C30.1304 57.0805 31.5501 57.1832 32.8561 57.4766L33.7997 57.4085C34.7543 57.1022 35.6215 56.7187 36.3725 56.2707C36.4415 56.4297 36.4522 56.5946 36.4041 56.7559C36.356 56.9172 36.2501 57.0714 36.0926 57.2096L35.8064 57.2235C32.6364 57.0623 29.4423 57.1256 26.3012 57.412H25.1405L29.4905 57.0909L24.0648 57.412L23.7503 57.4993C21.1523 57.6057 18.5416 57.6458 15.9373 57.6179L15.9153 57.7802C16.7416 57.642 17.5147 57.4201 18.1956 57.1258C16.2499 56.7965 14.2059 56.6842 12.1815 56.7953C10.1571 56.9064 8.19235 57.2388 6.40061 57.7732V57.7244C8.73963 56.9658 11.4691 56.6635 14.1539 56.8658C11.472 57.0751 8.766 57.1748 6.05777 57.1642L6.09237 57.2043C7.75233 57.0439 9.45675 57.0995 11.0714 57.3666C10.7335 57.4553 10.3832 57.5289 10.024 57.5865L10.4392 57.6022C9.64771 57.4108 8.92684 57.1399 8.31298 56.803C10.6531 56.0491 13.8614 56.4383 15.5881 57.5656L13.5468 57.597C11.0988 57.2659 8.56495 57.1761 6.06091 57.3317L6.02946 57.2515C8.32152 56.5305 11.0318 56.3369 13.5783 56.7122C11.9647 57.6179 8.91688 57.4382 7.68076 56.3632C8.53716 56.1051 9.48617 55.9558 10.4593 55.9259C11.4324 55.896 12.4053 55.9864 13.3078 56.1905C12.5403 57.3143 9.56797 57.679 8.01417 56.8396C8.92347 56.5471 9.95433 56.3908 11.0054 56.3862C12.0565 56.3817 13.0917 56.5289 14.0092 56.8135C13.2855 57.1716 12.4363 57.4431 11.5149 57.6109H11.3891C12.4501 57.5644 13.5101 57.5406 14.5691 57.5394L14.1759 57.6057H14.7389C15.4035 57.5398 16.0617 57.4553 16.711 57.3527C15.0775 56.8497 13.2561 56.5635 11.3898 56.5166C9.5234 56.4696 7.66283 56.6632 5.95397 57.0822L6.12697 57.0211L23.8572 56.1626C19.8993 56.1905 15.9518 56.3947 12.0528 56.7733C17.1802 56.7772 22.3001 56.5554 27.3643 56.1102C22.5586 56.7388 17.6922 57.2148 12.7888 57.5359L30.5442 56.9286C24.8982 57.3131 19.1979 57.3902 13.5248 57.159C18.6658 57.2483 23.8109 57.0836 28.8992 56.6669L10.76 57.4748C12.2027 57.5411 13.6485 57.5859 15.0975 57.6092L15.0094 57.5813C15.286 57.4833 15.5507 57.3755 15.802 57.2584C12.6191 56.7552 9.23299 56.8125 6.11124 57.4225C6.57046 57.4888 7.03282 57.5446 7.49519 57.597L7.71222 57.5656C7.7199 57.3655 7.65464 57.1667 7.52035 56.981L9.98315 56.9374L9.32577 57.6127L6.98879 57.3195C7.06167 57.4725 7.16727 57.6202 7.30332 57.7593L6.712 57.7889L6.73087 57.3056C6.55363 57.3899 6.39238 57.484 6.24963 57.5865L6.13011 57.5952C6.49284 57.6508 6.86312 57.6899 7.23727 57.7122L7.22154 57.6964C6.80594 57.6375 6.40068 57.5581 6.01059 57.4591L11.0243 57.6074C11.8515 57.5376 12.6944 57.5725 13.5185 57.5045C12.6467 57.5187 11.7801 57.4254 10.9811 57.2313C10.1822 57.0373 9.47071 56.7474 8.89801 56.3824C11.6061 56.336 14.2511 56.8413 16.3336 57.8029H16.9627C17.164 57.7907 17.3716 57.7628 17.5666 57.7418C14.7328 57.4282 11.842 57.3016 8.95462 57.3649C9.15278 57.4417 9.35408 57.515 9.56167 57.583L9.4799 57.6109C9.15068 57.5644 8.82357 57.5121 8.49855 57.4539C9.87409 57.0379 11.423 56.8306 12.989 56.8526C14.5551 56.8747 16.083 57.1254 17.4187 57.5795C17.0476 57.6546 16.6701 57.7209 16.2896 57.782V57.7977C17.1451 56.0613 13.9997 55.5378 11.798 55.7123C11.1689 55.7123 10.5399 56.0613 9.6466 56.0823L27.7543 55.742L11.7194 56.365C22.1682 56.0526 32.5478 55.7036 42.9778 55.4925C35.5931 55.4614 28.212 55.6806 20.8755 56.1486L42.1474 55.4331L14.9528 55.9392C30.3649 55.8851 45.4468 55.7106 60.9534 55.5623C51.7407 55.7368 42.4934 55.9235 33.3813 56.7646C43.2451 56.5901 52.9957 56.4156 62.7305 56.1085L62.8469 56.2201L61.5415 56.2516L66.1841 56.0561L67.2598 56.0439L70.7574 55.8694L72.7012 55.7699H72.5251C65.3097 55.8781 58.0974 56.0736 50.8757 56.1015M50.8757 56.1015C52.4138 56.0683 53.9487 56.0282 55.4868 56.0072C53.9518 56.0526 52.4138 56.0788 50.8757 56.1015ZM50.8757 56.1015C62.4317 56.0648 74.384 55.3668 86.1727 55.3546L59.4939 55.7036C74.0694 55.5396 88.8525 55.7141 103.277 55.2551C94.5519 55.489 85.811 55.4035 77.0858 55.6652H77.4349C85.8204 55.4227 94.2216 55.3738 102.62 55.372L102.642 55.3406C97.1164 55.4104 91.589 55.4215 86.0595 55.3738L102.692 55.5657C99.5173 55.7414 96.3342 55.8578 93.1428 55.9148L91.8217 55.8589C95.3468 55.7106 98.8475 55.419 102.296 54.9864C94.3043 54.2893 86.1762 54.2177 78.1489 54.7735L96.999 54.8084C90.5058 54.6989 84.0067 54.8026 77.5356 55.119C84.614 55.5262 91.7507 55.511 98.8233 55.0736C95.7862 54.4055 92.4151 54.372 89.3369 54.9794C91.9844 55.238 94.6842 55.2897 97.3575 55.133L85.0907 55.6704H84.924C91.005 55.4052 97.1069 55.2383 103.23 55.1696L104.954 55.0859C96.2472 54.9114 87.5346 55.0527 78.8472 55.2115C87.9942 55.362 97.1493 55.2146 106.265 54.77C96.999 54.688 87.7391 54.8799 78.476 54.9602C75.834 54.9846 73.1919 54.9986 70.5498 54.9934M70.5498 54.9934C72.5282 54.9428 74.5161 54.8625 76.4976 54.8538C74.5255 54.948 72.5251 54.9794 70.5498 54.9934ZM70.5498 54.9934C85.7103 54.6636 101.122 54.6636 116.072 55.2761H115.632L110.813 55.2185H110.835C113.035 55.2185 115.237 55.208 117.441 55.1871C115.26 55.1557 113.078 55.1376 110.895 55.133L110.993 55.1906H118.431H118.4L116.884 55.2604L118.604 55.0736C111.829 54.9445 105.052 54.916 98.2728 54.9881C104.176 55.049 110.081 54.915 115.956 54.5868C109.745 54.3111 103.507 54.2936 97.2915 54.5344C104.734 54.9862 112.233 55.0825 119.705 54.8224C112.377 54.5594 105.037 54.4809 97.6878 54.5868C105.047 54.9498 112.451 54.92 119.8 54.4978C113.605 54.1245 107.364 54.0527 101.148 54.2831C108.493 54.7039 115.893 54.7384 123.25 54.3861C115.418 54.3314 107.589 54.4227 99.7637 54.6601C107.86 54.8422 115.97 54.5973 123.983 53.9289V53.8957C118.253 53.4701 112.435 53.5763 106.768 54.2098C112.097 54.513 117.474 54.4214 122.759 53.9376C116.867 53.7631 110.971 53.7433 105.07 53.8783C110.356 54.1051 115.666 54.0999 120.951 53.8626C117.6 53.4949 114.141 53.5654 110.848 54.0685C115.02 54.502 119.303 54.4901 123.467 54.0336C119.321 53.7508 115.124 53.7966 111.002 54.1697C115.077 54.5152 119.224 54.5117 123.297 54.1592C119.485 53.5491 115.471 53.4327 111.565 53.819C115.018 54.2714 118.605 54.3089 122.086 53.9289C119.038 53.5914 115.892 53.6433 112.886 54.0807C116.328 54.5306 119.918 54.4982 123.332 53.9865C120.293 53.4206 116.982 53.5141 114.062 54.2482C117.308 54.6058 120.626 54.7203 123.926 54.5885L123.91 54.4786C120.714 54.3244 117.498 54.3413 114.308 54.5292C116.237 54.7633 118.214 54.8554 120.186 54.8032L116.884 54.8293C117.599 55.0072 118.384 55.0825 119.165 55.0483C119.947 55.0142 120.7 54.8717 121.356 54.6339C119.151 54.1696 116.741 54.0947 114.456 54.4193C116.226 54.6269 118.055 54.6269 119.825 54.4193C112.221 54.1982 104.613 54.1336 96.999 54.2255C102.258 54.2922 107.52 54.199 112.76 53.9463L85.6411 53.6619L99.9178 53.4507L84.4113 53.3984L110.401 55.0719C111.158 54.9761 111.938 54.9496 112.71 54.9934H108.039L110.87 54.9812C107.839 55.1666 104.772 54.9789 101.887 54.4315L95.2218 56.0561C96.5764 55.9665 97.931 55.8665 99.2856 55.756C94.3663 55.614 89.4386 55.5855 84.5025 55.6704H83.7413L96.2032 55.2028C94.1356 55.468 92.0534 55.6809 89.9565 55.8415L89.8685 55.8502C94.1273 55.8362 98.386 55.7943 102.642 55.66L102.755 55.6181C100.436 55.6286 98.1166 55.6175 95.7974 55.5849C98.0495 55.4942 100.304 55.4314 102.56 55.3965L102.73 55.4488C92.6301 55.5361 82.565 55.5361 72.4087 55.5902M72.4087 55.5902C74.1386 55.578 75.8686 55.5466 77.6048 55.5588C75.878 55.5989 74.1449 55.5972 72.4087 55.5902ZM72.4087 55.5902C82.8795 55.5361 92.9446 55.1871 103.296 55.2796V55.2516C102.038 55.2743 100.78 55.3075 99.5215 55.3127C100.799 55.2726 102.082 55.2621 103.362 55.2464L103.343 55.222C93.9658 55.2022 84.5916 55.0975 75.2206 54.9079C77.9571 54.8578 80.6956 54.8206 83.4362 54.7962C93.1113 54.7089 102.786 54.7793 112.461 55.0073L105.218 54.9689L79.6933 54.852L103.356 55.1434L103.422 55.1749C100.035 55.1679 96.6562 55.3579 93.3409 55.742C96.3353 55.9072 99.3401 55.9944 102.355 56.0038L102.598 55.5727C98.364 55.5657 94.1325 55.6146 89.9031 55.7193L89.2237 55.6704C91.6729 55.5541 94.1262 55.4558 96.5838 55.3755L87.4403 55.667H86.2828L90.4189 55.5361C82.4864 55.3034 74.5475 55.2836 66.6024 55.4767C74.2623 55.6303 81.9254 55.6303 89.5917 55.4767C84.75 55.4151 79.9103 55.4773 75.0728 55.6635H78.7811C66.5143 55.7036 54.2475 55.5291 42.3801 56.3475M42.3801 56.3475C44.0246 56.3755 45.6699 56.3095 47.29 56.1503C45.6639 56.1364 44 56.2707 42.3801 56.3475ZM42.3801 56.3475C48.1141 56.4819 53.8512 56.4138 59.582 56.2882L58.8712 56.8257C42.6097 56.7506 26.5685 56.7506 10.2505 56.1992C11.0978 55.6339 12.2199 55.2155 13.4834 54.9937C14.7469 54.7719 16.0986 54.756 17.3778 54.948C15.5598 55.3546 13.6726 55.5291 11.7854 55.7036C10.2128 56.0526 7.69649 56.4016 7.06742 55.1801C5.49475 51.1665 6.75289 47.3274 6.83467 43.5459V55.8484L6.45408 44.7639C6.65807 47.8758 6.54675 50.9915 6.12067 54.0964C5.25762 51.2843 5.28529 48.4101 6.20245 45.6033L6.04204 53.7474L6.13955 45.181C5.83178 48.4296 6.06976 51.6872 6.85039 54.9114L6.83467 44.4987C7.61173 48.3479 7.37545 52.2394 6.13326 56.0509C5.28526 52.0684 5.52811 48.0377 6.85354 44.0956C6.6469 46.9339 6.75194 49.7766 7.16807 52.6079L6.88499 38.6964C6.74974 44.3678 6.74974 49.7774 6.77805 55.3843M6.77805 55.3843C6.68054 54.6304 6.59877 53.8748 6.62393 53.1157C6.74345 53.8678 6.73716 54.6252 6.77805 55.3843ZM6.77805 55.3843C6.12067 49.2539 5.49161 42.9718 5.44443 36.796M5.44443 36.796C5.50104 37.618 5.54508 38.4416 5.50104 39.2635C5.43499 38.4416 5.45701 37.618 5.44443 36.796ZM5.44443 36.796C5.80614 42.7972 6.43521 48.7304 6.72772 54.6985M6.72772 54.6985C6.50259 53.9016 6.4246 53.0942 6.49497 52.2886C6.70885 53.086 6.67111 53.8957 6.72772 54.6985ZM6.72772 54.6985C5.18451 48.4167 4.54817 42.0765 4.82479 35.7385M4.82479 35.7385C4.95219 36.5847 4.94588 37.4355 4.80592 38.2811C4.67382 37.4347 4.80592 36.5849 4.82479 35.7385ZM4.82479 35.7385C5.4979 42.2737 5.81243 48.5559 6.42263 54.9812M6.42263 54.9812C6.39746 54.1278 6.36601 53.2728 6.29681 52.4212C6.31569 53.2745 6.37545 54.1278 6.42263 54.9812ZM6.42263 54.9812C6.12697 48.7304 6.12697 42.4482 5.87534 36.0945M5.87534 36.0945C6.05871 36.9293 6.10083 37.7718 6.00115 38.6109C5.82816 37.775 5.89736 36.9339 5.87534 36.0945ZM5.87534 36.0945C6.75603 42.2737 7.3851 48.3814 6.75603 54.4768C6.64104 53.6512 6.69591 52.8211 6.91959 52.0024C7.02968 52.826 6.84725 53.6479 6.77176 54.4699C6.77176 48.1999 5.51362 41.9177 6.34399 35.564C6.82838 40.5304 7.09154 45.5009 7.13347 50.4754C5.66068 45.5339 5.50807 40.4989 6.68054 35.5326C7.08629 40.8707 7.40083 46.4549 6.74345 51.7807L6.46037 36.9967C6.14584 42.7903 5.8313 48.5489 5.27143 54.3512L5.32176 53.7788C5.46015 53.9882 5.60798 54.1941 5.76525 54.4001C5.65516 53.7858 5.49475 53.1785 5.2903 52.5712L5.26829 51.6778C5.3249 50.4842 5.38991 49.2906 5.4633 48.0969C5.71807 43.949 6.07035 39.8045 6.42577 35.6583C5.50811 40.7466 5.05356 45.8573 5.06384 50.971L4.98521 50.999C5.19909 43.4953 5.19909 36.1661 5.2274 28.72M5.2274 28.72C5.089 33.5974 5.21167 30.3638 5.2274 28.72ZM5.2274 28.72C4.88456 34.9376 5.19909 41.2197 4.6864 47.4967L4.72414 47.4844C4.66963 47.125 4.6214 46.7643 4.57946 46.4025L7.17436 42.5791M7.17436 42.5791L6.65538 42.1149M7.17436 42.5791L6.79063 39.4782L8.01102 49.8664C7.04016 45.7679 6.41843 41.6519 6.14584 37.5185C6.15253 42.5828 6.98843 47.6362 8.64324 52.6166L6.17729 37.4609C6.38698 41.4954 6.89023 45.5201 7.68705 49.5349C7.91352 50.6726 8.162 51.8087 8.4325 52.9429C7.35679 48.6536 6.65853 44.3329 6.35028 40.0052C6.4415 45.5893 6.75603 51.1735 9.43272 56.4278M9.43272 56.4278C8.51742 51.8401 8.92946 55.2377 9.43272 56.4278ZM9.43272 56.4278C8.01417 50.4807 7.3851 44.722 5.89736 38.7226C6.03191 43.6089 7.00614 48.4769 8.80679 53.2605C7.94287 49.1248 7.29179 44.9774 6.85354 40.8184C6.46774 45.5057 7.14724 50.2013 8.87599 54.7944C8.45661 50.782 7.7919 46.78 6.88185 42.7885C6.54677 46.7891 7.10031 50.7973 8.53 54.7229C8.46704 50.6813 7.82865 46.6487 6.62078 42.6629C5.71812 46.3085 5.87528 50.0108 7.08629 53.6287C7.35376 49.6267 7.21199 45.6195 6.66167 41.6263C5.99251 46.2991 6.40688 51.0003 7.89465 55.6146C7.85441 50.8346 7.22387 46.0618 6.00744 41.3297C5.42051 45.7309 5.99054 50.1561 7.69963 54.4664C7.33897 50.1259 6.7099 45.7976 5.81243 41.4815C4.85651 45.6938 5.46885 49.9701 7.61157 54.0458L5.61428 40.5287C4.91661 42.8195 4.63422 45.1432 4.77132 47.4652L4.72729 47.4495C3.92523 42.2737 5.18336 37.0386 5.51677 31.7267M5.51677 31.7267C4.82794 35.7839 5.4633 32.9011 5.51677 31.7267ZM5.51677 31.7267C5.4979 37.0386 4.86883 42.2737 4.78076 47.5246L4.8185 47.4932C4.71366 46.6881 4.62559 45.8842 4.5543 45.0815V44.4219L4.6518 47.4652L4.73987 47.4146C4.67277 46.0058 4.61196 44.597 4.55744 43.1881V43.0712C6.13011 35.8136 8.33185 28.3099 5.48532 20.965M5.48532 20.965C5.20538 24.1619 6.11438 22.5355 5.48532 20.965ZM5.48532 20.965C5.20433 24.1619 5.00827 27.3612 4.89714 30.5627V30.8995C5.81243 24.1253 7.07057 17.1451 6.539 10.2958M6.539 10.2958C5.57339 14.5851 6.61135 11.814 6.539 10.2958ZM6.539 10.2958C5.81243 15.9305 4.5543 21.3402 4.45364 26.8929L4.47881 26.9034L5.03239 13.0233L4.56688 28.4949L4.78705 28.4216L4.62978 25.9785C4.60252 26.502 4.57526 27.0255 4.54801 27.549V27.2838C4.64237 27.6764 4.73043 28.0726 4.81536 28.4669L4.76189 28.4896C4.69898 28.0499 4.63293 27.6171 4.56059 27.1686L4.5197 26.9295C4.41905 26.3293 4.3142 25.7295 4.20516 25.1304V25.3328C4.46623 21.3716 4.35299 17.4051 4.49453 13.4421L4.63293 13.4613C4.41905 17.9321 4.23033 22.4029 4.2146 26.8755L4.33727 26.8475C4.86883 22.2755 4.81536 17.6913 4.90657 13.1105H4.92859C4.84367 18.2183 4.9915 23.3278 4.63922 28.4338L4.66753 28.4739C4.74721 27.1814 4.86044 25.8889 5.00722 24.5964C5.74009 26.5474 5.89421 28.5455 5.91308 30.5296C5.9697 37.8378 5.71493 45.1531 5.59855 52.4631M5.59855 52.4631C5.52935 51.1839 5.70549 45.1531 5.59855 52.4631ZM5.59855 52.4631C5.48532 46.6265 5.17078 40.8602 4.65495 35.1644H4.8531L4.79334 47.2279L4.52913 36.9967L4.2146 37.6947C4.2146 38.4986 4.22508 39.3042 4.24605 40.1116V40.1256C4.22718 39.883 4.20831 39.6387 4.19258 39.3962V39.4066C4.19258 38.8447 4.22404 38.2828 4.25549 37.7209L4.29009 37.7349L4.22089 40.0488L4.40646 40.1378L4.32783 37.6947L4.36872 37.7296C4.38759 38.494 4.40856 39.2589 4.43163 40.0244L4.35928 40.0418C4.30267 39.6387 4.25234 39.2356 4.20202 38.8342L4.89714 34.6217C5.79985 40.8515 4.85625 47.3082 7.68705 53.3583M7.68705 53.3583C5.45072 48.6938 7.37252 52.0198 7.68705 53.3583ZM7.68705 53.3583C6.1265 47.3295 5.17094 41.2573 4.82479 35.1697L4.79334 35.1592C4.74721 40.3455 4.92335 45.5312 5.32176 50.7163C5.16449 49.8752 5.02505 49.0329 4.90343 48.1894L4.92859 48.713C5.69056 48.2297 6.11174 47.6099 6.11438 46.9679C6.11438 33.5311 6.11438 20.1163 6.11438 6.72366M6.11438 6.72366C6.08922 12.3462 6.11438 10.0392 6.11438 6.72366ZM6.11438 6.72366C6.11438 15.9061 6.11438 24.9803 6.16471 34.2727L6.19616 51.9483C5.57968 49.0899 5.02924 46.2268 4.54486 43.3592V43.7745C4.86778 47.4612 5.27668 51.1461 5.77154 54.8293C6.12697 48.0603 6.47924 41.2791 5.77154 34.5135C5.57024 32.6079 5.28716 30.7058 4.89399 28.809V31.2642C5.79356 24.1096 5.79356 16.7804 5.67404 9.7042H5.87534L5.59226 11.0287V11.6883C5.86777 9.53382 6.48668 7.3971 7.44172 5.30319L7.58011 5.31715C6.73402 13.641 7.67762 21.8427 6.5736 30.2905C6.17729 35.6862 5.94454 41.0836 5.5325 46.4793L5.72436 42.0905L6.41634 26.3642V31.4702L6.3723 49.3429C6.26326 47.9667 6.18358 46.5892 6.13326 45.2106C5.96341 40.385 6.1731 35.5629 6.76232 30.7442C6.55263 31.9878 6.3723 33.2327 6.22133 34.4786C5.68242 38.8994 5.50104 43.3277 5.67718 47.7636C5.06699 43.7954 4.80068 39.8167 4.87827 35.8275L5.04811 39.4817L5.66146 52.2816C5.37418 51.1275 5.13094 49.9711 4.93174 48.8124V48.8787C5.12077 50.2905 5.46636 51.6944 5.96655 53.0825C6.43807 48.5374 6.2656 43.9787 5.45072 39.4485C5.21796 38.1514 4.93174 36.8583 4.59204 35.5693V35.3948C4.90657 40.8777 4.90657 46.2873 5.77469 51.6516M5.77469 51.6516C5.65516 50.458 5.83445 45.8773 5.77469 51.6516ZM5.77469 51.6516C5.85018 44.3678 5.85018 36.8641 4.94746 29.4564V29.2452C6.79692 38.0856 7.42599 46.9854 7.24985 55.9043M7.24985 55.9043C7.1492 53.9987 7.17122 48.9677 7.24985 55.9043ZM7.24985 55.9043C6.79692 47.3344 6.48239 38.6091 5.88477 29.9886M5.88477 29.9886C5.88477 31.7337 6.23705 36.721 5.88477 29.9886ZM5.88477 29.9886C5.85332 37.9111 5.85332 45.9383 5.84388 53.8539M5.84388 53.8539C5.84388 47.6432 6.02946 51.786 5.84388 53.8539ZM5.84388 53.8539C6.47295 44.3678 6.15842 35.119 5.70864 25.7307M5.70864 25.7307C5.76525 27.7637 6.08608 33.0337 5.70864 25.7307ZM5.70864 25.7307C5.85332 34.9445 6.16785 44.1933 6.47924 53.4193M6.47924 53.4193C6.27794 46.2228 6.36601 51.7109 6.47924 53.4193ZM6.47924 53.4193C5.85018 45.5893 5.53564 37.9111 4.94432 30.0078V29.9363L4.99779 19.4573C5.07328 23.785 5.18651 28.1127 5.22111 32.4421C5.22111 39.1327 5.85018 45.9383 5.57024 52.498M5.57024 52.498C5.61427 51.6254 5.74009 50.7389 5.65202 49.8699C5.53668 50.7444 5.50938 51.6218 5.57024 52.498ZM5.57024 52.498C6.16785 41.0522 6.48239 29.7094 7.27187 18.2427M7.27187 18.2427C7.27187 19.1641 7.31276 20.0942 7.2184 21.0138C7.14606 20.0925 7.2184 19.1623 7.27187 18.2427ZM7.27187 18.2427C6.79692 22.5547 6.79692 27.0918 7.11146 31.4544C7.11146 39.1326 6.79692 46.8109 6.9825 54.5379M6.9825 54.5379C6.86297 54.4001 7.08 51.8837 6.9825 54.5379ZM6.9825 54.5379C6.86297 54.4001 5.74009 52.9203 6.37545 52.8156C7.01081 52.7109 6.9825 54.4088 6.9825 54.5379ZM6.9825 54.5379C5.34063 52.6027 5.26829 50.4109 5.4979 48.3151C6.79692 38.6091 8.05506 29.0114 6.08922 19.1728M6.08922 19.1728C5.28716 23.7099 6.63022 21.8009 6.08922 19.1728ZM6.08922 19.1728C3.96612 30.7582 5.53879 42.45 7.41026 54.0388M7.41026 54.0388C7.35679 52.9377 7.44801 51.7825 7.17436 50.6901C7.02024 51.786 7.253 52.9464 7.41026 54.0388ZM7.41026 54.0388C6.4415 40.1797 5.81243 26.5683 5.34692 12.7388C5.36579 13.338 5.39829 13.9365 5.44443 14.5345C5.44443 13.9063 5.46644 13.2781 5.51048 12.6498L5.11417 13.0529C5.00722 16.4715 4.57317 19.8831 4.07935 23.2911L4.19887 23.2458L4.02588 16.4244L4.20516 23.4883L4.29323 26.8999H4.26492C4.45365 22.4291 4.64761 17.9577 4.84681 13.4857L4.78391 13.4316C4.62035 17.9234 4.29952 22.4151 4.46937 26.9086V26.9243C4.39074 26.6102 4.30896 26.2943 4.22404 25.9802L10.0649 5.14788L9.59313 6.08497L9.612 5.13392L9.63402 5.16534L9.90452 5.7255L9.27545 5.26131H9.31948C9.31948 5.5126 9.22827 5.59462 9.63402 5.70281C9.98251 5.76154 10.3574 5.74916 10.6909 5.66791C11.2948 5.4934 11.1564 5.08855 10.9582 4.75001L10.9173 4.7727C10.5263 5.63858 10.3236 6.52731 10.3134 7.41993L10.2977 4.90183L10.2128 4.97862C13.2984 5.07692 16.3942 4.9815 19.4412 4.69417H18.4001L6.41634 5.61032C10.3761 5.23469 14.4158 5.19527 18.3969 5.4934C16.6302 5.86924 14.7083 5.96117 12.8517 5.75865C15.6518 5.37878 18.5395 5.2364 21.4165 5.33635L9.39497 6.20887C12.0465 5.81973 13.8456 7.0814 16.2738 7.3798L8.95462 7.10234C13.1592 6.5259 17.4939 6.29658 21.8191 6.42177L15.802 5.95061L19.4758 5.89825C18.722 5.30547 17.6182 4.87765 16.3556 4.68894H13.7827L11.8389 4.83901L13.789 4.68545L14.6697 4.73431C14.0343 5.65046 10.3543 6.28216 9.7504 5.06936L9.80072 5.13567C9.57426 5.62777 10.5179 6.5003 11.4615 6.32579C12.4051 5.97678 12.0905 5.10426 12.1471 4.52316V4.48651C12.1377 5.14289 11.867 5.79002 11.3545 6.38163L11.8389 4.58773C11.575 5.14535 11.1906 5.68324 10.694 6.18968C10.6474 5.72469 10.6474 5.25863 10.694 4.79364L10.6657 4.75001V5.47421C10.9584 5.18991 11.2158 4.8949 11.4363 4.59121L11.5181 4.49873C11.993 4.76746 12.7762 4.92975 13.4053 4.69941L13.2103 4.71162C12.6281 5.00667 11.9199 5.21442 11.1526 5.31519C10.3854 5.41596 9.58444 5.40643 8.82567 5.28749L9.02068 5.33809L8.88857 5.93316L8.97035 5.3346V5.32239L8.85712 5.79704L8.92946 5.32064V7.21925L8.89801 5.28749L8.87914 5.30145L8.8351 6.7289L9.57426 5.09728L9.55224 5.15137C11.6384 4.80259 13.8805 4.87871 15.8744 5.36602C14.0633 5.51408 12.2136 5.3699 10.5462 4.95069C11.7456 4.83436 12.9492 4.74652 14.157 4.68719H14.2671C13.4021 5.05191 12.0402 4.90358 11.2979 4.51269L11.3168 4.49873L11.3954 5.77959L11.1595 4.71162L11.0463 4.78317L10.8733 5.75342L10.4581 4.93848L10.694 4.68196C11.2948 6.06229 14.4307 5.96806 15.1887 4.68196H15.2076L11.7823 5.00305C14.7409 5.03022 17.6987 4.92518 20.627 4.68894L22.6809 5.10251C22.346 5.26105 22.0593 5.44841 21.8316 5.65744C22.0415 5.72639 22.2803 5.76365 22.5242 5.76548C22.7682 5.76732 23.0087 5.73368 23.2219 5.66791C23.5364 5.57542 24.3857 5.11473 23.571 5.09204L25.0399 5.07459C24.4072 5.17697 23.735 5.17697 23.1024 5.07459L23.1244 5.08332C24.7303 5.38349 26.4692 5.38349 28.0751 5.08332H28.3897C29.0409 5.27081 29.7682 5.36208 30.5014 5.34832C31.2347 5.33457 31.9492 5.21626 32.5761 5.00479C32.5327 4.96295 32.4843 4.92273 32.4314 4.88438L32.5415 4.8076C33.0442 4.73319 33.5321 4.63088 33.9978 4.50222H33.9695C33.4031 4.6671 32.8846 4.87828 32.4314 5.12869C33.4232 5.34346 34.4958 5.41779 35.5524 5.34498C36.6089 5.27216 37.6161 5.05449 38.4831 4.71162L38.5743 4.70115C36.5982 5.18691 34.3939 5.3092 32.2836 5.05016H32.1798C33.6182 5.06336 35.0497 4.93758 36.4103 4.67847L36.3474 4.50396C32.3967 5.29495 28.1826 5.59865 23.9988 5.39394C24.4895 5.27644 24.9822 5.16534 25.4771 5.06063H25.6627C25.0012 5.10339 24.3331 5.10339 23.6717 5.06063H23.7188C23.8859 5.18722 24.1027 5.29104 24.3529 5.36421C24.603 5.43739 24.8799 5.47799 25.1626 5.48293C25.5652 5.48293 26.6157 5.35904 26.4207 5.08855H26.2697C27.3649 5.25996 28.5253 5.25572 29.6164 5.07634H30.0347C29.2432 5.16794 28.4262 5.16794 27.6348 5.07634H27.7386C25.9615 5.46025 23.7597 5.63475 21.7624 4.90183L21.8316 4.88089C21.5643 5.63126 23.137 5.98027 24.0806 5.98027C25.0242 5.80577 25.9678 5.80577 26.5654 5.13567L26.8422 5.09204C26.0818 5.26729 25.256 5.33736 24.436 5.29621C24.4737 5.24037 24.5115 5.18628 24.5555 5.13218V5.10077C24.4045 5.58764 26.7887 5.195 27.2165 5.08855L27.3045 5.09728C26.9145 5.25782 24.3888 5.59287 24.6593 5.11996L24.5775 5.06063C24.4002 5.32691 24.099 5.56241 23.7046 5.74323C23.3102 5.92406 22.8365 6.04377 22.3318 6.09021C22.3095 5.92236 22.3797 5.75473 22.5331 5.60951C22.6864 5.46429 22.9157 5.34834 23.1904 5.27702C23.8195 5.12694 23.9988 5.35729 23.5616 5.62603C22.6589 6.17048 21.5863 5.48293 21.9008 4.92801L21.6461 4.84599C21.0525 4.79809 20.4529 4.77708 19.8532 4.78317C20.4587 4.84554 21.0833 4.81662 21.6618 4.69941H21.1868C20.9748 4.75877 20.7412 4.79071 20.5037 4.79283C20.2662 4.79494 20.0309 4.76718 19.8155 4.71162L20.1835 4.6837C16.9322 5.00264 13.6171 5.07076 10.3323 4.88613C10.7196 4.96638 11.1366 4.99243 11.5464 4.962C11.9562 4.93156 12.3462 4.84557 12.6819 4.71162L12.2038 4.60169C11.6565 4.63833 11.1123 4.6837 10.5682 4.7378L10.521 4.80237C12.3893 4.80237 14.2566 4.76339 16.1229 4.68545L16.0631 4.69417C12.9035 5.17001 9.63567 5.38753 6.36287 5.33984H6.40061C6.29981 5.63013 6.16426 5.91637 5.99486 6.19666L5.95712 6.08846L5.97913 6.01168C6.06031 6.2354 6.16534 6.45624 6.29367 6.67305C6.53365 6.23065 6.61382 5.76632 6.52957 5.30668L6.62393 5.29796L6.18044 7.6625C6.57075 6.88218 6.80595 6.0805 6.88185 5.27178L5.96341 5.7953L6.10495 6.51949L6.12382 5.67489L6.25907 5.68536L5.78727 13.7859L6.39432 5.55099C6.05587 7.94444 6.10113 10.3498 6.52957 12.7388L6.79692 5.35729L6.72143 5.30145L6.51699 7.0622L6.83152 5.36951L6.86297 5.35555C7.00137 8.6595 7.07266 11.9635 7.07686 15.2674L7.41341 6.31707L6.52328 16.5954C5.60081 12.827 5.81339 8.99976 7.15235 5.27004H7.11146C7.12289 5.76002 7.26059 6.24658 7.52035 6.71494L5.97599 9.35693L6.79378 5.50213L6.81579 6.69051L6.97935 5.36253L7.02024 5.31192L5.66146 11.3027L7.23412 5.30145L7.12404 5.33286L6.95419 8.09178L7.89779 5.28749L8.19031 5.30843C8.85397 6.39734 11.2224 6.87897 13.1316 6.90864C15.9247 6.94005 18.7178 6.14256 21.4731 6.72017L11.364 6.48808L21.58 5.61556L14.3678 6.3415L35.3566 5.37649L15.412 6.73762L37.0582 5.73771C29.3657 6.01981 21.6492 6.03846 13.9526 5.79355C22.3851 6.35163 30.9137 6.28885 39.3166 5.60683C34.0157 5.4695 28.704 5.67092 23.4861 6.20713C32.8498 5.97678 42.2858 5.45327 51.7375 6.11464L42.4619 6.4113C47.005 6.60677 51.5698 6.58575 56.1064 6.34848L55.7352 5.20024C53.9988 5.19745 52.2651 5.12278 50.5486 4.97687C52.3184 4.82447 54.1007 4.70406 55.8957 4.61565L55.7352 4.60518C52.4641 4.57376 49.1898 4.55631 45.9124 4.55282V4.53537C49.2086 4.30242 52.5444 4.2989 55.8422 4.5249H55.7478C53.7914 4.51676 51.835 4.47953 49.8786 4.41322C51.8476 4.36436 53.8166 4.34516 55.7856 4.35563L55.7573 4.34167C53.4014 4.37649 51.0511 4.48661 48.718 4.67149C51.0843 4.8941 53.4799 5.00733 55.8799 5.01003H55.8359C51.7561 5.04674 47.6757 4.95936 43.6131 4.74827L44.0283 4.70639H43.0847C42.0436 4.88438 40.9301 4.88438 39.889 4.70639L40.2728 4.74652C41.1409 5.73771 43.6383 6.21934 45.3682 5.63126C43.6038 4.97216 41.4565 4.70611 39.3543 4.88613C43.5952 5.24709 47.8856 5.39776 52.1747 5.33635L37.9798 5.75691C43.222 5.71386 48.4643 5.73771 53.7065 5.82845L39.0429 5.75865C44.6144 6.03954 50.2176 6.07105 55.7982 5.85288V5.78832L54.2632 5.83718C54.7979 5.76156 55.3379 5.70339 55.8831 5.66267H55.7793C50.8962 5.50359 46.0011 5.49194 41.1157 5.62777C45.8075 5.99963 50.5888 5.80378 55.1313 5.05365C49.5803 4.72339 43.9886 4.65626 38.417 4.85297C44.1933 5.04522 49.9854 5.0394 55.7604 4.83552L55.7038 4.8076C52.0468 4.82854 48.3888 4.81167 44.7297 4.75699L55.8453 4.85472H55.8957L53.4863 4.80935L55.8831 4.77444V4.45336L55.2383 4.42718L55.8674 4.37308L35.7686 4.51443C34.6547 4.78318 33.4668 4.94543 32.2553 4.99432L32.1892 4.91928C33.0904 4.8423 33.9741 4.71184 34.825 4.53014L32.6233 4.51094C33.7907 4.64376 34.9945 4.64376 36.1618 4.51094L36.1083 4.52141C34.9663 4.66045 33.7986 4.7243 32.6296 4.71162L80.0896 3.70997L78.1143 3.74312L78.1489 3.76581L79.882 3.71346L74.3305 3.90716C74.8935 3.94206 75.4534 3.98045 76.0132 4.02582C72.3994 4.31405 68.7582 4.48477 65.1084 4.53712L65.0392 4.61216L70.0497 4.53886C68.5504 4.47721 67.048 4.43823 65.5424 4.42195V4.32597C70.0868 4.49179 74.6476 4.46203 79.1838 4.23697C75.8941 3.97538 72.5662 3.89297 69.2476 3.99092L69.2162 3.97696C70.4554 3.95253 71.6926 3.92577 72.9277 3.89669L69.2445 4.03455C74.5253 4.39435 79.8518 4.50411 85.1662 4.36261C79.8862 4.17299 74.5989 4.12529 69.3042 4.21952L67.7882 4.2963L85.4902 4.79539C78.2523 4.65644 71.006 4.74909 63.7873 5.07285L63.7276 5.19151C66.0553 5.50604 68.4902 5.48079 70.7951 5.11822L64.0043 4.99083L62.0133 5.91745L62.8563 5.83543C62.6581 5.80751 62.4505 5.77436 62.2524 5.75691L62.5921 5.5667C82.8764 4.75525 102.692 4.40624 122.668 4.86868M122.668 4.86868C118.265 4.76746 122.008 4.51967 122.668 4.86868ZM122.668 4.86868C122.012 4.51191 121.565 4.05318 121.388 3.55291V3.53372C121.065 3.8637 120.839 4.22007 120.718 4.58947C121.108 4.4931 121.459 4.35366 121.749 4.17965C122.038 4.00564 122.261 3.80071 122.404 3.57734L122.442 3.56338C121.778 4.24046 120.583 4.95942 119.111 5.00828C117.434 5.06761 117.623 4.17938 118.208 3.55466L117.507 3.5756C118.283 5.04842 121.702 4.79713 122.621 3.54419L122.423 3.53023L121.143 4.6139C121.671 4.26489 122.177 3.91588 122.668 3.54768C122.431 3.8468 122.139 4.13158 121.797 4.39752L122.709 3.60003L122.81 3.57036C122.832 3.6995 122.863 3.82863 122.901 3.95602C122.92 3.84259 122.948 3.72567 122.957 3.60701L122.895 3.51801L122.354 4.16368C122.669 4.00869 122.916 3.81594 123.077 3.60003L123.011 3.58258C122.595 3.9485 122.071 4.27295 121.46 4.54235L122.278 3.56338L122.347 3.58781C121.661 4.13086 120.775 4.58752 119.749 4.92801C119.938 4.41905 120.336 3.94122 120.913 3.53197L121.083 3.54942C120.595 5.20024 115.289 5.36776 115.619 3.52499L114.647 3.50754C109.183 3.60294 103.717 3.59421 98.2508 3.48137C101.816 3.36503 105.387 3.27952 108.964 3.22484H108.992C105.652 3.27022 102.312 3.35747 98.9742 3.4866C102.796 3.5582 106.622 3.50576 110.433 3.32955L105.02 3.02416C100.664 3.02416 96.3091 3.03522 91.9538 3.05732C96.3573 3.03463 100.78 3.01544 105.193 2.97356H105.13C100.403 3.04685 95.6758 3.10502 90.9473 3.14806L91.0197 3.19518L96.524 3.16551C93.9763 3.28185 91.4244 3.38597 88.8683 3.47788V3.36794C97.4299 3.36794 105.991 3.37724 114.553 3.39586L114.468 3.35921C106.152 3.4517 97.8356 3.53372 89.5193 3.56164M89.5193 3.56164C91.0897 3.41665 92.6877 3.38731 94.2719 3.47439C92.6993 3.61922 91.1014 3.54942 89.5193 3.56164ZM89.5193 3.56164C93.4051 3.21337 97.3269 3.00237 101.261 2.92993H99.2888C96.4915 3.0579 93.6953 3.18005 90.9001 3.29639L90.9316 3.26324C99.8311 3.29449 108.722 3.57755 117.569 4.11133L92.0325 3.78326L84.773 3.68728L84.6912 3.60526C85.7145 3.57734 86.7368 3.5471 87.758 3.51452L97.2097 2.93342C98.8872 2.96134 100.565 2.99682 102.242 3.03987M102.242 3.03987C101.11 3.09346 99.9708 3.07707 98.8453 2.99101C99.9493 2.92819 101.138 3.01195 102.242 3.03987ZM102.242 3.03987C97.8388 3.24578 93.4133 3.33653 88.9909 3.37492L88.9532 3.38364L90.4598 3.32257L92.0325 2.98228L92.8754 3.06604H91.9947V3.07477L93.061 3.0643H91.9947L92.1017 3.10618C97.7234 3.09222 103.345 3.11374 108.967 3.17075L107.885 3.14108C107.051 3.22484 106.218 3.31559 105.391 3.4168C109.331 3.67119 113.308 3.7051 117.261 3.51801L117.23 3.54244C117.72 4.5598 119.894 4.28583 121.196 4.02059C120.983 3.82569 120.699 3.65751 120.363 3.52674L119.825 3.58432C120.105 4.88438 116.399 4.44289 116.623 3.51976H116.903C116.186 4.14448 119.007 4.5441 119.664 4.5982C120.123 4.63659 121.319 4.75176 121.721 4.5982C122.036 4.47081 122.011 3.72567 121.674 3.53197L121.731 3.56513C121.636 3.70299 121.548 3.84085 121.463 3.98045L121.542 3.62097L121.341 3.53372C120.866 4.13401 119.343 4.23174 119.026 3.53372H119.425C118.214 3.90716 117.223 4.91056 119.343 5.02748C120.8 5.10775 121.743 4.26489 122.077 3.58956L126.128 3.56164L126.178 4.65578L126.279 3.57385H126.314L125.999 5.62428L126.247 3.5913L126.304 3.61922C125.36 9.12135 124.417 14.88 123.391 20.4921M123.391 20.4921C123.583 19.2583 124.146 16.1295 123.391 20.4921ZM123.391 20.4921C124.102 14.88 125.36 9.12135 126.631 3.5756L127.386 4.58074L127.002 7.22798C126.94 6.00146 127.018 4.77397 127.235 3.55291L126.983 3.54244C125.608 7.49258 124.638 11.483 124.08 15.4943C124.074 11.48 124.678 7.47252 125.886 3.51452L125.911 3.60352C125.759 4.41149 125.516 5.21343 125.184 6.0047C125.008 5.17988 124.903 4.35214 124.87 3.5215H124.986C124.424 5.83543 124.061 8.16216 123.898 10.5017L125.109 3.60177L125.068 3.62795C124.766 6.26337 124.738 8.9063 124.986 11.5435L124.801 3.64366H124.819C124.306 6.76044 124.109 9.89073 124.228 13.0198C123.823 9.89807 123.841 6.76388 124.282 3.64366L124.304 3.55466C123.582 7.45658 123.01 11.3655 122.586 15.2814L122.633 15.2325C122.61 11.8692 122.825 8.51001 123.278 5.15487M123.278 5.15487C123.325 5.76563 123.41 6.48284 123.127 7.07442C122.97 6.46016 123.196 5.76214 123.278 5.15487ZM123.278 5.15487C124.401 12.6184 123.772 19.9476 124.964 27.399M124.964 27.399C124.722 26.3963 124.625 25.3844 124.675 24.3731C124.93 25.3642 124.889 26.4008 124.964 27.399ZM124.964 27.399C122.828 19.5986 125.03 11.5714 125.741 3.63144L125.766 3.62271L125.25 5.90872L125.653 3.59828V3.58258C124.119 11.5737 123.732 19.6199 124.496 27.645M124.496 27.645C124.609 25.8755 123.866 21.389 124.496 27.645ZM124.496 27.645C125.342 19.5986 125.342 11.5714 126.027 3.60701L126.005 3.64191C125.647 6.37349 125.533 9.10739 125.666 11.8436L125.813 3.57909H125.854C125.569 5.35438 125.319 7.13142 125.103 8.9102C124.335 15.2564 124.015 21.6124 124.143 27.9783C124.489 24.985 124.814 21.9911 125.118 18.9966V17.625C124.909 16.3278 124.692 15.0324 124.467 13.7387M124.467 13.7387C124.496 14.4961 124.483 15.3093 124.766 16.0579C124.823 15.2936 124.59 14.4978 124.467 13.7387ZM124.467 13.7387C125.011 19.2426 124.697 25.0013 124.961 30.5645C124.873 28.5728 124.795 26.5829 124.728 24.5947M124.728 24.5947C124.728 25.7743 124.728 26.9592 124.835 28.1371C124.857 26.9575 124.772 25.7743 124.728 24.5947ZM124.728 24.5947C124.694 33.3792 124.694 42.279 124.763 50.9972C124.691 41.7485 124.691 32.3252 124.816 23.0765M124.816 23.0765C124.958 24.3713 125.106 25.7447 124.879 27.0377C124.64 25.7394 124.816 24.38 124.816 23.0765ZM124.816 23.0765C125.09 24.996 125.266 26.9156 125.37 28.8351L125.423 28.8561C125.175 25.2421 124.766 21.6316 124.052 18.0368C124.536 21.656 125.018 25.277 125.379 28.9014H125.395C125.417 28.699 125.436 28.4983 125.455 28.2959L125.511 27.6904C125.722 25.2683 125.782 22.8426 125.791 20.417L125.351 20.3071C125.351 23.1748 125.357 26.0425 125.37 28.9102L123.363 28.809C123.432 21.1639 125.32 13.6602 125.42 5.89476M125.42 5.89476C125.42 6.70272 125.499 7.53162 125.379 8.33783C125.3 7.52381 125.314 6.70782 125.42 5.89476ZM125.42 5.89476C125.385 9.81065 125.363 13.7259 125.354 17.6407L125.244 17.6721C125.714 12.9767 126.133 8.28024 126.502 3.58258L126.537 3.62446C126.952 6.89341 126.866 10.176 126.279 13.4369C125.916 10.148 125.843 6.85396 126.059 3.55466L126.027 3.54244C124.443 10.2978 124.03 17.122 124.794 23.9211M124.794 23.9211C124.389 18.6214 124.646 22.4221 124.794 23.9211ZM124.794 23.9211C124.392 17.1416 123.763 10.3359 125.565 3.58258V3.60352C125.257 8.2244 124.989 12.8464 124.763 17.4697M124.763 17.4697C124.672 16.6791 124.417 15.7002 124.763 14.9219C125.052 15.7229 124.807 16.6669 124.763 17.4697ZM124.763 17.4697C124.392 13.128 124.392 8.59086 124.706 4.22825C125.021 4.22825 123.763 4.22825 123.763 4.40275C122.819 11.2084 123.134 17.8396 123.926 24.5284M123.926 24.5284C123.744 23.7 123.671 22.8654 123.709 22.0312C123.895 22.8531 123.87 23.703 123.926 24.5284ZM123.926 24.5284C123.583 23.0032 123.344 21.471 123.193 19.9354C122.659 14.4943 123.212 9.04108 124.093 3.62097L124.071 3.55466C123.92 4.95069 123.854 6.34673 123.873 7.74277C124.198 6.34673 124.446 4.94255 124.618 3.53023L124.826 3.60003L124.587 6.00645C124.524 5.21071 124.505 4.41148 124.524 3.61399L124.467 3.56513L123.866 9.42325L124.602 3.59654L124.546 3.57385L124.816 16.2254C123.989 12.0181 123.414 7.78814 123.577 3.55291L123.785 3.53546C123.636 8.24709 123.385 12.9587 123.033 17.6703V16.7559L123.266 15.5309C123.178 16.379 123.099 17.2283 123.03 18.0787V18.0979C123.448 25.8668 123.763 33.545 124.319 41.4134M124.319 41.4134C123.986 35.3511 124.222 39.0192 124.319 41.4134ZM124.319 41.4134C123.763 30.5784 123.448 19.5846 122.989 8.78107M122.989 8.78107C123.096 11.1002 123.162 13.0233 122.989 8.78107ZM122.989 8.78107C123.134 15.222 123.763 21.5042 123.873 28.0045L124.436 40.2722C123.872 35.6687 123.519 31.0589 123.379 26.4427L125.82 26.9104C125.61 25.1793 125.347 23.4517 125.03 21.7276L125.291 28.7933L125.228 28.8613C125.398 26.0692 125.503 23.2772 125.543 20.4851V20.4607C125.785 22.2807 125.99 24.1026 126.131 25.9261L122.951 25.0309C123.161 20.4252 123.566 15.8235 124.165 11.2259L124.64 26.851L124.772 31.245V31.1054C124.706 23.7762 124.392 16.2726 123.857 8.96605M123.857 8.96605C123.788 9.78098 123.564 10.671 123.744 11.4841C124.058 10.6936 123.901 9.77051 123.857 8.96605ZM123.857 8.96605C123.763 14.353 123.134 19.9371 123.351 25.3538L123.206 25.3642C123.08 23.5366 122.94 21.7101 122.784 19.8848L122.806 19.8394L122.844 20.3263C122.844 20.164 122.869 20.0017 122.879 19.8412V19.904C122.789 21.2407 122.718 22.5786 122.668 23.9176V22.5722C122.737 21.6834 122.815 20.7957 122.901 19.9092C124.373 30.5854 125.002 41.2302 124.565 51.8697L124.483 51.8872C125.316 38.0891 124.687 24.1287 124.275 10.3917M124.275 10.3917C124.112 11.3725 123.533 12.6935 123.936 13.6742C124.565 12.7301 124.31 11.376 124.275 10.3917ZM124.275 10.3917C122.8 18.3701 124.373 26.3973 124.75 34.4507L124.785 34.9323C124.967 37.4225 125.099 39.9127 125.099 42.4046L125.068 42.3924C125.084 42.0434 125.103 41.6769 125.118 41.3192V41.2215L124.948 42.443L124.983 42.4709C124.709 35.304 124.08 28.1493 123.41 20.9754M123.41 20.9754C123.476 22.3122 123.508 23.6523 123.627 24.9891C123.627 23.6523 123.511 22.3122 123.41 20.9754ZM123.41 20.9754C123.442 30.0689 124.385 38.9686 124.766 48.1284L124.999 50.9553L125.115 50.1125V49.7966C125.063 50.1922 125.008 50.5883 124.952 50.985H124.92C125.008 50.4629 125.021 49.9378 124.961 49.4145C124.646 50.2381 124.744 51.1595 124.678 51.9936L124.492 51.9692C124.492 51.7633 124.508 51.5539 124.54 51.3497C124.558 51.5539 124.54 51.7598 124.54 51.964L124.643 51.9203C124.689 51.0443 124.74 50.1677 124.794 49.2906C124.794 49.8722 124.794 50.4493 124.794 51.0216V50.978C124.794 50.4266 124.794 49.8734 124.794 49.322H124.86C124.886 49.8839 124.911 50.4475 124.939 51.0094L124.854 49.3342C124.886 49.8926 124.914 50.4528 124.945 51.0129L124.87 49.3307L124.992 49.4005C125.008 49.6815 125.027 49.9641 125.046 50.2451L125.065 49.3953L124.791 48.9503C124.751 49.9461 124.713 50.9431 124.675 51.9413C124.722 50.273 124.769 48.6048 124.801 46.9365V46.0186C124.524 47.4146 124.22 48.8107 123.888 50.2067L124.81 43.6471V33.0686C124.543 34.3722 124.209 35.6705 123.794 36.9636C123.719 32.6044 123.804 28.2453 124.049 23.8862C124.29 19.5561 124.709 15.2331 125.307 10.917C125.65 8.47394 126.03 6.03088 126.402 3.59654L126.364 3.55117C124.75 13.306 122.863 22.9037 123.873 32.7039M123.873 32.7039C123.81 31.4387 123.826 30.1579 123.646 28.8945C123.602 30.1596 123.744 31.4405 123.873 32.7039ZM123.873 32.7039C123.502 25.434 123.425 18.163 123.643 10.8908C123.706 8.81888 123.793 6.74751 123.904 4.67672C124.077 9.75481 124.275 14.8364 124.219 19.9162C124.109 27.7951 123.794 35.6478 122.089 43.5563M122.089 43.5563C122.171 42.6297 122.089 41.6124 122.454 40.6997C122.621 41.6193 122.278 42.6419 122.089 43.5563ZM122.089 43.5563L123.347 29.5401L123.297 29.5174C123.176 31.6499 123.053 33.7823 122.929 35.9148C122.822 37.8064 122.7 39.7888 124.058 41.567C123.92 37.0194 123.705 32.4724 123.414 27.926V27.4461C123.794 21.1639 124.109 14.8818 124.499 8.5577M124.499 8.5577C123.87 11.9326 124.417 9.93804 124.499 8.5577ZM124.499 8.5577C123.87 11.9326 123.42 15.3145 123.071 18.7017V18.8971C124.029 22.8278 124.604 26.7843 124.791 30.7495L125.052 30.6011C125.081 27.1599 125.052 23.7187 125.052 20.2774M125.052 20.2774C124.917 21.5391 124.917 22.8042 125.052 24.0659C125.191 22.8112 125.052 21.5321 125.052 20.2774ZM125.052 20.2774C124.423 29.7146 123.794 39.3124 123.112 48.8211M123.112 48.8211C123.19 47.5281 123.266 46.2332 123.369 44.9402C123.3 46.235 123.2 47.5281 123.112 48.8211ZM123.112 48.8211C123.483 38.2654 124.426 27.6206 124.999 17.1695M124.999 17.1695C124.999 17.9565 124.999 18.7523 124.886 19.5375C124.86 18.7505 124.952 17.9565 124.999 17.1695ZM124.999 17.1695C124.999 19.1781 124.999 21.1831 124.952 23.1969C124.813 30.3935 124.464 37.59 124.615 44.7883M124.615 44.7883C124.697 44.5248 124.753 44.2648 124.797 43.9909L124.782 44.1915C124.728 44.3905 124.672 44.5894 124.615 44.7883ZM124.615 44.7883C124.615 43.8129 124.643 42.8356 124.719 41.8619C124.703 41.5859 124.749 41.3099 124.854 41.04C125.071 41.485 124.958 42.0329 124.942 42.4901L124.829 42.4378C124.81 40.5409 124.747 38.644 124.615 36.7472C124.634 41.517 124.269 46.2763 123.52 51.0251C124.175 46.6986 124.477 42.3627 124.426 38.0176L123.152 50.6622C124.075 45.7342 124.704 40.7899 125.04 35.8293L123.203 48.9834L125.26 35.4244L125.228 35.4035C125.316 35.9671 125.401 36.529 125.489 37.0927C125.389 36.5308 125.293 35.9689 125.203 35.407V35.4314C125.287 37.2532 125.367 39.0751 125.442 40.8969L125.688 39.2827L125.543 35.3843L125.76 35.4C125.785 36.2481 125.808 37.0962 125.829 37.9443L126.024 36.4819C126.024 36.1608 126.002 35.8415 125.986 35.5204H125.923L125.184 40.8533L125.162 40.8376C125.213 39.7975 125.262 38.7569 125.31 37.7157L125.244 40.8742H125.316C125.408 39.0262 125.48 37.1799 125.508 35.3319L125.452 35.3162C125.464 36.6425 125.479 37.9687 125.496 39.2949V39.356C125.477 38.5638 125.496 37.7645 125.401 36.9723C125.367 37.9617 125.452 38.9547 125.486 39.9389V40.3681C125.344 38.7104 125.239 37.0508 125.172 35.3895V35.4017C124.123 40.2972 123.353 45.206 122.86 50.1282C123.877 45.1048 124.524 40.0645 124.801 35.0074V34.9777C124.851 36.8856 124.917 38.7935 124.999 40.7014C124.972 38.797 124.936 36.8938 124.892 34.9917H124.917C125.043 40.7049 124.414 46.6381 123.955 52.4753M123.955 52.4753C124.03 51.6464 124.109 50.8175 124.172 49.9886C124.09 50.8157 124.024 51.6464 123.955 52.4753ZM123.955 52.4753C124.099 42.9735 125.672 33.5503 124.269 24.1235M124.269 24.1235C124.201 25.3824 124.274 26.6425 124.489 27.8963C124.562 26.6451 124.357 25.373 124.269 24.1235ZM124.269 24.1235C124.303 26.1222 124.303 28.1197 124.269 30.116C124.175 37.2515 123.782 44.3852 123.741 51.5207M123.741 51.5207C123.741 50.2765 123.725 49.0288 123.797 47.7863C123.822 49.0305 123.763 50.2765 123.741 51.5207ZM123.741 51.5207C123.48 41.225 124.423 30.7547 123.612 20.4589M123.612 20.4589C123.671 21.8358 123.734 23.2231 123.653 24.5999C123.561 23.2231 123.618 21.8375 123.612 20.4589ZM123.612 20.4589C124.423 29.5332 124.423 38.6074 124.807 47.7671V47.6397C124.807 47.4024 124.785 47.1651 124.779 46.926L124.807 47.5228V47.5577C124.711 49.0315 124.462 50.5009 124.061 51.9587M124.061 51.9587C124.118 50.9326 123.904 49.6902 124.376 48.6955C124.691 49.7181 124.263 50.9414 124.061 51.9587ZM124.061 51.9587C124.423 37.7384 125.052 23.778 123.631 9.66057M123.631 9.66057C123.58 10.9519 123.294 12.3462 123.58 13.634C123.951 12.3619 123.722 10.9414 123.631 9.66057ZM123.631 9.66057C123.48 17.3213 123.794 24.825 124.794 32.5067V32.2607C123.48 22.731 122.536 13.1332 125.505 3.59479L125.703 3.5215L125.521 15.3878C125.165 11.4388 124.892 7.47054 125.521 3.5215H125.59C125.43 4.21952 125.112 5.0362 125.276 5.7412C125.65 5.06761 125.628 4.26664 125.747 3.56862C125.777 8.04873 125.803 12.5277 125.826 17.0055L125.574 16.9566C125.574 15.421 125.543 13.8847 125.48 12.3479M125.48 12.3479C125.386 13.2309 125.184 14.2308 125.464 15.1086C125.732 14.2361 125.508 13.2344 125.48 12.3479ZM125.48 12.3479C125.049 19.4032 124.105 26.2088 123.307 33.1646C122.797 37.6668 122.363 42.1708 121.894 46.673C121.951 41.663 122.008 36.6512 122.209 31.6429L122.07 31.7267C122.363 35.4105 122.744 39.089 123.121 42.7693L122.659 31.4475L122.674 31.4387C122.704 32.6533 122.75 33.8684 122.813 35.0841C122.798 33.6288 122.798 32.1746 122.813 30.7215L124.797 31.5731C124.426 37.2044 123.483 42.963 123.706 48.5524M123.706 48.5524C123.914 47.3483 124.124 45.9907 123.826 44.7883C123.495 46.0099 123.715 47.3291 123.706 48.5524ZM123.706 48.5524C124.505 44.0345 124.848 39.4956 124.989 34.9568L124.923 35.0213L125.121 41.6124C123.895 33.5991 124.074 25.5457 124.565 17.515C124.7 15.2465 124.864 12.9919 125.027 10.7303C124.752 16.9601 124.648 23.1922 124.713 29.4267C124.731 31.1939 124.763 32.9604 124.807 34.7264V34.6985C124.348 39.2542 123.72 43.8006 122.923 48.3378L124.222 26.5247L124.593 20.3088L123.234 43.7169L122.854 50.3009L124.285 28.4669L124.694 22.2458C124.882 25.0379 124.959 27.8341 124.923 30.6343L124.882 30.6133C125.314 27.2628 125.86 23.9182 126.518 20.5793L122.882 15.4157L122.385 6.38163C121.995 8.9992 121.756 11.629 121.611 14.257L121.926 14.5362L121.684 8.56992C121.91 10.5977 122.12 12.6254 122.313 14.6531L122.102 14.6741L122.788 7.60491L122.354 15.2534" stroke="#333333" stroke-width="5" stroke-miterlimit="10"/>
</g>
<defs>
<clipPath id="clip0_418_1701">
<rect width="130" height="59" fill="white"/>
</clipPath>
</defs>
</svg>
