<svg width="245" height="128" viewBox="0 0 245 128" fill="none" xmlns="http://www.w3.org/2000/svg">
<g clip-path="url(#clip0_497_1723)">
<rect x="21.0723" y="13.8073" width="205" height="98" fill="#333333"/>
<path d="M244.906 14.1904C244.906 13.842 244.702 13.9362 244.554 13.9268C244.218 13.9268 243.89 13.9268 243.562 13.8608C243.218 13.4465 242.685 13.5689 242.3 13.277C242.226 12.5426 241.718 12.8533 241.382 12.7686C240.495 12.4248 239.571 12.2251 238.636 12.1753H234.841C234.762 12.1148 234.665 12.0912 234.571 12.1094C234.137 11.9305 234.079 11.4691 234.145 10.923C234.145 10.8288 234.145 10.7252 234.145 10.6216C234.413 9.36876 234.483 8.07044 234.35 6.78921C234.35 6.56322 234.35 6.09241 233.866 6.43139C233.712 6.49156 233.549 6.51507 233.387 6.5005C233.225 6.48593 233.067 6.43358 232.923 6.34665C232.8 6.28073 232.686 6.2054 232.571 6.13007C232.52 6.06233 232.451 6.01597 232.374 5.99824C231.844 5.55846 231.246 5.23887 230.612 5.05662V4.03966V3.74775C230.653 3.3711 230.686 2.99445 230.727 2.62721C230.833 2.37247 230.865 2.08509 230.817 1.808C230.817 1.58201 230.694 1.52551 230.415 1.48784C229.962 1.58098 229.496 1.53552 229.063 1.35602C228.866 0.715709 228.194 1.28069 227.907 0.847537C227.883 0.811524 227.866 0.769673 227.858 0.725125C227.843 0.714184 227.826 0.70836 227.809 0.70836C227.791 0.70836 227.774 0.714184 227.76 0.725125C227.76 0.630962 227.76 0.546216 227.702 0.452053C227.473 -0.282417 227.104 0.0942342 226.76 0.291976C226.547 0.0189039 226.358 -0.0940916 226.055 0.226062C225.752 0.546216 225.596 0.725125 225.571 1.01703C225.546 1.24212 225.467 1.45467 225.342 1.63093C225.218 1.80719 225.053 1.94022 224.866 2.01516C224.537 2.6663 224.434 3.4369 224.58 4.17149C224.334 4.35039 224.424 4.63288 224.416 4.87771C224.416 6.52556 224.416 8.17341 224.416 9.83067C224.416 10.0661 224.358 10.1885 224.178 10.1885C223.088 10.1885 221.998 10.1885 220.899 10.1414C220.767 10.1262 220.643 10.0598 220.547 9.95308C220.17 9.58585 220.186 9.58585 219.965 10.0567C219.875 10.2356 219.686 10.1508 219.539 10.132H217.768C217.506 10.4898 217.236 10.1791 216.949 10.132H216.9L216.646 10.245L215.711 10.0849C215.438 10.265 215.116 10.3189 214.81 10.2356C214.114 10.1791 213.415 10.1791 212.719 10.2356C211.851 10.1508 210.974 10.132 210.097 10.1414H209.588C208.851 10.1414 208.113 10.1414 207.375 10.1414H207.269C206.998 10.1979 206.72 10.3956 206.449 10.1414H206.4C205.325 9.99028 204.236 10.0284 203.171 10.2544L199.294 10.1132H199.237C199.143 10.1577 199.043 10.1801 198.941 10.1791C198.827 10.1791 198.712 10.1791 198.597 10.1791C198.608 10.2189 198.608 10.2616 198.597 10.3015H198.286L194.786 10.1791C194.196 10.0284 193.597 10.358 193.007 10.1791C192.909 10.1887 192.81 10.1887 192.712 10.1791C192.686 10.1836 192.661 10.1954 192.64 10.2134C192.618 10.2315 192.601 10.2552 192.589 10.2827H192.417C191.691 10.1703 190.955 10.1703 190.229 10.2827H190.147C189.848 10.4212 189.522 10.4635 189.204 10.4051C189.136 10.4539 189.054 10.4713 188.975 10.4538C188.896 10.4364 188.826 10.3853 188.778 10.3109C188.73 10.2667 188.674 10.2346 188.614 10.2167C188.291 10.1601 187.965 10.1318 187.639 10.132H187.549C187.399 10.1893 187.242 10.2105 187.085 10.1943C186.928 10.178 186.777 10.1248 186.639 10.0378C186.334 10.2102 185.988 10.2599 185.655 10.1791C185.495 10.1556 185.332 10.1556 185.172 10.1791C185.098 10.1973 185.026 10.2258 184.958 10.2638H184.598L184.024 10.1979H183.893C183.875 10.2113 183.853 10.2184 183.831 10.2184C183.81 10.2184 183.788 10.2113 183.77 10.1979C183.53 10.1793 183.289 10.1793 183.049 10.1979L182.5 10.2544C182.096 10.3029 181.689 10.271 181.295 10.1602C180.637 10.3345 179.953 10.3345 179.295 10.1602C178.582 9.906 177.901 10.5463 177.197 10.1602C177.024 10.2167 176.811 10.1037 176.656 10.2827L175.016 10.1602C173.795 10.2167 172.557 10.2827 171.353 10.3109C171.074 10.3109 170.754 10.4239 170.533 10.1508H169.467H169.328H168.935C168.483 10.2828 168.009 10.2828 167.558 10.1508C167.025 10.1037 166.459 10.5275 165.918 9.99075C165.918 9.99075 165.763 10.0472 165.681 10.0661L164.935 10.1979H164.738C164.024 10.2999 163.301 10.284 162.591 10.1508C162.164 10.2181 161.734 10.2527 161.304 10.2544C160.812 10.2544 160.484 9.906 160.099 9.76476C159.714 9.62351 159.411 10.3109 158.927 10.1508H157.575H157.304C157.091 10.1508 156.853 10.2732 156.689 9.98133C156.689 9.89659 156.558 9.6706 156.484 9.92484C156.474 9.97664 156.454 10.0252 156.425 10.0674C156.397 10.1096 156.361 10.1445 156.32 10.1697C156.165 10.2544 155.96 10.1132 155.804 10.1697H155.566C155.165 10.1271 154.76 10.1653 154.37 10.2827H154.288H154.173C153.894 10.2827 153.575 10.2827 153.403 10.0943C153.091 9.79301 152.993 10.0943 152.812 10.1979H152.526H152.001C151.932 10.2284 151.856 10.2284 151.788 10.1979C151.632 10.1037 151.69 9.77417 151.558 9.60468C151.296 9.79301 151.304 10.358 150.886 10.2167C150.608 10.3109 150.419 9.72709 150.28 9.93425C149.895 10.5275 149.46 10.1508 149.018 10.1791C149.296 9.76476 149.018 9.36927 148.952 8.98321C148.952 8.7478 148.829 8.41823 148.55 8.44648C148.272 8.47473 148.362 8.8043 148.313 9.01146C148.216 9.31328 148.163 9.63148 148.157 9.95308C148.157 10.3015 147.985 10.3392 147.772 10.1037L147.354 10.2544C147.282 10.2888 147.206 10.3066 147.128 10.3066C147.051 10.3066 146.974 10.2888 146.903 10.2544C146.719 10.0834 146.554 9.88732 146.411 9.6706C146.206 9.38811 146.018 9.31278 146.141 8.90788C146.141 8.78546 145.878 8.66305 145.706 8.61597C145.534 8.56889 145.444 8.75722 145.436 8.95496C145.428 9.1527 145.436 9.2657 145.313 9.36927C145.206 9.68943 145.501 10.2356 144.919 10.3109V10.3768L144.969 10.3109C144.965 10.2733 144.965 10.2355 144.969 10.1979C144.674 10.0472 144.296 9.18095 144.149 10.3203C143.878 10.3203 143.592 10.5275 143.329 10.2262C143.245 10.3069 143.145 10.3629 143.038 10.3891C142.931 10.4154 142.82 10.4112 142.715 10.3768C142.113 10.2498 141.496 10.2498 140.895 10.3768C141.379 9.80242 141.116 9.19037 140.969 8.59714C140.969 8.43706 140.879 8.19224 140.657 8.30523C140.623 8.31569 140.592 8.33602 140.567 8.36426C140.542 8.39251 140.524 8.42772 140.514 8.4665C140.504 8.50529 140.503 8.54634 140.511 8.58571C140.519 8.62509 140.535 8.66145 140.559 8.6913C140.879 9.26569 140.518 9.5011 140.223 9.82126L140.149 9.89659V9.8495L139.821 9.1527C139.444 9.70826 140.067 9.906 140.034 10.3015C139.84 10.3761 139.63 10.3761 139.436 10.3015C139.266 10.1816 139.084 10.0837 138.895 10.0096C138.528 9.65593 138.126 9.35257 137.698 9.10562C137.116 8.94554 136.797 9.5576 136.428 9.97192H136.297H136.158H136.1H136.059C135.846 10.1602 135.633 10.3674 135.338 10.1791C135.334 10.1402 135.323 10.1028 135.305 10.07C135.286 10.0373 135.261 10.0101 135.231 9.99075C135.138 9.95749 135.042 9.93849 134.944 9.93425C134.509 9.89794 134.071 9.96196 133.658 10.1226L133.518 10.2073H133.453C133.409 10.2118 133.365 10.2118 133.322 10.2073C133.174 10.206 133.03 10.1498 132.912 10.0472H132.822C132.508 10.2062 132.155 10.2264 131.83 10.1037C131.778 10.0831 131.728 10.0546 131.682 10.019H131.453C130.453 10.019 129.445 10.3392 128.445 9.906C128.043 9.72709 127.625 10.2544 127.15 9.906C126.74 9.95308 126.33 9.97192 125.92 9.99075H125.535C124.29 9.94201 123.044 9.99235 121.806 10.1414C121.604 10.1415 121.403 10.113 121.207 10.0567C120.472 10.2018 119.721 10.2018 118.986 10.0567C118.971 10.0697 118.952 10.0767 118.933 10.0767C118.914 10.0767 118.895 10.0697 118.88 10.0567H118.47C118.43 10.075 118.386 10.075 118.347 10.0567C117.74 10.1414 117.117 10.4992 116.617 9.69884C116.47 9.46344 116.216 9.58585 116.085 9.87775C115.954 10.1697 115.658 10.2544 115.396 10.0284C115.37 10.0129 115.345 9.99395 115.322 9.97192C115.048 9.9455 114.772 9.96453 114.503 10.0284H114.281C113.862 10.1508 113.422 10.1508 113.003 10.0284H112.773C112.091 10.0896 111.406 10.0896 110.724 10.0284H110.601C110.323 10.0284 110.044 10.0284 109.782 10.0284C108.38 10.1414 106.962 9.92484 105.552 10.0755C105.464 10.0649 105.378 10.0362 105.298 9.99075C105.294 9.96585 105.294 9.94032 105.298 9.91542V9.8495C105.102 9.68001 105.151 9.18095 104.749 9.30336C104.348 9.42577 104.225 9.48227 104.454 9.92484C104.454 9.92484 104.216 10.019 104.126 9.92484C104.006 9.77609 103.902 9.61176 103.815 9.43519C103.569 9.04912 103.446 8.89846 102.995 9.30336C102.701 9.69549 102.288 9.94454 101.839 10.0002C100.893 10.0944 99.9416 10.0944 98.9953 10.0002C98.179 10.1193 97.3528 10.1193 96.5364 10.0002C95.9873 10.1226 95.5037 9.45402 94.8972 9.82126C94.6185 10.2638 94.1677 9.906 93.8398 10.1037C93.7333 9.906 93.512 10.1037 93.4218 9.98133C93.0366 9.6141 92.7661 9.66118 92.2989 9.98133C92.1706 10.0499 92.0307 10.0853 91.8891 10.0849H91.5777C91.2908 10.0849 90.9875 9.99075 90.7006 9.98133C89.881 9.98133 88.9794 9.98133 88.1188 9.98133C87.6106 9.98133 87.2336 9.906 87.2992 9.18095C87.0287 8.77605 86.5369 8.99262 86.2172 8.6913C85.7664 9.35986 85.8402 8.59714 85.6927 8.43706C85.2747 8.33348 84.8157 7.49543 84.4632 8.52181L84.2173 8.41823C83.996 8.68189 84.4878 8.84196 84.2993 9.08679C84.1108 9.33161 83.7911 9.22803 84.0862 9.54818C84.3813 9.86834 84.4222 9.42577 84.5862 9.31278C85.2337 8.8608 85.6107 8.98321 85.9632 9.77417C85.7501 10.0002 85.4878 9.95308 85.2255 10.0096H85.0534C84.8654 10.0331 84.6758 10.0331 84.4878 10.0096C83.7851 9.71817 83.022 9.67877 82.2994 9.89659C81.7476 10.0992 81.1546 10.0992 80.6028 9.89659C80.3812 9.79548 80.1409 9.76058 79.9044 9.79516C79.6679 9.82974 79.4428 9.93268 79.2504 10.0943L76.1849 10.0472C75.5866 10.0472 74.8981 10.245 74.6768 9.2657C74.6768 9.16212 74.6194 9.05854 74.5047 9.0962C74.4731 9.10861 74.4447 9.12968 74.4218 9.15757C74.399 9.18547 74.3824 9.21935 74.3735 9.25628C74.308 9.77417 74.267 9.81184 73.808 9.77417C73.6935 9.77389 73.5799 9.79618 73.4719 9.84009C73.2179 9.68943 72.931 10.1226 72.6523 9.84009C72.5785 9.73651 72.89 9.45402 72.5458 9.51052C72.3327 9.51052 72.3245 9.79301 72.3327 10.0002C72.134 10.0433 71.9291 10.0279 71.7371 9.95548C71.545 9.88302 71.3721 9.75586 71.2343 9.58585C71.095 9.39752 71.1032 9.25628 71.2343 9.13387C71.3655 9.01146 71.513 9.00204 71.5622 9.2092C71.6933 9.74593 71.8327 9.51052 72.0786 9.28453C72.5949 8.81371 72.5458 8.3429 72.0786 7.80617C71.9228 8.79488 71.3655 8.7478 70.7754 8.57831C70.3737 8.64422 70.3164 9.0962 70.1114 9.37869C70.1852 9.88717 69.9393 10.0284 69.5541 10.0002H69.423C69.1443 9.93425 68.8 10.132 68.6033 9.63293C68.4066 9.13387 68.046 9.28453 67.7837 9.54818C67.7181 9.60468 67.6689 9.68943 67.6034 9.74593C67.5732 9.7847 67.5342 9.81314 67.4908 9.82809C67.4474 9.84305 67.4013 9.84394 67.3575 9.83067L67.2017 9.97192L67.2591 10.0472V9.9625C66.8575 9.9625 66.4395 10.132 66.1936 9.51993C66.0051 9.43519 65.7756 9.17153 65.6608 9.58585C65.5953 9.83067 65.5789 10.0472 65.3002 9.99075C65.0215 9.93425 65.1117 9.68943 65.0625 9.51052C65.0133 9.33161 64.9887 9.32219 64.9478 9.22803C64.497 8.89846 63.7019 9.17153 63.6118 8.21107C63.6118 8.21107 63.5216 8.21107 63.4888 8.21107C63.3116 8.06717 63.0965 7.99795 62.88 8.01511C62.6635 8.03227 62.4587 8.13474 62.3003 8.30523C62.202 8.38998 61.9561 8.30523 61.9889 8.55006C62.0217 8.79488 62.1938 8.7478 62.3659 8.71013C63.3167 8.52181 63.5298 8.65364 64.0544 9.65176L63.0872 9.97192C63.0661 9.99145 63.0468 10.0136 63.0298 10.0378C63.0509 10.0183 63.0702 9.9962 63.0872 9.97192C62.8413 9.87775 63.1773 9.34103 62.7347 9.38811C62.4932 9.40801 62.2511 9.35812 62.0307 9.24299C61.8102 9.12785 61.6183 8.95114 61.4725 8.72897C61.1283 8.29582 60.7758 8.06041 60.2676 8.45589C60.1447 8.55006 59.9644 8.52181 59.9808 8.76663C59.9972 9.01146 60.2021 9.0397 60.3824 9.0397C60.8009 9.03711 61.211 9.17453 61.5627 9.43519C61.1201 9.43519 61.2922 10.1791 60.8496 10.1037C59.7513 9.906 58.653 10.1885 57.5711 10.1037C57.3979 10.1581 57.2132 10.1345 57.0547 10.0378C56.6449 9.6706 56.2351 9.89659 55.8908 10.0378L55.7679 10.0943C55.7514 10.1428 55.7514 10.1965 55.7679 10.245H52.6369C52.1031 10.0767 51.5442 10.0414 50.9976 10.1414H50.8992C50.9037 10.1102 50.9037 10.0784 50.8992 10.0472C50.4075 10.1037 49.8993 10.2073 49.6862 9.46344C49.637 9.29394 49.3911 9.10562 49.3747 9.36927C49.3092 10.4051 48.678 10.0284 48.2108 10.0661H47.1699C46.5174 10.0804 45.8661 10.137 45.2192 10.2356C44.793 10.3203 44.793 10.2356 44.711 9.80242C44.6103 9.93168 44.4805 10.0265 44.3358 10.0763C44.1912 10.1262 44.0374 10.1291 43.8914 10.0849C43.4488 9.97192 43.3422 10.4898 43.0717 10.6593C42.7193 10.6593 42.2521 10.9512 42.039 10.6593C41.9906 10.5752 41.9271 10.5041 41.8527 10.4505C41.7784 10.397 41.6949 10.3624 41.6079 10.349C41.521 10.3357 41.4325 10.3438 41.3485 10.373C41.2646 10.4021 41.187 10.4516 41.121 10.5181C40.7194 10.7911 40.4407 10.7158 40.3588 10.1414L40.5473 9.48227C39.9486 9.42864 39.3467 9.45074 38.7523 9.54818H38.1785C37.5857 9.6396 36.9828 9.5883 36.4081 9.39752L36.2524 9.57643H36.2032C35.9491 9.49169 35.777 9.86834 35.7688 9.85892C34.9902 9.19037 34.1295 9.75534 33.3099 9.69884C32.5522 9.61412 31.7891 9.61412 31.0313 9.69884C30.8106 9.73545 30.5917 9.78574 30.3756 9.8495H30.3264C29.7056 9.78033 29.079 9.83448 28.4741 10.0096C28.0806 9.84009 27.7364 10.1885 27.3512 10.1414H27.2774C27.1656 10.0834 27.0468 10.0452 26.925 10.0284H26.5561C26.3273 10.061 26.1001 10.1081 25.8758 10.1697H24.5398C24.3759 10.3486 24.2284 10.5934 23.9743 10.358C23.7202 10.1226 23.5071 10.2167 23.2612 10.2356C21.999 10.3297 21.999 10.3392 21.6629 9.06795C21.6629 8.8608 21.6629 8.65364 21.6629 8.44648C21.8214 7.78254 21.9149 7.10034 21.9416 6.41256C21.9256 6.28833 21.8847 6.17006 21.8222 6.0671C21.7596 5.96414 21.677 5.87932 21.5809 5.81934H21.5154H21.4662C21.2367 5.61218 20.917 5.64984 20.6466 5.49918C20.3761 5.34852 19.9171 5.24494 20.1958 4.70821L20.2368 4.6423C20.5318 4.83063 20.6712 5.44268 21.2121 4.98129C21.3924 4.82121 21.5318 5.46152 21.9252 5.57451C21.8596 4.82121 21.8023 4.09615 21.7449 3.36168L21.3842 3.00387L21.3105 2.58955C21.1302 2.24115 21.0236 1.808 20.622 1.64792C20.6033 1.45611 20.5591 1.26873 20.4908 1.09236C20.3433 0.772207 20.204 0.838121 20.1302 1.15827C19.8843 1.15827 19.8433 0.913451 19.7368 0.734541C19.7368 1.59142 19.0401 1.39368 18.6467 1.67617C18.6467 1.99632 18.8024 2.34473 18.4991 2.6178C18.3434 2.6743 18.3598 2.98503 18.1385 2.93795C18.0155 2.64605 17.6139 2.70255 17.5811 2.30706C17.5898 2.28818 17.5943 2.26718 17.5943 2.24586C17.5943 2.22453 17.5898 2.20353 17.5811 2.18465C17.2779 2.00574 16.9664 1.62909 16.655 2.18465C16.2779 2.24115 16.1714 2.74021 15.8353 2.84379C15.3108 2.40122 15.0157 2.60838 14.8845 3.27694C14.7531 4.45382 14.7092 5.64143 14.7534 6.82688V7.26944C14.5977 7.61785 14.7534 8.00391 14.6469 8.36173C14.8137 8.73727 14.8489 9.17199 14.7452 9.57643V9.64235C14.7534 9.68896 14.7534 9.73698 14.7452 9.78359C14.7452 10.584 14.237 10.6122 13.6469 10.5746C12.8273 10.5275 12.065 10.5746 11.27 10.5746C11.27 10.7441 11.229 10.923 11.27 11.0736C11.2044 10.923 11.27 10.7441 11.27 10.5746L10.5241 10.5181H9.92576H9.43398C8.08978 10.5181 6.75378 10.5181 5.40958 10.4521C5.31942 10.4521 5.21287 10.5651 5.12271 10.6311C5.10683 10.6193 5.08833 10.613 5.06943 10.613C5.05054 10.613 5.03204 10.6193 5.01616 10.6311H4.9178C4.9178 10.6311 4.9178 10.584 4.9178 10.5651C4.9178 10.5463 4.77027 10.358 4.68011 10.358C3.86047 10.8194 3.04084 10.4333 2.22121 10.358C1.60648 10.2638 1.02454 10.5463 0.409817 10.4898C0.15573 10.4898 0.278675 10.8382 0.098356 10.9135L0 11.2149C0.58194 11.422 1.1229 11.6386 0.860615 12.5708C0.860615 12.665 0.98356 12.8251 1.05733 12.9475L1.22125 13.117C1.68844 13.2017 1.48354 13.8138 1.7786 14.0586C1.7786 14.1151 1.7786 14.1716 1.7786 14.2187C1.94253 14.3976 2.03269 14.6612 1.84418 14.7931C1.70559 14.9066 1.59908 15.0644 1.53788 15.2468C1.47668 15.4293 1.46349 15.6284 1.49993 15.8194C1.65566 16.3656 1.36879 16.4127 1.09011 16.5539L0.819633 16.6951C0.819633 16.9965 1.04913 16.987 1.23765 17.0059C1.25552 16.9888 1.27198 16.9699 1.28682 16.9494C1.26982 16.9737 1.25058 16.9958 1.22945 17.0153C1.48354 17.5238 1.86057 17.1942 2.18023 17.1754C2.64023 17.0598 3.1132 17.028 3.5818 17.0812C3.66093 17.1075 3.73776 17.1422 3.8113 17.1848C4.06177 17.2547 4.31664 17.302 4.57355 17.326C4.77813 17.3449 4.9837 17.3449 5.18828 17.326C5.41874 17.3066 5.64678 17.2593 5.86858 17.1848C6.00818 17.0574 6.13468 16.912 6.24561 16.7516C6.27776 16.6939 6.32764 16.6522 6.38534 16.6347C6.44304 16.6173 6.50434 16.6254 6.55707 16.6575C6.76198 16.7422 6.55707 16.827 6.55707 16.9211C6.55707 17.3731 6.91771 17.2695 7.13081 17.2601C8.54058 17.2601 9.94215 17.2601 11.3437 17.1754C11.6413 17.2938 11.9608 17.3198 12.2699 17.2507C12.5732 17.2507 12.7699 17.2507 12.8437 17.4202C12.9174 17.5897 12.8928 17.7404 12.7617 18.0323C12.7043 18.1641 12.6551 18.3053 12.5978 18.4466C12.3606 19.5826 12.18 20.7333 12.0568 21.8929C11.9628 24.7179 11.9956 27.5465 12.1552 30.3676C12.2902 34.4831 12.6103 38.5878 13.1141 42.6653C13.4009 44.4853 13.5245 46.3342 13.483 48.1832C13.2781 51.1399 13.065 54.0966 12.901 57.0628C12.606 62.317 12.6715 67.5807 12.6715 72.8444C12.6715 79.4923 12.6715 86.1308 13.1059 92.7599C13.2249 94.7135 13.4301 96.6589 13.7207 98.5886C13.7027 98.6592 13.6977 98.7334 13.7062 98.8064C13.7147 98.8794 13.7363 98.9495 13.7698 99.0123C13.7698 99.0123 13.7698 99.0123 13.7698 99.0876C13.8272 99.7468 13.8764 100.415 13.9256 101.084C13.8777 102.199 13.9078 103.317 14.0157 104.427C14.1387 105.98 14.2534 107.543 14.3518 109.135C14.3928 109.766 14.0649 109.992 13.5321 109.7C13.3641 109.631 13.1856 109.602 13.0076 109.615C12.0404 109.502 11.0896 109.737 10.1143 109.672C9.6061 109.672 8.9504 109.361 8.47501 109.86C8.2701 109.803 8.12257 110.001 7.94225 110.039C7.90459 110.134 7.85178 110.22 7.78652 110.293C7.73993 110.336 7.68466 110.364 7.62589 110.376C7.56712 110.387 7.50676 110.381 7.45047 110.359C7.29474 110.359 7.13901 110.227 6.98328 110.189L6.75378 110.463C6.57346 110.67 7.22097 110.999 6.79476 110.98C6.36855 110.962 5.86858 111.837 5.35221 111.131C4.88052 111.095 4.40684 111.149 3.95063 111.291C3.78671 111.348 3.71294 111.432 3.85228 111.611C3.85228 111.771 3.74572 111.837 3.64737 111.941C3.40968 112.186 3.25394 112.506 3.72114 112.694C3.97522 113.146 3.72114 113.137 3.42607 113.156C3.131 113.174 2.79495 113.391 2.9015 113.466C3.3523 113.786 3.52442 114.69 4.27029 114.408C4.3081 114.417 4.34723 114.417 4.38504 114.408C4.73748 114.653 5.02435 115.048 5.49154 115.001C5.67186 115.095 5.95874 115.152 6.00791 115.302C6.20463 115.877 6.58166 115.83 6.98328 115.802C7.10197 115.971 7.26542 116.091 7.44884 116.143C7.63227 116.196 7.82564 116.178 7.99962 116.093C8.29168 115.998 8.60097 115.998 8.89302 116.093C9.15922 116.194 9.44646 116.194 9.71266 116.093C11.4421 116.301 13.1715 115.943 14.8927 116.093L15.0321 116.404C14.9869 116.856 15.0473 117.313 15.2073 117.728C15.3672 118.144 15.6208 118.502 15.9419 118.768C16.1632 118.984 16.2451 118.862 16.3845 118.768C16.4707 118.874 16.5745 118.96 16.6899 119.02C16.8053 119.08 16.93 119.112 17.0566 119.116L17.2205 119.238C17.8106 119.681 18.7122 119.323 19.122 120.18C19.122 120.18 19.3352 120.18 19.3515 120.114C19.4499 119.775 19.786 119.888 19.9417 119.672C20.163 119.154 20.663 118.918 20.9007 118.419C20.9007 118.269 20.9007 118.109 20.9007 117.958C20.9078 117.95 20.9136 117.94 20.9175 117.93C20.9214 117.919 20.9234 117.908 20.9234 117.897C20.9234 117.885 20.9214 117.874 20.9175 117.863C20.9136 117.853 20.9078 117.843 20.9007 117.835C21.0091 117.443 21.0454 117.03 21.0072 116.621C21.0072 116.263 21.122 116.093 21.4252 116.084H22.6629C23.4005 116.084 24.1464 116.188 24.8923 116.084C25.0574 116.124 25.2291 116.104 25.384 116.028C25.7447 115.962 26.1053 116.197 26.466 116.028H29.2199C29.4308 116.103 29.6566 116.103 29.8674 116.028H31.6379H33.8263H34.9C35.5557 116.329 36.1704 115.877 36.8097 115.877C37.6114 116.125 38.4504 116.17 39.2686 116.009C39.4022 116.023 39.5367 116.023 39.6703 116.009H41.998C42.3139 116.089 42.6411 116.089 42.957 116.009C43.7139 115.929 44.4766 115.957 45.2274 116.093C45.2812 116.112 45.3386 116.112 45.3926 116.094C45.4465 116.076 45.4945 116.039 45.5306 115.99L45.6782 115.839C46.547 116.075 47.4568 115.736 48.3092 116.046C48.5295 116.11 48.7624 116.08 48.9649 115.962C49.1329 116.041 49.3215 116.041 49.4895 115.962C50.3982 116.032 51.3101 116.032 52.2188 115.962L57.3498 115.802C57.4843 115.789 57.6194 115.815 57.7432 115.877C57.8471 115.979 57.9794 116.035 58.1161 116.035C58.2529 116.035 58.3851 115.979 58.489 115.877C58.5567 115.807 58.6442 115.769 58.7349 115.769C58.8257 115.769 58.9132 115.807 58.9808 115.877C59.0706 115.959 59.1818 116.003 59.2964 116.003C59.4109 116.003 59.5221 115.959 59.6119 115.877C60.0627 116.159 60.4971 115.877 60.9316 115.877C61.6938 115.877 62.4561 115.99 63.2101 116.018C63.893 115.929 64.5808 115.901 65.2674 115.933C65.6936 116.272 66.087 115.764 66.5133 115.867C67.0214 115.66 67.5214 116.282 68.0214 115.867C69.1981 116.038 70.3856 116.092 71.5704 116.028H74.0293C75.8407 116.028 77.6521 116.103 79.4553 116.028C79.9634 116.028 80.5044 116.235 81.0044 115.933C81.0394 115.943 81.0759 115.943 81.1109 115.933H82.4551C82.9906 116.111 83.5589 116.111 84.0944 115.933C84.1364 115.969 84.1843 115.994 84.2351 116.006C84.2858 116.019 84.3384 116.02 84.3895 116.009C85.0203 116.178 85.6766 116.178 86.3074 116.009L86.5287 115.943C86.579 115.898 86.6257 115.847 86.668 115.792C86.8648 115.792 87.0205 116.018 87.2336 115.952L87.4467 116.037C88.0087 116.203 88.6005 116.18 89.1515 115.971H89.2663C89.5941 115.905 89.9056 116.272 90.2498 116.018H90.7744C91.2252 116.018 91.676 116.498 92.1268 116.018H92.676C92.7895 116.132 92.9351 116.195 93.0858 116.195C93.2365 116.195 93.3821 116.132 93.4956 116.018C94.2169 116.018 94.9218 116.423 95.6512 116.103C96.091 115.917 96.5615 115.846 97.0282 115.896C97.3069 116.348 97.5856 115.896 97.8478 115.896C98.1593 116.367 98.5281 116.103 98.8888 116.018C99.0363 116.018 99.0773 115.764 99.2986 115.867L99.6019 115.98C99.7679 116.083 99.9542 116.135 100.143 116.131C101.118 116.233 102.099 116.208 103.069 116.056H104.708C104.758 115.932 104.778 115.796 104.766 115.66C104.831 115.66 104.831 115.802 104.708 116.056C104.976 116.142 105.26 116.142 105.528 116.056H105.733C106.463 116.131 107.199 116.131 107.929 116.056H108.454H109.552H109.692C110.249 116.141 110.79 115.783 111.331 115.99C111.6 116.066 111.881 116.066 112.15 115.99H112.855H114.749C116.126 116.103 117.511 115.82 118.896 115.99C119.472 115.998 120.046 115.932 120.609 115.792H120.855C121.582 115.941 122.323 115.982 123.06 115.915H123.724H124.158C124.834 115.99 125.515 115.99 126.191 115.915H127.289C127.384 115.952 127.486 115.963 127.586 115.946C127.685 115.93 127.78 115.887 127.863 115.82C128.535 116.263 129.24 115.943 129.928 115.962C130.788 116.028 131.65 116.028 132.51 115.962C132.994 116.103 133.494 115.717 133.904 115.839C135.297 116.263 136.698 115.679 138.084 116.009C138.186 116.028 138.291 116.02 138.39 115.985C138.49 115.951 138.581 115.891 138.657 115.811H138.715H138.772C139.407 115.943 140.054 115.99 140.698 115.952H141.108L143.124 115.83C143.145 115.868 143.172 115.9 143.204 115.926C143.236 115.952 143.272 115.97 143.31 115.98C143.349 115.989 143.388 115.99 143.426 115.982C143.465 115.974 143.501 115.958 143.534 115.933C143.734 115.788 143.966 115.71 144.202 115.71C144.439 115.71 144.671 115.788 144.87 115.933C144.964 115.978 145.064 116.001 145.165 116.001C145.267 116.001 145.367 115.978 145.46 115.933C146.181 115.882 146.904 115.882 147.624 115.933L147.927 115.849C148.009 115.463 148.001 115.463 148.304 115.623C148.608 115.783 148.837 115.623 148.862 115.359C148.87 115.271 148.87 115.183 148.862 115.095C148.788 114.483 149.05 114.267 149.55 114.342C149.648 114.387 149.735 114.458 149.804 114.549C149.888 114.66 149.944 114.794 149.967 114.938C149.99 115.082 149.979 115.231 149.936 115.368C149.837 115.726 149.895 115.849 150.026 115.886H150.099H150.362V115.952L150.903 115.886C151.132 115.886 151.476 116.009 151.558 115.886C151.952 115.255 152.288 115.641 152.657 115.886C152.791 115.802 152.94 115.752 153.092 115.739C153.245 115.726 153.398 115.75 153.542 115.811C153.911 116.001 154.329 116.028 154.714 115.886C154.903 115.943 155.05 115.943 155.14 115.679C155.23 115.415 155.386 115.312 155.542 115.547C155.911 116.103 156.411 115.905 156.87 115.924C157.32 116.094 157.805 116.094 158.255 115.924C158.435 115.745 158.615 115.98 158.796 115.924C159.574 116.103 160.345 115.717 161.124 115.924C161.15 115.956 161.184 115.979 161.222 115.99C161.328 115.99 161.46 116.122 161.533 116.084C161.739 115.963 161.966 115.9 162.197 115.9C162.428 115.9 162.656 115.963 162.861 116.084C162.935 116.084 163.066 116.028 163.164 115.999C163.243 115.91 163.345 115.853 163.454 115.836C163.563 115.819 163.675 115.843 163.771 115.905C164.226 116.117 164.734 116.117 165.189 115.905H165.353C165.754 116.075 166.025 115.962 166.05 115.378C166.361 115.557 166.427 115.971 166.804 115.943C167.541 115.943 168.279 115.943 169.008 115.943H170.795C170.967 115.943 171.09 115.698 171.328 115.943C171.566 116.188 171.992 116.018 172.328 115.943C172.23 115.557 171.894 115.754 171.738 115.547C172.033 115.293 172.279 115.472 172.557 115.547C172.836 115.623 172.828 116.056 173.148 115.933H173.541H173.607H173.656C173.656 115.933 173.656 115.933 173.607 115.933C173.733 115.984 173.87 115.988 173.999 115.946C174.128 115.904 174.243 115.817 174.328 115.698C174.484 115.463 174.566 115.321 174.59 115.764C174.59 115.962 174.795 115.896 174.918 115.877H176.008C176.377 115.519 176.721 115.943 177.082 115.877C178.262 115.792 179.467 116.15 180.614 115.538C180.836 115.425 180.778 115.773 180.901 115.839L181.024 115.896C181.328 116.018 181.647 115.896 181.95 115.896C182.721 116.018 183.401 115.237 184.18 115.651C184.483 115.933 184.786 115.651 185.09 115.651C185.241 115.764 185.417 115.824 185.598 115.824C185.778 115.824 185.955 115.764 186.106 115.651C186.192 115.584 186.293 115.548 186.397 115.548C186.501 115.548 186.602 115.584 186.688 115.651C187.093 115.876 187.553 115.935 187.991 115.82C188.622 115.594 189.27 115.915 189.901 115.698C190.15 115.858 190.443 115.905 190.721 115.83L190.868 115.255C191.54 114.888 191.942 115.406 192.36 115.849C192.524 115.924 192.63 115.764 192.761 115.707C192.72 115.35 192.843 115.199 193.155 115.255C193.474 115.491 193.483 115.114 193.507 114.954C193.597 114.493 193.843 114.389 194.204 114.427C194.565 114.464 194.499 114.756 194.483 115.048C194.466 115.34 194.753 115.528 194.679 115.839H195.065C195.286 115.764 195.45 115.368 195.737 115.679C196.024 115.99 196.187 115.811 196.417 115.679C196.663 115.962 196.958 115.783 197.237 115.802C197.794 115.519 198.351 115.952 198.876 115.802H199.54H199.81C200.13 115.726 200.458 116.15 200.777 115.802H201.171H205.146C205.736 116.122 205.728 115.604 205.736 115.058C205.906 115.306 206.125 115.505 206.374 115.639C206.623 115.773 206.896 115.839 207.171 115.83C207.35 115.891 207.541 115.891 207.72 115.83C207.916 115.604 208.064 115.434 208.375 115.707C208.477 115.793 208.595 115.848 208.719 115.868C208.844 115.888 208.971 115.871 209.089 115.82H210.039H211.22C211.318 115.82 211.523 115.82 211.465 115.67C211.121 114.992 211.752 115.152 211.957 114.841C211.515 115.83 212.072 115.783 212.572 115.783H213.851L214.023 115.67C214.301 115.538 214.146 115.058 214.392 114.907C214.432 114.898 214.474 114.898 214.514 114.907C214.769 115.142 215.088 115.293 215.228 115.66C215.444 115.793 215.687 115.858 215.932 115.849C216.555 115.849 217.186 115.849 217.809 115.849H218.08C218.818 116.018 219.514 115.481 220.26 115.689C220.842 115.853 221.449 115.853 222.031 115.689C222.194 115.689 222.276 115.189 222.563 115.51C222.85 115.83 223.071 115.971 223.006 116.451C222.881 116.971 222.918 117.524 223.112 118.014C223.262 118.313 223.481 118.559 223.744 118.725C224.007 118.891 224.304 118.971 224.604 118.956C224.727 119.22 225.088 119.069 225.178 119.389C225.199 120.651 225.117 121.912 224.932 123.156C224.932 123.316 224.989 123.466 225.014 123.626C225.014 124.107 225.014 124.568 225.014 125.048V125.924C225.26 125.924 225.563 126.197 225.678 125.642C225.793 125.086 225.522 125.199 225.284 125.152C225.325 124.785 225.358 124.427 225.391 124.069C225.555 124.069 225.817 123.947 225.883 124.163C226.088 124.907 226.784 124.982 227.153 125.491C227.358 125.858 227.522 125.387 227.702 125.491C227.948 125.507 228.181 125.624 228.358 125.82C228.458 125.951 228.587 126.048 228.732 126.099C228.877 126.151 229.031 126.155 229.178 126.112V125.679C228.358 125.293 229.399 124.992 229.178 124.587C228.989 124.869 228.547 124.295 228.407 124.917C228.366 125.095 228.284 125.293 228.096 125.227C228.007 125.198 227.931 125.132 227.884 125.041C227.837 124.95 227.821 124.841 227.842 124.738C228.112 124.521 228.153 124.342 227.842 124.107C227.561 123.969 227.301 123.782 227.071 123.551L227.022 123.476C227.334 122.996 227.842 123.071 228.219 123.014C228.358 123.203 227.809 123.956 228.604 123.57C228.67 123.57 228.825 123.73 228.94 123.749C229.055 123.768 229.35 123.975 229.432 123.749C229.514 123.523 229.366 123.419 229.153 123.504C229.096 123.504 229.022 123.551 228.965 123.4C229.112 123.146 229.407 123.4 229.588 123.231C229.588 123.033 229.588 122.845 229.588 122.657L228.891 121.95C229.71 122.176 229.596 121.564 229.596 121.103V120.943C229.629 120.627 229.606 120.307 229.53 120.001C229.533 119.973 229.533 119.945 229.53 119.916L229.604 118.805C229.609 118.781 229.609 118.755 229.604 118.73V118.382L229.456 117.28C229.456 117.129 229.456 116.969 229.456 116.818C229.469 116.665 229.469 116.511 229.456 116.357C229.399 115.905 229.456 115.698 229.948 115.594C230.44 115.491 230.825 115.773 231.235 115.538C232.104 115.82 232.981 114.945 233.858 115.538C233.858 115.538 233.932 115.538 233.956 115.472C234.505 114.737 235.292 115.011 235.964 114.85C236.423 114.737 236.923 114.926 237.349 114.596H238.038C238.308 114.596 238.677 114.747 238.817 114.596C239.317 114.041 239.858 114.596 240.349 114.436C240.544 114.467 240.742 114.417 240.907 114.295C241.121 114.297 241.335 114.322 241.546 114.37C241.857 114.464 242.226 114.625 242.53 114.276L242.661 113.956C242.816 113.495 242.898 113.014 243.48 113.014C243.71 113.014 243.759 112.835 243.685 112.581C243.617 112.421 243.594 112.24 243.62 112.063C243.808 111.527 243.554 111.395 243.177 111.272C242.879 111.16 242.565 111.112 242.251 111.131C241.923 110.717 241.325 111.009 241.03 110.5C240.964 110.124 240.743 110.029 240.431 110.039C240.077 110.17 239.703 110.215 239.333 110.171C239.185 110.171 239.038 110.086 238.89 110.067C238.861 110.057 238.83 110.057 238.8 110.067H238.743C237.262 110.197 235.776 110.229 234.292 110.161L233.989 110.095C233.451 109.854 232.862 109.808 232.301 109.963H232.21C231.391 109.615 230.497 109.766 229.678 109.455C229.598 109.317 229.552 109.157 229.543 108.992C229.534 108.826 229.564 108.661 229.629 108.513C229.802 106.952 229.854 105.377 229.784 103.805C229.74 101.253 229.82 98.7008 230.022 96.1592C230.202 94.5584 230.325 92.9576 230.473 91.3569C230.68 89.4736 230.822 87.5903 230.899 85.7071C230.943 85.5587 230.962 85.4022 230.956 85.2457C231.12 83.6826 231.063 82.1007 231.128 80.5376C231.21 78.5319 231.21 76.5262 231.202 74.53C231.202 70.8199 231.112 67.1193 231.137 63.4187C231.137 61.4413 231.342 59.4733 231.448 57.4959C231.448 57.4017 231.448 57.3076 231.448 57.2134C231.538 56.5637 231.628 55.9234 231.694 55.2737C231.989 52.4488 232.276 49.671 232.366 46.8555C232.366 46.573 232.456 46.2999 232.464 46.0175C232.464 44.0965 232.464 42.1756 232.464 40.2547L232.587 35.5465C232.821 33.892 232.96 32.2218 233.005 30.5465C233.145 29.1341 233.276 27.7216 233.407 26.3092C233.333 25.0097 233.555 23.7197 233.563 22.4297L233.612 21.9871L233.686 21.3091V20.8101C233.686 20.6123 233.686 20.4146 233.686 20.2168V18.2677C233.768 17.0718 234.464 17.8628 234.891 17.778C234.999 17.7247 235.117 17.699 235.235 17.7027C235.914 17.6277 236.597 17.6277 237.276 17.7027C238.218 17.7027 239.136 17.1754 240.071 17.6368L240.349 17.4861L240.595 17.3731C240.644 17.3731 240.71 17.5049 240.751 17.4955L243.734 16.8364C243.8 16.7422 243.923 16.6386 243.923 16.5351C243.923 15.9795 244.144 15.7253 244.62 15.6782C244.898 15.6782 244.89 15.3863 244.841 15.1415C244.792 14.8966 245.07 14.5011 244.906 14.1904ZM6.9423 12.4578C6.92126 12.4821 6.90456 12.5109 6.89312 12.5426L6.9423 12.4578ZM6.2702 11.5162C6.2702 11.3373 6.32757 11.2243 6.42593 11.196C6.31937 11.1866 6.2702 11.2996 6.2702 11.4879V11.5162ZM225.399 123.683C225.399 123.523 225.309 123.429 225.194 123.325C225.301 123.429 225.399 123.523 225.399 123.683ZM219.145 114.568C219.088 114.794 219.039 115.02 219.145 115.161C219.022 115.02 219.072 114.794 219.145 114.568ZM217.055 114.841C217.017 114.734 216.952 114.642 216.869 114.575C216.787 114.508 216.689 114.47 216.588 114.464C216.691 114.475 216.79 114.519 216.871 114.593C216.953 114.667 217.014 114.766 217.047 114.879L217.055 114.841ZM206.367 17.4861C206.381 17.3848 206.418 17.2896 206.475 17.2107C206.532 17.1319 206.607 17.0723 206.691 17.0385C206.775 17.0046 206.866 16.9977 206.953 17.0185C207.041 17.0393 207.121 17.087 207.187 17.1565C207.291 17.1872 207.399 17.203 207.507 17.2036C207.384 17.3919 207.13 17.2036 207.105 17.4955C207.269 17.7874 207.925 17.4955 207.777 18.0699C207.63 18.6443 207.261 18.2771 206.957 18.2488C206.498 18.2112 206.269 17.891 206.367 17.4861ZM232.866 11.0265V10.9606C232.866 10.9606 232.866 11.0077 232.866 11.0265ZM229.915 54.6145C230.071 54.0495 229.579 53.8047 229.415 53.3998C229.579 53.8047 230.071 54.0495 229.924 54.6145H229.915ZM229.374 53.2115C229.307 53.2702 229.227 53.3065 229.144 53.3164C229.06 53.3264 228.975 53.3096 228.899 53.268C228.976 53.3039 229.061 53.315 229.143 53.3001C229.225 53.2851 229.302 53.2448 229.366 53.1832L229.374 53.2115ZM227.563 121.254L227.497 121.169H227.588C227.582 121.17 227.577 121.172 227.572 121.176C227.568 121.179 227.564 121.184 227.561 121.189C227.558 121.194 227.556 121.2 227.555 121.206C227.554 121.213 227.554 121.219 227.555 121.225L227.563 121.254ZM230.965 76.3944C231.022 76.3944 231.03 76.4885 231.03 76.5639C230.992 76.5057 230.967 76.4379 230.956 76.3661L230.965 76.3944ZM212.285 10.471C212.058 10.485 211.831 10.485 211.605 10.471C211.831 10.4898 212.059 10.4898 212.285 10.471ZM192.614 10.2544C193.237 10.4427 193.515 10.7158 193.507 11.196C193.507 10.7158 193.237 10.4427 192.614 10.2544ZM192.614 10.2544C192.243 10.3306 191.867 10.3653 191.491 10.358C191.851 10.3617 192.21 10.327 192.565 10.2544H192.614ZM188.991 16.9494C189.417 17.1 189.958 16.8458 190.458 16.8835C190.655 16.8835 190.843 16.8835 191.048 16.9494C192.233 17.2525 193.463 17.2299 194.638 16.8835L195.351 17.0624C195.727 17.2359 196.127 17.3254 196.532 17.326C197.296 17.1668 198.068 17.063 198.843 17.0153L198.655 16.94C198.723 16.9375 198.791 16.9643 198.843 17.0153C198.909 17.0915 198.994 17.143 199.086 17.1631C199.178 17.1833 199.273 17.1711 199.359 17.1283C199.357 17.1073 199.361 17.0862 199.37 17.0677C199.379 17.0492 199.392 17.0342 199.409 17.0247C199.794 17.0247 200.179 17.0247 200.564 17.0247C201.269 17.0247 201.384 17.2319 201.138 18.0699C201.339 18.1031 201.543 18.1031 201.745 18.0699C202.015 17.9663 202.163 18.004 202.269 18.3242C202.296 18.439 202.34 18.5474 202.4 18.6443C202.433 18.6916 202.48 18.7228 202.531 18.7316C202.583 18.7403 202.636 18.726 202.679 18.6914C202.701 18.6813 202.721 18.6651 202.736 18.6443C202.9 18.4277 202.466 17.8157 203.072 17.8063C203.072 17.8063 203.113 17.6744 203.015 17.6556H202.941C202.802 17.6556 202.663 17.6556 202.695 17.4014C202.728 17.1471 202.851 17.1942 202.974 17.1848H203.072C203.084 17.1484 203.084 17.1082 203.072 17.0718L203.204 17.0059H203.326C203.507 17.1754 203.736 17.2884 203.753 17.6085L203.941 17.7215C204.138 17.8157 204.335 17.8533 204.466 17.665C204.597 17.4767 204.244 17.3072 204.171 17.0812C204.162 17.0062 204.162 16.9302 204.171 16.8552H204.703L205.072 17.7968L205.121 17.9193C205.72 18.1923 206.318 18.4937 206.925 18.7479C207.18 18.8203 207.449 18.7826 207.682 18.6421C207.915 18.5015 208.094 18.2678 208.187 17.9852C208.393 18.188 208.556 18.4425 208.662 18.7291C208.706 18.6741 208.759 18.6293 208.818 18.5972C209.121 18.4089 209.498 18.5972 209.941 18.4654C209.548 18.1641 209.302 17.8722 208.933 17.8345C208.564 17.7968 208.113 17.7592 208.728 17.2319C208.793 17.1754 208.777 16.9965 208.793 16.8646H210.162L210.261 17.326C210.261 17.4296 210.302 17.5238 210.326 17.6274L210.531 17.7498L210.9 17.9569L211.105 18.004C211.252 18.004 211.367 17.9287 211.588 17.7592C211.441 17.5803 211.08 17.7592 211.072 17.3825C211.064 17.0059 211.408 17.1471 211.572 17.0247C211.61 17.0052 211.646 16.9799 211.679 16.9494L211.793 16.8646C212.064 16.7516 212.154 17.0812 212.342 17.1754C212.482 17.5803 212.908 17.8722 212.711 18.4089C212.818 18.4089 212.9 18.569 212.998 18.6349C213.038 18.674 213.089 18.6955 213.142 18.6955C213.194 18.6955 213.245 18.674 213.285 18.6349C213.285 18.5878 213.285 18.5407 213.285 18.4937L213.113 18.1735C212.769 17.5238 212.826 17.3449 213.457 17.1471C214.006 17.2225 214.023 17.5709 213.883 17.9946L213.818 18.1641C213.926 18.2819 214.056 18.3715 214.197 18.4267C214.339 18.4819 214.489 18.5016 214.637 18.4842C214.67 18.4747 214.704 18.4747 214.736 18.4842C214.908 18.4842 215.08 18.7291 215.228 18.4842C215.295 18.3792 215.331 18.2521 215.331 18.1217C215.331 17.9913 215.295 17.8643 215.228 17.7592C215.506 17.1377 215.801 17.6556 215.842 17.8439C215.865 18.0477 215.948 18.2361 216.078 18.377C216.208 18.5179 216.377 18.6024 216.555 18.6161C216.777 18.6631 216.777 18.9268 216.834 19.2093C216.83 19.2563 216.83 19.3035 216.834 19.3505C216.875 19.2741 216.928 19.2071 216.99 19.1528C217.236 18.9456 217.572 18.8986 217.58 18.3901C217.58 18.1358 217.842 18.3242 217.932 18.456C218.008 18.5769 218.112 18.6704 218.233 18.7255C218.354 18.7805 218.485 18.7948 218.613 18.7667H218.768H219.424L219.522 18.7196C220.08 18.456 219.99 17.6462 220.391 17.2225L220.67 17.6368C220.891 17.8157 220.817 18.5784 220.965 18.343C221.342 17.8439 221.629 18.2959 221.932 18.2488C221.99 18.2498 222.047 18.2361 222.1 18.2088C222.152 18.1816 222.199 18.1414 222.236 18.091C222.274 18.0407 222.301 17.9815 222.317 17.9177C222.332 17.8538 222.335 17.7869 222.326 17.7215C222.326 17.4955 222.211 17.2695 222.326 17.0341C222.567 17.2116 222.84 17.3219 223.125 17.3562C223.409 17.3906 223.697 17.348 223.965 17.2319C224.432 17.0435 224.489 17.5614 224.489 17.9569C224.489 19.5954 224.432 21.2432 224.432 22.8816C224.304 23.644 224.373 24.4326 224.629 25.151C224.801 25.4617 224.432 25.5559 224.366 25.7819H224.285L224.211 29.4165C224.211 30.2452 224.211 31.0832 224.153 31.9119V32.0154C224.293 33.6059 224.293 35.2084 224.153 36.7989C224.153 37.185 224.211 37.571 224.227 37.9571C224.193 39.6823 224.245 41.4083 224.383 43.1267C224.296 43.3909 224.273 43.6774 224.317 43.9553C224.317 44.8216 224.506 45.6973 224.473 46.5259C224.473 46.7519 224.473 46.9779 224.473 47.2133C224.514 47.7974 224.497 48.3849 224.424 48.9648C224.301 49.7369 224.703 50.4996 224.53 51.2906C224.662 55.8104 224.973 60.3208 225.129 64.85C225.109 67.7389 224.925 70.6232 224.58 73.4848C224.424 75.5093 224.309 77.5338 224.178 79.5583C224.178 79.756 224.104 79.9726 224.293 80.1232C224.358 80.1797 224.383 80.2833 224.424 80.3586C223.604 80.8483 224.301 81.7428 224.039 82.4491C223.889 83.202 223.839 83.9766 223.891 84.7466C223.801 86.1214 223.727 87.4868 223.67 88.8521C223.514 92.4586 223.547 96.065 223.58 99.6714L223.309 104.21C223.309 104.351 223.309 104.502 223.309 104.643C223.117 105.949 223.034 107.274 223.063 108.598C222.932 108.862 222.694 108.711 222.514 108.777C222.392 108.713 222.262 108.672 222.129 108.655C219.965 108.57 217.801 108.57 215.637 108.655C215.569 108.649 215.5 108.665 215.44 108.702C215.379 108.738 215.328 108.794 215.293 108.862C215.244 108.859 215.195 108.87 215.15 108.892C215.105 108.914 215.065 108.948 215.033 108.99C215.001 109.033 214.977 109.083 214.964 109.138C214.951 109.192 214.948 109.249 214.957 109.304C214.449 109.813 213.81 109.389 213.26 109.624C213.105 109.649 212.952 109.686 212.801 109.737C212.9 109.624 213.097 109.662 213.26 109.624C213.209 109.556 213.141 109.507 213.065 109.483C212.989 109.46 212.909 109.463 212.834 109.493C212.353 109.7 211.823 109.7 211.342 109.493C211.195 109.493 211.031 109.408 210.916 109.596C209.328 109.753 207.729 109.722 206.146 109.502C205.94 109.43 205.723 109.414 205.511 109.455C205.3 109.496 205.099 109.593 204.925 109.737C204.058 109.596 203.185 109.511 202.31 109.483C201.122 109.483 199.925 109.483 198.745 109.54C197.22 109.662 195.704 109.643 194.179 109.596C193.774 109.437 193.339 109.398 192.917 109.483C191.278 109.483 189.573 109.559 187.893 109.606H184.655C184.59 109.606 184.532 109.511 184.475 109.521H184.073H183.934C183.196 109.577 182.467 109.521 181.729 109.521H181.483C181.057 109.521 180.623 109.521 180.196 109.521C179.77 109.521 179.229 109.285 178.754 109.521H177.401C176.098 109.737 174.787 109.314 173.475 109.521C172.428 109.441 171.377 109.422 170.328 109.464C168.85 109.593 167.367 109.627 165.886 109.568C163.607 109.493 161.328 109.493 159.05 109.464C157.304 109.464 155.558 109.596 153.804 109.464C152.834 109.352 151.856 109.352 150.886 109.464C150.821 109.464 150.731 109.464 150.64 109.464C150.407 109.367 150.157 109.335 149.911 109.37C148.272 109.37 146.632 109.53 144.993 109.464C141.641 109.342 138.289 109.53 134.936 109.464C134.117 109.464 133.24 109.464 132.379 109.417C132.208 109.379 132.033 109.379 131.863 109.417H128.182C126.855 109.417 125.535 109.474 124.207 109.502C124.043 109.361 123.855 109.427 123.683 109.427C121.691 109.427 119.699 109.502 117.708 109.483C117.273 109.483 116.831 109.483 116.413 109.483C114.216 109.417 112.019 109.483 109.855 109.483C109.224 109.483 108.593 109.568 107.97 109.54C107.283 109.479 106.592 109.479 105.905 109.54C105.711 109.559 105.517 109.559 105.323 109.54C104.196 109.397 103.06 109.372 101.93 109.464H101.774C101.686 109.449 101.596 109.469 101.52 109.521H98.4298C98.3309 109.469 98.226 109.434 98.1183 109.417L93.7087 109.493C93.4696 109.399 93.2101 109.399 92.971 109.493H92.2907C90.7192 109.391 89.1431 109.435 87.5778 109.624C87.0046 109.61 86.4325 109.557 85.8648 109.464C85.6399 109.426 85.4104 109.446 85.1927 109.521C84.4483 109.446 83.6995 109.446 82.9551 109.521H82.8977C82.8482 109.492 82.7935 109.477 82.7379 109.477C82.6823 109.477 82.6276 109.492 82.5781 109.521C80.5946 109.521 78.611 109.389 76.6275 109.521C76.4611 109.47 76.2858 109.47 76.1194 109.521C75.103 109.521 74.0867 109.662 73.0703 109.521C72.6441 109.323 72.2507 109.596 71.8081 109.521C69.2836 109.295 66.7673 109.521 64.2429 109.464C61.0135 109.464 57.776 109.333 54.5384 109.464C54.4237 109.464 54.3007 109.342 54.2106 109.408C53.727 109.408 53.2434 109.511 52.7598 109.408C52.6952 109.375 52.6255 109.358 52.5549 109.358C52.4843 109.358 52.4146 109.375 52.35 109.408C51.1683 109.318 49.9827 109.318 48.801 109.408C47.9813 109.408 47.1617 109.351 46.3421 109.342C43.1537 109.342 39.9653 109.276 36.777 109.342C35.277 109.342 33.7771 109.229 32.2772 109.436C31.8592 109.502 31.392 109.304 30.9412 109.37C30.3962 109.306 29.8469 109.306 29.3019 109.37C27.8511 109.37 26.4086 109.201 24.9578 109.37C24.7365 109.37 24.5562 109.615 24.3103 109.483C23.6047 109.199 22.8438 109.146 22.1137 109.333C21.3351 109.398 21.3351 109.483 21.3515 108.56C21.3952 104.128 21.4416 99.6934 21.4908 95.2552C21.6547 77.4678 21.6629 59.6899 21.6383 41.9025C21.6383 36.9967 21.5236 32.0908 21.7859 27.1943C21.958 24.0398 22.3842 20.9325 22.8268 17.778C22.9333 17.0153 23.1464 16.8364 23.712 16.9776H24.1218C24.5793 17.0388 25.0413 17.0388 25.4988 16.9776C26.2944 17.1842 27.1275 17.0712 27.8593 16.6575C27.9823 16.5821 28.2528 16.4032 28.3429 16.8835C28.4331 17.3637 28.9167 17.2978 29.1626 17.1565C29.8038 16.8857 30.5089 16.8924 31.1461 17.1754C31.269 17.1754 31.6133 17.0059 31.8755 17.0059C32.0432 16.8876 32.2361 16.8251 32.4329 16.8251C32.6296 16.8251 32.8226 16.8876 32.9902 17.0059V17.166C33.1296 17.166 33.2689 17.166 33.4083 17.166C33.6859 17.1581 33.9628 17.2027 34.2279 17.2978C34.3017 17.1754 34.4492 17.1095 34.5148 17.166C35.3344 17.8345 36.0311 17.1 36.7852 17.0247C37.0966 17.552 37.6048 17.3731 38.031 17.4484C38.0732 17.5106 38.1262 17.5619 38.1867 17.5991C38.3015 17.665 38.4162 17.7404 38.3588 17.9569C38.3015 18.1735 38.3588 18.1264 38.3588 18.1641C38.3846 18.1929 38.4156 18.2146 38.4497 18.2277C38.4837 18.2407 38.5199 18.2447 38.5556 18.2394C38.7523 18.2394 39.1293 18.2865 39.1129 18.1547C39.1129 17.9287 39.1129 17.8251 39.1785 17.7874C39.2441 17.7498 39.4162 17.7874 39.5391 17.7874H39.6539C39.7096 17.8739 39.7791 17.9474 39.8588 18.004C40.0965 18.1735 40.3833 18.2206 40.6292 18.3712C40.9407 18.5502 41.0227 18.0511 41.2931 18.0888H41.3669C41.557 17.9709 41.7697 17.9092 41.9857 17.9092C42.2018 17.9092 42.4144 17.9709 42.6045 18.0888C42.7144 18.1473 42.8212 18.2133 42.9242 18.2865C42.9816 18.4277 43.1045 18.3995 43.2029 18.4277C43.3012 18.456 43.4734 18.4277 43.5717 18.3524C43.6701 18.2771 43.6865 18.2582 43.6619 18.1358C43.6127 17.8533 43.334 17.6744 43.0881 17.5426C42.9816 17.4861 42.7111 17.7309 42.7767 17.3825C42.8177 17.1848 43.0308 17.0435 43.2521 17.279C43.4734 17.5144 43.6127 17.1942 43.752 17.0247H43.8012C44.2684 17.0718 44.793 16.827 45.1618 17.4202C45.1849 17.4484 45.2142 17.4689 45.2465 17.4797C45.2789 17.4904 45.3132 17.491 45.3458 17.4814C45.3784 17.4718 45.4082 17.4523 45.4321 17.425C45.456 17.3977 45.473 17.3635 45.4815 17.326C45.7028 16.6386 46.0962 16.9494 46.3011 17.2507C46.7109 17.8722 46.924 18.1923 47.2191 18.1923H47.3256C47.6092 18.1605 47.8862 18.0745 48.1453 17.9381C48.0997 18.0647 48.0997 18.2069 48.1453 18.3336C48.177 18.4116 48.2248 18.4795 48.2846 18.5313C48.452 18.6672 48.6575 18.7261 48.8608 18.6965C49.0641 18.6669 49.2504 18.5508 49.3829 18.3712C49.476 18.2286 49.6025 18.1192 49.7476 18.0558C49.8927 17.9925 50.0505 17.9778 50.2026 18.0134C50.4812 17.7121 49.5059 17.6179 50.2026 17.2978L50.4812 17.6085C50.8009 18.0228 51.35 18.0888 51.6287 18.6066C51.6943 18.7385 51.8828 18.4748 51.9648 18.4937C52.4483 18.6255 52.6778 17.7498 53.2024 18.0982H53.4237C53.4237 18.0982 53.5057 18.0982 53.5139 18.0511C53.6368 17.6839 53.8745 17.7968 54.104 17.7121C54.7187 17.4767 55.2105 17.9193 55.7433 17.8157C55.9236 17.8157 56.1449 17.7404 56.2269 17.9852C56.3088 18.23 56.1203 18.3053 56.0137 18.4277C55.9072 18.5502 55.8498 18.6537 55.899 18.7479C55.9361 18.8132 55.9908 18.8628 56.0547 18.8891C56.0925 18.8797 56.1317 18.8797 56.1695 18.8891C56.2297 18.8604 56.2932 18.8414 56.358 18.8326H56.4072C57.0055 18.5596 56.6121 17.8157 56.6777 17.1471C56.9895 17.4706 57.2774 17.8234 57.5383 18.2017C57.7022 18.4842 57.8661 18.456 57.9071 18.2017C58.071 17.1848 58.7267 17.0153 59.4644 16.8646H59.7267C59.7267 17.1471 59.7267 17.4296 59.9316 17.6274C60.1365 17.8251 60.3332 17.8533 60.3332 17.5614C60.3332 17.0812 60.6365 17.0435 60.8742 16.9117L60.9643 16.8552H61.2348C61.4971 17.5049 60.7676 17.3919 60.6939 17.7968C60.6853 17.8592 60.6853 17.9228 60.6939 17.9852C60.7117 18.0437 60.7464 18.0935 60.7922 18.1264C60.7921 18.2007 60.8166 18.2722 60.8608 18.3264C60.9049 18.3807 60.9654 18.4135 61.0299 18.4183C61.0338 18.459 61.0338 18.5001 61.0299 18.5407C61.2266 18.7573 61.4643 18.7102 61.6938 18.7291C61.7936 18.6985 61.8825 18.6326 61.9479 18.5407C62.1446 18.2488 62.2102 17.778 62.6692 17.8628C62.7511 17.8628 62.7429 17.7121 62.6692 17.6179C62.5954 17.5238 62.5872 17.4014 62.4397 17.3825C62.0872 17.3825 62.0872 17.326 62.2102 16.8364H62.8905C62.9203 16.9348 62.9588 17.0294 63.0052 17.1189C63.12 17.3449 62.8741 17.7874 63.161 17.8345H63.3085C63.4425 17.8139 63.5675 17.7456 63.666 17.6392C63.7644 17.5328 63.8315 17.3937 63.8576 17.2413C63.9232 16.8364 64.1937 17.0059 64.3904 16.9682C64.3904 17.1565 64.2183 17.3449 64.3904 17.5803C64.6773 17.4673 64.6855 16.9117 65.0625 16.94C65.333 16.8741 65.292 17.8251 65.7182 17.2036C65.7446 17.234 65.7667 17.269 65.7838 17.3072C65.9797 17.6156 66.2568 17.8435 66.5742 17.9571C66.8915 18.0707 67.2322 18.064 67.546 17.9381H67.6444C67.7591 17.7403 67.6444 17.5332 67.6444 17.3355C67.7673 17.1471 67.8575 16.94 68.1197 17.053C68.382 17.166 68.1689 17.3543 68.1935 17.5049C68.2181 17.6556 68.2591 17.9852 68.4722 18.0699C68.6853 18.1547 68.7672 17.9193 68.9066 17.7968C69.2508 17.4673 69.6115 17.166 69.9639 16.8552H71.1688C71.1806 16.9577 71.1704 17.062 71.139 17.1589C71.1075 17.2557 71.0558 17.3422 70.9885 17.4108C70.8983 17.5332 70.7262 17.6744 70.9229 17.8533C71.1196 18.0323 71.2999 17.9381 71.3327 17.778C71.4556 17.1942 71.9474 17.2225 72.2589 16.9682V16.9494C72.267 16.9219 72.267 16.8921 72.2589 16.8646C73.0785 16.8646 73.849 16.7799 74.6276 16.8646C75.314 16.9466 75.9955 17.0755 76.6685 17.2507C76.8898 17.2978 77.0292 17.3637 77.2341 17.0624C77.439 16.7611 77.857 16.827 78.1521 17.1471C78.2914 17.5238 78.5865 17.5614 78.8651 17.6274C79.0368 17.6414 79.2002 17.7172 79.3323 17.8439L79.4225 17.7874C79.4881 17.7403 79.5454 17.7027 79.57 17.7215C80.07 18.1547 80.4962 17.8628 80.9306 17.6179L81.1027 17.5238L82.0699 17.8251C82.1604 17.8478 82.2465 17.8893 82.324 17.9475C82.4551 18.0323 82.5781 18.1264 82.7092 18.2017C82.8366 18.2721 82.9798 18.2951 83.119 18.2677C83.1561 18.2165 83.1864 18.1594 83.2092 18.0982C83.2666 17.9381 83.2092 17.8345 82.9633 17.8439C82.8007 17.8471 82.6409 17.7947 82.5043 17.6933C82.4997 17.6538 82.5032 17.6136 82.5146 17.576C82.526 17.5384 82.5449 17.5044 82.5699 17.4767C82.6354 17.4014 82.7584 17.3919 82.8567 17.3543C82.9109 17.3475 82.9608 17.3172 82.9961 17.2695C82.9996 17.2541 82.9996 17.2379 82.9961 17.2225C83.8157 17.3637 84.7337 16.9306 85.5042 17.6744C85.5892 17.7615 85.69 17.8258 85.7992 17.8628C85.8562 17.8907 85.9176 17.9052 85.9796 17.9052C86.0415 17.9052 86.1029 17.8907 86.1599 17.8628C86.3632 17.7057 86.5454 17.5154 86.7008 17.2978H86.75C86.9221 17.3731 87.0041 17.5897 87.1352 17.7404C87.198 17.8241 87.2857 17.8778 87.3811 17.891C87.7336 17.778 88.1024 18.1923 88.4548 17.891C88.4846 17.8038 88.5324 17.7262 88.5942 17.665C88.6191 17.6345 88.6498 17.611 88.6839 17.5963C88.7181 17.5816 88.7546 17.5761 88.7909 17.5803C89.1597 17.5803 89.0122 17.3166 89.004 17.1189C89.5204 16.8081 89.9958 17.3637 90.5367 17.1848C90.8325 17.1322 91.1309 17.1007 91.4301 17.0906C91.7387 17.2697 92.0371 17.4709 92.3235 17.6933C92.4208 17.7487 92.5266 17.7815 92.635 17.7896C92.7433 17.7976 92.852 17.7809 92.9546 17.7404L93.0776 17.6839C93.2818 17.6141 93.4899 17.5606 93.7005 17.5238C93.8228 17.503 93.9394 17.4507 94.0416 17.3708C94.1438 17.2909 94.2289 17.1854 94.2906 17.0624C94.2922 17.0373 94.2922 17.0121 94.2906 16.987H96.0365C96.2187 16.9587 96.4034 16.9587 96.5856 16.987H96.979C97.2085 16.987 97.4626 16.9306 97.6347 17.2225C97.7011 17.2876 97.7852 17.3242 97.8724 17.326C98.2003 16.6857 98.5527 17.1 98.9052 17.2507H99.0527C99.4991 17.0149 99.9881 16.9051 100.479 16.9305C101.126 16.9305 101.569 17.5803 102.298 17.4108C102.856 17.2884 103.413 17.1471 103.938 16.9965C105.233 16.6481 106.577 17.1095 107.88 16.7516C107.921 16.7516 107.987 16.7516 108.011 16.7516C108.503 17.326 109.249 16.3656 109.708 17.1189L113.757 16.9494C113.796 16.9725 113.84 16.9846 113.884 16.9846C113.928 16.9846 113.972 16.9725 114.011 16.9494C114.634 16.9494 115.273 16.8929 115.888 16.9494C116.614 16.8463 117.345 16.7991 118.076 16.8081C118.568 17.213 118.896 17.0153 119.052 16.2997C119.052 17.0247 119.437 17.0153 119.871 16.9776C121.38 16.8364 122.896 16.8929 124.412 16.9211C124.921 16.97 125.433 16.9478 125.937 16.8552C126.01 16.8653 126.084 16.8415 126.142 16.7893C127.158 16.8458 128.166 16.8929 129.027 15.9324C129.027 16.3185 128.748 16.4221 128.863 16.6763C128.978 16.9305 129.051 16.7987 129.158 16.7516C129.734 16.6139 130.326 16.579 130.912 16.6481C131.109 16.6481 131.469 16.6481 131.486 16.601C131.674 15.8194 132.199 16.3185 132.527 16.149C132.649 16.4221 132.289 16.4032 132.428 16.7611C133.248 16.7611 134.117 16.7611 134.985 16.7611C135.526 16.7611 136.256 16.9588 136.559 16.6386C136.75 16.4417 136.986 16.3128 137.239 16.2677C137.493 16.2225 137.752 16.2631 137.985 16.3844C138.168 16.4411 138.354 16.4789 138.543 16.4974C138.632 16.5833 138.746 16.627 138.862 16.6198L139.1 16.5727L139.485 16.6292C140.477 16.8081 141.403 16.3373 142.379 16.6292C143.244 16.7 144.112 16.7 144.977 16.6292C145.733 16.7454 146.501 16.7104 147.247 16.5256C147.608 16.8081 148.001 16.601 148.362 16.5821C148.947 16.4673 149.547 16.4898 150.124 16.6481C151.37 16.8458 152.649 16.6481 153.894 16.8741C154.28 16.94 154.714 16.6669 155.001 16.7705C156.148 17.1754 157.288 16.8552 158.427 16.8552C158.649 16.8302 158.873 16.8862 159.066 17.0153C159.353 17.2413 159.624 17.4673 159.886 16.9682C159.884 16.8521 159.922 16.7397 159.992 16.6558C160.062 16.572 160.158 16.5234 160.259 16.5209C160.36 16.5184 160.458 16.5622 160.531 16.6425C160.604 16.7229 160.646 16.8333 160.648 16.9494C160.788 17.4861 160.992 17.1942 161.189 17.0624C161.386 16.9306 161.64 16.6763 162.009 16.94C162.11 17.0049 162.226 17.0317 162.34 17.0165C162.455 17.0012 162.563 16.9448 162.648 16.8552C162.796 17.0624 163.001 17.0247 163.197 17.0059C163.197 17.0906 163.156 17.2884 163.197 17.2601C163.722 17.0059 164.181 17.4014 164.673 17.4484C164.692 17.404 164.706 17.3564 164.714 17.3072C164.714 17.1 164.763 16.8458 165.099 16.9965C165.713 17.8533 166.197 16.9965 166.738 16.827H166.968C166.968 16.987 167.099 17.213 167.205 17.1283C167.95 16.7295 168.772 16.5607 169.59 16.6386C169.662 16.7739 169.772 16.8763 169.902 16.9279C170.033 16.9794 170.175 16.9771 170.303 16.9211C171.238 16.4974 172.213 16.7987 173.164 16.6575C173.276 16.6309 173.391 16.6315 173.502 16.659C173.614 16.6866 173.719 16.7406 173.811 16.8176C173.957 16.961 174.14 17.0444 174.332 17.0546C174.523 17.0649 174.712 17.0013 174.869 16.8741C175.082 16.7516 175.287 16.6575 175.467 16.9305C175.63 16.8424 175.808 16.7968 175.988 16.7968C176.168 16.7968 176.345 16.8424 176.508 16.9305C177.016 17.2319 177.451 16.6104 177.992 16.7799C178.683 16.8694 179.382 16.8694 180.073 16.7799C180.073 16.8364 180.073 16.8929 180.073 16.9494C180.573 17.439 180.991 16.9494 181.426 16.7705C181.468 16.7516 181.515 16.7516 181.557 16.7705C181.688 17.0341 182.213 16.7705 182.131 17.3543C182.131 17.4484 182.221 17.5332 182.319 17.4484C182.86 16.9965 182.967 17.3449 183.049 17.7498L183.098 17.9852C183.251 18.0382 183.417 18.0231 183.561 17.9429C183.705 17.8627 183.818 17.7232 183.877 17.552C183.894 17.4872 183.908 17.4212 183.918 17.3543L184.024 16.8081C184.606 16.8081 185.204 16.4315 185.762 16.9965C185.967 17.2036 186.049 16.6481 186.254 16.7422C186.366 16.7886 186.481 16.8263 186.598 16.8552H186.647H186.786C187.491 17.0247 188.245 16.6763 188.991 16.9494ZM109.831 115.331C109.831 115.331 109.88 115.331 109.921 115.331H109.831ZM72.0212 114.502C72.0286 114.465 72.0286 114.426 72.0212 114.389C72.021 114.436 72.0096 114.481 71.9884 114.521L72.0212 114.502ZM145.37 109.926C145.472 109.893 145.58 109.893 145.682 109.926H145.37ZM112.527 109.926H112.388H112.56H112.527ZM105.659 110.707C105.741 110.877 105.847 111.027 105.97 110.98C105.847 110.98 105.741 110.877 105.659 110.707ZM105.102 109.935C105.102 109.935 105.052 109.85 105.044 109.86L105.102 109.935ZM27.6872 10.4521C28.0233 10.4521 28.3675 10.2638 28.679 10.5086C28.3675 10.2638 28.0233 10.4427 27.6872 10.4521ZM19.3352 117.412C19.3115 117.515 19.3229 117.625 19.367 117.72C19.4111 117.814 19.4846 117.886 19.5728 117.92C19.4913 117.884 19.4235 117.816 19.3815 117.728C19.3394 117.64 19.3259 117.538 19.3434 117.44L19.3352 117.412ZM12.2043 24.5672C12.1943 24.6797 12.1723 24.7904 12.1388 24.8967C12.1236 24.84 12.1217 24.7797 12.1332 24.7219C12.1448 24.664 12.1693 24.6107 12.2043 24.5672ZM13.1141 114.389H13.3027C13.2535 114.389 13.2125 114.446 13.1551 114.389H13.1141ZM47.9813 17.0153L48.0961 16.8364H48.3748C48.5141 17.1095 48.6289 17.3637 48.9813 17.1848C49.0212 17.1584 49.0659 17.1432 49.1118 17.1402C49.1578 17.1372 49.2037 17.1466 49.2459 17.1677C49.2881 17.1887 49.3254 17.2208 49.3549 17.2614C49.3844 17.302 49.4052 17.3499 49.4157 17.4014C49.4567 17.6462 49.2682 17.7404 49.096 17.8157C48.7851 17.9204 48.4596 17.9555 48.1371 17.9193C48.0797 17.6368 47.8912 17.3543 47.9813 17.0247V17.0153ZM43.7111 10.8947C43.7111 10.8947 43.7684 10.8006 43.7111 10.8853V10.8947ZM43.416 10.8947C43.5389 11.196 43.3504 11.3749 43.1619 11.5633C43.3586 11.4032 43.5471 11.2243 43.4406 10.923L43.416 10.8947ZM165.328 17.0624C165.378 17.0868 165.43 17.1026 165.484 17.1095C165.431 17.1057 165.378 17.093 165.328 17.0718V17.0624ZM164.435 10.5746C164.435 10.5746 164.377 10.5746 164.32 10.5746L164.451 10.5181C164.451 10.5181 164.443 10.5746 164.435 10.584V10.5746ZM110.954 16.9494H110.905H110.946H110.954ZM86.1435 10.0002C86.0864 9.99101 86.0285 9.99101 85.9714 10.0002C86.0258 9.99187 86.0809 9.99187 86.1353 10.0002H86.1435ZM66.8575 10.5369C66.8663 10.5623 66.8804 10.585 66.8985 10.6028C66.8892 10.5823 66.8836 10.5599 66.8821 10.5369H66.8575ZM61.1774 17.9381C61.1774 17.7027 61.2512 17.4484 61.5299 17.5803C61.573 17.5974 61.6115 17.6271 61.6415 17.6665C61.6716 17.7059 61.6922 17.7536 61.7013 17.8049C61.7104 17.8563 61.7077 17.9095 61.6934 17.9592C61.6792 18.009 61.6539 18.0536 61.62 18.0888C61.3824 18.4183 61.3168 18.0228 61.1774 17.9381ZM182.983 10.4051V10.4521L182.926 10.3956L182.983 10.4051ZM42.2521 10.7629C42.0164 10.7742 41.7846 10.691 41.5964 10.5275C41.7809 10.7272 42.0233 10.8413 42.2767 10.8476L42.2521 10.7629ZM37.99 10.5275V10.5746C37.973 10.5503 37.9538 10.5282 37.9326 10.5086L37.99 10.5275ZM20.2449 4.5858C20.1957 4.63552 20.1558 4.69621 20.1276 4.7642C20.0994 4.83219 20.0836 4.90604 20.081 4.98129C20.0877 4.82694 20.1465 4.68167 20.2449 4.57639V4.5858ZM21.6383 3.82308C21.5072 4.21857 21.1138 3.87016 20.8679 4.05849C20.7177 4.04899 20.5672 4.04899 20.4171 4.05849C20.2976 4.07697 20.1889 4.14782 20.1138 4.25623C20.0859 4.28935 20.0512 4.31382 20.0128 4.32736C19.9745 4.3409 19.9338 4.34307 19.8945 4.33367C19.8552 4.32427 19.8187 4.30361 19.7882 4.2736C19.7578 4.2436 19.7344 4.20523 19.7204 4.16207C19.6712 4.03966 19.7204 3.95491 19.8515 3.89841H19.8925C20.163 3.89841 20.0892 3.76659 20.04 3.61592C20.3515 3.19219 20.5974 3.13569 20.8597 3.46526C21.0154 3.62534 21.122 3.61592 21.2367 3.46526C21.2635 3.49262 21.2939 3.51487 21.3269 3.53118C21.499 3.54059 21.7121 3.60651 21.6383 3.82308ZM12.8109 68.8425C12.8109 69.0497 12.7945 69.2568 12.7617 69.464C12.7266 69.3633 12.7128 69.2545 12.7214 69.1465C12.7299 69.0385 12.7606 68.9343 12.8109 68.8425ZM15.8271 118.335H15.8927C15.8905 118.369 15.8905 118.404 15.8927 118.438L15.8271 118.335ZM49.9321 115.736H49.8829H50.0304C49.9976 115.726 49.9976 115.82 49.9321 115.736ZM82.4305 115.962C82.4426 115.95 82.4525 115.936 82.4596 115.919C82.4666 115.903 82.4707 115.886 82.4715 115.867C82.466 115.914 82.452 115.959 82.4305 115.999V115.962ZM94.4546 115.896C94.4546 115.491 94.7824 115.161 94.7906 114.756C94.7906 115.161 94.4464 115.491 94.4546 115.896ZM128.289 115.623C128.392 115.666 128.502 115.682 128.611 115.671C128.72 115.659 128.826 115.62 128.92 115.557C128.828 115.626 128.724 115.672 128.615 115.69C128.506 115.708 128.394 115.698 128.289 115.66V115.623ZM189.057 114.643C189.052 114.654 189.05 114.665 189.05 114.676C189.05 114.688 189.052 114.699 189.057 114.709C189.055 114.7 189.055 114.69 189.057 114.681V114.643ZM236.727 110.331V110.406L236.669 110.331H236.727ZM230.669 84.6431C230.706 84.6472 230.74 84.6638 230.768 84.6907C230.795 84.7176 230.815 84.7535 230.825 84.7937L230.669 84.6431ZM231.44 57.5336C231.391 57.6183 231.309 57.6936 231.292 57.7784C231.292 57.6936 231.391 57.6183 231.44 57.5336Z" fill="#333333"/>
<path d="M195.311 18.0416H195.45C195.429 18.0254 195.405 18.0167 195.38 18.0167C195.355 18.0167 195.331 18.0254 195.311 18.0416Z" fill="#333333"/>
<path d="M196.917 17.891L196.777 17.9663V18.0134L196.917 17.891Z" fill="#333333"/>
<path d="M186.876 17.1101L186.935 17.0623H186.876V17.1101Z" fill="#333333"/>
<path d="M227.194 126.837C227.111 126.817 227.024 126.82 226.942 126.846C226.859 126.872 226.783 126.92 226.72 126.986C226.657 127.053 226.608 127.135 226.578 127.227C226.548 127.319 226.537 127.418 226.547 127.515C226.924 127.383 227.432 127.355 227.629 127.628C227.825 127.901 228.063 127.685 228.268 127.694C228.153 127.026 227.629 126.903 227.194 126.837Z" fill="#333333"/>
<path d="M83.2174 8.7665C83.7502 9.09607 83.7502 8.48401 83.9551 8.23919C83.9551 8.11678 83.9551 7.9567 83.9551 7.87196C83.7338 7.46706 83.365 7.70246 83.1355 7.7213C82.9961 7.7213 83.283 7.92845 83.3322 8.07911C83.6027 8.34277 83.1601 8.5311 83.2174 8.7665Z" fill="#333333"/>
<path d="M82.4717 9.41625C82.3406 9.04901 82.193 8.73828 81.7832 8.8701C81.6357 9.21851 81.3406 9.12434 81.0947 9.16201C81.4718 9.88706 81.9635 9.62341 82.4717 9.41625Z" fill="#333333"/>
<path d="M53.7272 9.53874L53.7845 9.49166L53.9648 9.32216C53.902 9.20583 53.8744 9.06893 53.8863 8.93272C53.8981 8.7965 53.9488 8.6686 54.0304 8.56886C53.9494 8.66739 53.8997 8.79439 53.8893 8.92936C53.8789 9.06434 53.9084 9.1994 53.973 9.31275C54.1697 9.04909 53.973 8.61594 54.2599 8.37112L53.973 8.22046C53.7927 8.28637 53.4075 8.22046 53.4813 8.40879C53.6288 8.79485 53.178 9.32216 53.7272 9.53874Z" fill="#333333"/>
<path d="M49.998 9.10615C50.1375 9.10615 50.1621 8.97414 50.1539 8.84214C50.1586 8.78854 50.1449 8.73496 50.1158 8.69273C50.0867 8.65049 50.0444 8.62292 49.998 8.61584C49.8995 8.61584 49.7764 8.68185 49.7846 8.83271C49.7928 8.98357 49.8666 9.09672 49.998 9.10615Z" fill="#333333"/>
<path d="M56.014 18.8796H55.7842C55.8204 18.8978 55.8595 18.9072 55.8991 18.9072C55.9386 18.9072 55.9777 18.8978 56.014 18.8796Z" fill="#333333"/>
<path d="M43.2026 18.4088C43.2966 18.4738 43.4049 18.5065 43.5145 18.5031L43.2026 18.4088Z" fill="#333333"/>
<path d="M142.797 9.41626C142.797 9.41626 142.723 9.48226 142.715 9.52941C142.715 9.93485 143.051 9.77456 143.183 9.94428C143.183 9.94428 143.183 9.94428 143.224 9.94428C143.222 9.81117 143.178 9.68348 143.099 9.58593C143.02 9.48839 142.912 9.42792 142.797 9.41626Z" fill="#333333"/>
<path d="M59.3332 17.9663C59.1529 18.1734 58.7677 18.2111 58.8168 18.5877C58.8091 18.6185 58.8091 18.6511 58.8168 18.6819C58.8988 18.7949 59.1037 18.6819 59.243 18.6819C59.2922 18.5406 59.3988 18.5312 59.5053 18.5124C59.6119 18.4936 59.7594 18.3523 59.7512 18.2017C59.7415 18.1456 59.7188 18.0936 59.6857 18.051C59.6119 17.9474 59.4971 17.7779 59.3332 17.9663Z" fill="#333333"/>
<path d="M45.6785 17.891C45.4159 17.7873 45.2846 17.891 45.2764 18.1456V18.2493C45.3134 18.2565 45.3476 18.2762 45.3749 18.3059C45.4958 18.3431 45.6232 18.3431 45.7442 18.3059C45.7777 18.2876 45.8075 18.2613 45.8315 18.2288C45.8556 18.1963 45.8734 18.1583 45.8837 18.1173C45.9001 17.9853 45.7852 17.891 45.6785 17.891Z" fill="#333333"/>
</g>
<defs>
<clipPath id="clip0_497_1723">
<rect width="244.964" height="127.807" fill="white"/>
</clipPath>
</defs>
</svg>
