<svg width="72" height="40" viewBox="0 0 72 40" fill="none" xmlns="http://www.w3.org/2000/svg">
<g clip-path="url(#clip0_7_151)">
<path d="M4.29711 40C2.46853 40 0.959961 38.4914 0.959961 36.6629V3.33714C0.959961 1.50857 2.46853 0 4.29711 0H9.91997C8.82283 0.411429 8.68568 0.868571 8.63997 2.37714C8.45711 2.37714 8.0914 2.24 8.18283 3.15429C8.18283 3.15429 8.27426 3.74857 8.50283 3.65714C8.27426 5.25714 8.54854 5.39429 6.85711 5.48571L6.76568 5.62286C5.11997 5.80571 4.57139 5.57714 3.15425 8.41143C3.15425 8.41143 2.78853 9.28 2.69711 9.64571C2.33139 10.3771 1.50853 11.9771 1.27996 13.0286C1.18853 13.3943 1.05139 13.4857 1.27996 13.9886C1.59996 14.72 1.05139 14.9029 2.92568 14.8571V15.2686C2.92568 15.2686 2.42282 15.68 2.33139 15.9543C2.23996 16.2286 1.91996 17.5086 1.96568 18.1029C2.01139 19.7029 3.29139 21.0743 3.70282 22.6743L4.57139 22.8114C5.07425 23.9086 7.17711 26.9257 7.63425 27.3371C7.72568 27.6114 8.27426 27.9771 8.59426 28.2971C8.86854 28.5257 10.3771 30.2171 12.2057 31.2686C12.2057 31.2686 12.48 31.8629 12.6628 32.3657C12.0685 32.8686 13.2114 33.7371 13.5771 35.2C13.5771 35.3829 13.2571 35.6114 13.76 36.0686C13.7143 38.2629 13.0743 39.4514 14.1714 40.0457H4.29711V40ZM17.4628 36.6629C17.4628 38.3086 16.2743 39.68 14.6743 39.9543H14.6285C16.0914 39.0857 15.1771 37.3943 14.9028 36.3886C14.9028 36.3429 14.9485 36.2514 14.9485 36.2057C15.04 36.0686 14.8571 35.7486 14.8571 35.7486C14.6743 35.6114 14.6285 34.7886 14.5371 34.3771C14.4 33.7371 14.8114 32.6857 14.8114 32.32C14.8114 31.9543 14.5371 31.4514 14.0343 30.8114C13.8971 30.6743 13.5314 27.5657 13.2114 26.7429C12.7543 25.6457 12.6171 25.8286 12.0685 24.5486C11.6571 23.6343 11.9771 22.2629 11.0171 19.1543L11.2457 18.9714C11.2457 18.9714 10.56 16.2743 10.3314 15.5429C10.1028 14.8114 9.64569 14.7657 9.64569 14.7657C9.64569 14.7657 9.64569 14.4457 9.64569 14.4C9.6914 14.2629 10.56 12.0229 10.6057 11.9314C10.6057 11.8857 11.8857 11.0171 11.8857 11.1543C11.9771 11.7029 12.48 14.5371 12.6628 14.9943C12.8914 15.4514 13.6228 16.8229 13.9428 17.6914C12.6171 18.0114 11.6571 19.2 11.6571 20.5714C11.6571 22.2171 12.9828 23.5429 14.6285 23.5429C15.8628 23.5429 16.96 22.8114 17.3714 21.6686V36.6629H17.4628ZM17.4628 19.4286C17.3714 19.2 17.2343 18.9714 17.0971 18.7429C17.0971 18.2857 16.64 18.2857 16.5028 18.1486C16.3657 18.0114 16.64 17.92 15.7714 17.7371C15.6343 17.6457 15.4971 16.4114 15.4971 16.4114C15.36 15.6343 15.0857 15.0857 14.6743 14.2629C14.4457 13.8514 14.3543 12.5257 14.1257 11.84C14.2628 8.73143 13.2571 7.86286 12.48 7.36C12.16 7.17714 12.0228 7.04 11.7028 6.85714V6.72C11.4743 6.49143 11.0171 6.26286 10.6057 6.08C10.4685 5.94286 10.56 5.71429 10.6057 5.57714C10.88 5.53143 11.2 4.93714 11.52 4.34286C11.7485 4.34286 11.84 4.11429 11.8857 4.02286C12.1143 3.61143 12.3885 3.29143 12.0685 3.06286C12.8457 1.69143 12.3428 0.777143 11.9314 0.731429C11.7485 0.411429 11.4743 0.182857 10.9714 0H14.1714C16 0 17.5086 1.50857 17.5086 3.33714V19.4286H17.4628Z" fill="#FFFFFE"/>
<path d="M33.9198 5.80571C33.9198 12.48 34.8798 25.1429 35.6112 32.96L30.7655 0H23.4512V40H28.1597V28.5257C28.1597 23.7257 27.8855 15.1314 27.474 7.95429L31.954 40H38.6283V0H33.9198V5.80571Z" fill="#7D7D7D"/>
<path d="M48 0H41.3257V40H48C52.2514 40 55.1771 37.5314 55.1771 32.0457V26.24C55.1771 23.1771 54.0343 21.3486 52.48 20.3429C54.0343 19.3829 55.1771 17.5543 55.1771 13.8971V8C55.1771 2.42286 52.4343 0 48 0ZM49.7828 32.0914C49.7828 34.0114 49.28 34.9257 47.5885 34.9257H46.6743V22.5829H47.36C49.1428 22.5829 49.7828 23.3143 49.7828 25.28V32.0914ZM49.7828 15.36C49.7828 17.5543 49.28 18.2857 47.36 18.2857H46.6743V5.02857H47.5885C49.2343 5.02857 49.7828 5.85143 49.7828 7.72571V15.36Z" fill="#7D7D7D"/>
<path d="M67.5657 0H59.9314L56 40H61.44L61.8972 32.5029H65.28L65.7372 40H71.36L67.5657 0ZM62.1257 27.9771L62.5829 20.6171L63.36 3.47429H63.5886C63.9086 8.45714 64.3657 17.6914 64.5486 20.6171L65.0057 27.9771H62.1257Z" fill="#7D7D7D"/>
<path d="M14.6743 23.4972C13.0286 23.4972 11.7028 22.1715 11.7028 20.5257C11.7028 19.1086 12.6628 17.9657 13.9886 17.6457C13.6686 16.7772 12.9371 15.4057 12.7086 14.9486C12.5257 14.4915 12.0228 11.6572 11.9314 11.1086C11.8857 10.9715 10.6514 11.84 10.6514 11.8857C10.56 11.9772 9.69141 14.2172 9.69141 14.3543C9.69141 14.4457 9.69141 14.72 9.69141 14.72C9.69141 14.72 10.1028 14.7657 10.3771 15.4972C10.6057 16.2286 11.3828 18.9715 11.3828 18.9715L11.1086 19.2C12.0686 22.3543 11.7028 23.68 12.16 24.5943C12.7086 25.8743 12.8457 25.7372 13.3028 26.7886C13.6228 27.5657 13.9886 30.72 14.1257 30.8572C14.6286 31.4972 14.9028 32 14.9028 32.3657C14.9028 32.7315 14.4914 33.8286 14.6286 34.4229C14.72 34.7886 14.7657 35.6115 14.9486 35.7943C14.9486 35.7943 15.0857 36.1143 15.04 36.2515C15.04 36.2972 14.9943 36.3886 14.9943 36.4343C15.2686 37.44 16.1828 39.0857 14.72 40H14.6743C16.2743 39.7257 17.4628 38.3543 17.4628 36.7086V21.6229C17.0057 22.7657 15.9086 23.4972 14.6743 23.4972Z" fill="#333333"/>
<path d="M14.1256 0H10.9256C11.4742 0.182857 11.7485 0.411429 11.9313 0.731429C12.3427 0.777143 12.8456 1.69143 12.0685 3.06286C12.3885 3.29143 12.1599 3.61143 11.8856 4.02286C11.7942 4.16 11.7485 4.38857 11.5199 4.34286C11.2456 4.93714 10.8799 5.53143 10.6056 5.57714C10.5142 5.66857 10.4685 5.94286 10.6056 6.08C10.9713 6.26286 11.4742 6.49143 11.7027 6.72V6.85714C12.0227 7.04 12.1599 7.17714 12.4799 7.36C13.3027 7.86286 14.2627 8.77714 14.1256 11.84C14.3542 12.5257 14.4456 13.8514 14.6742 14.2629C15.0856 15.0857 15.3599 15.6343 15.497 16.4114C15.497 16.4114 15.6342 17.6457 15.7713 17.7371C16.5942 17.92 16.3656 18.0114 16.5027 18.1486C16.6399 18.3314 17.097 18.2857 17.097 18.7429C17.2799 18.9714 17.3713 19.2 17.4627 19.4286V3.33714C17.4627 1.50857 15.9542 0 14.1256 0Z" fill="#333333"/>
<path d="M13.7143 36.0229C13.1657 35.5657 13.5314 35.3371 13.5314 35.1543C13.1657 33.6914 12.0228 32.8229 12.6171 32.32C12.48 31.8171 12.16 31.2229 12.16 31.2229C10.3771 30.1714 8.82283 28.5257 8.54854 28.2514C8.22854 27.8857 7.67997 27.5657 7.58854 27.2914C7.17711 26.88 5.02854 23.8629 4.52568 22.7657L3.70282 22.6743C3.29139 21.0743 2.01139 19.7486 1.96568 18.1029C1.96568 17.5086 2.23996 16.1829 2.33139 15.9543C2.42282 15.68 2.92568 15.2686 2.92568 15.2686V14.8571C1.05139 14.9029 1.59996 14.72 1.27996 13.9886C1.05139 13.4857 1.23425 13.3486 1.27996 13.0286C1.55425 11.9771 2.37711 10.3771 2.69711 9.64571C2.78853 9.28 3.15425 8.41143 3.15425 8.41143C4.57139 5.57714 5.07425 5.76 6.76568 5.62286L6.85711 5.48571C8.54854 5.39429 8.27425 5.30286 8.50283 3.65714C8.27425 3.74857 8.18283 3.15429 8.18283 3.15429C8.04568 2.24 8.45711 2.42286 8.63997 2.37714C8.68568 0.868571 8.82283 0.411429 9.91997 0H4.29711C2.46853 0 0.959961 1.50857 0.959961 3.33714V36.6629C0.959961 38.4914 2.46853 40 4.29711 40H14.1257C13.0285 39.4057 13.6685 38.2171 13.7143 36.0229Z" fill="#7D7D7D"/>
</g>
<defs>
<clipPath id="clip0_7_151">
<rect width="70.4001" height="40" fill="white" transform="translate(0.959961)"/>
</clipPath>
</defs>
</svg>
