<svg width="14" height="13" viewBox="0 0 14 13" fill="none" xmlns="http://www.w3.org/2000/svg">
<path d="M4.2373 1.44634L3.5954 0.0917969L2.80678 0.465584L3.44868 1.82012L4.2373 1.44634ZM2.09414 2.42185L1.45224 1.06818L0.662742 1.44197L1.30464 2.79564L2.09414 2.42185ZM6.37434 2.49259L5.75777 1.07517L4.95692 1.42276L5.5735 2.84018L6.37434 2.49259ZM3.27488 3.09519C3.52151 2.99024 3.7885 2.94181 4.05628 2.95345C4.32405 2.96508 4.58583 3.03649 4.82243 3.16244L6.27216 3.88381C6.9586 4.24974 7.25379 5.17984 6.66866 5.83658C6.40666 6.16234 6.00143 6.29945 5.63812 6.29945H4.99535C4.82767 6.29945 4.70191 6.36408 4.6434 6.43918L4.63816 6.4453L4.26524 6.90554C4.00237 7.23828 3.59365 7.37714 3.22685 7.37714C2.426 7.37714 1.77624 6.62084 1.94305 5.82436L2.26356 4.28292C2.26599 4.27116 2.26891 4.25951 2.2723 4.24799C2.40941 3.79036 2.75176 3.31003 3.27488 3.09519ZM1.50464 4.63138L0.862736 3.27597L0.0732422 3.64976L0.715142 5.0043L1.50464 4.63138ZM9.65109 6.85489L10.293 5.50122L9.50437 5.12569L8.86247 6.48023L9.65109 6.85489ZM11.7951 7.8304L12.437 6.47674L11.6475 6.10208L11.0056 7.45662L11.7951 7.8304ZM7.52627 7.87494L8.14284 6.45752L7.342 6.10906L6.72455 7.52648L7.5254 7.87582L7.52627 7.87494ZM8.24677 8.26358C8.4757 8.09656 8.74653 7.99644 9.02904 7.97439C9.31156 7.95234 9.59465 8.00922 9.84672 8.13869C10.3629 8.36052 10.6991 8.8426 10.831 9.34826C10.8329 9.35519 10.8347 9.36218 10.8362 9.36922L11.1576 10.9098C11.32 11.687 10.7471 12.4634 9.87292 12.4634C9.50612 12.4634 9.0974 12.3237 8.83452 11.9918L8.45637 11.5255C8.39786 11.4504 8.27297 11.3849 8.10442 11.3849H7.46077C7.09397 11.3849 6.6835 11.2451 6.42063 10.9089C6.30374 10.7606 6.2208 10.5884 6.17766 10.4045C6.13452 10.2206 6.13223 10.0295 6.17095 9.84468C6.20967 9.65982 6.28846 9.48571 6.40176 9.3346C6.51507 9.18349 6.66013 9.05907 6.82673 8.9701L6.83808 8.96399L8.24677 8.26358ZM12.3837 10.0399L13.0265 8.68627L12.237 8.31074L11.5951 9.66528L12.3837 10.0399Z" fill="#E5322E"/>
</svg>
