<svg width="13" height="12" viewBox="0 0 13 12" fill="none" xmlns="http://www.w3.org/2000/svg">
<path d="M4.67447 2V3.33333H1.33556V10.6667H8.68116V7.33333H10.0167V11.3333C10.0167 11.5101 9.94637 11.6797 9.82114 11.8047C9.6959 11.9298 9.52605 12 9.34894 12H0.667782C0.490675 12 0.320822 11.9298 0.195589 11.8047C0.0703553 11.6797 0 11.5101 0 11.3333V2.66667C0 2.48986 0.0703553 2.32029 0.195589 2.19526C0.320822 2.07024 0.490675 2 0.667782 2H4.67447ZM12.0201 0V5.33333H10.6845V2.27533L5.48048 7.47133L4.53624 6.52867L9.7396 1.33333H6.67782V0H12.0201Z" fill="#E5322E"/>
</svg>
