<svg width="116" height="40" viewBox="0 0 116 40" fill="none" xmlns="http://www.w3.org/2000/svg">
<g clip-path="url(#clip0_118_3864)">
<path fill-rule="evenodd" clip-rule="evenodd" d="M24.6658 0.0646237L2.53548 1.72597C0.744585 1.85376 0.10498 3.06782 0.10498 4.47357V28.7547C0.10498 29.841 0.488743 30.7994 1.44815 32.0135L6.62894 38.7867C7.46043 39.8729 8.29191 40.1285 9.89093 40.0007L35.603 38.4672C37.7777 38.3394 38.4173 37.317 38.4173 35.5918V8.24354C38.4173 7.34897 38.0975 7.09338 37.0101 6.3266C36.9462 6.26271 36.8822 6.26271 36.8183 6.19881L29.7826 1.27868C28.1196 0.000725969 27.4161 -0.12707 24.6658 0.0646237ZM10.4666 7.79625C8.35588 7.92405 7.90815 7.98795 6.6929 6.96558L3.68676 4.60136C3.36696 4.28188 3.49488 3.89849 4.32637 3.83459L25.6252 2.30105C27.4161 2.17325 28.3115 2.74833 29.0151 3.32341L32.6608 5.94322C32.8527 6.00712 33.2365 6.4544 32.7248 6.4544L10.7224 7.79625H10.4666ZM8.03607 35.3362V12.1413C8.03607 11.1189 8.35588 10.6717 9.25132 10.6078L34.5157 9.13811C35.3472 9.07421 35.7309 9.58539 35.7309 10.6078V33.6109C35.7309 34.6333 35.5391 35.464 34.1959 35.5279L10.0188 36.9336C8.67568 37.0614 8.03607 36.5502 8.03607 35.3362ZM31.8933 13.4193C32.0212 14.1221 31.8933 14.825 31.1897 14.8889L30.0385 15.1445V32.2691C29.0151 32.8442 28.1196 33.0998 27.3521 33.0998C26.1369 33.0998 25.8171 32.7164 24.8577 31.5662L17.1824 19.5534V31.1189L19.6129 31.694C19.6129 31.694 19.6129 33.0998 17.6941 33.0998L12.3214 33.4193C12.1935 33.0998 12.3214 32.333 12.8331 32.2052L14.2402 31.8218V16.4863L12.3214 16.2947C12.1935 15.5918 12.5773 14.5694 13.6646 14.5055L19.421 14.1221L27.3521 26.2627V15.5279L25.3054 15.2723C25.1775 14.4416 25.7531 13.8026 26.5206 13.7387L31.8933 13.4193Z" fill="#333333"/>
<path d="M55.4329 28.3714V17.8283H55.6248L63.2361 28.3714H65.6666V12.8442H62.9803V23.3874H62.7884L55.1771 12.8442H52.7466V28.3714H55.4329ZM73.15 28.5631C76.6678 28.5631 78.7785 26.2628 78.7785 22.4289C78.7785 18.6589 76.6038 16.2947 73.15 16.2947C69.6321 16.2947 67.5214 18.595 67.5214 22.4289C67.4575 26.2628 69.6321 28.5631 73.15 28.5631ZM73.15 26.3267C71.2951 26.3267 70.2078 24.9209 70.2078 22.4289C70.2078 20.0008 71.2951 18.5311 73.15 18.5311C75.0048 18.5311 76.0921 19.9369 76.0921 22.4289C76.0282 24.9209 75.0048 26.3267 73.15 26.3267ZM81.209 13.7388V16.6781H79.3541V18.7867H81.209V25.1765C81.209 27.4768 82.2963 28.3714 84.9826 28.3714C85.4943 28.3714 86.006 28.3075 86.3898 28.2436V26.1989C86.07 26.2628 85.8781 26.2628 85.4943 26.2628C84.407 26.2628 83.8953 25.7516 83.8953 24.6014V18.8506H86.3898V16.742H83.8953V13.8027H81.209V13.7388ZM87.9888 28.3714H90.6751V16.6142H87.9888V28.3714ZM89.3319 14.6334C90.2274 14.6334 90.931 13.9305 90.931 13.0359C90.931 12.1414 90.2274 11.4385 89.3319 11.4385C88.4365 11.4385 87.7329 12.1414 87.7329 13.0359C87.7329 13.9305 88.4365 14.6334 89.3319 14.6334ZM97.9666 28.5631C101.484 28.5631 103.595 26.2628 103.595 22.4289C103.595 18.6589 101.42 16.2947 97.9666 16.2947C94.4488 16.2947 92.3381 18.595 92.3381 22.4289C92.2741 26.2628 94.4488 28.5631 97.9666 28.5631ZM97.9666 26.3267C96.1118 26.3267 95.0244 24.9209 95.0244 22.4289C95.0244 20.0008 96.1118 18.5311 97.9666 18.5311C99.8215 18.5311 100.909 19.9369 100.909 22.4289C100.845 24.9209 99.8215 26.3267 97.9666 26.3267ZM105.194 28.3714H107.88V21.4704C107.88 19.7452 108.904 18.6589 110.439 18.6589C112.038 18.6589 112.805 19.5535 112.805 21.3426V28.3075H115.492V20.7037C115.492 17.8922 114.085 16.2947 111.462 16.2947C109.735 16.2947 108.52 17.1254 107.944 18.4033H107.753V16.6142H105.194V28.3714Z" fill="#333333"/>
</g>
<defs>
<clipPath id="clip0_118_3864">
<rect width="115.385" height="40" fill="white" transform="translate(0.10791)"/>
</clipPath>
</defs>
</svg>
