<svg width="130" height="32" viewBox="0 0 130 32" fill="none" xmlns="http://www.w3.org/2000/svg">
<g clip-path="url(#clip0_7_159)">
<path d="M42.4082 0.0700684C37.5843 0.0700684 34.3762 2.5927 33.9313 6.4C33.8376 7.28759 33.7205 8.15182 33.6034 9.03941H96.3842C96.3842 9.03941 96.5013 8.10511 96.5949 7.38102C97.0633 3.55036 95.4475 0.093426 89.523 0.093426C89.523 0.093426 44.9372 0.093426 42.4082 0.0700684ZM4.07469 0.093426L2.97409 9.03941H31.4491L32.5497 0.093426H4.07469ZM99.6625 0.093426L98.562 9.03941H129.425C129.425 9.03941 129.472 8.7124 129.589 7.66131C130.339 1.77518 126.545 0.093426 122.869 0.093426H99.6625ZM98.1404 12.4496L95.7285 32H106.383L108.795 12.473L98.1404 12.4496ZM118.373 12.4496L115.961 32H126.615L129.027 12.4496H118.373ZM2.55259 12.4496L0.164062 31.9766H28.639L29.6928 23.4978H11.8725L12.294 19.854H30.1143L31.0276 12.4496H2.55259ZM33.1819 12.4496C32.4092 17.5416 34.9616 19.854 38.5912 19.854C40.5582 19.854 52.9926 19.854 52.9926 19.854L52.5477 23.5212H31.8237L30.77 32C30.77 32 53.3205 32 54.2337 32C54.9831 31.9533 60.2753 31.8131 62.055 27.492C62.6404 26.0905 63.1556 21.092 63.2961 20.0409C64.1157 13.9212 59.8772 12.473 56.552 12.473C54.7255 12.4496 36.8115 12.4496 33.1819 12.4496ZM66.3403 12.4496L63.9283 31.9766H74.583L76.0817 19.854H89.4528C93.2463 19.854 95.2836 17.8219 95.6583 15.089C95.7753 14.2015 95.8924 13.3372 95.9861 12.4496H66.3403Z" fill="#7D7D7D"/>
</g>
<defs>
<clipPath id="clip0_7_159">
<rect width="129.73" height="32" fill="white"/>
</clipPath>
</defs>
</svg>
