<svg width="122" height="40" viewBox="0 0 122 40" fill="none" xmlns="http://www.w3.org/2000/svg">
<g clip-path="url(#clip0_118_3856)">
<path fill-rule="evenodd" clip-rule="evenodd" d="M19.9156 1.02784C20.2415 1.43276 20.4077 1.97907 20.7401 3.07177L28.0011 26.9425C25.2737 25.5261 22.3464 24.5342 19.3202 24.0013L14.5925 8.01289C14.5548 7.88534 14.4769 7.77342 14.3704 7.69389C14.2638 7.61436 14.1344 7.57149 14.0015 7.57169C13.8686 7.5719 13.7393 7.61517 13.6331 7.69503C13.5268 7.7749 13.4492 7.88705 13.4119 8.01473L8.7415 23.9932C5.70158 24.5237 2.7608 25.5171 0.0214844 26.9389L7.31816 3.06623C7.65155 1.9754 7.81827 1.42998 8.14415 1.02587C8.43188 0.669091 8.80612 0.391998 9.23119 0.22099C9.7127 0.0273438 10.2826 0.0273438 11.4225 0.0273438H16.6341C17.7754 0.0273438 18.3461 0.0273438 18.828 0.221438C19.2535 0.39277 19.6279 0.670409 19.9156 1.02784Z" fill="#333333"/>
<path fill-rule="evenodd" clip-rule="evenodd" d="M20.7852 28.0787C19.5882 29.1031 17.1991 29.8016 14.447 29.8016C11.0693 29.8016 8.23824 28.7493 7.487 27.334C7.21844 28.1451 7.15821 29.0734 7.15821 29.6665C7.15821 29.6665 6.9813 32.5784 9.00508 34.6038C9.00508 33.5521 9.85696 32.6996 10.9078 32.6996C12.709 32.6996 12.707 34.2722 12.7053 35.5481L12.7052 35.6619C12.7052 37.5985 13.8879 39.2586 15.5699 39.9583C15.3187 39.4412 15.1777 38.8606 15.1777 38.2469C15.1777 36.3999 16.2612 35.7122 17.5205 34.913C18.5224 34.277 19.6356 33.5705 20.4028 32.1531C20.8032 31.4136 21.0305 30.5666 21.0305 29.6665C21.0305 29.1129 20.9445 28.5794 20.7852 28.0787Z" fill="#7D7D7D"/>
<path d="M44.6703 26.57C47.7075 26.57 49.9854 25.4886 50.9198 23.6475C50.9198 24.5242 50.9779 25.4302 51.1241 26.1316H56.1176C55.8842 25.1087 55.7671 23.7058 55.7671 21.8647V17.3641C55.7671 13.0972 53.2558 11.0807 47.678 11.0807C42.8013 11.0807 39.5306 13.0972 39.1509 16.3997H44.349C44.5243 14.9676 45.7215 14.1785 47.678 14.1785C49.6053 14.1785 50.6859 14.9676 50.6859 16.6043V17.0426L45.4005 17.5102C42.8305 17.7733 41.3704 18.2116 40.3482 18.913C39.2678 19.6436 38.7129 20.7542 38.7129 22.1277C38.7129 24.8749 40.9907 26.57 44.6703 26.57ZM46.5978 23.5305C44.9038 23.5305 43.8818 22.8584 43.8818 21.7771C43.8818 20.6666 44.7285 20.082 46.8607 19.819L50.7736 19.4099V20.2866C50.7736 22.2447 49.08 23.5305 46.5978 23.5305ZM66.6501 26.57C71.7312 26.57 74.3306 24.6704 74.3306 21.6017C74.3306 19.0591 72.8704 17.6563 69.337 17.1887L64.927 16.6919C63.6716 16.5165 63.1458 16.195 63.1458 15.4936C63.1458 14.6462 63.9926 14.2662 65.92 14.2662C68.5774 14.2662 70.4172 14.8799 71.9069 16.0782L74.272 13.7109C72.6365 12.0159 69.8043 11.0807 66.2995 11.0807C61.3646 11.0807 58.6195 12.8342 58.6195 15.7859C58.6195 18.3577 60.3131 19.7897 63.8173 20.2573L67.7892 20.7249C69.3661 20.9295 69.8333 21.2218 69.8333 21.9816C69.8333 22.8584 68.957 23.326 66.9129 23.326C63.8759 23.326 61.8318 22.5077 60.4593 20.988L57.7723 23.2091C59.5539 25.4302 62.591 26.57 66.6501 26.57ZM78.4536 14.8215V20.988C78.4536 24.6119 80.4977 26.4531 84.8782 26.4531C86.2217 26.4531 87.2728 26.307 88.2658 26.0147V22.2154C87.74 22.3323 87.0975 22.4492 86.2508 22.4492C84.411 22.4492 83.5057 21.6309 83.5057 19.9066V14.8215H88.2948V11.519H83.5057V6.1709L78.4536 8.04128V11.519H75.1827V14.8215H78.4536ZM95.5479 11.519H90.934V26.1316H95.9861V20.6666C95.9861 19.0883 96.3366 17.6563 97.3005 16.7503C98.0597 16.0489 99.1403 15.6691 100.659 15.6691C101.213 15.6691 101.652 15.7274 102.148 15.7859V11.1976C101.827 11.1391 101.593 11.1391 101.184 11.1391C98.293 11.1391 96.3366 12.8049 95.5479 15.5229V11.519ZM112.131 26.57C117.476 26.57 121.243 23.7351 121.243 18.7961C121.243 13.8863 117.476 11.0807 112.131 11.0807C106.758 11.0807 102.991 13.8863 102.991 18.7961C102.991 23.7351 106.758 26.57 112.131 26.57ZM112.131 23.2091C109.679 23.2091 108.131 21.6309 108.131 18.7961C108.131 15.9612 109.679 14.4415 112.131 14.4415C114.555 14.4415 116.103 15.9612 116.103 18.7961C116.103 21.6309 114.555 23.2091 112.131 23.2091Z" fill="#333333"/>
</g>
<defs>
<clipPath id="clip0_118_3856">
<rect width="121.25" height="40" fill="white"/>
</clipPath>
</defs>
</svg>
