<svg width="245" height="127" viewBox="0 0 245 127" fill="none" xmlns="http://www.w3.org/2000/svg">
<path fill-rule="evenodd" clip-rule="evenodd" d="M119.682 51.5036C117.822 51.3104 115.953 51.2319 114.086 51.2686C113.211 51.2826 112.334 51.237 111.459 51.2212C110.089 51.1984 108.716 51.1563 107.346 51.1633C106.4 51.1633 105.456 51.2405 104.512 51.2826C104.205 51.2949 103.898 51.3124 103.591 51.3107C102.126 51.2984 100.657 51.2966 99.1908 51.2633C98.2698 51.2405 97.3489 51.137 96.4279 51.123C95.3397 51.1072 94.2514 51.1528 93.1616 51.1633C92.3819 51.1704 91.6011 51.1704 90.8194 51.1633C89.4471 51.1493 88.0734 51.123 86.6996 51.1107C84.9237 51.0967 83.1478 51.0809 81.3719 51.0862C79.24 51.0862 77.108 51.1107 74.976 51.1265C73.5331 51.1388 72.0903 51.1476 70.6475 51.1756C68.2806 51.223 65.9123 51.258 63.5454 51.351C60.1149 51.4808 56.6828 51.4615 53.2507 51.4667C51.7342 51.4667 50.2193 51.4843 48.7043 51.4667C46.5754 51.4387 44.4465 51.365 42.3175 51.3387C41.349 51.3282 40.3789 51.3931 39.4104 51.4106C38.4419 51.4282 37.5163 51.4387 36.5677 51.4457C34.1763 51.465 31.7865 51.4773 29.3935 51.5036C28.7565 51.5036 28.1196 51.5807 27.4841 51.5737C26.7028 51.5649 25.9216 51.4948 25.1418 51.4702C24.1902 51.4282 23.2447 51.4246 22.2976 51.3843C21.874 51.3685 21.4519 51.2808 21.0282 51.2668C20.3191 51.2423 19.6084 51.2493 18.8993 51.244C18.8041 51.244 18.709 51.2563 18.6153 51.244C18.5317 51.2266 18.4557 51.1771 18.4 51.1038C18.3442 51.0305 18.3119 50.9377 18.3084 50.8407C18.2927 50.7437 18.3073 50.6436 18.3497 50.5577C18.392 50.4718 18.4594 50.4056 18.5401 50.3707C18.7451 50.3096 18.9561 50.2795 19.1679 50.2812C20.3959 50.3198 21.6238 50.411 22.8517 50.532C23.6038 50.6057 24.3636 50.5794 25.1203 50.5951C26.184 50.6179 27.2493 50.6425 28.313 50.6548C28.6199 50.6548 28.9269 50.6039 29.2339 50.6004C31.5056 50.5794 33.7788 50.5759 36.0505 50.5443C38.0858 50.5162 40.1211 50.4022 42.1564 50.4391C43.6683 50.4671 45.1786 50.4075 46.6936 50.4934C48.8194 50.6144 50.953 50.5776 53.0819 50.5899C54.9054 50.5986 56.7273 50.5899 58.5493 50.5759C59.5193 50.5759 60.4909 50.4882 61.4579 50.5355C62.3605 50.5794 63.2507 50.3952 64.1487 50.4285C65.0466 50.4619 65.9015 50.4513 66.778 50.4426C67.418 50.4426 68.055 50.3952 68.6951 50.3742C69.0696 50.3619 69.4441 50.3496 69.8202 50.3426C70.8839 50.3233 71.9491 50.3005 73.0143 50.29C74.6946 50.2725 76.3748 50.259 78.055 50.2497C79.6651 50.2497 81.2783 50.2497 82.8838 50.2356C83.9 50.2234 84.9161 50.2251 85.9307 50.3181C86.3297 50.3566 86.7349 50.2742 87.1371 50.2742C88.7933 50.2742 90.451 50.2865 92.1072 50.2865C93.4563 50.2865 94.8055 50.2619 96.1547 50.2742C96.9345 50.283 97.7142 50.3461 98.4939 50.3847C100.08 50.4636 101.665 50.4566 103.252 50.432C104.173 50.418 105.094 50.3619 106.015 50.3479C106.888 50.3321 107.762 50.3479 108.637 50.3479C108.873 50.3479 109.108 50.3479 109.344 50.3479C109.413 50.3479 109.498 50.2917 109.553 50.3128C110.347 50.5688 111.16 50.283 111.955 50.4373C112.071 50.4623 112.19 50.4718 112.308 50.4654C113.917 50.3672 115.532 50.4461 117.134 50.4934C117.82 50.5127 118.505 50.5688 119.189 50.6214C119.298 50.615 119.406 50.6429 119.502 50.7019C119.598 50.761 119.678 50.849 119.733 50.9564C119.776 51.0419 119.795 51.1411 119.786 51.2395C119.777 51.3379 119.74 51.4304 119.682 51.5036Z" stroke="#333333" stroke-width="0.613967" stroke-miterlimit="10"/>
<path fill-rule="evenodd" clip-rule="evenodd" d="M20.5093 47.3718C21.0265 47.4069 21.5453 47.4437 22.0641 47.4753C22.2517 47.4995 22.4408 47.5036 22.629 47.4875C23.4991 47.3704 24.3779 47.3645 25.2491 47.47C26.2377 47.5773 27.2315 47.6083 28.2238 47.563C29.2614 47.5103 30.3036 47.5261 31.3427 47.5261C31.9337 47.5261 32.5261 47.5454 33.1171 47.5647C35.0081 47.6296 36.9022 47.6577 38.7963 47.7804C40.3312 47.8786 41.8661 47.8804 43.4102 47.8786C43.9766 47.8786 44.5445 47.8944 45.1109 47.8786C46.4371 47.8541 47.7602 47.8085 49.0848 47.7892C50.8367 47.7635 52.588 47.7459 54.3388 47.7366C55.5453 47.7366 56.7517 47.7366 57.9582 47.7366C60.0656 47.7366 62.173 47.7366 64.282 47.7506C65.1093 47.7506 65.9413 47.8734 66.764 47.8067C67.6849 47.7313 68.6059 47.7874 69.5268 47.7804C70.0226 47.7804 70.5199 47.7944 71.0142 47.8313C71.9842 47.9049 72.9528 47.8313 73.9213 47.8155C75.3595 47.7857 76.8008 47.8278 78.239 47.8558C80.2759 47.8962 82.3112 47.8734 84.3449 47.7559C85.1247 47.7103 85.909 47.7559 86.6872 47.6875C87.9151 47.5945 89.1431 47.6875 90.371 47.7068C91.7893 47.7383 93.2091 47.7401 94.6273 47.7681C95.4531 47.7839 96.2789 47.8365 97.1047 47.8558C98.0993 47.8804 99.1001 47.9119 100.087 47.8962C101.295 47.8786 102.501 47.7979 103.708 47.7787C104.463 47.7681 105.218 47.8207 105.975 47.8435C106.684 47.8628 107.395 47.8926 108.104 47.9014C109.434 47.919 110.76 47.9301 112.081 47.9347C112.483 47.9347 112.884 47.9014 113.287 47.8874C114.282 47.8558 115.272 47.8435 116.257 48.0908C116.606 48.1703 116.963 48.1939 117.318 48.161C117.79 48.1398 118.263 48.168 118.73 48.2451C118.985 48.2786 119.242 48.2862 119.498 48.2679C119.617 48.2563 119.738 48.287 119.842 48.3561C119.946 48.4251 120.029 48.529 120.079 48.6538C120.097 48.6898 120.109 48.7297 120.112 48.771C120.116 48.8124 120.112 48.8541 120.101 48.8935C120.089 48.9329 120.07 48.9691 120.046 48.9997C120.021 49.0303 119.991 49.0547 119.958 49.0711C119.695 49.2 119.402 49.2277 119.123 49.1501C118.382 48.8993 117.628 48.908 116.87 48.9414C116.656 48.9566 116.442 48.9353 116.234 48.8782C115.418 48.638 114.592 48.7029 113.765 48.7134C112.274 48.7379 110.782 48.7379 109.292 48.7327C108.32 48.7327 107.349 48.7327 106.376 48.6678C105.524 48.6082 104.675 48.6064 103.823 48.6292C101.929 48.6748 100.036 48.7116 98.1438 48.7239C97.4101 48.7239 96.678 48.6362 95.9443 48.6169C94.3342 48.5784 92.721 48.5643 91.1154 48.531C90.216 48.51 89.318 48.4433 88.4201 48.4503C86.8852 48.4626 85.3503 48.5257 83.8154 48.552C81.8998 48.5836 79.9873 48.7274 78.0671 48.5854C76.8653 48.4977 75.6542 48.5731 74.4478 48.5696C72.4585 48.5696 70.4698 48.5614 68.4816 48.545C66.1162 48.5345 63.7479 48.5135 61.381 48.51C59.1324 48.51 56.8837 48.524 54.6351 48.5363C52.7671 48.5468 50.8975 48.5573 49.0296 48.5819C48.3926 48.5819 47.7556 48.645 47.117 48.6538C46.3143 48.6678 45.51 48.6538 44.7057 48.6538C44.1148 48.6538 43.5238 48.6836 42.9329 48.6818C41.8901 48.6818 40.849 48.6713 39.8093 48.6503C39.0035 48.6362 38.2007 48.6029 37.3964 48.5748C35.708 48.5222 34.0365 48.4521 32.3558 48.417C30.7472 48.3837 29.1324 48.3381 27.5315 48.4872C26.9467 48.5433 26.3542 48.4609 25.7648 48.4293C25.0787 48.3925 24.3941 48.3206 23.708 48.3065C23.2368 48.3065 22.7656 48.3767 22.2944 48.3837C21.5622 48.3942 20.8285 48.3679 20.0948 48.3732C19.7648 48.3732 19.4364 48.4293 19.1048 48.4381C18.8209 48.4591 18.6643 48.3065 18.652 48.0522C18.6321 47.691 18.7963 47.4419 19.0925 47.4332C19.5638 47.4174 20.0365 47.4332 20.5077 47.4332C20.5093 47.4104 20.5093 47.3911 20.5093 47.3718Z" stroke="#333333" stroke-width="0.613967" stroke-miterlimit="10"/>
<path fill-rule="evenodd" clip-rule="evenodd" d="M222.079 51.5035C220.22 51.3104 218.352 51.232 216.485 51.2685C215.61 51.2826 214.735 51.237 213.86 51.2212C212.488 51.1984 211.117 51.1563 209.745 51.1633C208.801 51.1633 207.857 51.2405 206.911 51.2826C206.604 51.2949 206.297 51.3124 205.991 51.3106C204.523 51.2984 203.056 51.2966 201.588 51.2633C200.667 51.2405 199.746 51.137 198.826 51.123C197.736 51.1072 196.647 51.1528 195.558 51.1633C194.778 51.1703 193.998 51.1703 193.217 51.1633C191.836 51.1493 190.469 51.123 189.097 51.1107C187.321 51.0967 185.544 51.0809 183.768 51.0862C181.636 51.0862 179.504 51.1107 177.374 51.1265C175.931 51.1388 174.486 51.1475 173.044 51.1756C170.677 51.2229 168.308 51.258 165.943 51.351C162.511 51.4807 159.079 51.4615 155.647 51.4667C154.132 51.4667 152.615 51.4843 151.1 51.4667C148.971 51.4387 146.842 51.365 144.715 51.3387C143.745 51.3282 142.776 51.3931 141.806 51.4106C140.836 51.4281 139.912 51.4387 138.964 51.4457C136.574 51.465 134.182 51.4772 131.791 51.5035C131.154 51.5035 130.517 51.5807 129.88 51.5737C129.099 51.5649 128.319 51.4948 127.538 51.4702C126.592 51.4369 125.645 51.4334 124.7 51.3983C124.276 51.3825 123.854 51.2949 123.43 51.2808C122.721 51.2563 122.011 51.2633 121.301 51.258C121.206 51.258 121.111 51.2703 121.018 51.258C120.934 51.2406 120.858 51.1912 120.802 51.1178C120.746 51.0445 120.714 50.9517 120.711 50.8547C120.694 50.7579 120.709 50.6578 120.751 50.5718C120.793 50.4859 120.86 50.4196 120.941 50.3847C121.146 50.3237 121.357 50.2936 121.569 50.2952C122.796 50.3338 124.024 50.425 125.252 50.546C126.004 50.6197 126.763 50.5934 127.519 50.6091C128.585 50.6319 129.648 50.6565 130.712 50.6688C131.019 50.6688 131.326 50.6179 131.633 50.6144C133.906 50.5934 136.178 50.5899 138.45 50.5583C140.485 50.5302 142.522 50.4162 144.555 50.4531C146.067 50.4811 147.579 50.4215 149.094 50.5074C151.22 50.6284 153.352 50.5916 155.483 50.6039C157.304 50.6127 159.126 50.6039 160.948 50.5899C161.92 50.5899 162.89 50.5022 163.865 50.5495C164.767 50.5934 165.656 50.4092 166.555 50.4425C167.43 50.4759 168.307 50.4653 169.183 50.4566C169.823 50.4566 170.462 50.4092 171.1 50.3882C171.475 50.3759 171.851 50.3636 172.225 50.3566C173.291 50.3373 174.356 50.3145 175.42 50.304C177.1 50.2865 178.78 50.273 180.46 50.2637C182.07 50.2637 183.684 50.2637 185.289 50.2496C186.307 50.2374 187.321 50.2391 188.336 50.3321C188.735 50.3706 189.14 50.2882 189.542 50.2882C191.2 50.2882 192.856 50.3005 194.514 50.3005C195.863 50.3005 197.211 50.2759 198.56 50.2882C199.341 50.297 200.119 50.3601 200.901 50.3987C202.485 50.4776 204.07 50.4706 205.659 50.4461C206.58 50.432 207.501 50.3759 208.422 50.3619C209.297 50.3461 210.17 50.3619 211.043 50.3619C211.28 50.3619 211.516 50.3619 211.751 50.3619C211.822 50.3619 211.905 50.3058 211.96 50.3268C212.753 50.5828 213.567 50.297 214.363 50.4513C214.479 50.4764 214.597 50.4858 214.715 50.4794C216.325 50.3812 217.938 50.4601 219.542 50.5074C220.227 50.5267 220.913 50.5828 221.598 50.6355C221.706 50.6292 221.814 50.6571 221.91 50.7161C222.005 50.7752 222.085 50.8632 222.139 50.9704C222.179 51.0554 222.194 51.1524 222.184 51.2479C222.173 51.3434 222.137 51.4327 222.079 51.5035Z" stroke="#333333" stroke-width="0.613967" stroke-miterlimit="10"/>
<path fill-rule="evenodd" clip-rule="evenodd" d="M122.907 47.3718C123.426 47.4069 123.943 47.4437 124.463 47.4753C124.65 47.4995 124.839 47.5036 125.027 47.4875C125.897 47.3704 126.776 47.3645 127.648 47.47C128.636 47.5773 129.63 47.6083 130.621 47.563C131.66 47.5103 132.701 47.5314 133.742 47.5314C134.333 47.5314 134.924 47.5507 135.515 47.57C137.406 47.6349 139.3 47.6629 141.194 47.7857C142.729 47.8839 144.264 47.8856 145.808 47.8839C146.376 47.8839 146.942 47.8997 147.51 47.8839C148.835 47.8593 150.159 47.8137 151.484 47.7944C153.235 47.7687 154.986 47.7512 156.736 47.7418C157.943 47.7418 159.149 47.7418 160.356 47.7418C162.463 47.7418 164.572 47.7418 166.68 47.7559C167.507 47.7559 168.339 47.8786 169.162 47.812C170.082 47.7366 171.003 47.7927 171.924 47.7857C172.42 47.7857 172.917 47.7997 173.413 47.8365C174.383 47.9102 175.35 47.8365 176.319 47.8207C177.759 47.7909 179.198 47.833 180.638 47.8611C182.673 47.9014 184.709 47.8786 186.744 47.7611C187.524 47.7155 188.307 47.7611 189.085 47.6927C190.313 47.5998 191.541 47.6927 192.769 47.712C194.188 47.7436 195.608 47.7453 197.026 47.7734C197.852 47.7892 198.678 47.8418 199.504 47.8611C200.497 47.8856 201.499 47.9172 202.486 47.9014C203.693 47.8839 204.899 47.8032 206.105 47.7839C206.861 47.7734 207.617 47.826 208.372 47.8488C209.083 47.8681 209.792 47.8979 210.503 47.9067C211.827 47.9242 213.152 47.9353 214.478 47.94C214.881 47.94 215.283 47.9067 215.685 47.8926C216.679 47.8611 217.671 47.8488 218.655 48.0961C219.004 48.1755 219.361 48.1991 219.716 48.1662C220.187 48.1451 220.66 48.1732 221.128 48.2504C221.385 48.2843 221.644 48.2919 221.903 48.2732C222.022 48.2617 222.142 48.2925 222.246 48.3615C222.35 48.4305 222.433 48.5344 222.483 48.659C222.501 48.695 222.512 48.7348 222.516 48.776C222.519 48.8171 222.515 48.8587 222.504 48.898C222.493 48.9374 222.474 48.9735 222.45 49.0043C222.426 49.035 222.396 49.0596 222.363 49.0764C222.099 49.2053 221.806 49.2329 221.527 49.1553C220.787 48.9045 220.032 48.9133 219.273 48.9466C219.06 48.9618 218.846 48.9405 218.638 48.8835C217.821 48.6432 216.997 48.7081 216.168 48.7186C214.678 48.7432 213.186 48.7432 211.696 48.7379C210.726 48.7379 209.752 48.7379 208.779 48.6731C207.926 48.6134 207.077 48.6117 206.225 48.6345C204.333 48.6801 202.439 48.7169 200.546 48.7292C199.814 48.7292 199.08 48.6415 198.346 48.6222C196.738 48.5836 195.123 48.5696 193.518 48.5363C192.62 48.5152 191.72 48.4486 190.822 48.4556C189.287 48.4679 187.752 48.531 186.217 48.5573C184.302 48.5889 182.389 48.7327 180.469 48.5906C179.267 48.5029 178.058 48.5784 176.85 48.5748C174.86 48.5772 172.869 48.5719 170.878 48.5591C168.511 48.5485 166.142 48.5275 163.775 48.524C161.527 48.524 159.278 48.538 157.022 48.5503C155.154 48.5608 153.286 48.5713 151.416 48.5959C150.779 48.5959 150.142 48.659 149.505 48.6678C148.701 48.6818 147.897 48.6678 147.092 48.6678C146.502 48.6678 145.911 48.6976 145.32 48.6959C144.279 48.6959 143.238 48.6853 142.196 48.6643C141.392 48.6503 140.587 48.6169 139.783 48.5889C138.095 48.5363 136.423 48.4661 134.743 48.431C133.135 48.3977 131.527 48.3521 129.918 48.5012C129.335 48.5573 128.741 48.4749 128.152 48.4433C127.467 48.4065 126.781 48.3346 126.095 48.3206C125.625 48.3206 125.154 48.3907 124.681 48.3977C123.949 48.4082 123.215 48.3819 122.483 48.3872C122.153 48.3872 121.823 48.4433 121.493 48.4521C121.209 48.4521 121.051 48.3065 121.033 48.0522C121.014 47.691 121.177 47.4419 121.473 47.4332C121.944 47.4174 122.417 47.4332 122.89 47.4332L122.907 47.3718Z" stroke="#333333" stroke-width="0.613967" stroke-miterlimit="10"/>
<path d="M244.906 14.1904C244.906 13.8419 244.702 13.9361 244.554 13.9267C244.218 13.9267 243.89 13.9267 243.562 13.8608C243.218 13.4465 242.685 13.5689 242.3 13.277C242.226 12.5425 241.718 12.8532 241.382 12.7685C240.495 12.4247 239.571 12.225 238.636 12.1753H234.841C234.762 12.1147 234.665 12.0912 234.571 12.1094C234.137 11.9304 234.079 11.469 234.145 10.9229C234.145 10.8287 234.145 10.7252 234.145 10.6216C234.413 9.3687 234.483 8.07038 234.35 6.78915C234.35 6.56316 234.35 6.09235 233.866 6.43133C233.712 6.4915 233.549 6.51501 233.387 6.50044C233.225 6.48587 233.067 6.43352 232.923 6.34659C232.8 6.28067 232.686 6.20534 232.571 6.13001C232.52 6.06227 232.451 6.01591 232.374 5.99818C231.844 5.5584 231.246 5.23881 230.612 5.05656V4.0396V3.74769C230.653 3.37104 230.686 2.99439 230.727 2.62715C230.833 2.37241 230.865 2.08503 230.817 1.80794C230.817 1.58195 230.694 1.52545 230.415 1.48778C229.962 1.58092 229.496 1.53546 229.063 1.35596C228.866 0.715648 228.194 1.28063 227.907 0.847476C227.883 0.811463 227.866 0.769612 227.858 0.725064C227.843 0.714123 227.826 0.708299 227.809 0.708299C227.791 0.708299 227.774 0.714123 227.76 0.725064C227.76 0.630901 227.76 0.546155 227.702 0.451992C227.473 -0.282478 227.104 0.0941731 226.76 0.291915C226.547 0.0188428 226.358 -0.0941526 226.055 0.226001C225.752 0.546155 225.596 0.725064 225.571 1.01697C225.546 1.24206 225.467 1.45461 225.342 1.63087C225.218 1.80713 225.053 1.94016 224.866 2.0151C224.537 2.66624 224.434 3.43684 224.58 4.17142C224.334 4.35033 224.424 4.63282 224.416 4.87765C224.416 6.5255 224.416 8.17335 224.416 9.83061C224.416 10.066 224.358 10.1884 224.178 10.1884C223.088 10.1884 221.998 10.1884 220.899 10.1414C220.767 10.1261 220.643 10.0597 220.547 9.95302C220.17 9.58579 220.186 9.58579 219.965 10.0566C219.875 10.2355 219.686 10.1508 219.539 10.1319H217.768C217.506 10.4898 217.236 10.179 216.949 10.1319H216.9L216.646 10.2449L215.711 10.0849C215.438 10.265 215.116 10.3188 214.81 10.2355C214.114 10.179 213.415 10.179 212.719 10.2355C211.851 10.1508 210.974 10.1319 210.097 10.1414H209.588C208.851 10.1414 208.113 10.1414 207.375 10.1414H207.269C206.998 10.1978 206.72 10.3956 206.449 10.1414H206.4C205.325 9.99022 204.236 10.0283 203.171 10.2543L199.294 10.1131H199.237C199.143 10.1576 199.043 10.18 198.941 10.179C198.827 10.179 198.712 10.179 198.597 10.179C198.608 10.2189 198.608 10.2616 198.597 10.3014H198.286L194.786 10.179C194.196 10.0284 193.597 10.3579 193.007 10.179C192.909 10.1887 192.81 10.1887 192.712 10.179C192.686 10.1835 192.661 10.1953 192.64 10.2134C192.618 10.2314 192.601 10.2552 192.589 10.2826H192.417C191.691 10.1702 190.955 10.1702 190.229 10.2826H190.147C189.848 10.4211 189.522 10.4635 189.204 10.405C189.136 10.4538 189.054 10.4712 188.975 10.4538C188.896 10.4363 188.826 10.3853 188.778 10.3108C188.73 10.2667 188.674 10.2346 188.614 10.2167C188.291 10.16 187.965 10.1317 187.639 10.1319H187.549C187.399 10.1892 187.242 10.2104 187.085 10.1942C186.928 10.178 186.777 10.1247 186.639 10.0378C186.334 10.2101 185.988 10.2598 185.655 10.179C185.495 10.1556 185.332 10.1556 185.172 10.179C185.098 10.1973 185.026 10.2257 184.958 10.2638H184.598L184.024 10.1978H183.893C183.875 10.2112 183.853 10.2184 183.831 10.2184C183.81 10.2184 183.788 10.2112 183.77 10.1978C183.53 10.1793 183.289 10.1793 183.049 10.1978L182.5 10.2543C182.096 10.3028 181.689 10.271 181.295 10.1602C180.637 10.3345 179.953 10.3345 179.295 10.1602C178.582 9.90594 177.901 10.5462 177.197 10.1602C177.024 10.2167 176.811 10.1037 176.656 10.2826L175.016 10.1602C173.795 10.2167 172.557 10.2826 171.353 10.3108C171.074 10.3108 170.754 10.4238 170.533 10.1508H169.467H169.328H168.935C168.483 10.2827 168.009 10.2827 167.558 10.1508C167.025 10.1037 166.459 10.5274 165.918 9.99069C165.918 9.99069 165.763 10.0472 165.681 10.066L164.935 10.1978H164.738C164.024 10.2998 163.301 10.284 162.591 10.1508C162.164 10.218 161.734 10.2526 161.304 10.2543C160.812 10.2543 160.484 9.90594 160.099 9.7647C159.714 9.62345 159.411 10.3108 158.927 10.1508H157.575H157.304C157.091 10.1508 156.853 10.2732 156.689 9.98127C156.689 9.89653 156.558 9.67054 156.484 9.92478C156.474 9.97658 156.454 10.0252 156.425 10.0674C156.397 10.1096 156.361 10.1444 156.32 10.1696C156.165 10.2543 155.96 10.1131 155.804 10.1696H155.566C155.165 10.127 154.76 10.1653 154.37 10.2826H154.288H154.173C153.894 10.2826 153.575 10.2826 153.403 10.0943C153.091 9.79295 152.993 10.0943 152.812 10.1978H152.526H152.001C151.932 10.2283 151.856 10.2283 151.788 10.1978C151.632 10.1037 151.69 9.77411 151.558 9.60462C151.296 9.79295 151.304 10.3579 150.886 10.2167C150.608 10.3108 150.419 9.72703 150.28 9.93419C149.895 10.5274 149.46 10.1508 149.018 10.179C149.296 9.7647 149.018 9.36921 148.952 8.98315C148.952 8.74774 148.829 8.41817 148.55 8.44642C148.272 8.47467 148.362 8.80424 148.313 9.0114C148.216 9.31322 148.163 9.63142 148.157 9.95302C148.157 10.3014 147.985 10.3391 147.772 10.1037L147.354 10.2543C147.282 10.2888 147.206 10.3065 147.128 10.3065C147.051 10.3065 146.974 10.2888 146.903 10.2543C146.719 10.0833 146.554 9.88726 146.411 9.67054C146.206 9.38805 146.018 9.31272 146.141 8.90782C146.141 8.78541 145.878 8.66299 145.706 8.61591C145.534 8.56883 145.444 8.75716 145.436 8.9549C145.428 9.15264 145.436 9.26564 145.313 9.36921C145.206 9.68937 145.501 10.2355 144.919 10.3108V10.3768L144.969 10.3108C144.965 10.2733 144.965 10.2354 144.969 10.1978C144.673 10.0472 144.296 9.18089 144.149 10.3203C143.878 10.3203 143.592 10.5274 143.329 10.2261C143.245 10.3069 143.145 10.3628 143.038 10.3891C142.931 10.4153 142.82 10.4111 142.715 10.3768C142.113 10.2497 141.496 10.2497 140.895 10.3768C141.379 9.80236 141.116 9.19031 140.969 8.59708C140.969 8.437 140.879 8.19218 140.657 8.30517C140.623 8.31563 140.592 8.33596 140.567 8.3642C140.542 8.39245 140.524 8.42766 140.514 8.46644C140.504 8.50523 140.503 8.54628 140.511 8.58565C140.519 8.62503 140.535 8.66139 140.559 8.69124C140.879 9.26563 140.518 9.50104 140.223 9.8212L140.149 9.89653V9.84945L139.821 9.15264C139.444 9.7082 140.067 9.90594 140.034 10.3014C139.84 10.3761 139.63 10.3761 139.436 10.3014C139.266 10.1815 139.084 10.0836 138.895 10.0095C138.528 9.65587 138.126 9.35251 137.698 9.10556C137.116 8.94548 136.797 9.55754 136.428 9.97186H136.297H136.158H136.1H136.059C135.846 10.1602 135.633 10.3673 135.338 10.179C135.334 10.1401 135.323 10.1027 135.305 10.07C135.286 10.0372 135.261 10.01 135.231 9.99069C135.138 9.95743 135.042 9.93843 134.944 9.93419C134.509 9.89788 134.071 9.96191 133.658 10.1225L133.518 10.2073H133.453C133.409 10.2117 133.365 10.2117 133.322 10.2073C133.174 10.2059 133.03 10.1498 132.912 10.0472H132.822C132.508 10.2062 132.155 10.2263 131.83 10.1037C131.778 10.0831 131.728 10.0546 131.682 10.0189H131.453C130.453 10.0189 129.445 10.3391 128.445 9.90594C128.043 9.72703 127.625 10.2543 127.15 9.90594C126.74 9.95302 126.33 9.97186 125.92 9.99069H125.535C124.29 9.94195 123.044 9.99229 121.806 10.1414C121.604 10.1414 121.403 10.1129 121.207 10.0566C120.472 10.2017 119.721 10.2017 118.986 10.0566C118.971 10.0696 118.952 10.0766 118.933 10.0766C118.914 10.0766 118.895 10.0696 118.88 10.0566H118.47C118.43 10.0749 118.386 10.0749 118.347 10.0566C117.74 10.1414 117.117 10.4992 116.617 9.69879C116.47 9.46338 116.216 9.58579 116.085 9.87769C115.954 10.1696 115.658 10.2543 115.396 10.0284C115.37 10.0128 115.345 9.99389 115.322 9.97186C115.048 9.94544 114.772 9.96447 114.503 10.0284H114.281C113.862 10.1507 113.422 10.1507 113.003 10.0284H112.773C112.091 10.0895 111.406 10.0895 110.724 10.0284H110.601C110.323 10.0284 110.044 10.0284 109.782 10.0284C108.38 10.1413 106.962 9.92478 105.552 10.0754C105.464 10.0648 105.378 10.0361 105.298 9.99069C105.294 9.96579 105.294 9.94026 105.298 9.91536V9.84945C105.102 9.67995 105.151 9.18089 104.749 9.3033C104.348 9.42571 104.225 9.48221 104.454 9.92478C104.454 9.92478 104.216 10.0189 104.126 9.92478C104.006 9.77603 103.902 9.6117 103.815 9.43513C103.569 9.04906 103.446 8.8984 102.995 9.3033C102.701 9.69543 102.288 9.94448 101.839 10.0001C100.893 10.0943 99.9416 10.0943 98.9953 10.0001C98.179 10.1193 97.3528 10.1193 96.5364 10.0001C95.9873 10.1225 95.5037 9.45396 94.8972 9.8212C94.6185 10.2638 94.1677 9.90594 93.8398 10.1037C93.7333 9.90594 93.512 10.1037 93.4218 9.98127C93.0366 9.61404 92.7661 9.66112 92.2989 9.98127C92.1706 10.0498 92.0307 10.0852 91.8891 10.0849H91.5777C91.2908 10.0849 90.9875 9.99069 90.7006 9.98127C89.881 9.98127 88.9794 9.98127 88.1188 9.98127C87.6106 9.98127 87.2336 9.90594 87.2992 9.18089C87.0287 8.77599 86.5369 8.99256 86.2172 8.69124C85.7664 9.3598 85.8402 8.59708 85.6927 8.437C85.2747 8.33342 84.8157 7.49537 84.4632 8.52175L84.2173 8.41817C83.996 8.68183 84.4878 8.8419 84.2993 9.08673C84.1108 9.33155 83.7911 9.22797 84.0862 9.54812C84.3813 9.86828 84.4222 9.42571 84.5862 9.31272C85.2337 8.86074 85.6107 8.98315 85.9632 9.77411C85.7501 10.0001 85.4878 9.95302 85.2255 10.0095H85.0534C84.8654 10.033 84.6758 10.033 84.4878 10.0095C83.7851 9.71811 83.022 9.67871 82.2994 9.89653C81.7476 10.0991 81.1546 10.0991 80.6028 9.89653C80.3812 9.79542 80.1409 9.76052 79.9044 9.7951C79.6679 9.82968 79.4428 9.93262 79.2504 10.0943L76.1849 10.0472C75.5866 10.0472 74.8981 10.2449 74.6768 9.26564C74.6768 9.16206 74.6194 9.05848 74.5047 9.09614C74.4731 9.10855 74.4447 9.12962 74.4218 9.15751C74.399 9.18541 74.3824 9.21929 74.3735 9.25622C74.308 9.77411 74.267 9.81178 73.808 9.77411C73.6935 9.77383 73.5799 9.79612 73.4719 9.84003C73.2179 9.68937 72.931 10.1225 72.6523 9.84003C72.5785 9.73645 72.89 9.45396 72.5458 9.51046C72.3327 9.51046 72.3245 9.79295 72.3327 10.0001C72.134 10.0432 71.9291 10.0279 71.7371 9.95542C71.545 9.88296 71.3721 9.7558 71.2344 9.58579C71.095 9.39746 71.1032 9.25622 71.2344 9.13381C71.3655 9.0114 71.513 9.00198 71.5622 9.20914C71.6933 9.74587 71.8327 9.51046 72.0786 9.28447C72.5949 8.81365 72.5458 8.34284 72.0786 7.80611C71.9228 8.79482 71.3655 8.74774 70.7754 8.57825C70.3737 8.64416 70.3164 9.09614 70.1115 9.37863C70.1852 9.88711 69.9393 10.0284 69.5541 10.0001H69.423C69.1443 9.93419 68.8 10.1319 68.6033 9.63287C68.4066 9.13381 68.046 9.28447 67.7837 9.54812C67.7181 9.60462 67.6689 9.68937 67.6034 9.74587C67.5732 9.78464 67.5342 9.81308 67.4908 9.82803C67.4474 9.84299 67.4013 9.84388 67.3575 9.83061L67.2017 9.97186L67.2591 10.0472V9.96244C66.8575 9.96244 66.4395 10.1319 66.1936 9.51987C66.0051 9.43513 65.7756 9.17147 65.6608 9.58579C65.5953 9.83061 65.5789 10.0472 65.3002 9.99069C65.0215 9.93419 65.1117 9.68937 65.0625 9.51046C65.0133 9.33155 64.9887 9.32213 64.9478 9.22797C64.497 8.8984 63.7019 9.17147 63.6118 8.21101C63.6118 8.21101 63.5216 8.21101 63.4888 8.21101C63.3116 8.06711 63.0965 7.99789 62.88 8.01505C62.6635 8.03221 62.4587 8.13468 62.3003 8.30517C62.202 8.38992 61.9561 8.30517 61.9889 8.55C62.0217 8.79482 62.1938 8.74774 62.3659 8.71007C63.3167 8.52175 63.5298 8.65358 64.0544 9.6517L63.0872 9.97186C63.0661 9.99139 63.0468 10.0135 63.0298 10.0378C63.0509 10.0182 63.0702 9.99614 63.0872 9.97186C62.8413 9.87769 63.1774 9.34097 62.7347 9.38805C62.4932 9.40795 62.2511 9.35806 62.0307 9.24293C61.8102 9.12779 61.6183 8.95108 61.4725 8.72891C61.1283 8.29576 60.7758 8.06035 60.2677 8.45583C60.1447 8.55 59.9644 8.52175 59.9808 8.76657C59.9972 9.0114 60.2021 9.03965 60.3824 9.03965C60.8009 9.03705 61.211 9.17447 61.5627 9.43513C61.1201 9.43513 61.2922 10.179 60.8496 10.1037C59.7513 9.90594 58.653 10.1884 57.5711 10.1037C57.3979 10.158 57.2132 10.1345 57.0547 10.0378C56.6449 9.67054 56.2351 9.89653 55.8908 10.0378L55.7679 10.0943C55.7514 10.1427 55.7514 10.1965 55.7679 10.2449H52.6369C52.1031 10.0766 51.5442 10.0413 50.9976 10.1414H50.8992C50.9037 10.1102 50.9037 10.0784 50.8992 10.0472C50.4075 10.1037 49.8993 10.2073 49.6862 9.46338C49.637 9.29388 49.3911 9.10556 49.3747 9.36921C49.3092 10.405 48.678 10.0284 48.2108 10.066H47.1699C46.5174 10.0803 45.8661 10.1369 45.2192 10.2355C44.793 10.3203 44.793 10.2355 44.711 9.80236C44.6103 9.93162 44.4805 10.0264 44.3358 10.0762C44.1912 10.1261 44.0374 10.1291 43.8914 10.0849C43.4488 9.97186 43.3422 10.4898 43.0717 10.6592C42.7193 10.6592 42.2521 10.9512 42.039 10.6592C41.9906 10.5752 41.9271 10.504 41.8527 10.4505C41.7784 10.397 41.6949 10.3624 41.6079 10.349C41.521 10.3356 41.4325 10.3438 41.3485 10.3729C41.2646 10.4021 41.187 10.4515 41.121 10.518C40.7194 10.7911 40.4407 10.7157 40.3588 10.1414L40.5473 9.48221C39.9486 9.42858 39.3467 9.45068 38.7523 9.54812H38.1785C37.5857 9.63954 36.9828 9.58824 36.4081 9.39746L36.2524 9.57637H36.2032C35.9491 9.49163 35.777 9.86828 35.7688 9.85886C34.9902 9.1903 34.1295 9.75528 33.3099 9.69879C32.5522 9.61406 31.7891 9.61406 31.0313 9.69879C30.8106 9.73539 30.5917 9.78569 30.3756 9.84945H30.3264C29.7056 9.78027 29.079 9.83442 28.4741 10.0095C28.0806 9.84003 27.7364 10.1884 27.3512 10.1414H27.2774C27.1656 10.0833 27.0468 10.0452 26.925 10.0284H26.5561C26.3273 10.0609 26.1001 10.108 25.8758 10.1696H24.5398C24.3759 10.3485 24.2284 10.5933 23.9743 10.3579C23.7202 10.1225 23.5071 10.2167 23.2612 10.2355C21.999 10.3297 21.999 10.3391 21.6629 9.06789C21.6629 8.86073 21.6629 8.65358 21.6629 8.44642C21.8214 7.78248 21.9149 7.10028 21.9416 6.4125C21.9256 6.28826 21.8847 6.17 21.8222 6.06704C21.7596 5.96408 21.677 5.87926 21.5809 5.81927H21.5154H21.4662C21.2367 5.61212 20.917 5.64978 20.6466 5.49912C20.3761 5.34846 19.9171 5.24488 20.1958 4.70815L20.2368 4.64224C20.5318 4.83056 20.6712 5.44262 21.2121 4.98123C21.3924 4.82115 21.5318 5.46146 21.9252 5.57445C21.8596 4.82115 21.8023 4.09609 21.7449 3.36162L21.3842 3.00381L21.3105 2.58949C21.1302 2.24109 21.0236 1.80794 20.622 1.64786C20.6033 1.45605 20.5591 1.26867 20.4908 1.0923C20.3433 0.772146 20.204 0.83806 20.1302 1.15821C19.8843 1.15821 19.8433 0.91339 19.7368 0.734481C19.7368 1.59136 19.0401 1.39362 18.6467 1.67611C18.6467 1.99626 18.8024 2.34467 18.4991 2.61774C18.3434 2.67424 18.3598 2.98497 18.1385 2.93789C18.0155 2.64599 17.6139 2.70248 17.5811 2.307C17.5898 2.28812 17.5943 2.26711 17.5943 2.24579C17.5943 2.22447 17.5898 2.20347 17.5811 2.18459C17.2779 2.00568 16.9664 1.62903 16.655 2.18459C16.2779 2.24109 16.1714 2.74015 15.8353 2.84373C15.3108 2.40116 15.0157 2.60832 14.8845 3.27688C14.7531 4.45376 14.7092 5.64137 14.7534 6.82682V7.26938C14.5977 7.61778 14.7534 8.00385 14.6469 8.36167C14.8137 8.73721 14.8489 9.17193 14.7452 9.57637V9.64229C14.7534 9.6889 14.7534 9.73692 14.7452 9.78353C14.7452 10.5839 14.237 10.6122 13.6469 10.5745C12.8273 10.5274 12.065 10.5745 11.27 10.5745C11.27 10.744 11.229 10.9229 11.27 11.0736C11.2044 10.9229 11.27 10.744 11.27 10.5745L10.5241 10.518H9.92576H9.43398C8.08978 10.518 6.75378 10.518 5.40958 10.4521C5.31942 10.4521 5.21287 10.5651 5.12271 10.631C5.10683 10.6192 5.08833 10.613 5.06943 10.613C5.05054 10.613 5.03204 10.6192 5.01616 10.631H4.9178C4.9178 10.631 4.9178 10.5839 4.9178 10.5651C4.9178 10.5463 4.77027 10.3579 4.68011 10.3579C3.86047 10.8193 3.04084 10.4333 2.22121 10.3579C1.60648 10.2638 1.02454 10.5463 0.409817 10.4898C0.15573 10.4898 0.278675 10.8382 0.098356 10.9135L0 11.2148C0.58194 11.422 1.1229 11.6385 0.860615 12.5708C0.860615 12.6649 0.98356 12.825 1.05733 12.9474L1.22125 13.1169C1.68844 13.2016 1.48354 13.8137 1.7786 14.0585C1.7786 14.115 1.7786 14.1715 1.7786 14.2186C1.94253 14.3975 2.03269 14.6612 1.84418 14.793C1.70559 14.9065 1.59908 15.0643 1.53788 15.2468C1.47668 15.4293 1.46349 15.6284 1.49993 15.8194C1.65566 16.3655 1.36879 16.4126 1.09011 16.5538L0.819633 16.6951C0.819633 16.9964 1.04913 16.987 1.23765 17.0058C1.25552 16.9888 1.27198 16.9699 1.28682 16.9493C1.26982 16.9736 1.25058 16.9957 1.22945 17.0152C1.48354 17.5237 1.86057 17.1941 2.18023 17.1753C2.64023 17.0597 3.1132 17.0279 3.5818 17.0812C3.66093 17.1074 3.73776 17.1421 3.8113 17.1847C4.06177 17.2547 4.31664 17.3019 4.57355 17.326C4.77813 17.3448 4.9837 17.3448 5.18828 17.326C5.41874 17.3066 5.64678 17.2592 5.86858 17.1847C6.00818 17.0573 6.13468 16.912 6.24561 16.7516C6.27776 16.6938 6.32764 16.6521 6.38534 16.6347C6.44304 16.6172 6.50434 16.6253 6.55707 16.6574C6.76198 16.7422 6.55707 16.8269 6.55707 16.9211C6.55707 17.3731 6.91771 17.2695 7.13081 17.2601C8.54058 17.2601 9.94215 17.2601 11.3437 17.1753C11.6413 17.2937 11.9608 17.3197 12.2699 17.2506C12.5732 17.2506 12.7699 17.2506 12.8437 17.4201C12.9174 17.5896 12.8928 17.7403 12.7617 18.0322C12.7043 18.164 12.6551 18.3053 12.5978 18.4465C12.3606 19.5826 12.18 20.7332 12.0568 21.8929C11.9628 24.7178 11.9956 27.5465 12.1552 30.3675C12.2902 34.483 12.6103 38.5877 13.1141 42.6652C13.4009 44.4852 13.5245 46.3342 13.483 48.1831C13.2781 51.1399 13.065 54.0966 12.901 57.0627C12.606 62.317 12.6715 67.5807 12.6715 72.8444C12.6715 79.4923 12.6715 86.1308 13.1059 92.7598C13.2249 94.7134 13.4301 96.6588 13.7207 98.5885C13.7027 98.6592 13.6977 98.7334 13.7062 98.8064C13.7147 98.8793 13.7364 98.9495 13.7698 99.0123C13.7698 99.0123 13.7698 99.0123 13.7698 99.0876C13.8272 99.7467 13.8764 100.415 13.9256 101.084C13.8777 102.199 13.9078 103.317 14.0157 104.427C14.1387 105.98 14.2534 107.543 14.3518 109.135C14.3928 109.766 14.0649 109.992 13.5321 109.7C13.3641 109.631 13.1856 109.602 13.0076 109.615C12.0404 109.502 11.0896 109.737 10.1143 109.671C9.6061 109.671 8.9504 109.361 8.47501 109.86C8.2701 109.803 8.12257 110.001 7.94225 110.039C7.90459 110.134 7.85178 110.22 7.78652 110.293C7.73993 110.336 7.68466 110.364 7.62589 110.376C7.56712 110.387 7.50676 110.381 7.45047 110.359C7.29474 110.359 7.13901 110.227 6.98328 110.189L6.75378 110.462C6.57346 110.67 7.22097 110.999 6.79476 110.98C6.36855 110.962 5.86858 111.837 5.35221 111.131C4.88052 111.095 4.40684 111.149 3.95063 111.291C3.78671 111.348 3.71294 111.432 3.85228 111.611C3.85228 111.771 3.74572 111.837 3.64737 111.941C3.40968 112.186 3.25395 112.506 3.72114 112.694C3.97522 113.146 3.72114 113.137 3.42607 113.156C3.131 113.174 2.79495 113.391 2.9015 113.466C3.3523 113.786 3.52442 114.69 4.27029 114.408C4.3081 114.417 4.34723 114.417 4.38504 114.408C4.73748 114.653 5.02435 115.048 5.49154 115.001C5.67186 115.095 5.95874 115.152 6.00791 115.302C6.20463 115.877 6.58166 115.83 6.98328 115.801C7.10197 115.971 7.26542 116.091 7.44884 116.143C7.63227 116.196 7.82564 116.178 7.99962 116.093C8.29168 115.998 8.60097 115.998 8.89302 116.093C9.15922 116.194 9.44646 116.194 9.71266 116.093C11.4421 116.301 13.1715 115.943 14.8927 116.093L15.0321 116.404C14.9869 116.855 15.0473 117.312 15.2073 117.728C15.3672 118.143 15.6208 118.502 15.9419 118.768C16.1632 118.984 16.2451 118.862 16.3845 118.768C16.4707 118.874 16.5745 118.96 16.6899 119.02C16.8053 119.08 16.93 119.112 17.0566 119.116L17.2205 119.238C17.8106 119.681 18.7122 119.323 19.122 120.18C19.122 120.18 19.3352 120.18 19.3515 120.114C19.4499 119.775 19.786 119.888 19.9417 119.672C20.163 119.154 20.663 118.918 20.9007 118.419C20.9007 118.269 20.9007 118.108 20.9007 117.958C20.9078 117.95 20.9136 117.94 20.9175 117.93C20.9214 117.919 20.9234 117.908 20.9234 117.897C20.9234 117.885 20.9214 117.874 20.9175 117.863C20.9136 117.853 20.9078 117.843 20.9007 117.835C21.0091 117.443 21.0454 117.03 21.0072 116.621C21.0072 116.263 21.122 116.093 21.4252 116.084H22.6629C23.4005 116.084 24.1464 116.188 24.8923 116.084C25.0574 116.124 25.2291 116.104 25.384 116.027C25.7447 115.962 26.1053 116.197 26.466 116.027H29.2199C29.4308 116.103 29.6566 116.103 29.8674 116.027H31.6379H33.8263H34.9C35.5557 116.329 36.1704 115.877 36.8097 115.877C37.6114 116.125 38.4504 116.17 39.2686 116.009C39.4022 116.023 39.5367 116.023 39.6703 116.009H41.998C42.3139 116.089 42.6411 116.089 42.957 116.009C43.7139 115.929 44.4766 115.957 45.2274 116.093C45.2812 116.112 45.3386 116.112 45.3926 116.094C45.4465 116.076 45.4945 116.039 45.5306 115.99L45.6782 115.839C46.547 116.075 47.4568 115.736 48.3092 116.046C48.5295 116.11 48.7624 116.08 48.9649 115.962C49.1329 116.041 49.3215 116.041 49.4895 115.962C50.3982 116.032 51.3101 116.032 52.2188 115.962L57.3498 115.801C57.4843 115.789 57.6194 115.815 57.7432 115.877C57.8471 115.979 57.9794 116.035 58.1161 116.035C58.2529 116.035 58.3851 115.979 58.489 115.877C58.5567 115.807 58.6442 115.769 58.7349 115.769C58.8257 115.769 58.9132 115.807 58.9808 115.877C59.0706 115.959 59.1818 116.003 59.2964 116.003C59.4109 116.003 59.5221 115.959 59.6119 115.877C60.0627 116.159 60.4971 115.877 60.9315 115.877C61.6938 115.877 62.4561 115.99 63.2101 116.018C63.893 115.929 64.5808 115.901 65.2674 115.933C65.6936 116.272 66.0871 115.764 66.5133 115.867C67.0214 115.66 67.5214 116.282 68.0214 115.867C69.1981 116.038 70.3856 116.092 71.5704 116.027H74.0293C75.8407 116.027 77.6521 116.103 79.4553 116.027C79.9634 116.027 80.5044 116.235 81.0044 115.933C81.0394 115.943 81.0759 115.943 81.1109 115.933H82.4551C82.9906 116.111 83.5589 116.111 84.0944 115.933C84.1364 115.969 84.1843 115.993 84.2351 116.006C84.2858 116.019 84.3384 116.02 84.3895 116.009C85.0203 116.178 85.6766 116.178 86.3074 116.009L86.5287 115.943C86.579 115.897 86.6257 115.847 86.668 115.792C86.8648 115.792 87.0205 116.018 87.2336 115.952L87.4467 116.037C88.0087 116.203 88.6005 116.18 89.1515 115.971H89.2663C89.5941 115.905 89.9056 116.272 90.2498 116.018H90.7744C91.2252 116.018 91.676 116.498 92.1268 116.018H92.676C92.7895 116.132 92.9351 116.195 93.0858 116.195C93.2365 116.195 93.3821 116.132 93.4956 116.018C94.2169 116.018 94.9217 116.423 95.6512 116.103C96.091 115.917 96.5615 115.846 97.0282 115.896C97.3069 116.348 97.5856 115.896 97.8478 115.896C98.1593 116.366 98.5281 116.103 98.8888 116.018C99.0363 116.018 99.0773 115.764 99.2986 115.867L99.6019 115.98C99.7679 116.083 99.9542 116.135 100.143 116.131C101.118 116.233 102.099 116.208 103.069 116.056H104.708C104.758 115.932 104.778 115.796 104.766 115.66C104.831 115.66 104.831 115.801 104.708 116.056C104.976 116.142 105.26 116.142 105.528 116.056H105.733C106.463 116.131 107.199 116.131 107.929 116.056H108.454H109.552H109.692C110.249 116.14 110.79 115.783 111.331 115.99C111.6 116.066 111.881 116.066 112.15 115.99H112.855H114.749C116.126 116.103 117.511 115.82 118.896 115.99C119.472 115.998 120.046 115.931 120.609 115.792H120.855C121.582 115.941 122.323 115.982 123.06 115.914H123.724H124.158C124.834 115.99 125.515 115.99 126.191 115.914H127.289C127.384 115.952 127.486 115.963 127.586 115.946C127.685 115.93 127.78 115.887 127.863 115.82C128.535 116.263 129.24 115.943 129.928 115.962C130.788 116.027 131.65 116.027 132.51 115.962C132.994 116.103 133.494 115.717 133.904 115.839C135.297 116.263 136.698 115.679 138.084 116.009C138.186 116.027 138.291 116.019 138.39 115.985C138.49 115.951 138.581 115.891 138.657 115.811H138.715H138.772C139.407 115.943 140.054 115.99 140.698 115.952H141.108L143.124 115.83C143.145 115.868 143.172 115.9 143.204 115.926C143.236 115.952 143.272 115.97 143.31 115.98C143.349 115.989 143.388 115.99 143.426 115.982C143.465 115.974 143.501 115.958 143.534 115.933C143.734 115.788 143.966 115.71 144.202 115.71C144.439 115.71 144.671 115.788 144.87 115.933C144.964 115.978 145.064 116.001 145.165 116.001C145.267 116.001 145.367 115.978 145.46 115.933C146.181 115.882 146.904 115.882 147.624 115.933L147.927 115.849C148.009 115.463 148.001 115.463 148.304 115.623C148.608 115.783 148.837 115.623 148.862 115.359C148.87 115.271 148.87 115.183 148.862 115.095C148.788 114.483 149.05 114.267 149.55 114.342C149.648 114.387 149.735 114.458 149.804 114.549C149.888 114.66 149.944 114.794 149.967 114.938C149.99 115.082 149.979 115.231 149.936 115.368C149.837 115.726 149.895 115.849 150.026 115.886H150.099H150.362V115.952L150.903 115.886C151.132 115.886 151.476 116.009 151.558 115.886C151.952 115.255 152.288 115.641 152.657 115.886C152.791 115.802 152.94 115.752 153.092 115.739C153.245 115.726 153.398 115.75 153.542 115.811C153.911 116.001 154.329 116.028 154.714 115.886C154.903 115.943 155.05 115.943 155.14 115.679C155.23 115.415 155.386 115.312 155.542 115.547C155.911 116.103 156.411 115.905 156.87 115.924C157.32 116.094 157.805 116.094 158.255 115.924C158.435 115.745 158.615 115.98 158.796 115.924C159.574 116.103 160.345 115.717 161.124 115.924C161.15 115.956 161.184 115.979 161.222 115.99C161.328 115.99 161.46 116.122 161.533 116.084C161.739 115.963 161.966 115.9 162.197 115.9C162.428 115.9 162.656 115.963 162.861 116.084C162.935 116.084 163.066 116.027 163.164 115.999C163.243 115.91 163.345 115.852 163.454 115.835C163.563 115.818 163.675 115.843 163.771 115.905C164.226 116.117 164.734 116.117 165.189 115.905H165.353C165.754 116.075 166.025 115.962 166.05 115.378C166.361 115.557 166.427 115.971 166.804 115.943C167.541 115.943 168.279 115.943 169.008 115.943H170.795C170.967 115.943 171.09 115.698 171.328 115.943C171.566 116.188 171.992 116.018 172.328 115.943C172.23 115.557 171.894 115.754 171.738 115.547C172.033 115.293 172.279 115.472 172.557 115.547C172.836 115.623 172.828 116.056 173.148 115.933H173.541H173.607H173.656C173.656 115.933 173.656 115.933 173.607 115.933C173.733 115.983 173.87 115.988 173.999 115.946C174.128 115.904 174.243 115.817 174.328 115.698C174.484 115.463 174.566 115.321 174.59 115.764C174.59 115.962 174.795 115.896 174.918 115.877H176.008C176.377 115.519 176.721 115.943 177.082 115.877C178.262 115.792 179.467 116.15 180.614 115.538C180.836 115.425 180.778 115.773 180.901 115.839L181.024 115.896C181.328 116.018 181.647 115.896 181.95 115.896C182.721 116.018 183.401 115.237 184.18 115.651C184.483 115.933 184.786 115.651 185.09 115.651C185.241 115.764 185.417 115.823 185.598 115.823C185.778 115.823 185.955 115.764 186.106 115.651C186.192 115.584 186.293 115.548 186.397 115.548C186.501 115.548 186.602 115.584 186.688 115.651C187.093 115.875 187.553 115.935 187.991 115.82C188.622 115.594 189.27 115.914 189.901 115.698C190.15 115.858 190.443 115.905 190.721 115.83L190.868 115.255C191.54 114.888 191.942 115.406 192.36 115.849C192.524 115.924 192.63 115.764 192.761 115.707C192.72 115.35 192.843 115.199 193.155 115.255C193.474 115.491 193.483 115.114 193.507 114.954C193.597 114.493 193.843 114.389 194.204 114.427C194.565 114.464 194.499 114.756 194.483 115.048C194.466 115.34 194.753 115.528 194.679 115.839H195.065C195.286 115.764 195.45 115.368 195.737 115.679C196.024 115.99 196.187 115.811 196.417 115.679C196.663 115.962 196.958 115.783 197.237 115.801C197.794 115.519 198.351 115.952 198.876 115.801H199.54H199.81C200.13 115.726 200.458 116.15 200.777 115.801H201.171H205.146C205.736 116.122 205.728 115.604 205.736 115.058C205.906 115.306 206.125 115.505 206.374 115.639C206.623 115.773 206.896 115.839 207.171 115.83C207.35 115.891 207.541 115.891 207.72 115.83C207.916 115.604 208.064 115.434 208.375 115.707C208.477 115.793 208.595 115.848 208.719 115.868C208.844 115.888 208.971 115.871 209.089 115.82H210.039H211.22C211.318 115.82 211.523 115.82 211.465 115.67C211.121 114.992 211.752 115.152 211.957 114.841C211.515 115.83 212.072 115.783 212.572 115.783H213.851L214.023 115.67C214.301 115.538 214.146 115.058 214.392 114.907C214.432 114.898 214.474 114.898 214.514 114.907C214.769 115.142 215.088 115.293 215.228 115.66C215.444 115.793 215.687 115.858 215.932 115.849C216.555 115.849 217.186 115.849 217.809 115.849H218.08C218.818 116.018 219.514 115.481 220.26 115.688C220.842 115.853 221.449 115.853 222.031 115.688C222.194 115.688 222.276 115.189 222.563 115.51C222.85 115.83 223.071 115.971 223.006 116.451C222.881 116.97 222.918 117.524 223.112 118.014C223.262 118.313 223.481 118.559 223.744 118.725C224.007 118.891 224.304 118.971 224.604 118.956C224.727 119.22 225.088 119.069 225.178 119.389C225.199 120.651 225.117 121.912 224.932 123.156C224.932 123.316 224.989 123.466 225.014 123.626C225.014 124.107 225.014 124.568 225.014 125.048V125.924C225.26 125.924 225.563 126.197 225.678 125.642C225.793 125.086 225.522 125.199 225.284 125.152C225.325 124.785 225.358 124.427 225.391 124.069C225.555 124.069 225.817 123.947 225.883 124.163C226.088 124.907 226.784 124.982 227.153 125.491C227.358 125.858 227.522 125.387 227.702 125.491C227.948 125.507 228.181 125.624 228.358 125.82C228.458 125.951 228.587 126.048 228.732 126.099C228.877 126.151 229.031 126.155 229.178 126.112V125.679C228.358 125.293 229.399 124.992 229.178 124.587C228.989 124.869 228.547 124.295 228.407 124.916C228.366 125.095 228.284 125.293 228.096 125.227C228.007 125.198 227.931 125.132 227.884 125.041C227.837 124.949 227.821 124.841 227.842 124.738C228.112 124.521 228.153 124.342 227.842 124.107C227.561 123.969 227.301 123.782 227.071 123.551L227.022 123.476C227.334 122.996 227.842 123.071 228.219 123.014C228.358 123.203 227.809 123.956 228.604 123.57C228.67 123.57 228.825 123.73 228.94 123.749C229.055 123.768 229.35 123.975 229.432 123.749C229.514 123.523 229.366 123.419 229.153 123.504C229.096 123.504 229.022 123.551 228.965 123.4C229.112 123.146 229.407 123.4 229.588 123.231C229.588 123.033 229.588 122.845 229.588 122.657L228.891 121.95C229.71 122.176 229.596 121.564 229.596 121.103V120.943C229.629 120.627 229.606 120.307 229.53 120.001C229.533 119.973 229.533 119.945 229.53 119.916L229.604 118.805C229.609 118.78 229.609 118.755 229.604 118.73V118.382L229.456 117.28C229.456 117.129 229.456 116.969 229.456 116.818C229.469 116.665 229.469 116.511 229.456 116.357C229.399 115.905 229.456 115.698 229.948 115.594C230.44 115.491 230.825 115.773 231.235 115.538C232.104 115.82 232.981 114.945 233.858 115.538C233.858 115.538 233.932 115.538 233.956 115.472C234.505 114.737 235.292 115.011 235.964 114.85C236.423 114.737 236.923 114.926 237.349 114.596H238.038C238.308 114.596 238.677 114.747 238.817 114.596C239.317 114.041 239.858 114.596 240.349 114.436C240.544 114.467 240.742 114.417 240.907 114.295C241.121 114.297 241.335 114.322 241.546 114.37C241.857 114.464 242.226 114.624 242.53 114.276L242.661 113.956C242.816 113.494 242.898 113.014 243.48 113.014C243.71 113.014 243.759 112.835 243.685 112.581C243.617 112.421 243.594 112.239 243.62 112.063C243.808 111.527 243.554 111.395 243.177 111.272C242.879 111.16 242.565 111.112 242.251 111.131C241.923 110.717 241.325 111.009 241.03 110.5C240.964 110.123 240.743 110.029 240.431 110.039C240.077 110.17 239.703 110.215 239.333 110.171C239.185 110.171 239.038 110.086 238.89 110.067C238.861 110.057 238.83 110.057 238.8 110.067H238.743C237.262 110.197 235.776 110.229 234.292 110.161L233.989 110.095C233.451 109.854 232.862 109.808 232.301 109.963H232.21C231.391 109.615 230.497 109.766 229.678 109.455C229.598 109.317 229.552 109.157 229.543 108.992C229.534 108.826 229.564 108.661 229.629 108.513C229.802 106.952 229.854 105.377 229.784 103.805C229.74 101.253 229.82 98.7008 230.022 96.1591C230.202 94.5584 230.325 92.9576 230.473 91.3568C230.68 89.4736 230.822 87.5903 230.899 85.707C230.943 85.5586 230.962 85.4022 230.956 85.2456C231.12 83.6825 231.063 82.1006 231.128 80.5375C231.21 78.5318 231.21 76.5262 231.202 74.5299C231.202 70.8199 231.112 67.1193 231.137 63.4187C231.137 61.4413 231.342 59.4733 231.448 57.4959C231.448 57.4017 231.448 57.3075 231.448 57.2134C231.538 56.5636 231.628 55.9233 231.694 55.2736C231.989 52.4487 232.276 49.6709 232.366 46.8554C232.366 46.573 232.456 46.2999 232.464 46.0174C232.464 44.0965 232.464 42.1756 232.464 40.2546L232.587 35.5465C232.821 33.892 232.96 32.2218 233.005 30.5464C233.145 29.134 233.276 27.7216 233.407 26.3091C233.333 25.0097 233.555 23.7196 233.563 22.4296L233.612 21.987L233.686 21.3091V20.81C233.686 20.6123 233.686 20.4145 233.686 20.2168V18.2676C233.768 17.0717 234.464 17.8627 234.891 17.778C234.999 17.7246 235.117 17.6989 235.235 17.7026C235.914 17.6276 236.597 17.6276 237.276 17.7026C238.218 17.7026 239.136 17.1753 240.071 17.6367L240.349 17.4861L240.595 17.3731C240.644 17.3731 240.71 17.5049 240.751 17.4955L243.734 16.8363C243.8 16.7422 243.923 16.6386 243.923 16.535C243.923 15.9794 244.144 15.7252 244.62 15.6781C244.898 15.6781 244.89 15.3862 244.841 15.1414C244.792 14.8966 245.07 14.5011 244.906 14.1904ZM6.9423 12.4578C6.92126 12.4821 6.90456 12.5109 6.89312 12.5425L6.9423 12.4578ZM6.2702 11.5161C6.2702 11.3372 6.32757 11.2242 6.42593 11.196C6.31937 11.1866 6.2702 11.2996 6.2702 11.4879V11.5161ZM225.399 123.683C225.399 123.523 225.309 123.429 225.194 123.325C225.301 123.429 225.399 123.523 225.399 123.683ZM219.145 114.568C219.088 114.794 219.039 115.02 219.145 115.161C219.022 115.02 219.072 114.794 219.145 114.568ZM217.055 114.841C217.017 114.734 216.952 114.641 216.869 114.575C216.787 114.508 216.689 114.47 216.588 114.464C216.691 114.475 216.79 114.519 216.871 114.593C216.953 114.666 217.014 114.766 217.047 114.879L217.055 114.841ZM206.367 17.4861C206.381 17.3847 206.418 17.2895 206.475 17.2107C206.532 17.1318 206.607 17.0723 206.691 17.0384C206.775 17.0045 206.866 16.9976 206.953 17.0184C207.041 17.0392 207.121 17.087 207.187 17.1565C207.291 17.1871 207.399 17.2029 207.507 17.2036C207.384 17.3919 207.13 17.2036 207.105 17.4955C207.269 17.7874 207.925 17.4955 207.777 18.0699C207.63 18.6443 207.261 18.277 206.957 18.2488C206.498 18.2111 206.269 17.891 206.367 17.4861ZM232.866 11.0265V10.9606C232.866 10.9606 232.866 11.0076 232.866 11.0265ZM229.915 54.6145C230.071 54.0495 229.579 53.8047 229.415 53.3998C229.579 53.8047 230.071 54.0495 229.924 54.6145H229.915ZM229.374 53.2114C229.307 53.2701 229.227 53.3064 229.144 53.3164C229.06 53.3263 228.975 53.3096 228.899 53.2679C228.976 53.3039 229.061 53.315 229.143 53.3C229.225 53.2851 229.302 53.2447 229.366 53.1832L229.374 53.2114ZM227.563 121.254L227.497 121.169H227.588C227.582 121.17 227.577 121.172 227.572 121.176C227.568 121.179 227.564 121.184 227.561 121.189C227.558 121.194 227.556 121.2 227.555 121.206C227.554 121.213 227.554 121.219 227.555 121.225L227.563 121.254ZM230.965 76.3943C231.022 76.3943 231.03 76.4885 231.03 76.5638C230.992 76.5057 230.967 76.4379 230.956 76.3661L230.965 76.3943ZM212.285 10.4709C212.058 10.485 211.831 10.485 211.605 10.4709C211.831 10.4897 212.059 10.4897 212.285 10.4709ZM192.614 10.2543C193.237 10.4427 193.515 10.7157 193.507 11.196C193.507 10.7157 193.237 10.4427 192.614 10.2543ZM192.614 10.2543C192.243 10.3305 191.867 10.3652 191.491 10.3579C191.851 10.3616 192.21 10.3269 192.565 10.2543H192.614ZM188.991 16.9493C189.417 17.1 189.958 16.8457 190.458 16.8834C190.655 16.8834 190.843 16.8834 191.048 16.9493C192.233 17.2525 193.463 17.2299 194.638 16.8834L195.351 17.0623C195.727 17.2358 196.127 17.3253 196.532 17.326C197.296 17.1668 198.068 17.063 198.843 17.0152L198.655 16.9399C198.723 16.9374 198.791 16.9642 198.843 17.0152C198.909 17.0914 198.994 17.1429 199.086 17.1631C199.178 17.1832 199.273 17.1711 199.359 17.1282C199.357 17.1073 199.361 17.0861 199.37 17.0676C199.379 17.0491 199.392 17.0341 199.409 17.0247C199.794 17.0247 200.179 17.0247 200.564 17.0247C201.269 17.0247 201.384 17.2318 201.138 18.0699C201.339 18.1031 201.543 18.1031 201.745 18.0699C202.015 17.9663 202.163 18.0039 202.269 18.3241C202.296 18.4389 202.34 18.5474 202.4 18.6443C202.433 18.6915 202.48 18.7228 202.531 18.7315C202.583 18.7403 202.636 18.7259 202.679 18.6913C202.701 18.6812 202.721 18.665 202.736 18.6443C202.9 18.4277 202.466 17.8156 203.072 17.8062C203.072 17.8062 203.113 17.6744 203.015 17.6555H202.941C202.802 17.6555 202.663 17.6555 202.695 17.4013C202.728 17.1471 202.851 17.1941 202.974 17.1847H203.072C203.084 17.1483 203.084 17.1081 203.072 17.0717L203.204 17.0058H203.326C203.507 17.1753 203.736 17.2883 203.753 17.6085L203.941 17.7215C204.138 17.8156 204.335 17.8533 204.466 17.665C204.597 17.4766 204.244 17.3071 204.171 17.0812C204.162 17.0061 204.162 16.9302 204.171 16.8552H204.703L205.072 17.7968L205.121 17.9192C205.72 18.1923 206.318 18.4936 206.925 18.7478C207.18 18.8202 207.449 18.7826 207.682 18.642C207.915 18.5014 208.094 18.2677 208.187 17.9851C208.393 18.188 208.556 18.4425 208.662 18.729C208.706 18.674 208.759 18.6293 208.818 18.5972C209.121 18.4088 209.498 18.5972 209.941 18.4653C209.548 18.164 209.302 17.8721 208.933 17.8345C208.564 17.7968 208.113 17.7591 208.728 17.2318C208.793 17.1753 208.777 16.9964 208.793 16.8646H210.162L210.261 17.326C210.261 17.4296 210.302 17.5237 210.326 17.6273L210.531 17.7497L210.9 17.9569L211.105 18.0039C211.252 18.0039 211.367 17.9286 211.588 17.7591C211.441 17.5802 211.08 17.7591 211.072 17.3825C211.064 17.0058 211.408 17.1471 211.572 17.0247C211.61 17.0051 211.646 16.9798 211.679 16.9493L211.793 16.8646C212.064 16.7516 212.154 17.0812 212.342 17.1753C212.482 17.5802 212.908 17.8721 212.711 18.4088C212.818 18.4088 212.9 18.5689 212.998 18.6348C213.038 18.674 213.089 18.6955 213.142 18.6955C213.194 18.6955 213.245 18.674 213.285 18.6348C213.285 18.5878 213.285 18.5407 213.285 18.4936L213.113 18.1734C212.769 17.5237 212.826 17.3448 213.457 17.1471C214.006 17.2224 214.023 17.5708 213.883 17.9945L213.818 18.164C213.926 18.2818 214.056 18.3714 214.197 18.4266C214.339 18.4819 214.489 18.5015 214.637 18.4842C214.67 18.4746 214.704 18.4746 214.736 18.4842C214.908 18.4842 215.08 18.729 215.228 18.4842C215.295 18.3791 215.331 18.2521 215.331 18.1217C215.331 17.9912 215.295 17.8642 215.228 17.7591C215.506 17.1377 215.801 17.6555 215.842 17.8439C215.865 18.0476 215.948 18.2361 216.078 18.377C216.208 18.5178 216.377 18.6023 216.555 18.616C216.777 18.6631 216.777 18.9267 216.834 19.2092C216.83 19.2562 216.83 19.3035 216.834 19.3505C216.875 19.2741 216.928 19.207 216.99 19.1527C217.236 18.9456 217.572 18.8985 217.58 18.39C217.58 18.1358 217.842 18.3241 217.932 18.4559C218.008 18.5768 218.112 18.6703 218.233 18.7254C218.354 18.7804 218.485 18.7948 218.613 18.7667H218.768H219.424L219.522 18.7196C220.08 18.4559 219.99 17.6461 220.391 17.2224L220.67 17.6367C220.891 17.8156 220.817 18.5783 220.965 18.3429C221.342 17.8439 221.629 18.2959 221.932 18.2488C221.99 18.2497 222.047 18.236 222.1 18.2088C222.152 18.1815 222.199 18.1413 222.236 18.091C222.274 18.0407 222.301 17.9815 222.317 17.9176C222.332 17.8538 222.335 17.7868 222.326 17.7215C222.326 17.4955 222.211 17.2695 222.326 17.0341C222.566 17.2115 222.84 17.3218 223.125 17.3562C223.409 17.3905 223.697 17.3479 223.965 17.2318C224.432 17.0435 224.489 17.5614 224.489 17.9569C224.489 19.5953 224.432 21.2431 224.432 22.8816C224.304 23.6439 224.373 24.4325 224.629 25.1509C224.801 25.4616 224.432 25.5558 224.366 25.7818H224.285L224.211 29.4165C224.211 30.2451 224.211 31.0832 224.153 31.9118V32.0154C224.293 33.6059 224.293 35.2084 224.153 36.7989C224.153 37.1849 224.211 37.571 224.227 37.9571C224.193 39.6822 224.245 41.4083 224.383 43.1266C224.296 43.3908 224.273 43.6773 224.317 43.9552C224.317 44.8215 224.506 45.6972 224.473 46.5259C224.473 46.7519 224.473 46.9779 224.473 47.2133C224.514 47.7973 224.497 48.3849 224.424 48.9647C224.301 49.7368 224.703 50.4996 224.53 51.2905C224.662 55.8103 224.973 60.3207 225.129 64.85C225.109 67.7389 224.925 70.6232 224.58 73.4847C224.424 75.5092 224.309 77.5337 224.178 79.5582C224.178 79.7559 224.104 79.9725 224.293 80.1232C224.358 80.1797 224.383 80.2833 224.424 80.3586C223.604 80.8482 224.301 81.7428 224.039 82.449C223.889 83.2019 223.839 83.9766 223.891 84.7466C223.801 86.1214 223.727 87.4867 223.67 88.8521C223.514 92.4585 223.547 96.065 223.58 99.6714L223.309 104.21C223.309 104.351 223.309 104.502 223.309 104.643C223.117 105.949 223.034 107.274 223.063 108.598C222.932 108.862 222.694 108.711 222.514 108.777C222.392 108.713 222.262 108.672 222.129 108.655C219.965 108.57 217.801 108.57 215.637 108.655C215.569 108.649 215.5 108.665 215.44 108.702C215.379 108.738 215.328 108.794 215.293 108.862C215.244 108.859 215.195 108.87 215.15 108.892C215.105 108.914 215.065 108.948 215.033 108.99C215.001 109.033 214.977 109.083 214.964 109.137C214.951 109.192 214.948 109.249 214.957 109.304C214.449 109.813 213.81 109.389 213.26 109.624C213.105 109.648 212.952 109.686 212.801 109.737C212.9 109.624 213.097 109.662 213.26 109.624C213.209 109.556 213.141 109.507 213.065 109.483C212.989 109.46 212.909 109.463 212.834 109.493C212.353 109.7 211.823 109.7 211.342 109.493C211.195 109.493 211.031 109.408 210.916 109.596C209.328 109.753 207.729 109.722 206.146 109.502C205.94 109.43 205.723 109.414 205.511 109.455C205.3 109.496 205.099 109.593 204.925 109.737C204.058 109.596 203.185 109.511 202.31 109.483C201.122 109.483 199.925 109.483 198.745 109.54C197.22 109.662 195.704 109.643 194.179 109.596C193.774 109.437 193.339 109.398 192.917 109.483C191.278 109.483 189.573 109.558 187.893 109.606H184.655C184.59 109.606 184.532 109.511 184.475 109.521H184.073H183.934C183.196 109.577 182.467 109.521 181.729 109.521H181.483C181.057 109.521 180.623 109.521 180.196 109.521C179.77 109.521 179.229 109.285 178.754 109.521H177.401C176.098 109.737 174.787 109.314 173.475 109.521C172.428 109.441 171.377 109.422 170.328 109.464C168.85 109.593 167.367 109.627 165.886 109.568C163.607 109.493 161.328 109.493 159.05 109.464C157.304 109.464 155.558 109.596 153.804 109.464C152.834 109.351 151.856 109.351 150.886 109.464C150.821 109.464 150.731 109.464 150.64 109.464C150.407 109.367 150.157 109.335 149.911 109.37C148.272 109.37 146.632 109.53 144.993 109.464C141.641 109.342 138.289 109.53 134.936 109.464C134.117 109.464 133.24 109.464 132.379 109.417C132.208 109.379 132.033 109.379 131.863 109.417H128.182C126.855 109.417 125.535 109.474 124.207 109.502C124.043 109.361 123.855 109.427 123.683 109.427C121.691 109.427 119.699 109.502 117.708 109.483C117.273 109.483 116.831 109.483 116.413 109.483C114.216 109.417 112.019 109.483 109.855 109.483C109.224 109.483 108.593 109.568 107.97 109.54C107.283 109.478 106.592 109.478 105.905 109.54C105.711 109.559 105.517 109.559 105.323 109.54C104.196 109.397 103.06 109.372 101.93 109.464H101.774C101.686 109.449 101.596 109.469 101.52 109.521H98.4298C98.3309 109.469 98.226 109.434 98.1183 109.417L93.7087 109.493C93.4696 109.399 93.2101 109.399 92.971 109.493H92.2907C90.7192 109.391 89.1431 109.435 87.5778 109.624C87.0046 109.61 86.4325 109.557 85.8648 109.464C85.6399 109.426 85.4104 109.446 85.1927 109.521C84.4483 109.446 83.6995 109.446 82.9551 109.521H82.8977C82.8482 109.492 82.7935 109.477 82.7379 109.477C82.6823 109.477 82.6276 109.492 82.5781 109.521C80.5946 109.521 78.611 109.389 76.6275 109.521C76.4611 109.47 76.2858 109.47 76.1194 109.521C75.103 109.521 74.0867 109.662 73.0703 109.521C72.6441 109.323 72.2507 109.596 71.8081 109.521C69.2836 109.295 66.7673 109.521 64.2429 109.464C61.0135 109.464 57.776 109.333 54.5384 109.464C54.4237 109.464 54.3007 109.342 54.2106 109.408C53.727 109.408 53.2434 109.511 52.7598 109.408C52.6952 109.375 52.6255 109.358 52.5549 109.358C52.4843 109.358 52.4146 109.375 52.35 109.408C51.1683 109.318 49.9827 109.318 48.801 109.408C47.9813 109.408 47.1617 109.351 46.3421 109.342C43.1537 109.342 39.9653 109.276 36.777 109.342C35.277 109.342 33.7771 109.229 32.2772 109.436C31.8592 109.502 31.392 109.304 30.9412 109.37C30.3962 109.306 29.8469 109.306 29.3019 109.37C27.8511 109.37 26.4086 109.201 24.9578 109.37C24.7365 109.37 24.5562 109.615 24.3103 109.483C23.6047 109.198 22.8438 109.146 22.1137 109.333C21.3351 109.398 21.3351 109.483 21.3515 108.56C21.3952 104.128 21.4416 99.6934 21.4908 95.2552C21.6547 77.4678 21.6629 59.6898 21.6383 41.9025C21.6383 36.9966 21.5236 32.0907 21.7859 27.1942C21.958 24.0398 22.3842 20.9324 22.8268 17.778C22.9333 17.0152 23.1464 16.8363 23.712 16.9776H24.1218C24.5793 17.0387 25.0413 17.0387 25.4988 16.9776C26.2944 17.1842 27.1275 17.0712 27.8593 16.6574C27.9823 16.5821 28.2528 16.4032 28.3429 16.8834C28.4331 17.3636 28.9167 17.2977 29.1626 17.1565C29.8038 16.8857 30.5089 16.8924 31.1461 17.1753C31.269 17.1753 31.6133 17.0058 31.8755 17.0058C32.0432 16.8876 32.2361 16.825 32.4329 16.825C32.6296 16.825 32.8226 16.8876 32.9902 17.0058V17.1659C33.1296 17.1659 33.2689 17.1659 33.4083 17.1659C33.6859 17.1581 33.9628 17.2026 34.2279 17.2977C34.3017 17.1753 34.4492 17.1094 34.5148 17.1659C35.3344 17.8345 36.0311 17.1 36.7852 17.0247C37.0966 17.552 37.6048 17.3731 38.031 17.4484C38.0732 17.5105 38.1262 17.5619 38.1867 17.599C38.3015 17.665 38.4162 17.7403 38.3588 17.9569C38.3015 18.1734 38.3588 18.1264 38.3588 18.164C38.3845 18.1928 38.4156 18.2146 38.4497 18.2276C38.4837 18.2407 38.5199 18.2447 38.5556 18.2394C38.7523 18.2394 39.1293 18.2864 39.1129 18.1546C39.1129 17.9286 39.1129 17.825 39.1785 17.7874C39.244 17.7497 39.4162 17.7874 39.5391 17.7874H39.6539C39.7096 17.8739 39.7791 17.9474 39.8588 18.0039C40.0965 18.1734 40.3833 18.2205 40.6292 18.3712C40.9407 18.5501 41.0227 18.051 41.2931 18.0887H41.3669C41.557 17.9708 41.7697 17.9091 41.9857 17.9091C42.2018 17.9091 42.4144 17.9708 42.6045 18.0887C42.7144 18.1473 42.8212 18.2133 42.9242 18.2864C42.9816 18.4277 43.1045 18.3994 43.2029 18.4277C43.3012 18.4559 43.4734 18.4277 43.5717 18.3524C43.6701 18.277 43.6865 18.2582 43.6619 18.1358C43.6127 17.8533 43.334 17.6744 43.0881 17.5425C42.9816 17.4861 42.7111 17.7309 42.7767 17.3825C42.8177 17.1847 43.0308 17.0435 43.2521 17.2789C43.4734 17.5143 43.6127 17.1941 43.752 17.0247H43.8012C44.2684 17.0717 44.793 16.8269 45.1618 17.4201C45.1849 17.4483 45.2142 17.4688 45.2465 17.4796C45.2789 17.4904 45.3132 17.491 45.3458 17.4814C45.3784 17.4718 45.4082 17.4523 45.4321 17.4249C45.456 17.3976 45.473 17.3634 45.4815 17.326C45.7028 16.6386 46.0962 16.9493 46.3011 17.2506C46.7109 17.8721 46.924 18.1923 47.2191 18.1923H47.3256C47.6092 18.1604 47.8862 18.0745 48.1453 17.938C48.0997 18.0647 48.0997 18.2069 48.1453 18.3335C48.177 18.4115 48.2248 18.4794 48.2846 18.5313C48.452 18.6671 48.6575 18.7261 48.8608 18.6965C49.0641 18.6668 49.2504 18.5508 49.3829 18.3712C49.476 18.2285 49.6025 18.1191 49.7476 18.0558C49.8927 17.9924 50.0505 17.9777 50.2026 18.0134C50.4812 17.712 49.5059 17.6179 50.2026 17.2977L50.4812 17.6085C50.8009 18.0228 51.35 18.0887 51.6287 18.6066C51.6943 18.7384 51.8828 18.4748 51.9648 18.4936C52.4483 18.6254 52.6778 17.7497 53.2024 18.0981H53.4237C53.4237 18.0981 53.5057 18.0981 53.5139 18.051C53.6368 17.6838 53.8745 17.7968 54.104 17.712C54.7187 17.4766 55.2105 17.9192 55.7433 17.8156C55.9236 17.8156 56.1449 17.7403 56.2269 17.9851C56.3088 18.2299 56.1203 18.3053 56.0137 18.4277C55.9072 18.5501 55.8498 18.6537 55.899 18.7478C55.9361 18.8132 55.9908 18.8628 56.0547 18.8891C56.0925 18.8797 56.1317 18.8797 56.1695 18.8891C56.2297 18.8603 56.2932 18.8413 56.358 18.8326H56.4072C57.0055 18.5595 56.6121 17.8156 56.6777 17.1471C56.9895 17.4706 57.2774 17.8233 57.5383 18.2017C57.7022 18.4842 57.8661 18.4559 57.9071 18.2017C58.071 17.1847 58.7267 17.0152 59.4644 16.8646H59.7267C59.7267 17.1471 59.7267 17.4296 59.9316 17.6273C60.1365 17.825 60.3332 17.8533 60.3332 17.5614C60.3332 17.0812 60.6365 17.0435 60.8742 16.9117L60.9643 16.8552H61.2348C61.4971 17.5049 60.7676 17.3919 60.6939 17.7968C60.6853 17.8592 60.6853 17.9227 60.6939 17.9851C60.7117 18.0437 60.7464 18.0935 60.7922 18.1264C60.7921 18.2006 60.8166 18.2722 60.8608 18.3264C60.9049 18.3806 60.9654 18.4135 61.0299 18.4183C61.0338 18.4589 61.0338 18.5 61.0299 18.5407C61.2266 18.7573 61.4643 18.7102 61.6938 18.729C61.7936 18.6984 61.8825 18.6325 61.9479 18.5407C62.1446 18.2488 62.2102 17.778 62.6692 17.8627C62.7511 17.8627 62.7429 17.712 62.6692 17.6179C62.5954 17.5237 62.5872 17.4013 62.4397 17.3825C62.0872 17.3825 62.0872 17.326 62.2102 16.8363H62.8905C62.9203 16.9347 62.9588 17.0293 63.0052 17.1188C63.12 17.3448 62.8741 17.7874 63.161 17.8345H63.3085C63.4425 17.8138 63.5675 17.7455 63.666 17.6391C63.7644 17.5327 63.8315 17.3936 63.8576 17.2412C63.9232 16.8363 64.1937 17.0058 64.3904 16.9682C64.3904 17.1565 64.2183 17.3448 64.3904 17.5802C64.6773 17.4672 64.6855 16.9117 65.0625 16.9399C65.333 16.874 65.292 17.825 65.7182 17.2036C65.7446 17.234 65.7667 17.2689 65.7838 17.3071C65.9797 17.6156 66.2568 17.8434 66.5742 17.957C66.8915 18.0706 67.2322 18.064 67.546 17.938H67.6443C67.7591 17.7403 67.6443 17.5331 67.6443 17.3354C67.7673 17.1471 67.8575 16.9399 68.1197 17.0529C68.382 17.1659 68.1689 17.3542 68.1935 17.5049C68.2181 17.6555 68.2591 17.9851 68.4722 18.0699C68.6853 18.1546 68.7672 17.9192 68.9066 17.7968C69.2508 17.4672 69.6115 17.1659 69.9639 16.8552H71.1688C71.1806 16.9576 71.1704 17.0619 71.139 17.1588C71.1075 17.2557 71.0558 17.3422 70.9885 17.4107C70.8983 17.5331 70.7262 17.6744 70.9229 17.8533C71.1196 18.0322 71.2999 17.938 71.3327 17.778C71.4556 17.1941 71.9474 17.2224 72.2589 16.9682V16.9493C72.267 16.9218 72.267 16.8921 72.2589 16.8646C73.0785 16.8646 73.849 16.7798 74.6276 16.8646C75.314 16.9466 75.9955 17.0755 76.6685 17.2506C76.8898 17.2977 77.0292 17.3636 77.2341 17.0623C77.439 16.761 77.857 16.8269 78.1521 17.1471C78.2914 17.5237 78.5865 17.5614 78.8651 17.6273C79.0368 17.6413 79.2003 17.7171 79.3323 17.8439L79.4225 17.7874C79.4881 17.7403 79.5454 17.7026 79.57 17.7215C80.07 18.1546 80.4962 17.8627 80.9306 17.6179L81.1027 17.5237L82.0699 17.825C82.1604 17.8478 82.2465 17.8893 82.324 17.9474C82.4551 18.0322 82.5781 18.1264 82.7092 18.2017C82.8366 18.272 82.9798 18.2951 83.119 18.2676C83.1561 18.2164 83.1864 18.1593 83.2092 18.0981C83.2666 17.938 83.2092 17.8345 82.9633 17.8439C82.8007 17.8471 82.6409 17.7946 82.5043 17.6932C82.4997 17.6537 82.5032 17.6136 82.5146 17.5759C82.526 17.5383 82.5449 17.5043 82.5699 17.4766C82.6354 17.4013 82.7584 17.3919 82.8567 17.3542C82.9109 17.3475 82.9608 17.3172 82.9961 17.2695C82.9996 17.254 82.9996 17.2378 82.9961 17.2224C83.8157 17.3636 84.7337 16.9305 85.5042 17.6744C85.5892 17.7614 85.69 17.8258 85.7992 17.8627C85.8562 17.8907 85.9176 17.9051 85.9796 17.9051C86.0415 17.9051 86.1029 17.8907 86.1599 17.8627C86.3632 17.7056 86.5454 17.5153 86.7008 17.2977H86.75C86.9221 17.3731 87.0041 17.5896 87.1352 17.7403C87.198 17.824 87.2857 17.8777 87.3811 17.891C87.7336 17.778 88.1024 18.1923 88.4548 17.891C88.4845 17.8037 88.5324 17.7261 88.5942 17.665C88.6191 17.6345 88.6498 17.611 88.6839 17.5963C88.7181 17.5816 88.7546 17.5761 88.7909 17.5802C89.1597 17.5802 89.0122 17.3166 89.004 17.1188C89.5204 16.8081 89.9958 17.3636 90.5367 17.1847C90.8325 17.1321 91.1309 17.1007 91.4301 17.0906C91.7387 17.2696 92.0371 17.4709 92.3235 17.6932C92.4208 17.7487 92.5266 17.7814 92.635 17.7895C92.7433 17.7976 92.852 17.7809 92.9546 17.7403L93.0776 17.6838C93.2818 17.614 93.4899 17.5606 93.7005 17.5237C93.8228 17.5029 93.9394 17.4506 94.0416 17.3707C94.1438 17.2908 94.2289 17.1854 94.2906 17.0623C94.2922 17.0372 94.2922 17.0121 94.2906 16.987H96.0365C96.2187 16.9587 96.4034 16.9587 96.5856 16.987H96.979C97.2085 16.987 97.4626 16.9305 97.6347 17.2224C97.7011 17.2875 97.7852 17.3241 97.8724 17.326C98.2003 16.6857 98.5527 17.1 98.9052 17.2506H99.0527C99.4991 17.0149 99.9881 16.9051 100.479 16.9305C101.126 16.9305 101.569 17.5802 102.298 17.4107C102.856 17.2883 103.413 17.1471 103.938 16.9964C105.233 16.648 106.577 17.1094 107.88 16.7516C107.921 16.7516 107.987 16.7516 108.011 16.7516C108.503 17.326 109.249 16.3655 109.708 17.1188L113.757 16.9493C113.796 16.9725 113.84 16.9845 113.884 16.9845C113.928 16.9845 113.972 16.9725 114.011 16.9493C114.634 16.9493 115.273 16.8928 115.888 16.9493C116.614 16.8462 117.345 16.799 118.076 16.8081C118.568 17.213 118.896 17.0152 119.052 16.2996C119.052 17.0247 119.437 17.0152 119.871 16.9776C121.38 16.8363 122.896 16.8928 124.412 16.9211C124.921 16.9699 125.433 16.9478 125.937 16.8552C126.01 16.8652 126.084 16.8415 126.142 16.7892C127.158 16.8457 128.166 16.8928 129.027 15.9324C129.027 16.3184 128.748 16.422 128.863 16.6763C128.978 16.9305 129.051 16.7987 129.158 16.7516C129.734 16.6138 130.326 16.5789 130.912 16.648C131.109 16.648 131.469 16.648 131.486 16.6009C131.674 15.8194 132.199 16.3184 132.527 16.1489C132.649 16.422 132.289 16.4032 132.428 16.761C133.248 16.761 134.117 16.761 134.985 16.761C135.526 16.761 136.256 16.9587 136.559 16.6386C136.75 16.4417 136.986 16.3128 137.239 16.2676C137.493 16.2225 137.752 16.263 137.985 16.3843C138.168 16.441 138.354 16.4788 138.543 16.4973C138.632 16.5832 138.746 16.627 138.862 16.6198L139.1 16.5727L139.485 16.6292C140.477 16.8081 141.403 16.3373 142.379 16.6292C143.244 16.7 144.112 16.7 144.977 16.6292C145.733 16.7454 146.501 16.7103 147.247 16.5256C147.608 16.8081 148.001 16.6009 148.362 16.5821C148.947 16.4673 149.547 16.4897 150.124 16.648C151.37 16.8457 152.649 16.648 153.894 16.874C154.28 16.9399 154.714 16.6668 155.001 16.7704C156.148 17.1753 157.288 16.8552 158.427 16.8552C158.649 16.8302 158.873 16.8862 159.066 17.0152C159.353 17.2412 159.624 17.4672 159.886 16.9682C159.884 16.852 159.922 16.7397 159.992 16.6558C160.062 16.5719 160.158 16.5234 160.259 16.5209C160.36 16.5184 160.458 16.5621 160.531 16.6425C160.604 16.7228 160.646 16.8332 160.648 16.9493C160.788 17.4861 160.992 17.1941 161.189 17.0623C161.386 16.9305 161.64 16.6763 162.009 16.9399C162.11 17.0048 162.226 17.0316 162.34 17.0164C162.455 17.0012 162.563 16.9448 162.648 16.8552C162.796 17.0623 163.001 17.0247 163.197 17.0058C163.197 17.0906 163.156 17.2883 163.197 17.2601C163.722 17.0058 164.181 17.4013 164.673 17.4484C164.692 17.4039 164.706 17.3563 164.714 17.3071C164.714 17.1 164.763 16.8457 165.099 16.9964C165.713 17.8533 166.197 16.9964 166.738 16.8269H166.968C166.968 16.987 167.099 17.213 167.205 17.1282C167.95 16.7294 168.772 16.5607 169.59 16.6386C169.662 16.7739 169.772 16.8762 169.902 16.9278C170.033 16.9794 170.175 16.977 170.303 16.9211C171.238 16.4973 172.213 16.7987 173.164 16.6574C173.276 16.6309 173.391 16.6314 173.502 16.659C173.614 16.6865 173.719 16.7405 173.811 16.8175C173.957 16.9609 174.14 17.0443 174.332 17.0546C174.523 17.0648 174.712 17.0012 174.869 16.874C175.082 16.7516 175.287 16.6574 175.467 16.9305C175.63 16.8424 175.808 16.7967 175.988 16.7967C176.168 16.7967 176.345 16.8424 176.508 16.9305C177.016 17.2318 177.451 16.6103 177.992 16.7798C178.683 16.8693 179.382 16.8693 180.073 16.7798C180.073 16.8363 180.073 16.8928 180.073 16.9493C180.573 17.439 180.991 16.9493 181.426 16.7704C181.468 16.7515 181.515 16.7515 181.557 16.7704C181.688 17.0341 182.213 16.7704 182.131 17.3542C182.131 17.4484 182.221 17.5331 182.319 17.4484C182.86 16.9964 182.967 17.3448 183.049 17.7497L183.098 17.9851C183.251 18.0381 183.416 18.023 183.561 17.9428C183.705 17.8626 183.818 17.7231 183.877 17.552C183.894 17.4872 183.908 17.4211 183.918 17.3542L184.024 16.8081C184.606 16.8081 185.204 16.4314 185.762 16.9964C185.967 17.2036 186.049 16.648 186.254 16.7422C186.366 16.7885 186.481 16.8262 186.598 16.8552H186.647H186.786C187.491 17.0247 188.245 16.6763 188.991 16.9493ZM109.831 115.331C109.831 115.331 109.88 115.331 109.921 115.331H109.831ZM72.0212 114.502C72.0286 114.465 72.0286 114.426 72.0212 114.389C72.021 114.436 72.0096 114.481 71.9884 114.521L72.0212 114.502ZM145.37 109.926C145.472 109.893 145.58 109.893 145.682 109.926H145.37ZM112.527 109.926H112.388H112.56H112.527ZM105.659 110.707C105.741 110.877 105.847 111.027 105.97 110.98C105.847 110.98 105.741 110.877 105.659 110.707ZM105.102 109.935C105.102 109.935 105.052 109.85 105.044 109.86L105.102 109.935ZM27.6872 10.4521C28.0233 10.4521 28.3675 10.2638 28.679 10.5086C28.3675 10.2638 28.0233 10.4427 27.6872 10.4521ZM19.3352 117.412C19.3115 117.515 19.3229 117.625 19.367 117.72C19.4111 117.814 19.4846 117.886 19.5728 117.92C19.4913 117.884 19.4235 117.816 19.3815 117.728C19.3394 117.64 19.3259 117.538 19.3434 117.44L19.3352 117.412ZM12.2043 24.5671C12.1943 24.6796 12.1723 24.7903 12.1388 24.8967C12.1236 24.8399 12.1217 24.7797 12.1332 24.7218C12.1448 24.664 12.1693 24.6106 12.2043 24.5671ZM13.1141 114.389H13.3027C13.2535 114.389 13.2125 114.446 13.1551 114.389H13.1141ZM47.9813 17.0152L48.0961 16.8363H48.3748C48.5141 17.1094 48.6289 17.3636 48.9813 17.1847C49.0212 17.1584 49.0659 17.1431 49.1118 17.1401C49.1578 17.1372 49.2037 17.1466 49.2459 17.1676C49.2881 17.1887 49.3254 17.2208 49.3549 17.2613C49.3844 17.3019 49.4052 17.3498 49.4157 17.4013C49.4567 17.6461 49.2682 17.7403 49.096 17.8156C48.7851 17.9203 48.4596 17.9555 48.1371 17.9192C48.0797 17.6367 47.8912 17.3542 47.9813 17.0247V17.0152ZM43.7111 10.8947C43.7111 10.8947 43.7684 10.8005 43.7111 10.8852V10.8947ZM43.416 10.8947C43.5389 11.196 43.3504 11.3749 43.1619 11.5632C43.3586 11.4031 43.5471 11.2242 43.4406 10.9229L43.416 10.8947ZM165.328 17.0623C165.378 17.0867 165.43 17.1026 165.484 17.1094C165.431 17.1056 165.378 17.0929 165.328 17.0717V17.0623ZM164.435 10.5745C164.435 10.5745 164.377 10.5745 164.32 10.5745L164.451 10.518C164.451 10.518 164.443 10.5745 164.435 10.5839V10.5745ZM110.954 16.9493H110.905H110.946H110.954ZM86.1435 10.0001C86.0864 9.99095 86.0285 9.99095 85.9714 10.0001C86.0258 9.99181 86.0809 9.99181 86.1353 10.0001H86.1435ZM66.8575 10.5368C66.8663 10.5623 66.8804 10.5849 66.8985 10.6027C66.8892 10.5823 66.8836 10.5599 66.8821 10.5368H66.8575ZM61.1774 17.938C61.1774 17.7026 61.2512 17.4484 61.5299 17.5802C61.573 17.5973 61.6115 17.627 61.6415 17.6664C61.6716 17.7058 61.6922 17.7536 61.7013 17.8049C61.7104 17.8562 61.7077 17.9094 61.6934 17.9592C61.6792 18.0089 61.6539 18.0536 61.62 18.0887C61.3824 18.4183 61.3168 18.0228 61.1774 17.938ZM182.983 10.405V10.4521L182.926 10.3956L182.983 10.405ZM42.2521 10.7628C42.0164 10.7742 41.7846 10.6909 41.5964 10.5274C41.7809 10.7271 42.0233 10.8412 42.2767 10.8476L42.2521 10.7628ZM37.99 10.5274V10.5745C37.973 10.5502 37.9538 10.5281 37.9326 10.5086L37.99 10.5274ZM20.2449 4.58574C20.1957 4.63546 20.1558 4.69615 20.1276 4.76414C20.0994 4.83213 20.0836 4.90598 20.081 4.98123C20.0877 4.82688 20.1465 4.68161 20.2449 4.57633V4.58574ZM21.6383 3.82302C21.5072 4.21851 21.1138 3.8701 20.8679 4.05843C20.7177 4.04893 20.5672 4.04893 20.4171 4.05843C20.2976 4.07691 20.1889 4.14776 20.1138 4.25617C20.0859 4.28929 20.0512 4.31376 20.0128 4.3273C19.9745 4.34084 19.9338 4.34301 19.8945 4.33361C19.8552 4.32421 19.8187 4.30355 19.7882 4.27354C19.7578 4.24354 19.7344 4.20517 19.7204 4.16201C19.6712 4.0396 19.7204 3.95485 19.8515 3.89835H19.8925C20.163 3.89835 20.0892 3.76652 20.04 3.61586C20.3515 3.19213 20.5974 3.13563 20.8597 3.4652C21.0154 3.62528 21.122 3.61586 21.2367 3.4652C21.2635 3.49256 21.2939 3.51481 21.3269 3.53112C21.499 3.54053 21.7121 3.60645 21.6383 3.82302ZM12.8109 68.8425C12.8109 69.0496 12.7945 69.2568 12.7617 69.4639C12.7266 69.3632 12.7128 69.2544 12.7214 69.1464C12.7299 69.0384 12.7606 68.9343 12.8109 68.8425ZM15.8271 118.334H15.8927C15.8905 118.369 15.8905 118.404 15.8927 118.438L15.8271 118.334ZM49.9321 115.736H49.8829H50.0304C49.9976 115.726 49.9976 115.82 49.9321 115.736ZM82.4305 115.962C82.4426 115.95 82.4525 115.936 82.4596 115.919C82.4666 115.903 82.4707 115.885 82.4715 115.867C82.466 115.914 82.452 115.959 82.4305 115.999V115.962ZM94.4546 115.896C94.4546 115.491 94.7824 115.161 94.7906 114.756C94.7906 115.161 94.4464 115.491 94.4546 115.896ZM128.289 115.623C128.392 115.666 128.502 115.682 128.611 115.67C128.72 115.659 128.826 115.62 128.92 115.557C128.828 115.626 128.724 115.672 128.615 115.69C128.506 115.708 128.394 115.698 128.289 115.66V115.623ZM189.057 114.643C189.052 114.654 189.05 114.665 189.05 114.676C189.05 114.688 189.052 114.699 189.057 114.709C189.055 114.7 189.055 114.69 189.057 114.681V114.643ZM236.727 110.331V110.406L236.669 110.331H236.727ZM230.669 84.643C230.706 84.6472 230.74 84.6638 230.768 84.6907C230.795 84.7176 230.815 84.7535 230.825 84.7937L230.669 84.643ZM231.44 57.5335C231.391 57.6183 231.309 57.6936 231.292 57.7783C231.292 57.6936 231.391 57.6183 231.44 57.5335Z" fill="#333333"/>
</svg>
