<svg width="54" height="54" viewBox="0 0 54 54" fill="none" xmlns="http://www.w3.org/2000/svg">
<rect x="10" y="10" width="34" height="34" fill="white"/>
<path d="M20.334 39L39.0007 27L20.334 15V39ZM27.0007 53.6667C23.3118 53.6667 19.8451 52.9663 16.6007 51.5654C13.3562 50.1645 10.534 48.2649 8.13399 45.8667C5.73398 43.4667 3.83443 40.6445 2.43532 37.4C1.03621 34.1556 0.335762 30.6889 0.333984 27C0.333984 23.3112 1.03443 19.8445 2.43532 16.6C3.83621 13.3556 5.73576 10.5334 8.13399 8.13337C10.534 5.73337 13.3562 3.83382 16.6007 2.43471C19.8451 1.0356 23.3118 0.335152 27.0007 0.333374C30.6895 0.333374 34.1562 1.03382 37.4007 2.43471C40.6451 3.8356 43.4673 5.73515 45.8673 8.13337C48.2673 10.5334 50.1678 13.3556 51.5686 16.6C52.9695 19.8445 53.6691 23.3112 53.6673 27C53.6673 30.6889 52.9669 34.1556 51.566 37.4C50.1651 40.6445 48.2655 43.4667 45.8673 45.8667C43.4673 48.2667 40.6451 50.1672 37.4007 51.568C34.1562 52.9689 30.6895 53.6685 27.0007 53.6667Z" fill="#E5322E"/>
</svg>
