<svg width="12" height="8" viewBox="0 0 12 8" fill="none" xmlns="http://www.w3.org/2000/svg">
<mask id="mask0_120_7130" style="mask-type:luminance" maskUnits="userSpaceOnUse" x="6" y="0" width="6" height="8">
<path d="M8.198 6.07666C8.69254 6.53437 9.26204 6.90444 9.86074 7.21353C9.38709 6.58419 9.13143 5.81765 9.13247 5.02999C10.86 5.05116 12.0163 3.87872 11.9998 2.43362C11.9778 0.490572 9.66301 -0.61242 8.04261 0.35889C7.45645 0.708485 7.0178 1.25973 6.80878 1.90943C6.3354 3.43753 7.07765 5.04099 8.198 6.07666Z" fill="white"/>
</mask>
<g mask="url(#mask0_120_7130)">
<path d="M-2.05179 2.59153C0.323559 3.10301 2.70498 3.57244 5.09246 3.9998C4.36363 3.77906 3.6355 3.55493 2.90807 3.32742C2.82932 3.30244 2.83906 3.19786 2.89114 3.15509L-0.516071 2.13509C-0.621925 2.10333 -0.56815 1.91915 -0.463991 1.94709L4.45565 3.26391C4.46275 3.25715 4.47142 3.25226 4.48088 3.24967C4.49034 3.24708 4.50029 3.24688 4.50985 3.24909C5.24997 3.40208 5.98911 3.56298 6.72726 3.73178L1.23263 2.25745L-1.7969 1.44408C-1.8892 1.41952 -1.86041 1.23237 -1.76599 1.25142C-0.199076 1.56955 1.36671 1.896 2.93136 2.23078L2.18869 1.97673C2.08199 1.94074 2.13746 1.76502 2.24077 1.78916L2.95296 1.95556C2.95439 1.94388 2.95838 1.93267 2.96465 1.92271C2.97091 1.91275 2.9793 1.9043 2.9892 1.89795C2.99911 1.8916 3.01029 1.88752 3.02196 1.88599C3.03362 1.88445 3.04548 1.88551 3.05669 1.88908L3.89759 2.17658L8.64236 3.28762L8.27187 3.17838C7.6074 3.00309 6.94405 2.81961 6.28183 2.62794C5.38673 2.36797 4.49489 2.09317 3.60628 1.80356L3.27517 1.70575C3.26059 1.70167 3.24759 1.69326 3.23791 1.68161C3.1003 1.63631 2.96269 1.59185 2.82551 1.5457C2.7205 1.51055 2.77343 1.32679 2.87759 1.3577L3.1274 1.43222C3.0533 1.38649 3.10581 1.23025 3.20192 1.25396L4.66439 1.61302C4.12073 1.45636 3.57848 1.2932 3.03764 1.12355C2.94703 1.09518 2.9737 0.911847 3.06855 0.930901L4.48317 1.23576C4.49018 1.22941 4.49859 1.22483 4.50773 1.2224C4.51686 1.21997 4.52644 1.21976 4.53567 1.22179L7.69264 1.87342L5.09246 1.16251L3.86456 0.827164L2.69891 0.551945C2.68552 0.548375 2.67343 0.54106 2.66406 0.530861C2.65468 0.520661 2.64841 0.507999 2.64598 0.494361L2.16625 0.362257C2.07437 0.337275 2.10274 0.15309 2.19716 0.169603L5.78178 0.802183L5.28723 0.638322L3.01181 0.112866C2.91866 0.0912719 2.9483 -0.0950301 3.04272 -0.0797873L4.71266 0.18654L1.76528 -0.44858C1.66197 -0.471021 1.66536 -0.660287 1.77502 -0.645891C3.34758 -0.424869 4.91604 -0.167152 6.48041 0.127262L6.38345 0.0976229C6.3763 0.0952353 6.36947 0.0919638 6.36313 0.0878844L4.87356 -0.260161C4.85697 -0.265329 4.84253 -0.275783 4.83244 -0.289926C4.82235 -0.304069 4.81716 -0.321126 4.81767 -0.338493L4.37266 -0.460013L4.26342 -0.485417L1.39522 -1.14933C1.28894 -1.17389 1.34229 -1.36104 1.44687 -1.33732L2.26575 -1.15102C2.27084 -1.20141 2.30174 -1.24841 2.35044 -1.23571L4.44718 -0.769951L2.03584 -1.38729C1.92957 -1.41439 1.98334 -1.59899 2.08792 -1.57528L12.6394 0.983404L15.638 1.70659C15.6837 1.7176 15.6994 1.77011 15.6922 1.81753C16.1088 1.88612 16.5259 1.95217 16.9434 2.01569L5.59167 -0.810175L1.89823 -1.72983C1.87811 -1.73738 1.86141 -1.75196 1.85122 -1.77088C1.84102 -1.78979 1.83802 -1.81176 1.84276 -1.83272L1.2322 -1.97329C1.1399 -1.99446 1.16912 -2.185 1.26311 -2.16594L2.0731 -2.00293C2.06821 -2.02159 2.06734 -2.04107 2.07056 -2.06009L0.921417 -2.28619C0.816412 -2.30694 0.823608 -2.50298 0.93158 -2.4835L4.78888 -1.77979L7.48348 -1.44572L6.63877 -1.65743L3.94036 -2.33192C3.8345 -2.35817 3.88743 -2.54575 3.99244 -2.51949L9.10684 -1.24502L12.6364 -0.807211L4.24691 -2.70622C4.2264 -2.71373 4.20941 -2.72858 4.19924 -2.74791C4.18907 -2.76723 4.18644 -2.78965 4.19186 -2.8108L3.2557 -2.99795C3.15111 -3.01912 3.15746 -3.21389 3.26543 -3.19526L10.3593 -1.97541L5.04927 -3.15546L2.4203 -3.73893C2.31699 -3.76179 2.32165 -3.95487 2.43046 -3.93624L8.63051 -2.86288C8.55641 -2.91158 8.5725 -3.06951 8.66819 -3.04834L12.8701 -2.12911C12.9739 -2.10624 12.9692 -1.91274 12.8604 -1.9318L6.49227 -3.03267L11.7074 -1.87548L14.3326 -1.29202C14.4359 -1.26916 14.4317 -1.07608 14.3229 -1.09471L10.3999 -1.76963L12.6855 -1.31234L15.3594 -0.778419C15.4644 -0.757249 15.4564 -0.560362 15.3492 -0.581109L9.97442 -1.60873L14.6087 -0.560361C14.7023 -0.539191 14.6718 -0.356276 14.5773 -0.367708L10.693 -0.849553L12.882 -0.304196L15.754 0.219566C15.8493 0.236926 15.8518 0.398246 15.7726 0.41603L16.1198 0.50283C16.1302 0.505193 16.1398 0.510146 16.1478 0.517225L16.2591 0.545171C16.3514 0.568459 16.3227 0.756877 16.2282 0.737824L6.36694 -1.20988L5.13015 -1.42539L4.94258 -1.458L5.64671 -1.28567L11.2552 -0.159812L14.0642 0.404174C14.1692 0.425345 14.1616 0.622232 14.0544 0.601485L10.7971 -0.0230501L11.7388 0.208134L14.4355 0.869082C14.5418 0.895333 14.488 1.08079 14.3834 1.05708L7.87979 -0.441382L15.1625 1.37167L18.8559 2.29133C18.9491 2.31419 18.9194 2.49668 18.825 2.48398C17.7882 2.34482 16.7528 2.19041 15.7189 2.02077C15.7132 2.04238 15.6996 2.06106 15.6807 2.07313C15.6619 2.08521 15.6393 2.08979 15.6172 2.08597L14.3517 1.79805C14.3456 1.81064 14.3356 1.82085 14.3231 1.82706C14.3106 1.83328 14.2963 1.83514 14.2826 1.83235L14.0218 1.77434C14.0194 1.7892 14.0143 1.80352 14.007 1.81668L15.9352 2.30361L18.637 2.98488C18.7293 3.00817 18.7001 3.19659 18.6061 3.17753L17.9689 3.04035C17.9689 3.09285 17.935 3.14493 17.8842 3.13561L15.6897 2.74861L16.9176 3.12545C17.0243 3.15848 16.9688 3.33716 16.8655 3.31345L10.3259 1.80271L9.62807 1.6795L11.572 2.24856C12.2791 2.43458 12.9847 2.62879 13.689 2.83118C14.3148 3.01127 14.9392 3.19786 15.5622 3.39093L19.0952 4.2259C19.1875 4.24792 19.1583 4.43761 19.0643 4.41856L18.3068 4.26232C18.3233 4.32498 18.2898 4.41051 18.2221 4.39654L15.6753 3.8461L15.439 3.81773C15.4674 3.88209 15.4174 3.98329 15.3378 3.96169L14.2183 3.65557C13.8824 3.60814 13.547 3.55818 13.2123 3.50568C13.5048 3.58443 13.7974 3.66446 14.0887 3.74829C14.933 3.99077 15.7721 4.25526 16.6059 4.54177L18.6493 5.04436C18.7425 5.06723 18.7124 5.24972 18.6184 5.23701C17.5003 5.086 16.3853 4.9124 15.2734 4.71622L16.1524 4.99186C16.1656 4.99568 16.1775 5.00297 16.1869 5.01294C16.1962 5.02292 16.2028 5.03523 16.2058 5.0486L16.4222 5.10787C16.5284 5.13709 16.4738 5.31958 16.3701 5.29587L13.6996 4.67091C13.9913 4.74077 14.2826 4.80979 14.5744 4.88008C16.1085 5.25099 17.6422 5.63022 19.1752 6.01779C19.2688 6.04108 19.2383 6.2206 19.1443 6.21044C17.2855 6.00974 15.4288 5.78392 13.5743 5.53298C14.7881 5.89458 15.9986 6.27791 17.2059 6.68297C18.3788 7.07816 19.5465 7.49282 20.7092 7.92696C20.8155 7.96676 20.76 8.13867 20.6571 8.11495C19.635 7.88321 18.614 7.64426 17.5942 7.39812C17.6073 7.46036 17.559 7.54292 17.4866 7.52514L10.4431 5.81878L13.0285 6.50344L16.1745 7.33672C16.2803 7.36467 16.227 7.55139 16.1224 7.52472L10.3868 6.06563C11.2548 6.34791 12.1197 6.64147 12.9815 6.94633L13.1627 6.98867C13.1727 6.99115 13.1819 6.99588 13.1898 7.00248C13.1976 7.00909 13.2039 7.0174 13.208 7.02678C13.4976 7.13066 13.7868 7.23581 14.0756 7.34222L15.8463 7.84185C15.9268 7.86472 15.9145 7.97904 15.8577 8.01884C16.4192 8.23817 16.9787 8.46272 17.5362 8.69249C17.6407 8.73483 17.5878 8.9042 17.4841 8.88049C13.6234 7.93938 9.78205 6.88974 5.96004 5.73156L4.80497 5.49826L4.51747 5.44025L9.28764 6.86207C11.963 7.51131 14.6211 8.25059 17.2618 9.07991C18.5244 9.47707 19.7824 9.89428 21.0357 10.3315C21.1411 10.3684 21.0869 10.5458 20.9836 10.5191L12.4755 8.35079C10.8666 8.00331 9.26802 7.59585 7.67994 7.1284L7.48136 7.07759L7.0715 7.02636L16.8917 9.94537L19.978 10.8625C20.0847 10.8942 20.0296 11.0742 19.9259 11.0505C17.1576 10.4027 14.405 9.66549 11.6643 8.87244C8.92351 8.07939 6.19249 7.23129 3.4674 6.36329C1.92533 5.87213 0.384108 5.37688 -1.15627 4.87754C-1.26212 4.84324 -1.20793 4.66329 -1.10419 4.68954L4.62459 6.14947C4.34937 6.05434 4.07472 5.95752 3.80063 5.85901C3.71214 5.82683 3.73542 5.6473 3.83154 5.66636C4.65747 5.82782 5.48214 5.99789 6.30554 6.17657L5.31306 5.88018L2.39151 5.00964C2.30048 4.98254 2.328 4.79793 2.42242 4.81699L4.07966 5.15191C3.81488 5.0692 3.55053 4.98593 3.2866 4.90209C3.04526 4.82532 2.8042 4.74811 2.56342 4.67049L2.48551 4.64847C2.47779 4.64653 2.47048 4.64323 2.46391 4.63873C1.41215 4.3 0.362371 3.95351 -0.685434 3.59925C-0.790865 3.56326 -0.737093 3.38331 -0.633356 3.41126L0.406548 3.69071L0.194839 3.6255C0.0894108 3.5929 0.142761 3.40829 0.246922 3.43751L11.0101 6.47846L11.0313 6.48312C9.50443 5.97502 7.96899 5.50602 6.42494 5.07612C6.08198 4.98043 5.73845 4.88713 5.39436 4.79624L3.22563 4.2458C3.16 4.22887 3.15535 4.15181 3.18626 4.101L1.82371 3.74025C1.81388 3.73756 1.80467 3.73295 1.79661 3.7267L-2.0827 2.78715C-2.175 2.76174 -2.14579 2.5712 -2.05179 2.59153ZM8.18973 -1.16034L9.81733 -0.863949L9.06196 -1.05237L8.18973 -1.16034ZM18.5587 9.70148C17.6128 9.39098 16.6641 9.09346 15.7125 8.80893C15.7375 8.87032 15.7049 8.96644 15.6355 8.95628L16.1567 9.08923L18.5587 9.70148ZM1.88341 5.65196C3.61094 6.2072 5.34058 6.75382 7.07234 7.29184C9.80251 8.1357 12.5399 8.94484 15.2921 9.68328L15.5825 9.76034L8.96161 7.79104L5.87535 6.87393C5.78347 6.84683 5.81184 6.66942 5.90669 6.68128L5.94903 6.68678L3.72272 6.11941L1.88341 5.65196ZM7.65962 6.67704C6.84497 6.49074 6.02891 6.31319 5.21144 6.14439C5.99137 6.40775 6.77454 6.65644 7.56096 6.89044L9.14072 7.08818C9.24784 7.10173 9.23853 7.29988 9.13056 7.28549L9.03402 7.27363L12.5399 8.16703C12.6915 8.1995 12.8432 8.23182 12.995 8.264C13.3088 8.3292 13.6234 8.39102 13.938 8.45157L9.2182 7.04457C8.69882 6.91867 8.17929 6.79616 7.65962 6.67704ZM6.99317 5.7214L6.91145 5.70192L7.14602 5.7684L6.99317 5.7214ZM14.2534 7.61575L11.1426 6.77909L10.9834 6.74691L12.1093 7.0941L15.4686 8.12977C15.4827 8.13391 15.4953 8.14189 15.505 8.15282C15.5147 8.16374 15.5212 8.17718 15.5237 8.19159C15.7481 8.24875 15.9729 8.30464 16.1973 8.36096C15.5515 8.10578 14.9035 7.85738 14.2534 7.61575ZM2.97074 3.80799L4.802 4.25131L12.2223 6.02964C10.4158 5.54695 8.61427 5.04154 6.81787 4.5134L6.6972 4.47783C5.4549 4.26697 4.21275 4.04369 2.97074 3.80799ZM10.5879 4.90506L10.7209 4.92496C10.0815 4.75305 9.44106 4.58693 8.79945 4.4266L10.5879 4.90506ZM10.3381 4.38172C11.1816 4.60331 12.0284 4.8033 12.8786 4.9817C13.1044 5.02912 13.3311 5.07485 13.5586 5.11888L8.73424 3.8334L10.3381 4.38172ZM2.81323 2.40438C2.36836 2.30925 1.92293 2.21483 1.47694 2.12112L6.76664 3.5404L4.56193 2.78757L4.5145 2.77148C3.94798 2.64812 3.38117 2.52576 2.81408 2.40438H2.81323ZM12.6013 2.0051L11.2887 1.60243L8.27822 0.954611L5.82243 0.562954L10.3381 1.60624L12.6013 2.0051ZM14.4029 2.32308L15.693 2.55046L13.5137 2.08131L14.1628 2.28074L14.4029 2.32308ZM11.8578 1.52453L13.0996 1.79212C12.8515 1.72861 12.603 1.6658 12.354 1.6037L11.8578 1.52453ZM8.42811 1.67653C7.89179 1.55459 7.35547 1.43716 6.81914 1.32425L8.72112 1.77434L8.42811 1.67653ZM10.8953 2.28667L11.4708 2.42259C11.2193 2.35653 10.9679 2.29147 10.7167 2.22739L10.8953 2.28667ZM5.1945 2.02839C5.40621 2.04956 5.61453 2.07285 5.82412 2.09698L3.20785 1.45466L4.41288 1.81414L5.1945 2.02839ZM12.9265 3.64159L13.2512 3.72119C13.0615 3.66982 12.8714 3.61958 12.6809 3.57046L12.9265 3.64159ZM7.57536 2.52971C7.19598 2.47325 6.81646 2.42061 6.4368 2.37178L8.02079 2.8062L11.5847 3.76481L7.90943 2.61185L7.57536 2.52971ZM11.2214 2.60254L10.8433 2.47551L9.3321 2.1173L10.7107 2.49414L11.2214 2.60254ZM5.32661 0.114559L5.22033 0.0963526L8.29008 0.757301L8.80368 0.839019L8.69867 0.80684L8.28839 0.679816C7.30296 0.477425 6.3157 0.289006 5.32661 0.114559ZM14.2306 2.50515L14.1268 2.47297L13.9825 2.44757L14.2306 2.50515ZM12.0813 3.07253L7.63845 2.1173L9.0933 2.53691C10.245 2.79096 11.4009 3.01395 12.5611 3.2059L12.0813 3.07253ZM15.0215 4.47402L10.9775 3.36891L13.7254 4.23098C14.157 4.31538 14.5891 4.3964 15.0215 4.47402ZM5.74875 2.81001L6.01169 2.9002L6.42706 2.99123C7.33034 3.19249 8.23363 3.39658 9.13691 3.60349L5.74875 2.81001ZM10.9428 4.21913L13.1636 4.81191L15.7383 5.49826C15.7887 5.51181 15.8027 5.57236 15.79 5.62232C16.4277 5.70192 17.0659 5.77842 17.7047 5.85181C15.4538 5.29036 13.1998 4.74614 10.9428 4.21913ZM13.7995 5.36234C13.1926 5.24689 12.5874 5.11987 11.9839 4.98127C11.991 5.00988 11.987 5.04009 11.9729 5.06596L12.2693 5.15064C12.7797 5.22403 13.2897 5.29502 13.7995 5.36362V5.36234ZM16.755 6.7359C16.7384 6.74454 16.7192 6.74666 16.7012 6.74183L11.3336 5.41273L13.8791 6.22441L14.6146 6.45517C15.3265 6.63724 16.0388 6.81606 16.7516 6.99164C17.5594 7.18923 18.3682 7.38273 19.1777 7.57214C18.3716 7.28422 17.564 7.00589 16.755 6.73717V6.7359Z" fill="#7D7D7D"/>
</g>
<mask id="mask1_120_7130" style="mask-type:luminance" maskUnits="userSpaceOnUse" x="0" y="0" width="6" height="8">
<path d="M1.53442 6.07666C2.02897 6.53437 2.59846 6.90444 3.19717 7.21353C2.72352 6.58419 2.46785 5.81765 2.4689 5.02999C4.19642 5.05116 5.35276 3.87872 5.33625 2.43362C5.31423 0.490572 2.99943 -0.61242 1.37903 0.35889C0.792873 0.708485 0.354225 1.25973 0.145205 1.90943C-0.328171 3.43753 0.414072 5.04099 1.53442 6.07666Z" fill="white"/>
</mask>
<g mask="url(#mask1_120_7130)">
<path d="M-8.71536 2.59153C-6.34002 3.10301 -3.9586 3.57244 -1.57111 3.9998C-2.29995 3.77906 -3.02808 3.55493 -3.7555 3.32742C-3.83426 3.30244 -3.82452 3.19786 -3.77244 3.15509L-7.17965 2.13509C-7.2855 2.10333 -7.23172 1.91915 -7.12757 1.94709L-2.20793 3.26391C-2.20082 3.25715 -2.19215 3.25226 -2.18269 3.24967C-2.17323 3.24708 -2.16328 3.24688 -2.15373 3.24909C-1.4136 3.40208 -0.674463 3.56298 0.0636873 3.73178L-5.43095 2.25745L-8.46047 1.44408C-8.55277 1.41952 -8.52398 1.23237 -8.42956 1.25142C-6.86265 1.56955 -5.29687 1.896 -3.73221 2.23078L-4.47488 1.97673C-4.58158 1.94074 -4.52611 1.76502 -4.4228 1.78916L-3.71062 1.95556C-3.70918 1.94388 -3.70519 1.93267 -3.69893 1.92271C-3.69266 1.91275 -3.68427 1.9043 -3.67437 1.89795C-3.66446 1.8916 -3.65328 1.88752 -3.64162 1.88599C-3.62995 1.88445 -3.61809 1.88551 -3.60688 1.88908L-2.76598 2.17658L1.97879 3.28762L1.6083 3.17838C0.943823 3.00309 0.280476 2.81961 -0.381743 2.62794C-1.27684 2.36797 -2.16869 2.09317 -3.05729 1.80356L-3.3884 1.70575C-3.40298 1.70167 -3.41598 1.69326 -3.42566 1.68161C-3.56327 1.63631 -3.70088 1.59185 -3.83807 1.5457C-3.94307 1.51055 -3.89015 1.32679 -3.78599 1.3577L-3.53617 1.43222C-3.61027 1.38649 -3.55777 1.23025 -3.46165 1.25396L-1.99918 1.61302C-2.54284 1.45636 -3.0851 1.2932 -3.62594 1.12355C-3.71655 1.09518 -3.68987 0.911847 -3.59503 0.930901L-2.1804 1.23576C-2.1734 1.22941 -2.16498 1.22483 -2.15585 1.2224C-2.14671 1.21997 -2.13713 1.21976 -2.1279 1.22179L1.02907 1.87342L-1.57111 1.16251L-2.79901 0.827164L-3.96467 0.551945C-3.97805 0.548375 -3.99014 0.54106 -3.99952 0.530861C-4.00889 0.520661 -4.01516 0.507999 -4.0176 0.494361L-4.49732 0.362257C-4.5892 0.337275 -4.56083 0.15309 -4.46641 0.169603L-0.881794 0.802183L-1.37634 0.638322L-3.65176 0.112866C-3.74492 0.0912719 -3.71528 -0.0950301 -3.62086 -0.0797873L-1.95091 0.18654L-4.89829 -0.44858C-5.00161 -0.471021 -4.99822 -0.660287 -4.88856 -0.645891C-3.316 -0.424869 -1.74753 -0.167152 -0.183162 0.127262L-0.280124 0.0976229C-0.287277 0.0952353 -0.294106 0.0919638 -0.300448 0.0878844L-1.79002 -0.260161C-1.8066 -0.265329 -1.82105 -0.275783 -1.83114 -0.289926C-1.84123 -0.304069 -1.84642 -0.321126 -1.84591 -0.338493L-2.29091 -0.460013L-2.40015 -0.485417L-5.26836 -1.14933C-5.37463 -1.17389 -5.32128 -1.36104 -5.2167 -1.33732L-4.39782 -1.15102C-4.39274 -1.20141 -4.36183 -1.24841 -4.31314 -1.23571L-2.21639 -0.769951L-4.62773 -1.38729C-4.73401 -1.41439 -4.68024 -1.59899 -4.57565 -1.57528L5.97581 0.983404L8.97442 1.70659C9.02015 1.7176 9.03582 1.77011 9.02862 1.81753C9.44526 1.88612 9.86232 1.95217 10.2798 2.01569L-1.07191 -0.810175L-4.76534 -1.72983C-4.78546 -1.73738 -4.80216 -1.75196 -4.81236 -1.77088C-4.82256 -1.78979 -4.82556 -1.81176 -4.82081 -1.83272L-5.43137 -1.97329C-5.52368 -1.99446 -5.49446 -2.185 -5.40046 -2.16594L-4.59047 -2.00293C-4.59537 -2.02159 -4.59623 -2.04107 -4.59301 -2.06009L-5.74216 -2.28619C-5.84716 -2.30694 -5.83997 -2.50298 -5.73199 -2.4835L-1.8747 -1.77979L0.819903 -1.44572L-0.024806 -1.65743L-2.72322 -2.33192C-2.82907 -2.35817 -2.77615 -2.54575 -2.67114 -2.51949L2.44327 -1.24502L5.97284 -0.807211L-2.41667 -2.70622C-2.43718 -2.71373 -2.45417 -2.72858 -2.46434 -2.74791C-2.47451 -2.76723 -2.47714 -2.78965 -2.47171 -2.8108L-3.40788 -2.99795C-3.51246 -3.01912 -3.50611 -3.21389 -3.39814 -3.19526L3.69573 -1.97541L-1.6143 -3.15546L-4.24327 -3.73893C-4.34659 -3.76179 -4.34193 -3.95487 -4.23311 -3.93624L1.96693 -2.86288C1.89283 -2.91158 1.90892 -3.06951 2.00461 -3.04834L6.20657 -2.12911C6.3103 -2.10624 6.30565 -1.91274 6.19683 -1.9318L-0.171307 -3.03267L5.04388 -1.87548L7.66904 -1.29202C7.77235 -1.26916 7.76812 -1.07608 7.6593 -1.09471L3.73637 -1.76963L6.02196 -1.31234L8.69582 -0.778419C8.80082 -0.757249 8.79278 -0.560362 8.68565 -0.581109L3.31084 -1.60873L7.9451 -0.560361C8.03868 -0.539191 8.00819 -0.356276 7.91377 -0.367708L4.02938 -0.849553L6.21842 -0.304196L9.09044 0.219566C9.18571 0.236926 9.18825 0.398246 9.10907 0.41603L9.45627 0.50283C9.46665 0.505193 9.47626 0.510146 9.48421 0.517225L9.59557 0.545171C9.68787 0.568459 9.65908 0.756877 9.56466 0.737824L-0.296638 -1.20988L-1.53343 -1.42539L-1.721 -1.458L-1.01686 -1.28567L4.59167 -0.159812L7.40059 0.404174C7.5056 0.425345 7.49798 0.622232 7.39086 0.601485L4.13354 -0.0230501L5.07521 0.208134L7.77193 0.869082C7.8782 0.895333 7.82443 1.08079 7.71985 1.05708L1.21622 -0.441382L8.49893 1.37167L12.1924 2.29133C12.2855 2.31419 12.2559 2.49668 12.1615 2.48398C11.1247 2.34482 10.0893 2.19041 9.05529 2.02077C9.04958 2.04238 9.03598 2.06106 9.01717 2.07313C8.99835 2.08521 8.9757 2.08979 8.95367 2.08597L7.68809 1.79805C7.68205 1.81064 7.67198 1.82085 7.65948 1.82706C7.64698 1.83328 7.63276 1.83514 7.61908 1.83235L7.35825 1.77434C7.35578 1.7892 7.35077 1.80352 7.34343 1.81668L9.27166 2.30361L11.9735 2.98488C12.0658 3.00817 12.0365 3.19659 11.9425 3.17753L11.3053 3.04035C11.3053 3.09285 11.2714 3.14493 11.2206 3.13561L9.02608 2.74861L10.254 3.12545C10.3607 3.15848 10.3052 3.33716 10.2019 3.31345L3.66228 1.80271L2.96449 1.6795L4.90838 2.24856C5.61548 2.43458 6.32117 2.62879 7.02545 2.83118C7.65125 3.01127 8.27565 3.19786 8.89863 3.39093L12.4316 4.2259C12.5239 4.24792 12.4947 4.43761 12.4007 4.41856L11.6432 4.26232C11.6597 4.32498 11.6263 4.41051 11.5585 4.39654L9.01168 3.8461L8.77542 3.81773C8.80379 3.88209 8.75382 3.98329 8.67422 3.96169L7.55472 3.65557C7.21881 3.60814 6.88347 3.55818 6.54869 3.50568C6.84127 3.58443 7.13384 3.66446 7.42515 3.74829C8.26944 3.99077 9.1085 4.25526 9.94235 4.54177L11.9857 5.04436C12.0789 5.06723 12.0488 5.24972 11.9548 5.23701C10.8367 5.086 9.72175 4.9124 8.60986 4.71622L9.48887 4.99186C9.50202 4.99568 9.51391 5.00297 9.52329 5.01294C9.53267 5.02292 9.53921 5.03523 9.54222 5.0486L9.75858 5.10787C9.86486 5.13709 9.81024 5.31958 9.7065 5.29587L7.03604 4.67091C7.32777 4.74077 7.61908 4.80979 7.91081 4.88008C9.44498 5.25099 10.9786 5.63022 12.5116 6.01779C12.6052 6.04108 12.5747 6.2206 12.4807 6.21044C10.6219 6.00974 8.76525 5.78392 6.9107 5.53298C8.12449 5.89458 9.33503 6.27791 10.5423 6.68297C11.7152 7.07816 12.883 7.49282 14.0456 7.92696C14.1519 7.96676 14.0965 8.13867 13.9936 8.11495C12.9714 7.88321 11.9505 7.64426 10.9306 7.39812C10.9437 7.46036 10.8954 7.54292 10.823 7.52514L3.77956 5.81878L6.36492 6.50344L9.51089 7.33672C9.61674 7.36467 9.56339 7.55139 9.45881 7.52472L3.72325 6.06563C4.59125 6.34791 5.45614 6.64147 6.31793 6.94633L6.49915 6.98867C6.5091 6.99115 6.51836 6.99588 6.52621 7.00248C6.53407 7.00909 6.5403 7.0174 6.54445 7.02678C6.83407 7.13066 7.12326 7.23581 7.41203 7.34222L9.18274 7.84185C9.26319 7.86472 9.25091 7.97904 9.19417 8.01884C9.75562 8.23817 10.3151 8.46272 10.8726 8.69249C10.9772 8.73483 10.9242 8.9042 10.8205 8.88049C6.95982 7.93938 3.11847 6.88974 -0.703537 5.73156L-1.85861 5.49826L-2.14611 5.44025L2.62407 6.86207C5.29948 7.51131 7.95752 8.25059 10.5982 9.07991C11.8608 9.47707 13.1188 9.89428 14.3721 10.3315C14.4775 10.3684 14.4233 10.5458 14.32 10.5191L5.81195 8.35079C4.20298 8.00331 2.60445 7.59585 1.01637 7.1284L0.817786 7.07759L0.407923 7.02636L10.2281 9.94537L13.3144 10.8625C13.4211 10.8942 13.3661 11.0742 13.2623 11.0505C10.4941 10.4027 7.74144 9.66549 5.00069 8.87244C2.25993 8.07939 -0.471084 7.23129 -3.19617 6.36329C-4.73824 5.87213 -6.27947 5.37688 -7.81985 4.87754C-7.9257 4.84324 -7.8715 4.66329 -7.76777 4.68954L-2.03898 6.14947C-2.3142 6.05434 -2.58886 5.95752 -2.86295 5.85901C-2.95144 5.82683 -2.92815 5.6473 -2.83204 5.66636C-2.0061 5.82782 -1.18143 5.99789 -0.358032 6.17657L-1.35051 5.88018L-4.27207 5.00964C-4.3631 4.98254 -4.33558 4.79793 -4.24116 4.81699L-2.58392 5.15191C-2.84869 5.0692 -3.11304 4.98593 -3.37697 4.90209C-3.61831 4.82532 -3.85938 4.74811 -4.10016 4.67049L-4.17807 4.64847C-4.18579 4.64653 -4.1931 4.64323 -4.19966 4.63873C-5.25142 4.3 -6.3012 3.95351 -7.34901 3.59925C-7.45444 3.56326 -7.40067 3.38331 -7.29693 3.41126L-6.25703 3.69071L-6.46873 3.6255C-6.57416 3.5929 -6.52081 3.40829 -6.41665 3.43751L4.34651 6.47846L4.36768 6.48312C2.84086 5.97502 1.30542 5.50602 -0.23863 5.07612C-0.581595 4.98043 -0.925124 4.88713 -1.26922 4.79624L-3.43794 4.2458C-3.50357 4.22887 -3.50823 4.15181 -3.47732 4.101L-4.83986 3.74025C-4.8497 3.73756 -4.85891 3.73295 -4.86696 3.7267L-8.74627 2.78715C-8.83858 2.76174 -8.80936 2.5712 -8.71536 2.59153ZM1.52616 -1.16034L3.15376 -0.863949L2.39839 -1.05237L1.52616 -1.16034ZM11.8951 9.70148C10.9492 9.39098 10.0005 9.09346 9.04894 8.80893C9.07392 8.87032 9.04132 8.96644 8.97188 8.95628L9.4931 9.08923L11.8951 9.70148ZM-4.78016 5.65196C-3.05264 6.2072 -1.32299 6.75382 0.408769 7.29184C3.13894 8.1357 5.87631 8.94484 8.62849 9.68328L8.91895 9.76034L2.29804 7.79104L-0.78822 6.87393C-0.880101 6.84683 -0.851732 6.66942 -0.756887 6.68128L-0.714546 6.68678L-2.94085 6.11941L-4.78016 5.65196ZM0.996043 6.67704C0.181396 6.49074 -0.634662 6.31319 -1.45213 6.14439C-0.672204 6.40775 0.110969 6.65644 0.897388 6.89044L2.47714 7.08818C2.58427 7.10173 2.57495 7.29988 2.46698 7.28549L2.37044 7.27363L5.87631 8.16703C6.02789 8.1995 6.17961 8.23182 6.33148 8.264C6.64522 8.3292 6.95982 8.39102 7.27442 8.45157L2.55463 7.04457C2.03524 6.91867 1.51571 6.79616 0.996043 6.67704ZM0.329591 5.7214L0.247872 5.70192L0.482443 5.7684L0.329591 5.7214ZM7.58986 7.61575L4.47904 6.77909L4.31984 6.74691L5.44569 7.0941L8.80506 8.12977C8.81909 8.13391 8.83168 8.14189 8.84141 8.15282C8.85114 8.16374 8.85761 8.17718 8.8601 8.19159C9.08451 8.24875 9.30934 8.30464 9.53375 8.36096C8.8879 8.10578 8.23994 7.85738 7.58986 7.61575ZM-3.69284 3.80799L-1.86157 4.25131L5.55875 6.02964C3.75218 5.54695 1.9507 5.04154 0.154297 4.5134L0.0336256 4.47783C-1.20867 4.26697 -2.45082 4.04369 -3.69284 3.80799ZM3.92437 4.90506L4.05732 4.92496C3.41797 4.75305 2.77748 4.58693 2.13587 4.4266L3.92437 4.90506ZM3.67456 4.38172C4.518 4.60331 5.36482 4.8033 6.21504 4.9817C6.44086 5.02912 6.66752 5.07485 6.89504 5.11888L2.07067 3.8334L3.67456 4.38172ZM-3.85035 2.40438C-4.29521 2.30925 -4.74064 2.21483 -5.18664 2.12112L0.103065 3.5404L-2.10165 2.78757L-2.14907 2.77148C-2.7156 2.64812 -3.28241 2.52576 -3.8495 2.40438H-3.85035ZM5.9377 2.0051L4.62512 1.60243L1.61465 0.954611L-0.841146 0.562954L3.67456 1.60624L5.9377 2.0051ZM7.73933 2.32308L9.02947 2.55046L6.85016 2.08131L7.49925 2.28074L7.73933 2.32308ZM5.19419 1.52453L6.43606 1.79212C6.18794 1.72861 5.93939 1.6658 5.69043 1.6037L5.19419 1.52453ZM1.76454 1.67653C1.22822 1.55459 0.691893 1.43716 0.155569 1.32425L2.05754 1.77434L1.76454 1.67653ZM4.23177 2.28667L4.80719 2.42259C4.55568 2.35653 4.30431 2.29147 4.05309 2.22739L4.23177 2.28667ZM-1.46907 2.02839C-1.25736 2.04956 -1.04904 2.07285 -0.839453 2.09698L-3.45572 1.45466L-2.25069 1.81414L-1.46907 2.02839ZM6.26288 3.64159L6.58764 3.72119C6.39795 3.66982 6.20784 3.61958 6.0173 3.57046L6.26288 3.64159ZM0.911784 2.52971C0.532406 2.47325 0.152885 2.42061 -0.226775 2.37178L1.35721 2.8062L4.92109 3.76481L1.24586 2.61185L0.911784 2.52971ZM4.5578 2.60254L4.17969 2.47551L2.66853 2.1173L4.04716 2.49414L4.5578 2.60254ZM-1.33696 0.114559L-1.44324 0.0963526L1.62651 0.757301L2.14011 0.839019L2.0351 0.80684L1.62481 0.679816C0.639388 0.477425 -0.34787 0.289006 -1.33696 0.114559ZM7.567 2.50515L7.46326 2.47297L7.31888 2.44757L7.567 2.50515ZM5.41775 3.07253L0.974873 2.1173L2.42972 2.53691C3.58141 2.79096 4.73732 3.01395 5.89748 3.2059L5.41775 3.07253ZM8.35793 4.47402L4.31391 3.36891L7.06186 4.23098C7.49346 4.31538 7.92549 4.3964 8.35793 4.47402ZM-0.914822 2.81001L-0.651881 2.9002L-0.236512 2.99123C0.666769 3.19249 1.57005 3.39658 2.47333 3.60349L-0.914822 2.81001ZM4.27919 4.21913L6.49999 4.81191L9.07477 5.49826C9.12516 5.51181 9.13913 5.57236 9.12643 5.62232C9.76409 5.70192 10.4023 5.77842 11.0411 5.85181C8.79024 5.29036 6.53627 4.74614 4.27919 4.21913ZM7.13596 5.36234C6.52907 5.24689 5.92387 5.11987 5.32036 4.98127C5.32738 5.00988 5.32346 5.04009 5.30936 5.06596L5.60575 5.15064C6.1161 5.22403 6.62617 5.29502 7.13596 5.36362V5.36234ZM10.0914 6.7359C10.0748 6.74454 10.0556 6.74666 10.0376 6.74183L4.67 5.41273L7.21556 6.22441L7.95103 6.45517C8.66293 6.63724 9.37525 6.81606 10.088 6.99164C10.8959 7.18923 11.7046 7.38273 12.5142 7.57214C11.708 7.28422 10.9004 7.00589 10.0914 6.73717V6.7359Z" fill="#7D7D7D"/>
</g>
</svg>
