<svg width="216" height="32" viewBox="0 0 216 32" fill="none" xmlns="http://www.w3.org/2000/svg">
<path d="M25.3963 2.28613C19.3014 2.28613 15.4911 5.33413 13.9677 11.429C16.2534 8.38099 18.9197 7.23813 21.9677 8.00042C23.7072 8.4347 24.9494 9.69642 26.3254 11.093C28.5655 13.3673 31.1598 16.0004 36.8249 16.0004C42.9198 16.0004 46.7301 12.9524 48.2535 6.85756C45.9678 9.90556 43.3015 11.0484 40.2535 10.2861C38.5152 9.85185 37.2718 8.59013 35.8958 7.19356C33.6558 4.91928 31.0615 2.28613 25.3963 2.28613ZM13.9677 16.0004C7.8728 16.0004 4.0625 19.0484 2.53906 25.1433C4.82479 22.0953 7.49108 20.9524 10.5391 21.7147C12.2774 22.149 13.5208 23.4107 14.8968 24.8073C17.1368 27.0816 19.7311 29.7147 25.3963 29.7147C31.4912 29.7147 35.3015 26.6667 36.8249 20.5718C34.5392 23.6198 31.8729 24.7627 28.8249 24.0004C27.0866 23.5661 25.8432 22.3044 24.4672 20.9078C22.2271 18.6336 19.6328 16.0004 13.9677 16.0004Z" fill="#7D7D7D"/>
<path d="M69.1184 12.7083V9.14255H64.8669V4.34255L61.1641 5.43969V9.14255H58.0098V12.7083H61.1641V20.9368C61.1641 25.394 63.4269 26.9711 69.1184 26.2854V22.9597C66.3069 23.0968 64.8669 23.1311 64.8669 20.9368V12.7083H69.1184ZM85.3504 9.14255V11.5768C84.0476 9.79398 82.0247 8.69684 79.3504 8.69684C74.6875 8.69684 70.8132 12.6054 70.8132 17.714C70.8132 22.7883 74.6875 26.7311 79.3504 26.7311C82.0247 26.7311 84.0476 25.634 85.3504 23.8168V26.2854H89.0533V9.14255H85.3504ZM79.9333 23.1997C76.8476 23.1997 74.5161 20.9025 74.5161 17.714C74.5161 14.5254 76.8476 12.2283 79.9333 12.2283C83.019 12.2283 85.3504 14.5254 85.3504 17.714C85.3504 20.9025 83.019 23.1997 79.9333 23.1997ZM95.2213 6.57112C96.5242 6.57112 97.5871 5.47398 97.5871 4.20541C97.5871 2.90255 96.5242 1.83969 95.2213 1.83969C93.9185 1.83969 92.8556 2.90255 92.8556 4.20541C92.8556 5.47398 93.9185 6.57112 95.2213 6.57112ZM93.3699 26.2854H97.0728V9.14255H93.3699V26.2854ZM101.372 26.2854H105.075V1.25684H101.372V26.2854ZM129.123 9.14255L125.763 20.9711L122.197 9.14255H118.666L115.066 20.9711L111.74 9.14255H107.832L113.215 26.2854H116.849L120.449 14.7311L124.015 26.2854H127.649L133.032 9.14255H129.123ZM137.61 6.57112C138.913 6.57112 139.976 5.47398 139.976 4.20541C139.976 2.90255 138.913 1.83969 137.61 1.83969C136.307 1.83969 135.244 2.90255 135.244 4.20541C135.244 5.47398 136.307 6.57112 137.61 6.57112ZM135.759 26.2854H139.462V9.14255H135.759V26.2854ZM152.778 8.69684C150.447 8.69684 148.595 9.55398 147.464 11.3368V9.14255H143.761V26.2854H147.464V17.0968C147.464 13.5997 149.384 12.1597 151.818 12.1597C154.15 12.1597 155.658 13.5311 155.658 16.1368V26.2854H159.361V15.7597C159.361 11.3026 156.618 8.69684 152.778 8.69684ZM176.925 2.28541V11.5768C175.622 9.79398 173.599 8.69684 170.925 8.69684C166.262 8.69684 162.387 12.6054 162.387 17.714C162.387 22.7883 166.262 26.7311 170.925 26.7311C173.599 26.7311 175.622 25.634 176.925 23.8168V26.2854H180.627V2.28541H176.925ZM171.507 23.1997C168.422 23.1997 166.09 20.9025 166.09 17.714C166.09 14.5254 168.422 12.2283 171.507 12.2283C174.593 12.2283 176.925 14.5254 176.925 17.714C176.925 20.9025 174.593 23.1997 171.507 23.1997Z" fill="#333333"/>
<path fill-rule="evenodd" clip-rule="evenodd" d="M195.679 4.57185H207.108C208.32 4.57185 209.483 5.05348 210.341 5.91079C211.198 6.7681 211.68 7.93086 211.68 9.14328V20.5718C211.68 21.7843 211.198 22.947 210.341 23.8043C209.483 24.6616 208.32 25.1433 207.108 25.1433H195.679C194.467 25.1433 193.304 24.6616 192.447 23.8043C191.59 22.947 191.108 21.7843 191.108 20.5718V9.14328C191.108 7.93086 191.59 6.7681 192.447 5.91079C193.304 5.05348 194.467 4.57185 195.679 4.57185ZM188.822 9.14328C188.822 7.32465 189.545 5.58051 190.831 4.29454C192.117 3.00858 193.861 2.28613 195.679 2.28613H207.108C208.927 2.28613 210.671 3.00858 211.957 4.29454C213.243 5.58051 213.965 7.32465 213.965 9.14328V20.5718C213.965 22.3905 213.243 24.1346 211.957 25.4206C210.671 26.7065 208.927 27.429 207.108 27.429H195.679C193.861 27.429 192.117 26.7065 190.831 25.4206C189.545 24.1346 188.822 22.3905 188.822 20.5718V9.14328ZM203.469 17.4781C203.469 19.8941 201.645 21.3661 199.181 21.3661C196.733 21.3661 194.909 19.8941 194.909 17.4781V9.94327H197.101V17.3033C197.101 18.3913 197.677 19.2073 199.181 19.2073C200.685 19.2073 201.261 18.3913 201.261 17.3033V9.94327H203.469V17.4781ZM205.779 21.1421V9.94327H207.987V21.1433L205.779 21.1421Z" fill="#333333"/>
</svg>
