<svg width="42" height="40" viewBox="0 0 42 40" fill="none" xmlns="http://www.w3.org/2000/svg">
<g clip-path="url(#clip0_263_1702)">
<path d="M7.93 0H34.4257C38.4428 0 41.6907 3.24786 41.6907 7.26496V32.735C41.6907 36.7521 38.4428 40 34.4257 40H7.93C3.9129 40 0.665039 36.7521 0.665039 32.735V7.26496C0.665039 3.24786 3.9129 0 7.93 0Z" fill="#333333"/>
<path d="M20.4942 23.9319H14.1352L12.836 27.949C12.8019 28.1028 12.6651 28.2054 12.5113 28.1883H9.29758C9.10955 28.1883 9.05827 28.0857 9.10955 27.8806L14.6138 12.0345C14.6651 11.8635 14.7164 11.6755 14.7848 11.4704C14.8531 11.1114 14.8873 10.7353 14.8873 10.3592C14.8702 10.2738 14.9386 10.1883 15.0241 10.1712H19.4514C19.5882 10.1712 19.6566 10.2225 19.6736 10.308L25.913 27.9148C25.9642 28.1028 25.913 28.1883 25.742 28.1883H22.1694C22.0497 28.2054 21.9301 28.1199 21.8959 28.0003L20.4942 23.9319ZM15.1266 20.4618H19.4685C19.366 20.1028 19.2292 19.6755 19.0754 19.231C18.9215 18.7695 18.7677 18.2738 18.6138 17.761C18.4429 17.231 18.289 16.7182 18.1181 16.1883C17.9472 15.6584 17.7933 15.1627 17.6566 14.6669C17.5198 14.1883 17.4001 13.7439 17.2805 13.3336H17.2463C17.0925 14.0687 16.9044 14.8037 16.6651 15.5387C16.4087 16.3593 16.1523 17.214 15.8788 18.0687C15.6395 18.9404 15.3831 19.7439 15.1266 20.4618ZM29.7249 13.1627C29.1608 13.1798 28.6138 12.9575 28.2036 12.5644C27.8104 12.137 27.6053 11.5729 27.6224 10.9917C27.6053 10.4105 27.8275 9.86352 28.2378 9.47036C28.648 9.0772 29.195 8.87207 29.7591 8.87207C30.4258 8.87207 30.9386 9.0772 31.3147 9.47036C31.6907 9.88062 31.8959 10.4276 31.8788 10.9917C31.8959 11.5729 31.6907 12.137 31.2805 12.5644C30.8873 12.9746 30.3061 13.1969 29.7249 13.1627ZM27.8104 28.0003V14.8379C27.8104 14.6669 27.8788 14.5986 28.0326 14.5986H31.4172C31.5711 14.5986 31.6395 14.684 31.6395 14.8379V28.0003C31.6395 28.1883 31.5711 28.2738 31.4172 28.2738H28.0668C27.8959 28.2738 27.8104 28.1712 27.8104 28.0003Z" fill="#EEEEEE"/>
</g>
<defs>
<clipPath id="clip0_263_1702">
<rect width="41.0256" height="40" fill="white" transform="translate(0.665039)"/>
</clipPath>
</defs>
</svg>
