<svg width="53" height="44" viewBox="0 0 53 44" fill="none" xmlns="http://www.w3.org/2000/svg">
<path d="M21.2746 5.14807L51.2746 22.4686L21.2746 39.7891L21.2746 5.14807Z" fill="#E5322E"/>
<path d="M30.2751 22.1687C29.6929 23.1638 28.5336 23.6613 27.4515 24.0619C24.7498 25.057 21.9635 25.8953 19.0976 26.1565C17.4074 26.2984 15.7073 26.2709 14.0225 26.0745C12.1206 25.863 10.2426 25.4749 8.41265 24.9152C7.83051 24.736 7.20608 24.5047 6.89014 23.9822C6.71351 23.6912 6.65629 23.3404 6.49707 23.0394C5.95474 22.0244 4.55911 21.9423 3.40727 21.9945C3.33513 21.8975 3.1585 22.0592 3.24806 22.1388C3.33762 22.2184 4.35013 21.5791 4.24316 21.5194L4.49194 21.5567L6.49707 18.6584C6.19958 17.9855 5.98892 17.2774 5.87015 16.5513C8.0569 20.6163 12.1144 23.4673 16.4431 23.9822C17.7393 24.1365 19.0926 24.0867 20.2842 23.517C22.2919 22.5568 23.5183 20.2033 23.685 17.8449C23.8517 15.4865 23.0606 13.1505 21.9212 11.1305L19.4807 12.1604L13.4827 10.2523C7.80812 11.526 3.01172 16.4543 3.01172 22.3229C3.01172 29.1916 9.20624 34.7617 16.8437 34.7617C24.4811 34.7617 30.6756 29.1941 30.6781 22.3229C30.6781 16.7901 26.5733 12.2251 21.456 10.5931C19.7767 10.0533 14.836 8.96612 14.1046 11.6255C13.8086 12.7699 17.9258 18.3375 18.6299 19.7356C19.1248 20.633 19.521 21.5814 19.8116 22.5642C20.0872 23.6711 20.0985 24.8273 19.8443 25.9394C19.5902 27.0514 19.0779 28.088 18.3488 28.9652C17.7319 29.6576 17.0355 30.2746 16.274 30.8037C14.7894 31.8984 13.2196 32.8726 11.5796 33.7169L5.75821 28.9901C5.89717 29.3758 5.98986 29.7767 6.03435 30.1842C8.3572 29.271 10.7783 28.6307 13.2489 28.2761C15.2664 27.99 17.386 27.9054 19.2866 28.6493C21.1873 29.3931 22.8242 31.1246 22.8989 33.1695" fill="white"/>
<path d="M30.2751 22.1687C29.6929 23.1638 28.5337 23.6613 27.4515 24.0619C24.7498 25.057 21.9635 25.8953 19.0976 26.1565C17.4074 26.2984 15.7073 26.2709 14.0225 26.0745C12.1206 25.863 10.2426 25.4749 8.41265 24.9152C7.83051 24.736 7.20608 24.5047 6.89014 23.9822C6.71351 23.6912 6.65629 23.3404 6.49707 23.0394C5.95474 22.0244 4.55911 21.9423 3.40727 21.9945C3.33513 21.8975 3.1585 22.0592 3.24806 22.1388C3.33762 22.2184 4.35013 21.5791 4.24316 21.5194L4.49194 21.5567L6.49707 18.6584C6.19958 17.9855 5.98892 17.2774 5.87015 16.5513C8.0569 20.6163 12.1144 23.4673 16.4431 23.9822C17.7393 24.1365 19.0926 24.0867 20.2842 23.517C22.2919 22.5568 23.5183 20.2033 23.685 17.8449C23.8517 15.4865 23.0606 13.1505 21.9212 11.1305L19.4807 12.1604L13.4827 10.2523C7.80812 11.526 3.01172 16.4543 3.01172 22.3229C3.01172 29.1916 9.20624 34.7617 16.8437 34.7617C24.4811 34.7617 30.6756 29.1941 30.6781 22.3229C30.6781 16.7901 26.5733 12.2251 21.456 10.5931C19.7767 10.0533 14.836 8.96612 14.1046 11.6255C13.8086 12.7699 17.9258 18.3375 18.6299 19.7356C19.1248 20.633 19.521 21.5814 19.8116 22.5642C20.0872 23.6711 20.0985 24.8273 19.8443 25.9394C19.5902 27.0514 19.0779 28.088 18.3488 28.9652C17.7319 29.6576 17.0355 30.2746 16.274 30.8037C14.7894 31.8984 13.2196 32.8726 11.5796 33.7169L5.75821 28.9901C5.89717 29.3758 5.98986 29.7767 6.03435 30.1842C8.3572 29.271 10.7783 28.6307 13.2489 28.2761C15.2664 27.99 17.386 27.9054 19.2866 28.6493C21.1873 29.3931 22.8242 31.1246 22.8989 33.1695" stroke="#7D7D7D" stroke-width="1.25722" stroke-miterlimit="10"/>
</svg>
