<svg width="64" height="64" viewBox="0 0 64 64" fill="none" xmlns="http://www.w3.org/2000/svg">
<g id="material-symbols:play-circle">
<path id="Vector" d="M25.3333 44.0002L43.9999 32.0002L25.3333 20.0002V44.0002ZM31.9999 58.6668C28.311 58.6668 24.8444 57.9664 21.5999 56.5655C18.3555 55.1646 15.5333 53.2651 13.1333 50.8668C10.7333 48.4668 8.8337 45.6446 7.43459 42.4002C6.03547 39.1557 5.33503 35.6891 5.33325 32.0002C5.33325 28.3113 6.0337 24.8446 7.43459 21.6002C8.83547 18.3557 10.735 15.5335 13.1333 13.1335C15.5333 10.7335 18.3555 8.83394 21.5999 7.43483C24.8444 6.03572 28.311 5.33527 31.9999 5.3335C35.6888 5.3335 39.1555 6.03394 42.3999 7.43483C45.6444 8.83572 48.4666 10.7353 50.8666 13.1335C53.2666 15.5335 55.167 18.3557 56.5679 21.6002C57.9688 24.8446 58.6684 28.3113 58.6666 32.0002C58.6666 35.6891 57.9661 39.1557 56.5653 42.4002C55.1644 45.6446 53.2648 48.4668 50.8666 50.8668C48.4666 53.2668 45.6444 55.1673 42.3999 56.5682C39.1555 57.9691 35.6888 58.6686 31.9999 58.6668Z" fill="#E5322E"/>
</g>
</svg>
