<svg width="40" height="40" viewBox="0 0 40 40" fill="none" xmlns="http://www.w3.org/2000/svg">
<path d="M20 4.40005C24.1374 4.40005 28.1053 6.04362 31.0309 8.96918C33.9565 11.8948 35.6001 15.8627 35.6001 20C35.6001 24.1374 33.9565 28.1053 31.0309 31.0309C28.1053 33.9565 24.1374 35.6001 20 35.6001V4.40005ZM20 0.800049C14.9079 0.800049 10.0243 2.8229 6.4236 6.4236C2.8229 10.0243 0.800049 14.9079 0.800049 20C0.800049 25.0922 2.8229 29.9758 6.4236 33.5765C10.0243 37.1772 14.9079 39.2001 20 39.2001C25.0922 39.2001 29.9758 37.1772 33.5765 33.5765C37.1772 29.9758 39.2001 25.0922 39.2001 20C39.2001 14.9079 37.1772 10.0243 33.5765 6.4236C29.9758 2.8229 25.0922 0.800049 20 0.800049Z" fill="white"/>
</svg>
