<svg width="400" height="175" viewBox="0 0 400 175" fill="none" xmlns="http://www.w3.org/2000/svg">
<path d="M24.3359 76L27.5391 60.2578H14.7266L11.5234 76H5.97656L9.14062 60.2578H0L1.09375 54.6328H10.3516L13.2031 40.4141H3.55469L4.6875 34.8281H14.3359L17.5 19.6328H23.0469L20 34.8281H32.7344L35.8984 19.6328H41.4844L38.3594 34.8281H48.0859L46.9922 40.4141H37.1875L34.2578 54.6328H44.4531L43.3594 60.2578H33.125L29.9219 76H24.3359ZM15.8203 54.75H28.7109L31.6406 40.3359H18.75L15.8203 54.75ZM72.4219 76.9375C65.8854 76.9375 60.7812 74.3333 57.1094 69.125C53.4635 63.8906 51.6406 56.7812 51.6406 47.7969C51.6406 38.8906 53.4766 31.8203 57.1484 26.5859C60.8464 21.3255 65.9375 18.6953 72.4219 18.6953C78.9062 18.6953 83.9714 21.3125 87.6172 26.5469C91.2891 31.7552 93.125 38.8255 93.125 47.7578C93.125 56.7422 91.3021 63.8516 87.6562 69.0859C84.0104 74.3203 78.9323 76.9375 72.4219 76.9375ZM62.3047 64.6328C64.7005 68.7474 68.0729 70.8047 72.4219 70.8047C76.7708 70.8047 80.1302 68.7604 82.5 64.6719C84.8698 60.5573 86.0547 54.9323 86.0547 47.7969C86.0547 40.7656 84.8568 35.1927 82.4609 31.0781C80.0651 26.9375 76.7188 24.8672 72.4219 24.8672C68.125 24.8672 64.7656 26.9375 62.3438 31.0781C59.9219 35.2188 58.7109 40.7786 58.7109 47.7578C58.7109 54.8932 59.9089 60.5182 62.3047 64.6328Z" fill="#FDB827"/>
<path d="M1.76 79.76C1.2 75.6 2.56 71.92 4.88 68.56C9.2 62.08 15.28 57.76 22.08 54.16C24.96 52.64 27.92 50.96 31.12 50.16C38.72 48.16 46.16 45.36 54.08 44.64C56.8 44.4 59.52 44.24 62.24 44.24C74.96 44.24 87.84 48.96 92.08 62.24C93.76 67.44 94.48 72.96 93.68 78.56C92.72 84.64 89.6 89.52 85.52 93.84C77.6 102.32 54.48 113.84 44 113.84C43.68 113.84 42.56 113.84 42.56 113.36C42.48 112.88 42.72 112.64 43.04 112.48C43.36 112.32 43.76 112.16 44.08 112.16C50.32 111.44 57.2 108 62.64 104.88C63.2 104.64 63.92 104.48 64.24 103.52C59.04 105.36 54.24 108.08 48.88 108.96C50.48 108 52.08 106.96 53.76 106.08C62.56 101.36 70.8 95.68 78.48 89.28C83.04 85.52 86.88 81.04 89.12 75.44C91.52 69.6 90.32 64.48 86.32 59.92C84.64 57.92 82.56 56.4 80.32 55.12C78.96 54.4 77.52 54 76.48 52.72C75.92 51.92 74.72 52.08 73.84 51.84V51.92C72 50.4 63.28 50.4 60.96 50.4C56.8 50.64 52.72 51.44 48.56 52C47.76 52.16 47.04 52.48 46.4 52.96C47.28 52.88 48.16 52.8 49.12 52.72C47.52 53.44 45.92 54.16 44.24 54.16C43.76 54.16 43.28 54.08 42.8 54C42.72 53.92 42.48 54 42.4 54.08C41.36 55.84 39.28 55.68 37.68 56.4C36 57.2 34.32 57.84 32.64 58.64C24.72 62.4 9.04 71.76 8.56 81.92C8.32 85.28 9.44 86.72 12.72 87.52C13.6 87.68 14.56 88 15.36 88.48C15.76 88.72 16.16 88.96 16.08 89.44C16 89.84 15.76 90 15.44 90C15.36 90 15.2 89.92 15.04 89.92C14.72 89.92 14.48 89.92 14.16 90.24C15.2 91.12 16.4 91.2 17.6 91.2C18.08 91.2 18.56 91.2 18.64 91.76C18.64 92.32 18.24 92.56 17.84 92.72C17.44 92.96 17.12 93.04 16.72 93.04C16.48 93.04 16.32 92.96 16.08 92.96C12.72 92.64 9.6 91.76 7.52 88.8C7.28 88.48 6.88 88.16 6.56 87.92C3.2 86.16 2.16 83.12 1.76 79.76ZM28.64 134.08C28.56 130.48 29.12 126.96 29.76 123.36C30.96 116.4 32.32 109.52 34 102.64C34.88 99.28 37.12 93.52 38.72 91.12C38.08 93.36 38.72 95.36 37.92 97.28C37.12 99.2 36.72 101.2 36.24 103.2L34.8 108.48C34.72 108.88 34.64 109.36 34.88 110C35.76 108.56 36.08 107.12 36.48 105.76C39.12 95.92 42 86 47.92 77.6C49.12 75.92 50.32 74.32 52.56 74.24C53.84 74.24 55.28 74.32 55.76 75.6C55.92 76.24 55.44 76.48 55.04 76.8C50.8 79.68 46.16 92.8 44.64 97.44C41.28 107.52 37.92 117.6 35.28 127.92C34.56 130.88 33.6 133.76 33.76 136.8C33.76 137.6 33.52 138.4 32.64 138.48C31.84 138.56 31.2 138 30.96 137.28C30.48 136 30.4 134.72 30.56 133.36C30.8 131.84 30.96 130.32 31.2 128.8C31.2 128.48 31.28 128.16 30.8 127.84C29.92 130.96 29.76 134.08 29.76 137.2C28.72 136.32 28.72 135.2 28.64 134.08ZM5.28 75.36C4.24 77.44 3.92 79.68 4.8 81.92C4.96 82.24 5.12 82.8 5.68 82.8H5.92C6.4 77.44 10.56 71.92 14.16 68.16C14.72 67.6 15.68 66.96 15.84 66.24C16.24 64.56 17.36 63.44 18.32 62.08C13.52 64.16 7.44 70.8 5.28 75.36ZM32.72 117.44C32.72 117.68 32.8 118 33.04 117.92C33.44 117.84 33.28 117.52 33.12 117.28C33.04 117.04 32.8 116.8 32.64 116.56C33.44 116.48 34 116.24 33.6 115.2C32.88 115.52 33.2 116.32 32.64 116.56C32.64 116.88 32.64 117.12 32.72 117.44ZM31.92 123.68C31.12 125.52 31.12 125.52 31.52 126.56C31.68 125.52 31.84 124.56 31.92 123.68ZM32.4 119.92C31.92 120.08 32.24 120.72 32.24 121.52C32.48 120.96 32.64 120.72 32.64 120.56C32.72 120.32 33.04 119.84 32.64 119.84C32.56 119.84 32.48 119.92 32.4 119.92ZM33.6 113.92C33.6 114.08 33.68 114.16 33.76 114.24C33.84 114.24 34.08 114.24 34.08 114.16C34.24 113.92 34.24 113.68 34 113.6C33.76 113.52 33.6 113.68 33.6 113.92ZM49.2 52.72C49.52 52.56 49.76 52.4 50.16 52.4C50.24 52.4 50.4 52.4 50.56 52.48C50.32 52.72 50.08 52.8 49.84 52.8C49.6 52.8 49.36 52.72 49.2 52.72ZM34.48 111.76C34.16 111.76 34.08 111.92 34.16 112.16C34.16 112.24 34.32 112.32 34.4 112.4C34.48 112.32 34.56 112.24 34.64 112.08C34.56 112 34.56 111.76 34.48 111.76ZM90.5688 113.76C86.4888 112.88 84.0088 109.52 84.7288 105.44C85.0488 103.6 85.5288 101.84 86.0088 100C86.0088 99.92 86.0088 99.76 86.0888 99.6C88.6488 94.64 92.1688 90.64 97.9288 89.28C98.5688 89.12 99.1288 89.04 99.6888 89.04C100.729 89.04 101.689 89.36 102.569 90.16C103.049 90.64 103.769 90.56 104.329 90.72C106.489 91.2 107.129 92.24 106.249 94.32C104.889 97.44 102.569 99.76 99.3688 101.04C97.5288 101.84 95.6088 102.56 93.5287 102.56C92.2488 102.56 91.6088 102.8 91.2888 104.16C90.8888 105.84 90.4888 107.52 90.8888 109.28C91.0488 109.92 91.3688 110.32 91.9288 110.32C92.1688 110.32 92.4088 110.24 92.6488 110.16C95.7688 109.28 98.6488 107.52 101.609 106.16C102.889 105.52 104.089 104.4 105.369 104.24C108.729 103.92 110.649 101.52 113.049 99.76C113.289 99.52 113.529 99.44 113.769 99.36C114.089 99.36 114.329 99.36 114.649 99.44C114.329 100.32 113.769 100.8 113.289 101.28C109.209 105.2 98.8088 114 92.7288 114C92.0088 114 91.2888 113.92 90.5688 113.76ZM93.3688 99.84C93.6088 100 93.7688 100.08 93.8488 100.08C94.0088 100.08 94.1688 100 94.3288 100C97.9288 99.36 100.409 97.12 102.729 94.48C102.569 95.04 102.489 95.6 102.409 96.4C103.689 95.84 104.169 94.88 104.489 93.84C104.649 93.36 104.569 92.8 103.929 92.72C103.289 92.64 103.529 93.36 103.129 93.52C103.129 93.2 103.209 92.8 102.729 92.64C102.329 92.56 101.929 92.32 101.449 92.32C101.209 92.32 101.049 92.32 100.889 92.4C97.2088 93.76 94.7287 96.24 93.3688 99.84ZM99.5288 89.76C97.1288 89.76 93.4488 91.68 92.2488 93.68C93.7688 93.04 95.0488 92.08 96.5688 91.44C98.1688 90.8 99.9288 91.2 101.689 90.56C100.969 90 100.249 89.76 99.5288 89.76ZM88.7288 105.6C87.2088 106.8 88.0888 108.24 88.3288 109.68C88.4888 108.32 88.4888 106.96 88.7288 105.6ZM89.2888 102.64C88.5688 103.6 88.3288 104.48 88.7288 105.36C88.8888 104.48 89.7688 103.84 89.2888 102.64ZM107.982 112.8C107.342 112.48 107.422 111.92 107.502 111.44C107.582 111.12 107.742 110.8 107.822 110.48C110.542 103.52 113.262 96.64 115.502 89.52C115.902 88.4 116.382 88.08 117.582 88.08C118.542 88.24 119.262 89.2 119.022 90.4C118.542 92.56 117.902 94.72 117.102 96.8C116.542 98.4 115.902 100 115.662 101.76C116.622 100.8 117.582 99.76 118.542 98.8C120.382 97.04 122.222 95.28 123.742 93.2C124.942 91.52 126.622 90.24 128.142 88.88C128.542 88.56 128.782 88.4 129.022 88.4C129.342 88.4 129.582 88.72 130.062 89.2C131.502 90.72 130.942 92.32 130.382 93.92C129.182 97.2 127.902 100.48 127.182 103.84C126.862 105.36 126.462 106.8 126.942 108.32C127.822 104.16 128.542 99.92 130.462 96.08V95.84H130.542C130.462 95.28 130.702 94.8 131.182 94.24C131.022 94.88 130.942 95.44 130.542 95.84V95.92C130.542 96 130.462 96 130.462 96.08C130.382 97.28 129.822 98.48 129.422 99.68C128.782 101.68 128.222 103.84 127.982 105.92C127.902 106.72 127.742 107.52 128.062 108.24C128.222 108.32 128.382 108.32 128.462 108.32C128.862 108.32 129.182 108 129.582 107.84C131.422 106.48 133.102 104.96 134.702 103.36C135.742 102.16 136.862 100.96 138.302 100.16C139.102 99.44 139.902 98.64 140.702 98C140.782 97.92 140.942 97.84 140.942 97.84C141.102 97.84 141.102 98.08 141.102 98.32C141.182 98.32 141.262 98.32 141.262 98.32C141.742 98.32 142.142 98.8 142.542 98.8C142.702 98.8 142.862 98.8 143.022 98.64C139.742 102.72 136.702 106.88 132.382 109.84C131.182 110.56 129.502 111.36 128.062 111.36C125.262 111.36 123.022 108.8 123.182 106.48C123.342 105.2 123.582 104 123.982 102.8L125.902 96.8C126.062 96.32 126.302 95.84 126.142 95.36C125.982 95.28 125.822 95.28 125.742 95.28C124.382 95.28 112.302 109.92 110.702 111.92C110.382 112.32 110.142 112.72 109.742 112.88C109.422 113.04 109.182 113.12 108.942 113.12C108.622 113.12 108.302 112.96 107.982 112.8ZM148.68 92.24C147.72 92.24 147.16 92.88 146.6 93.36C142.76 96.8 140.68 101.12 140.2 106.32C140.12 107.36 139.96 108.64 140.68 109.2C140.84 109.28 141 109.36 141.16 109.36C141.8 109.36 142.52 108.48 143.16 108.16C143.96 107.76 144.68 107.2 145.4 106.72C145.96 106.4 146.44 106.08 146.44 105.28C146.36 104.64 147 104.16 147.48 103.76C151.16 100.72 155.08 97.84 159.08 95.12C159.32 95.04 159.48 94.88 159.72 94.8C159.8 94.8 159.88 94.72 159.96 94.72C160.04 94.72 160.2 94.8 160.28 94.88C160.52 95.04 160.36 95.36 160.2 95.52C159.24 96.32 158.28 97.12 157.24 98C157.4 98.08 157.56 98.16 157.64 98.16C157.96 98.16 158.12 97.84 158.36 97.84C158.44 97.84 158.44 97.92 158.52 97.92C158.52 98.08 158.6 98.24 158.52 98.24C154.52 102.32 150.68 106.56 145.96 109.92C144.92 110.56 143.96 111.28 142.84 111.68C142.28 111.92 141.72 112 141.08 112C139 112 137.08 110.8 136.76 108.64C136.36 105.76 136.52 103.04 137.96 100.56C138.2 100.08 138.6 99.68 138.68 99.2C138.84 98.56 140.12 98 138.76 97.28C138.76 97.28 138.84 96.96 138.92 96.8C140.28 93.6 143.8 89.04 147.72 89.04C149.32 89.04 150.6 90 151.48 92C151.8 92.8 151.56 93.44 151.32 94.16C150.52 95.92 149.32 97.44 148.04 98.88C147.64 99.44 147.08 99.68 146.68 99.68C146.36 99.68 146.12 99.6 145.88 99.36C145.64 99.12 145.56 97.28 145.96 96.96C146.76 96.16 147.48 95.2 148.04 94.24C148.36 93.68 148.84 93.12 148.68 92.24ZM148.36 91.12C148.44 91.12 148.68 91.04 148.68 90.96C148.68 90.72 148.52 90.72 148.36 90.72C148.2 90.8 148.04 90.8 148.04 90.88C147.96 91.12 148.2 91.12 148.36 91.12ZM159.561 108C162.761 106.88 165.481 105.28 167.961 103.36C169.401 102.24 170.841 101.04 172.361 99.92C172.601 99.68 172.921 99.44 173.321 99.28C173.401 99.2 173.561 99.2 173.641 99.2C173.961 99.2 174.281 99.44 174.521 99.68C174.921 100.08 174.601 100.4 174.361 100.64C173.321 101.76 172.361 102.8 171.241 103.76C168.921 106 161.961 112.24 158.601 112.24C157.801 112.24 156.921 112 155.961 111.52C153.561 110.32 153.081 108.64 153.321 106.4C153.881 102.16 155.401 98.24 157.641 94.64C158.521 93.28 160.201 92.72 161.321 91.6C161.561 91.36 162.041 91.28 162.201 90.96C162.841 90.08 163.481 89.84 164.201 89.84C165.081 89.84 165.961 90.16 166.841 90.32C167.401 90.4 167.481 90.88 167.321 91.44C167.081 92.16 166.601 92.64 166.121 93.2C162.761 97.36 160.921 102.24 159.481 107.28C159.481 107.44 159.481 107.6 159.561 108ZM158.361 96.8C159.081 96.08 159.641 95.28 159.801 94.32C159.081 94.96 158.441 95.76 158.361 96.8ZM154.841 108.96C154.921 108.96 155.001 108.96 155.001 108.96C155.001 108.16 155.001 107.44 155.001 106.72C155.001 106.72 154.921 106.72 154.841 106.72C154.841 107.52 154.841 108.24 154.841 108.96ZM169.321 80.16C170.601 80.16 171.801 81.12 173.161 81.52C173.641 81.6 173.721 82.16 173.721 82.64C173.401 84.72 171.161 86.96 169.081 87.28C168.921 87.28 168.761 87.28 168.601 87.28C166.601 87.28 165.081 85.28 165.641 83.28C166.041 81.76 167.801 80.16 169.321 80.16ZM192.921 103.6C191.561 106 190.441 108.4 188.841 110.56C186.921 113.2 185.401 116 183.721 118.8C182.681 120.4 181.721 122.08 180.601 123.68C179.481 125.52 178.281 125.6 176.441 125.6C173.641 125.28 171.641 119.52 171.321 117.2C170.761 113.36 171.001 109.52 171.481 105.68C171.561 105.2 171.641 104.64 171.641 104.16C171.721 104.08 171.561 103.92 171.481 103.52C170.361 105.12 169.961 111.36 169.881 113.52C169.641 106.72 170.841 100.16 173.321 93.76C172.841 95.84 172.281 98 171.721 100.24C172.761 100.08 172.681 99.36 172.761 98.96C175.721 87.84 181.481 72.64 189.081 63.76C189.881 62.8 190.761 62.32 191.801 62.32C191.961 62.32 192.201 62.32 192.441 62.4C193.881 62.56 194.281 63.52 193.561 64.8C191.801 67.52 189.961 70.08 188.521 72.96C186.041 78 183.401 82.88 181.321 88.08C179.481 92.72 177.961 97.44 176.841 102.32C175.561 107.6 174.521 112.96 175.081 118.4C175.161 119.52 175.401 120.56 175.881 121.52C176.121 122.08 176.361 122.32 176.681 122.32C176.921 122.32 177.241 122.16 177.561 121.84C178.521 120.96 179.241 119.92 179.961 118.88C183.001 114.24 186.041 109.68 189.081 105.04C189.321 104.72 189.561 104.32 189.881 104C190.521 103.2 190.761 102.8 191.161 102.8C191.561 102.8 192.041 103.12 192.921 103.6ZM214.139 92.64C215.499 87.92 217.419 83.44 219.979 79.28C220.619 78.32 220.939 76.96 222.459 77.04C223.659 75.44 225.499 74.64 226.619 72.88C232.299 64.32 239.579 57.44 247.899 51.52C248.699 51.2 249.499 50.88 250.539 50.08C250.459 50.08 250.379 50.08 250.299 50.08C249.339 50.08 248.779 50.56 248.219 50.64C250.219 48.88 252.699 47.84 254.939 46.4C256.459 45.44 257.979 45.04 259.419 45.04C261.579 45.04 263.659 46 265.659 47.52C266.139 47.92 266.619 48.08 267.179 48.24C270.219 49.12 271.979 51.28 272.779 54.24C273.579 57.36 273.419 60.48 272.779 63.6C271.019 72.08 267.419 79.92 263.819 87.76C261.899 91.92 259.899 96 257.899 100.16C257.739 100.48 257.579 100.8 257.659 101.2C257.819 101.44 257.979 101.52 258.139 101.52C258.299 101.52 258.539 101.36 258.779 101.28C266.299 98.64 273.899 96.32 281.739 94.72C282.779 94.48 283.099 93.92 283.339 93.04C284.539 89.2 285.819 85.36 286.859 81.52C289.339 72.88 293.019 64.8 297.099 56.96C298.379 54.48 299.019 51.84 300.539 49.52C301.259 48.48 301.979 47.36 302.779 46.4C302.939 46.16 303.179 45.92 303.339 45.92C303.499 45.92 303.739 46.08 303.819 46.72C303.899 47.2 304.699 47.6 305.499 47.6C305.899 47.6 306.219 47.52 306.539 47.36C306.619 47.36 306.779 47.28 306.939 47.28C307.099 47.28 307.339 47.36 307.499 47.6C307.739 47.92 307.499 48.24 307.259 48.48C304.379 52.16 302.619 56.4 300.699 60.56C296.859 68.88 293.819 77.6 290.619 86.16C289.819 88.4 289.019 90.64 288.139 92.88C287.899 93.52 287.899 94 288.779 94.32C289.579 94.72 290.219 95.52 291.179 96C289.419 96.24 287.819 96.4 286.219 96.8C285.499 97.04 285.179 97.2 284.939 97.68C284.059 99.84 283.019 102 282.939 104.4C282.859 106.72 281.819 108.88 281.259 111.12C280.059 116.64 278.779 122.08 277.499 127.6C277.419 128 277.339 128.32 277.259 128.72C277.179 129.28 276.859 129.36 276.379 129.36C275.899 129.28 275.499 129.12 275.419 128.56C275.419 125.68 276.059 122.48 276.939 119.76C278.139 116 279.019 112.16 279.499 108.24C279.819 105.68 280.539 103.12 281.179 100.64C281.339 100.16 281.499 99.68 281.579 99.2C281.739 98.32 281.739 98 281.179 98C280.939 98 280.699 98 280.379 98.08C280.139 98.16 279.899 98.32 279.739 98.32C279.339 98.24 278.939 98.56 278.539 98.56C278.299 98.56 278.059 98.48 277.819 98.08C277.819 98 277.739 98 277.659 98C275.499 98 258.459 104.96 255.499 106.24C255.339 106.32 255.179 106.4 255.099 106.72C258.459 106.08 261.419 104.4 264.699 103.68C264.699 104.32 264.299 104.4 263.979 104.56C260.139 106.24 256.379 108.08 252.779 110C251.659 110.64 250.939 111.28 250.539 112.48C247.179 123.2 242.459 133.44 239.019 144.16C238.779 145.04 238.219 146.8 237.099 146.8C236.859 146.8 236.619 146.8 236.379 146.64C235.419 146.32 235.499 145.6 235.739 144.88C236.939 141.04 238.139 137.2 239.579 133.44C240.059 132.32 240.459 131.2 240.539 130C240.619 127.76 241.499 125.76 242.139 123.76C242.939 121.12 243.819 118.56 244.699 116C244.779 115.6 244.859 115.28 244.459 114.8C241.259 116.72 232.219 123.84 231.339 127.68C231.179 128.56 230.859 128.96 230.139 128.96C229.979 128.96 229.739 128.96 229.419 128.88C228.219 128.64 227.659 127.92 227.899 126.8C228.059 126.16 228.299 125.68 228.619 125.2C230.059 122.88 232.139 121.04 233.899 118.96C233.979 118.88 234.139 118.8 234.219 118.72C234.619 118.48 234.939 118.08 234.699 117.68C234.619 117.52 234.459 117.44 234.379 117.44C234.059 117.44 233.819 117.76 233.499 117.76C233.419 117.76 233.339 117.76 233.259 117.68C235.899 113.92 243.099 108.32 247.179 106.16C247.979 105.76 248.379 105.2 248.699 104.4C251.579 97.2 254.539 90.08 257.339 82.8C258.779 79.12 260.459 75.44 262.059 71.76C263.019 69.52 263.899 67.28 264.699 64.96C265.739 61.68 266.379 58.32 265.979 54.8C265.819 52.48 265.099 51.44 263.419 51.44C255.579 51.44 241.819 65.04 237.019 70.32C229.339 79.04 220.219 92.72 219.499 104.64C219.339 106.48 219.659 108.32 220.139 110.16C220.379 110.88 220.699 111.6 221.579 111.6C221.739 111.6 221.899 111.6 222.139 111.52C222.539 111.52 222.619 111.52 222.859 111.84C222.939 112.16 222.779 112.4 222.619 112.64C221.899 113.44 221.099 113.84 220.219 113.84C219.659 113.84 219.019 113.68 218.379 113.28C217.739 112.96 217.259 112.48 216.459 112.48C214.379 112.48 212.859 107.52 212.619 106C212.059 101.36 212.939 96.96 214.139 92.64ZM215.899 110.72C215.099 108.4 214.699 106.24 214.699 104C214.699 101.84 215.019 99.68 215.339 97.12C213.099 101.6 213.419 108.88 215.899 110.72ZM258.299 95.28C256.859 97.6 256.059 99.84 255.019 102.48C256.859 101.36 258.139 98.32 258.299 95.28ZM286.779 93.92C287.579 92.88 289.099 87.76 289.499 85.36C288.059 87.76 286.459 92.56 286.779 93.92ZM252.699 48.88C255.819 48.08 258.859 47.12 262.059 47.12C262.459 47.12 262.779 47.12 263.099 47.12C262.059 46.88 261.099 46.72 260.139 46.72C257.579 46.72 255.099 47.68 252.699 48.88ZM270.379 54.72C270.939 57.28 270.699 59.92 270.779 62.48C271.819 59.84 271.819 57.28 270.379 54.72ZM219.979 83.52C221.259 82.16 222.219 80.56 222.699 78.8C221.499 80.24 220.459 81.68 219.979 83.52ZM270.219 65.52C270.619 65.52 270.619 65.2 270.619 64.96C270.699 64.56 270.699 64.24 270.219 63.76C270.059 64.48 269.739 65.04 270.219 65.52ZM289.659 85.04C290.059 84.72 290.059 84.24 289.979 83.68C289.659 84.08 289.499 84.48 289.659 85.04ZM218.859 86C219.099 85.92 219.259 85.68 219.339 85.36C219.259 85.28 219.259 85.2 219.179 85.04C219.019 85.28 218.779 85.44 218.699 85.68C218.539 85.84 218.699 86 218.859 86ZM309.99 100.8C312.79 100.24 315.59 98.8 318.15 97.44C318.47 97.28 318.71 97.12 319.03 97.12C319.19 97.12 319.35 97.2 319.59 97.36C319.27 98 318.71 98.32 318.15 98.64C315.59 100.32 312.79 101.52 309.99 102.56C309.11 102.88 308.55 103.28 308.07 104.08C306.71 106.4 305.19 108.64 303.27 110.56C302.87 111.04 302.39 111.52 301.83 111.92C301.03 112.56 300.15 113.04 299.19 113.04C298.79 113.04 298.31 112.96 297.83 112.72C296.07 112 294.79 110.88 294.55 108.8C294.39 106.48 294.79 104.24 295.59 102.08C296.31 100 297.03 97.92 298.07 96C298.31 95.52 298.55 95.12 298.87 94.72C298.95 94.56 299.11 94.16 299.35 94.16C299.43 94.16 299.59 94.32 299.75 94.64C299.83 94.96 300.31 94.48 300.47 94.24C301.11 93.6 301.59 92.88 302.23 92.24C303.67 90.72 305.27 89.36 307.51 89.12C307.83 89.12 308.15 89.04 308.47 89.04C310.15 89.04 311.75 89.76 311.99 91.6C312.31 93.44 311.99 95.2 311.43 96.96C311.03 98.16 310.55 99.36 309.99 100.8ZM302.95 102.32C303.91 102.16 305.03 102 306.15 101.84C307.59 101.6 309.59 95.36 309.83 94.08C309.91 93.52 310.39 92.8 309.75 92.4C309.59 92.32 309.43 92.24 309.27 92.24C308.87 92.24 308.39 92.56 307.99 92.88C307.83 92.96 307.67 93.04 307.59 93.12C304.95 95.2 302.95 97.76 301.75 100.8C301.27 101.92 301.51 102.24 302.95 102.32ZM303.67 104C302.79 103.6 302.07 103.68 301.35 103.6C300.95 103.52 300.79 103.76 300.63 104.16C300.39 105.2 299.99 106.24 300.15 107.68C301.43 106.4 302.47 105.28 303.67 104ZM296.71 110.08C296.95 107.28 297.43 104.56 297.99 101.84C296.95 104.48 296.31 107.2 296.71 110.08ZM308.79 90.48C308.47 90.32 308.07 90.24 307.75 90.24C306.71 90.24 305.67 90.88 304.95 92.08C306.23 91.28 307.43 90.8 308.79 90.48ZM302.63 107.76C302.79 107.52 302.79 107.44 302.63 107.44C302.55 107.52 302.39 107.68 302.31 107.76C302.23 107.92 302.23 108 302.39 107.92C302.47 107.92 302.63 107.76 302.63 107.76ZM328.662 100.8C331.462 100.24 334.262 98.8 336.822 97.44C337.142 97.28 337.382 97.12 337.702 97.12C337.862 97.12 338.022 97.2 338.262 97.36C337.942 98 337.382 98.32 336.822 98.64C334.262 100.32 331.462 101.52 328.662 102.56C327.782 102.88 327.222 103.28 326.742 104.08C325.382 106.4 323.862 108.64 321.942 110.56C321.542 111.04 321.062 111.52 320.502 111.92C319.702 112.56 318.822 113.04 317.862 113.04C317.462 113.04 316.982 112.96 316.502 112.72C314.742 112 313.462 110.88 313.222 108.8C313.062 106.48 313.462 104.24 314.262 102.08C314.982 100 315.702 97.92 316.742 96C316.982 95.52 317.222 95.12 317.542 94.72C317.622 94.56 317.782 94.16 318.022 94.16C318.102 94.16 318.262 94.32 318.422 94.64C318.502 94.96 318.982 94.48 319.142 94.24C319.782 93.6 320.262 92.88 320.902 92.24C322.342 90.72 323.942 89.36 326.182 89.12C326.502 89.12 326.822 89.04 327.142 89.04C328.822 89.04 330.422 89.76 330.662 91.6C330.982 93.44 330.662 95.2 330.102 96.96C329.702 98.16 329.222 99.36 328.662 100.8ZM321.622 102.32C322.582 102.16 323.702 102 324.822 101.84C326.262 101.6 328.262 95.36 328.502 94.08C328.582 93.52 329.062 92.8 328.422 92.4C328.262 92.32 328.102 92.24 327.942 92.24C327.542 92.24 327.062 92.56 326.662 92.88C326.502 92.96 326.342 93.04 326.262 93.12C323.622 95.2 321.622 97.76 320.422 100.8C319.942 101.92 320.182 102.24 321.622 102.32ZM322.342 104C321.462 103.6 320.742 103.68 320.022 103.6C319.622 103.52 319.462 103.76 319.302 104.16C319.062 105.2 318.662 106.24 318.822 107.68C320.102 106.4 321.142 105.28 322.342 104ZM315.382 110.08C315.622 107.28 316.102 104.56 316.662 101.84C315.622 104.48 314.982 107.2 315.382 110.08ZM327.462 90.48C327.142 90.32 326.742 90.24 326.422 90.24C325.382 90.24 324.342 90.88 323.622 92.08C324.902 91.28 326.102 90.8 327.462 90.48ZM321.302 107.76C321.462 107.52 321.462 107.44 321.302 107.44C321.222 107.52 321.062 107.68 320.982 107.76C320.902 107.92 320.902 108 321.062 107.92C321.142 107.92 321.302 107.76 321.302 107.76ZM337.974 101.12C339.974 96.88 341.254 92.32 343.094 87.76C343.494 89.2 343.494 89.2 342.614 91.92C342.214 93.28 341.654 94.56 341.494 96.4C342.614 95.36 343.494 94.56 344.294 93.84C346.214 91.92 349.654 89.04 352.614 89.04C353.334 89.04 354.134 89.2 354.934 89.6C355.574 89.92 356.294 90.24 356.934 90.4C359.574 91.04 360.614 92.96 361.014 95.36C361.254 97.2 361.094 98.96 360.294 100.64C357.414 106.64 353.334 111.52 346.934 114.16C345.894 114.64 344.774 114.96 343.654 115.12C343.414 115.12 343.174 115.2 342.934 115.2C342.134 115.2 341.334 114.88 340.854 114C340.614 113.6 340.374 113.28 339.894 113.2C338.934 113.12 338.454 112.4 338.054 111.68C337.174 112 337.094 112.72 336.854 113.28C332.934 121.28 330.374 129.76 328.054 138.32C327.734 139.36 327.574 140.4 326.374 140.88C325.734 141.12 325.974 141.92 325.734 142.4C325.494 142.72 325.334 143.2 324.774 143.12C324.214 143.04 323.814 142.64 323.894 142.08C324.054 140.8 323.734 139.52 324.054 138.24C324.694 135.52 325.254 132.64 325.654 129.84C326.534 124.08 328.454 118.64 330.294 113.12C331.494 109.76 332.454 106.32 333.094 102.8C334.214 97.2 336.454 92 338.534 86.8C338.774 86.08 339.094 85.52 339.814 85.52C339.974 85.52 340.134 85.52 340.374 85.6C340.694 85.68 341.094 85.92 341.014 86.16C340.374 87.28 341.414 88.48 340.774 89.76C339.654 92.08 339.574 94.8 338.774 97.36C338.374 98.56 337.814 99.76 337.974 101.12ZM343.494 110.64C343.734 110.72 343.894 110.8 344.054 110.8C344.214 110.8 344.374 110.72 344.534 110.64C350.054 107.52 354.054 103.12 356.054 97.12C356.454 96 356.534 94.88 356.454 93.68C356.294 92.56 356.054 92.08 355.414 92.08C355.174 92.08 354.854 92.16 354.374 92.32C349.014 93.84 342.774 102.8 340.054 107.2C339.894 107.52 339.654 107.84 340.134 108.16C341.734 107.12 343.334 106.08 344.934 105.04C345.494 104.64 346.134 104.4 346.694 104.4C347.254 104.4 347.814 104.56 348.374 104.96C346.854 106.88 344.694 108.32 343.494 110.64ZM344.774 96.48C341.334 100.08 337.814 103.76 337.334 109.12C339.654 104.88 342.134 100.64 344.774 96.48ZM343.654 112.96C343.814 113.12 343.974 113.2 344.134 113.2C344.214 113.2 344.374 113.12 344.454 113.12C347.654 112.48 350.134 110.64 352.534 108.48C352.774 108.32 352.934 108 352.694 107.76C352.534 107.52 352.214 107.2 351.894 107.2C351.814 107.2 351.654 107.2 351.574 107.28C351.174 107.52 350.774 107.84 350.374 108.16C348.694 109.76 346.774 111.04 344.774 112.08C344.294 112.32 343.734 112.32 343.654 112.96ZM346.454 105.12C343.814 106.56 341.974 108.32 340.214 110.08C340.054 110.32 339.894 110.56 339.734 110.8C339.414 111.44 339.734 111.92 340.454 111.92C341.174 112 341.494 111.52 341.814 111.04C342.694 109.52 343.974 108.24 345.014 106.88C345.414 106.4 346.054 106.08 346.454 105.12ZM334.854 111.84C333.814 112.64 333.734 113.84 333.814 114.96C334.134 113.92 334.534 112.88 334.854 111.84ZM357.414 93.6C357.174 94.88 357.174 95.68 357.414 96.96C357.894 95.68 357.814 94.88 357.414 93.6ZM342.374 113.84C342.774 114.16 343.174 114.4 343.574 114.4C343.734 114.4 343.974 114.32 344.294 114.16C343.894 113.92 343.494 113.68 343.094 113.68C342.854 113.68 342.614 113.68 342.374 113.84ZM368.592 110.08C368.352 110 368.192 110 368.032 110C367.552 110 367.152 110.16 366.752 110.16C366.592 110.16 366.352 110.16 366.192 110C366.272 109.28 366.912 109.2 367.392 108.96C370.272 107.36 373.392 106.24 376.432 105.12C376.912 104.96 377.392 104.8 377.872 104.56C378.352 104.32 378.512 103.84 378.512 103.28C378.512 102.64 378.032 102.48 377.552 102.4C376.752 102.16 375.952 102.08 375.152 102.08C374.752 102.08 374.272 102.08 373.872 102.16C371.872 102.48 369.792 102.8 367.712 103.12C366.912 103.2 366.112 103.36 365.312 103.36C364.992 103.36 364.672 103.36 364.352 103.28C363.392 103.12 362.432 102.88 362.432 101.68C362.352 101.28 362.192 101.04 361.952 100.72C360.672 99.28 360.592 99.12 361.552 97.6C364.432 92.8 368.272 88.88 373.072 86C373.952 85.52 374.752 85.2 375.552 85.2C376.672 85.2 377.712 85.68 378.752 86.56C379.392 87.04 379.392 87.04 381.072 87.28C380.832 87.52 380.752 87.84 380.832 88.24C380.992 88.64 381.152 89.04 381.232 89.44C381.552 91.12 381.152 92.16 380.352 92.48C380.272 92.56 380.112 92.56 380.032 92.56C379.312 92.56 378.592 91.76 377.872 90.48C377.392 89.36 376.992 88.88 376.352 88.88C374.912 88.88 372.672 90.72 372.512 92.08C372.432 92.72 371.952 93.04 371.552 93.44C370.192 94.96 368.832 96.4 367.472 97.92C367.152 98.32 366.592 98.64 366.672 99.44C366.912 99.52 367.232 99.52 367.472 99.52C368.032 99.52 368.592 99.44 369.152 99.36C370.272 99.2 371.312 99.12 372.432 99.12C375.232 99.12 378.912 99.68 380.192 102.56C380.512 103.2 380.832 103.36 381.232 103.36C381.472 103.36 381.792 103.28 382.112 103.2C384.352 102.56 386.672 101.92 388.992 101.52C389.232 101.44 389.472 101.36 389.712 101.36C389.872 101.36 390.112 101.44 390.352 101.6C389.552 102.48 388.432 102.32 387.552 102.64C386.592 102.96 385.552 103.28 384.512 103.6C383.552 103.92 382.512 104.16 381.632 104.72C381.952 105.28 382.352 104.96 382.832 105.28C381.552 105.52 380.912 106.4 380.352 107.44C379.072 109.84 377.232 111.68 375.152 113.28C371.552 116.24 362.912 122.96 358.032 122.96C357.152 122.96 356.432 122.72 355.872 122C355.072 120.88 355.472 119.36 356.272 118.16C356.912 117.2 357.792 116.32 358.752 115.52C361.392 113.44 364.352 112.08 367.312 110.72C367.632 110.56 367.952 110.4 368.592 110.08ZM374.672 109.44C373.872 109.52 373.632 109.52 373.472 109.6C369.792 111.28 359.872 115.76 358.512 119.76C358.352 120.08 358.272 120.48 358.512 120.8C358.672 120.96 358.752 120.96 358.912 120.96C359.072 120.96 359.312 120.88 359.472 120.8C359.872 120.64 360.272 120.4 360.672 120.24C363.952 118.56 366.992 116.32 370.112 114.4C372.032 113.28 372.832 111.28 374.672 109.44ZM376.752 101.36C375.632 101.12 374.592 100.96 373.472 100.96C370.912 100.96 368.352 101.6 365.712 102.08C368.912 101.92 372.032 101.28 375.312 101.28C375.792 101.28 376.272 101.36 376.752 101.36Z" fill="#333333"/>
<path d="M362.889 55.2556C362.581 55.2556 362.281 55.3468 362.025 55.5177C361.769 55.6886 361.57 55.9316 361.452 56.2158C361.334 56.5001 361.303 56.8128 361.363 57.1146C361.423 57.4163 361.572 57.6935 361.789 57.9111C362.007 58.1286 362.284 58.2768 362.586 58.3368C362.887 58.3968 363.2 58.366 363.484 58.2483C363.769 58.1305 364.012 57.9311 364.182 57.6753C364.353 57.4195 364.445 57.1188 364.445 56.8111C364.445 56.3986 364.281 56.0029 363.989 55.7112C363.697 55.4194 363.302 55.2556 362.889 55.2556Z" fill="#542583"/>
<path d="M398.431 58.3556C399.284 58.3556 399.975 57.6641 399.975 56.8111C399.975 55.9581 399.284 55.2667 398.431 55.2667C397.578 55.2667 396.886 55.9581 396.886 56.8111C396.886 57.6641 397.578 58.3556 398.431 58.3556Z" fill="#542583"/>
<path d="M380.61 49.1C380.916 49.1022 381.215 49.0135 381.471 48.8451C381.726 48.6768 381.926 48.4363 382.044 48.1543C382.163 47.8723 382.195 47.5614 382.137 47.2611C382.079 46.9608 381.932 46.6846 381.717 46.4674C381.501 46.2503 381.226 46.1021 380.926 46.0416C380.626 45.9811 380.315 46.0111 380.032 46.1276C379.749 46.2442 379.508 46.4421 379.337 46.6964C379.167 46.9506 379.076 47.2496 379.076 47.5555C379.076 47.9632 379.238 48.3544 379.525 48.6437C379.812 48.933 380.202 49.0971 380.61 49.1ZM395.51 59.8889C394.121 60.208 392.77 60.6697 391.476 61.2667C389.898 62.0238 388.408 62.9516 387.032 64.0333C386.057 62.8354 385.215 61.5352 384.521 60.1555C383.413 57.789 382.477 55.3456 381.721 52.8444C381.649 52.6082 381.502 52.4025 381.3 52.2597C381.099 52.1168 380.856 52.045 380.61 52.0555C380.363 52.045 380.12 52.1168 379.919 52.2597C379.718 52.4025 379.57 52.6082 379.499 52.8444C378.744 55.3462 377.808 57.7897 376.699 60.1555C376.008 61.5336 375.165 62.8305 374.187 64.0222C372.805 62.9529 371.316 62.0295 369.743 61.2667C368.481 60.6776 367.163 60.2161 365.81 59.8889C365.609 59.8406 365.398 59.8493 365.202 59.9141C365.006 59.9789 364.831 60.0971 364.699 60.2555C364.563 60.4192 364.478 60.6182 364.452 60.8289C364.427 61.0396 364.462 61.2532 364.554 61.4444C366.662 66.2371 368.155 71.2771 368.999 76.4444C369.044 76.7053 369.18 76.9416 369.384 77.1106C369.588 77.2797 369.845 77.3705 370.11 77.3667H391.221C391.485 77.3705 391.743 77.2797 391.947 77.1106C392.15 76.9416 392.287 76.7053 392.332 76.4444C393.175 71.2771 394.669 66.2371 396.776 61.4444C396.868 61.2532 396.904 61.0396 396.878 60.8289C396.852 60.6182 396.767 60.4192 396.632 60.2555C396.498 60.0952 396.322 59.9757 396.124 59.9108C395.925 59.846 395.712 59.8384 395.51 59.8889ZM372.676 73.7222C372.432 73.7244 372.192 73.654 371.988 73.5198C371.784 73.3856 371.624 73.1938 371.529 72.9686C371.434 72.7434 371.408 72.4951 371.454 72.2552C371.501 72.0152 371.617 71.7944 371.789 71.6208C371.961 71.4472 372.181 71.3286 372.421 71.2801C372.66 71.2316 372.909 71.2554 373.135 71.3484C373.361 71.4414 373.554 71.5995 373.69 71.8025C373.826 72.0056 373.899 72.2445 373.899 72.4889C373.899 72.8141 373.77 73.1261 373.541 73.3571C373.312 73.5881 373.002 73.7193 372.676 73.7222ZM380.621 73.7222C380.315 73.6931 380.032 73.5512 379.825 73.3242C379.619 73.0971 379.504 72.8013 379.504 72.4944C379.504 72.1876 379.619 71.8917 379.825 71.6647C380.032 71.4377 380.315 71.2957 380.621 71.2667C380.926 71.2957 381.21 71.4377 381.416 71.6647C381.623 71.8917 381.737 72.1876 381.737 72.4944C381.737 72.8013 381.623 73.0971 381.416 73.3242C381.21 73.5512 380.926 73.6931 380.621 73.7222ZM388.576 73.7222C388.332 73.7244 388.092 73.654 387.888 73.5198C387.684 73.3856 387.524 73.1938 387.429 72.9686C387.334 72.7434 387.308 72.4951 387.354 72.2552C387.401 72.0152 387.517 71.7944 387.689 71.6208C387.861 71.4472 388.081 71.3286 388.321 71.2801C388.56 71.2316 388.809 71.2554 389.035 71.3484C389.261 71.4414 389.454 71.5995 389.59 71.8025C389.726 72.0056 389.799 72.2445 389.799 72.4889C389.799 72.8141 389.67 73.1261 389.441 73.3571C389.212 73.5881 388.902 73.7193 388.576 73.7222Z" fill="#542583"/>
</svg>
