<svg width="1280" height="2441" viewBox="0 0 1280 2441" fill="none" xmlns="http://www.w3.org/2000/svg">
<text fill="#333333" xml:space="preserve" style="white-space: pre" font-family="SF Pro Display" font-size="12" font-weight="bold" letter-spacing="0em"><tspan x="48" y="131.266">01</tspan></text>
<rect x="24.5" y="115.5" width="61" height="23" rx="7.5" stroke="#333333"/>
<text fill="#333333" xml:space="preserve" style="white-space: pre" font-family="SF Pro Display" font-size="24" font-weight="bold" letter-spacing="0em"><tspan x="24" y="195.531">Research </tspan></text>
<text fill="#7D7D7D" xml:space="preserve" style="white-space: pre" font-family="SF Pro Display" font-size="16" letter-spacing="0em"><tspan x="24" y="244.688">The research phase focused on </tspan><tspan x="24" y="268.688">identifying existing NBA basketball </tspan><tspan x="24" y="292.688">websites and analyzing their user </tspan><tspan x="24" y="316.688">experience. The research revealed </tspan><tspan x="24" y="340.688">that most  websites were not user-</tspan><tspan x="24" y="364.688">friendly nor easy to use and filled </tspan><tspan x="24" y="388.688">with a lot of annoying Ads. These </tspan><tspan x="24" y="412.688">websites had complex navigation, </tspan><tspan x="24" y="436.688">unintuitive user interfaces, and </tspan><tspan x="24" y="460.688">required high cognitive effort from </tspan><tspan x="24" y="484.688">people.&#10;</tspan><tspan x="24" y="524.688">The analysis also showed that </tspan><tspan x="24" y="548.688">people often abandoned these </tspan><tspan x="24" y="572.688">websites due to frustration and the </tspan><tspan x="24" y="596.688">inability to navigate them. </tspan><tspan x="24" y="620.688">Furthermore, users found it </tspan><tspan x="24" y="644.688">challenging to engage with the </tspan><tspan x="24" y="668.688">content due to poor user experience, </tspan><tspan x="24" y="692.688">leading to reduced retention rates.&#10;</tspan><tspan x="24" y="732.688">Based on these findings, it was </tspan><tspan x="24" y="756.688">evident that there was a need for a </tspan><tspan x="24" y="780.688">people-friendly and easy-to-use </tspan><tspan x="24" y="804.688">interactive website for NBA fans.</tspan></text>
<rect x="0.5" y="67.5" width="291" height="775" rx="7.5" stroke="#333333"/>
<text fill="#333333" xml:space="preserve" style="white-space: pre" font-family="SF Pro Display" font-size="12" font-weight="bold" letter-spacing="0em"><tspan x="48" y="1113.27">04</tspan></text>
<rect x="24.5" y="1097.5" width="63" height="23" rx="7.5" stroke="#333333"/>
<text fill="#333333" xml:space="preserve" style="white-space: pre" font-family="SF Pro Display" font-size="24" font-weight="bold" letter-spacing="0em"><tspan x="24" y="1177.53">Prototype</tspan></text>
<text fill="#7D7D7D" xml:space="preserve" style="white-space: pre" font-family="SF Pro Display" font-size="16" letter-spacing="0em"><tspan x="24" y="1226.69">The prototype was also designed </tspan><tspan x="24" y="1250.69">using Figma. The prototype showed </tspan><tspan x="24" y="1274.69">how the website would look and </tspan><tspan x="24" y="1298.69">function. It included interactive </tspan><tspan x="24" y="1322.69">elements such as buttons, menus, </tspan><tspan x="24" y="1346.69">and links. The prototype was tested </tspan><tspan x="24" y="1370.69">for usability by a group of users who </tspan><tspan x="24" y="1394.69">provided feedback on its design and </tspan><tspan x="24" y="1418.69">functionality. The feedback was </tspan><tspan x="24" y="1442.69">used to refine the design and </tspan><tspan x="24" y="1466.69">improve the user experience.</tspan></text>
<rect x="0.5" y="1049.5" width="291" height="455" rx="7.5" stroke="#333333"/>
<text fill="#333333" xml:space="preserve" style="white-space: pre" font-family="SF Pro Display" font-size="12" font-weight="bold" letter-spacing="0em"><tspan x="707" y="131.266">02</tspan></text>
<rect x="683.5" y="115.5" width="62" height="23" rx="7.5" stroke="#333333"/>
<text fill="#333333" xml:space="preserve" style="white-space: pre" font-family="SF Pro Display" font-size="24" font-weight="bold" letter-spacing="0em"><tspan x="683" y="195.531">Ideate</tspan></text>
<text fill="#7D7D7D" xml:space="preserve" style="white-space: pre" font-family="SF Pro Display" font-size="16" letter-spacing="0em"><tspan x="849.938" y="244.688"> The </tspan><tspan x="707" y="268.688">website would have a responsive </tspan><tspan x="707" y="292.688">design, allowing it to adapt to </tspan><tspan x="707" y="316.688">different screen sizes and </tspan><tspan x="707" y="340.688">devices. This would ensure </tspan><tspan x="707" y="364.688">people could access the website </tspan><tspan x="707" y="388.688">on any device, improving </tspan><tspan x="707" y="412.688">accessibility.&#10;</tspan><tspan x="802.094" y="436.688"> The website </tspan><tspan x="707" y="460.688">would undergo user testing to </tspan><tspan x="707" y="484.688">identify and address any </tspan><tspan x="707" y="508.688">usability issues. This would </tspan><tspan x="707" y="532.688">ensure the website&#39;s user </tspan><tspan x="707" y="556.688">experience was optimized, </tspan><tspan x="707" y="580.688">reducing frustration and </tspan><tspan x="707" y="604.688">increasing retention rates.</tspan></text>
<text fill="#7D7D7D" xml:space="preserve" style="white-space: pre" font-family="SF Pro Display" font-size="16" font-weight="bold" letter-spacing="0em"><tspan x="707" y="244.688">Responsive Design:</tspan><tspan x="707" y="436.688">User Testing:</tspan></text>
<rect x="659.5" y="67.5" width="291" height="575" rx="7.5" stroke="#333333"/>
<text fill="#333333" xml:space="preserve" style="white-space: pre" font-family="SF Pro Display" font-size="12" font-weight="bold" letter-spacing="0em"><tspan x="707" y="1353.27">06</tspan></text>
<rect x="683.5" y="1337.5" width="63" height="23" rx="7.5" stroke="#333333"/>
<text fill="#333333" xml:space="preserve" style="white-space: pre" font-family="SF Pro Display" font-size="24" font-weight="bold" letter-spacing="0em"><tspan x="683" y="1417.53">Testing &#38; Feedback</tspan></text>
<text fill="#7D7D7D" xml:space="preserve" style="white-space: pre" font-family="SF Pro Display" font-size="16" letter-spacing="0em"><tspan x="683" y="1466.69">To test the website&#39;s usability and </tspan><tspan x="683" y="1490.69">functionality, we conducted a series </tspan><tspan x="683" y="1514.69">of tests that included:&#10;</tspan><tspan x="707" y="1554.69">Usability Testing: We invited a </tspan><tspan x="707" y="1578.69">group of individuals who had </tspan><tspan x="707" y="1602.69">different levels of expertise with </tspan><tspan x="707" y="1626.69">interactive websites to test the </tspan><tspan x="707" y="1650.69">website. Participants were asked </tspan><tspan x="707" y="1674.69">to perform specific tasks on the </tspan><tspan x="707" y="1698.69">website, and their interactions </tspan><tspan x="707" y="1722.69">were recorded.&#10;</tspan><tspan x="707" y="1746.69">Focus Group: We invited a group </tspan><tspan x="707" y="1770.69">of individuals who were </tspan><tspan x="707" y="1794.69">interested in horror websites to </tspan><tspan x="707" y="1818.69">provide feedback on the </tspan><tspan x="707" y="1842.69">website&#39;s design, content, and </tspan><tspan x="707" y="1866.69">overall experience.&#10;</tspan><tspan x="683" y="1906.69">Results:&#10;</tspan><tspan x="683" y="1946.69">Based on the testing and feedback </tspan><tspan x="683" y="1970.69">we received, we found that the </tspan><tspan x="683" y="1994.69">website performed well in terms of </tspan><tspan x="683" y="2018.69">usability and user-friendliness. </tspan><tspan x="683" y="2042.69">Participants were able to navigate </tspan><tspan x="683" y="2066.69">the website easily and complete </tspan><tspan x="683" y="2090.69">tasks without any difficulties.</tspan></text>
<rect x="659.5" y="1289.5" width="291" height="839" rx="7.5" stroke="#333333"/>
<text fill="#333333" xml:space="preserve" style="white-space: pre" font-family="SF Pro Display" font-size="12" font-weight="bold" letter-spacing="0em"><tspan x="378" y="209.266">02</tspan></text>
<rect x="354.5" y="193.5" width="62" height="23" rx="7.5" stroke="#333333"/>
<text fill="#333333" xml:space="preserve" style="white-space: pre" font-family="SF Pro Display" font-size="24" font-weight="bold" letter-spacing="0em"><tspan x="354" y="273.531">Ideate</tspan></text>
<text fill="#7D7D7D" xml:space="preserve" style="white-space: pre" font-family="SF Pro Display" font-size="16" letter-spacing="0em"><tspan x="354" y="322.688">The ideation phase focused on </tspan><tspan x="354" y="346.688">developing pencil-sketched design </tspan><tspan x="354" y="370.688">concepts that appealed to NBA fans. </tspan><tspan x="354" y="394.688">The goal was to create a website </tspan><tspan x="354" y="418.688">that provided a fun and entertaining </tspan><tspan x="354" y="442.688">experience to NBA fans while </tspan><tspan x="354" y="466.688">ensuring ease of use and user-</tspan><tspan x="354" y="490.688">friendliness.&#10;</tspan><tspan x="354" y="530.688">To achieve this, the following design </tspan><tspan x="354" y="554.688">concepts were developed:&#10;</tspan><tspan x="514.109" y="594.688"> The </tspan><tspan x="378" y="618.688">website&#39;s navigation would be </tspan><tspan x="378" y="642.688">simple, intuitive, and easy to use. </tspan><tspan x="378" y="666.688">This would ensure users could </tspan><tspan x="378" y="690.688">quickly access the content they </tspan><tspan x="378" y="714.688">were interested in, reducing </tspan><tspan x="378" y="738.688">cognitive effort and frustration.&#10;</tspan><tspan x="531.078" y="762.688"> The </tspan><tspan x="378" y="786.688">website would incorporate </tspan><tspan x="378" y="810.688">interactive elements, such as </tspan><tspan x="378" y="834.688">animations and sound effects, to </tspan><tspan x="378" y="858.688">enhance the use. These </tspan><tspan x="378" y="882.688">elements would be seamlessly </tspan><tspan x="378" y="906.688">integrated into the website&#39;s </tspan><tspan x="378" y="930.688">human interface, providing a </tspan><tspan x="378" y="954.688">seamless experience.</tspan></text>
<text fill="#7D7D7D" xml:space="preserve" style="white-space: pre" font-family="SF Pro Display" font-size="16" font-weight="bold" letter-spacing="0em"><tspan x="378" y="594.688">Simple Navigation:</tspan><tspan x="378" y="762.688">Interactive Elements:</tspan></text>
<rect x="330.5" y="145.5" width="291" height="847" rx="7.5" stroke="#333333"/>
<text fill="#333333" xml:space="preserve" style="white-space: pre" font-family="SF Pro Display" font-size="12" font-weight="bold" letter-spacing="0em"><tspan x="378" y="1431.27">05</tspan></text>
<rect x="354.5" y="1415.5" width="63" height="23" rx="7.5" stroke="#333333"/>
<text fill="#333333" xml:space="preserve" style="white-space: pre" font-family="SF Pro Display" font-size="24" font-weight="bold" letter-spacing="0em"><tspan x="354" y="1495.53">Development</tspan></text>
<text fill="#7D7D7D" xml:space="preserve" style="white-space: pre" font-family="SF Pro Display" font-size="16" letter-spacing="0em"><tspan x="354" y="1544.69">The development phase of the </tspan><tspan x="354" y="1568.69">project involved creating a </tspan><tspan x="354" y="1592.69">responsive design that would be </tspan><tspan x="354" y="1616.69">accessible on different devices such </tspan><tspan x="354" y="1640.69">as desktops, laptops, tablets, and </tspan><tspan x="354" y="1664.69">mobile phones. The website was </tspan><tspan x="354" y="1688.69">built using HTML, CSS, and </tspan><tspan x="354" y="1712.69">JavaScript, and the Bootstrap </tspan><tspan x="354" y="1736.69">framework was used to ensure the </tspan><tspan x="354" y="1760.69">website was fully responsive. The </tspan><tspan x="354" y="1784.69">developer used the latest web </tspan><tspan x="354" y="1808.69">development technologies to ensure </tspan><tspan x="354" y="1832.69">the website was optimized for </tspan><tspan x="354" y="1856.69">speed, accessibility, and search </tspan><tspan x="354" y="1880.69">engine optimization (SEO).&#10;</tspan><tspan x="354" y="1920.69">The website&#39;s interactive features </tspan><tspan x="354" y="1944.69">were implemented using JavaScript, </tspan><tspan x="354" y="1968.69">which included animations, hover </tspan><tspan x="354" y="1992.69">effects, and pop-ups. The </tspan><tspan x="354" y="2016.69">animations were used to add visual </tspan><tspan x="354" y="2040.69">interest to the website and create a </tspan><tspan x="354" y="2064.69">dynamic user experience. The hover </tspan><tspan x="354" y="2088.69">effects were used to highlight </tspan><tspan x="354" y="2112.69">interactive elements such as buttons </tspan><tspan x="354" y="2136.69">and links, and the pop-ups were </tspan><tspan x="354" y="2160.69">used to display additional </tspan><tspan x="354" y="2184.69">information or content.</tspan></text>
<rect x="330.5" y="1367.5" width="291" height="855" rx="7.5" stroke="#333333"/>
<text fill="#333333" xml:space="preserve" style="white-space: pre" font-family="SF Pro Display" font-size="12" font-weight="bold" letter-spacing="0em"><tspan x="1036" y="209.266">03</tspan></text>
<rect x="1012.5" y="193.5" width="63" height="23" rx="7.5" stroke="#333333"/>
<text fill="#333333" xml:space="preserve" style="white-space: pre" font-family="SF Pro Display" font-size="24" font-weight="bold" letter-spacing="0em"><tspan x="1012" y="273.531">Sketches &#38; Design</tspan></text>
<text fill="#7D7D7D" xml:space="preserve" style="white-space: pre" font-family="SF Pro Display" font-size="16" letter-spacing="0em"><tspan x="1012" y="322.688">The next step was to create </tspan><tspan x="1012" y="346.688">wireframes to visualize the website&#39;s </tspan><tspan x="1012" y="370.688">layout and structure which were </tspan><tspan x="1012" y="394.688">done on paper. The wireframes </tspan><tspan x="1012" y="418.688">showed the website&#39;s structure, </tspan><tspan x="1012" y="442.688">layout, and functionality based on </tspan><tspan x="1012" y="466.688">the research findings and aimed to </tspan><tspan x="1012" y="490.688">provide a simple and easy-to-use </tspan><tspan x="1012" y="514.688">interface for people.&#10;</tspan><tspan x="1012" y="554.688">We made sure every screen of the </tspan><tspan x="1012" y="578.688">website answered the following </tspan><tspan x="1012" y="602.688">questions which will improve how </tspan><tspan x="1012" y="626.688">intuitive the website is:&#10;</tspan><tspan x="1036" y="666.688">Where am I?&#10;</tspan><tspan x="1036" y="690.688">Where can I go?&#10;</tspan><tspan x="1036" y="714.688">What will I find when I get there?&#10;</tspan><tspan x="1036" y="738.688">How do I get there?&#10;</tspan><tspan x="1036" y="762.688">How do I leave here?&#10;</tspan><tspan x="1012" y="802.688">Figma and Adobe illustrator were the </tspan><tspan x="1012" y="826.688">preferred tools for the design of the </tspan><tspan x="1012" y="850.688">website. The Pencil Hoops website&#39;s </tspan><tspan x="1012" y="874.688">overall design is entertaining and </tspan><tspan x="1012" y="898.688">engaging with a grey and white color </tspan><tspan x="1012" y="922.688">scheme, clear typography, and easy </tspan><tspan x="1012" y="946.688">navigation. The use of sound effects, </tspan><tspan x="1012" y="970.688">Gifs, and images creates an </tspan><tspan x="1012" y="994.688">entertaining atmosphere for an </tspan><tspan x="1012" y="1018.69">interactive basketball experience. </tspan><tspan x="1012" y="1042.69">Progressive Disclosure was </tspan><tspan x="1012" y="1066.69">incorporated during the mobile </tspan><tspan x="1012" y="1090.69">design of the website to reduce </tspan><tspan x="1012" y="1114.69">clutter.</tspan></text>
<rect x="988.5" y="145.5" width="291" height="986" rx="7.5" stroke="#333333"/>
<text fill="#333333" xml:space="preserve" style="white-space: pre" font-family="SF Pro Display" font-size="12" font-weight="bold" letter-spacing="0em"><tspan x="1036" y="1431.27">07</tspan></text>
<rect x="1012.5" y="1415.5" width="62" height="23" rx="7.5" stroke="#333333"/>
<text fill="#333333" xml:space="preserve" style="white-space: pre" font-family="SF Pro Display" font-size="24" font-weight="bold" letter-spacing="0em"><tspan x="1012" y="1495.53">Launch &#38; Post-</tspan><tspan x="1012" y="1527.53">Launch Testing</tspan></text>
<text fill="#7D7D7D" xml:space="preserve" style="white-space: pre" font-family="SF Pro Display" font-size="16" letter-spacing="0em"><tspan x="1012" y="1576.69">After several iterations of </tspan><tspan x="1012" y="1600.69">development and testing, the </tspan><tspan x="1012" y="1624.69">website was ready to launch. The </tspan><tspan x="1012" y="1648.69">team ensured that the website was </tspan><tspan x="1012" y="1672.69">search engine optimized, and all the </tspan><tspan x="1012" y="1696.69">necessary SEO elements were </tspan><tspan x="1012" y="1720.69">incorporated into the website&#39;s </tspan><tspan x="1012" y="1744.69">design. The website was launched </tspan><tspan x="1012" y="1768.69">on a secure hosting platform, and all </tspan><tspan x="1012" y="1792.69">the necessary security features were </tspan><tspan x="1012" y="1816.69">implemented.&#10;</tspan><tspan x="1012" y="1856.69">The post-launch testing phase will </tspan><tspan x="1012" y="1880.69">involve a survey that will be sent to a </tspan><tspan x="1012" y="1904.69">sample of users who have interacted </tspan><tspan x="1012" y="1928.69">with the website.</tspan></text>
<rect x="988.5" y="1367.5" width="291" height="599" rx="7.5" stroke="#333333"/>
<line x1="145" y1="50" x2="145" y2="3" stroke="#7D7D7D" stroke-width="2" stroke-linecap="round" stroke-dasharray="4 4"/>
<path d="M476 134.774L481.774 129L476 123.226L470.226 129L476 134.774ZM477 2C477 1.44772 476.552 1 476 1C475.448 1 475 1.44772 475 2L477 2ZM477 127.016C477 126.463 476.552 126.016 476 126.016C475.448 126.016 475 126.463 475 127.016L477 127.016ZM475 123.047C475 123.599 475.448 124.047 476 124.047C476.552 124.047 477 123.599 477 123.047L475 123.047ZM477 119.078C477 118.526 476.552 118.078 476 118.078C475.448 118.078 475 118.526 475 119.078L477 119.078ZM475 115.109C475 115.662 475.448 116.109 476 116.109C476.552 116.109 477 115.662 477 115.109L475 115.109ZM477 111.141C477 110.588 476.552 110.141 476 110.141C475.448 110.141 475 110.588 475 111.141L477 111.141ZM475 107.172C475 107.724 475.448 108.172 476 108.172C476.552 108.172 477 107.724 477 107.172L475 107.172ZM477 103.203C477 102.651 476.552 102.203 476 102.203C475.448 102.203 475 102.651 475 103.203L477 103.203ZM475 99.2344C475 99.7867 475.448 100.234 476 100.234C476.552 100.234 477 99.7867 477 99.2344L475 99.2344ZM477 95.2656C477 94.7133 476.552 94.2656 476 94.2656C475.448 94.2656 475 94.7133 475 95.2656L477 95.2656ZM475 91.2969C475 91.8492 475.448 92.2969 476 92.2969C476.552 92.2969 477 91.8492 477 91.2969L475 91.2969ZM477 87.3281C477 86.7758 476.552 86.3281 476 86.3281C475.448 86.3281 475 86.7758 475 87.3281L477 87.3281ZM475 83.3594C475 83.9117 475.448 84.3594 476 84.3594C476.552 84.3594 477 83.9117 477 83.3594L475 83.3594ZM477 79.3906C477 78.8383 476.552 78.3906 476 78.3906C475.448 78.3906 475 78.8383 475 79.3906L477 79.3906ZM475 75.4219C475 75.9742 475.448 76.4219 476 76.4219C476.552 76.4219 477 75.9742 477 75.4219L475 75.4219ZM477 71.4531C477 70.9008 476.552 70.4531 476 70.4531C475.448 70.4531 475 70.9008 475 71.4531L477 71.4531ZM475 67.4844C475 68.0367 475.448 68.4844 476 68.4844C476.552 68.4844 477 68.0367 477 67.4844L475 67.4844ZM477 63.5156C477 62.9633 476.552 62.5156 476 62.5156C475.448 62.5156 475 62.9633 475 63.5156L477 63.5156ZM475 59.5469C475 60.0992 475.448 60.5469 476 60.5469C476.552 60.5469 477 60.0992 477 59.5469L475 59.5469ZM477 55.5781C477 55.0258 476.552 54.5781 476 54.5781C475.448 54.5781 475 55.0258 475 55.5781L477 55.5781ZM475 51.6094C475 52.1617 475.448 52.6094 476 52.6094C476.552 52.6094 477 52.1617 477 51.6094L475 51.6094ZM477 47.6406C477 47.0883 476.552 46.6406 476 46.6406C475.448 46.6406 475 47.0883 475 47.6406L477 47.6406ZM475 43.6719C475 44.2242 475.448 44.6719 476 44.6719C476.552 44.6719 477 44.2242 477 43.6719L475 43.6719ZM477 39.7031C477 39.1508 476.552 38.7031 476 38.7031C475.448 38.7031 475 39.1508 475 39.7031L477 39.7031ZM475 35.7344C475 36.2867 475.448 36.7344 476 36.7344C476.552 36.7344 477 36.2867 477 35.7344L475 35.7344ZM477 31.7656C477 31.2133 476.552 30.7656 476 30.7656C475.448 30.7656 475 31.2133 475 31.7656L477 31.7656ZM475 27.7969C475 28.3492 475.448 28.7969 476 28.7969C476.552 28.7969 477 28.3492 477 27.7969L475 27.7969ZM477 23.8281C477 23.2758 476.552 22.8281 476 22.8281C475.448 22.8281 475 23.2758 475 23.8281L477 23.8281ZM475 19.8594C475 20.4117 475.448 20.8594 476 20.8594C476.552 20.8594 477 20.4117 477 19.8594L475 19.8594ZM477 15.8906C477 15.3383 476.552 14.8906 476 14.8906C475.448 14.8906 475 15.3383 475 15.8906L477 15.8906ZM475 11.9219C475 12.4742 475.448 12.9219 476 12.9219C476.552 12.9219 477 12.4742 477 11.9219L475 11.9219ZM477 7.95313C477 7.40084 476.552 6.95313 476 6.95312C475.448 6.95312 475 7.40084 475 7.95312L477 7.95313ZM475 3.98437C475 4.53666 475.448 4.98437 476 4.98438C476.552 4.98438 477 4.53666 477 3.98438L475 3.98437ZM477 129L477 127.016L475 127.016L475 129L477 129ZM477 123.047L477 119.078L475 119.078L475 123.047L477 123.047ZM477 115.109L477 111.141L475 111.141L475 115.109L477 115.109ZM477 107.172L477 103.203L475 103.203L475 107.172L477 107.172ZM477 99.2344L477 95.2656L475 95.2656L475 99.2344L477 99.2344ZM477 91.2969L477 87.3281L475 87.3281L475 91.2969L477 91.2969ZM477 83.3594L477 79.3906L475 79.3906L475 83.3594L477 83.3594ZM477 75.4219L477 71.4531L475 71.4531L475 75.4219L477 75.4219ZM477 67.4844L477 63.5156L475 63.5156L475 67.4844L477 67.4844ZM477 59.5469L477 55.5781L475 55.5781L475 59.5469L477 59.5469ZM477 51.6094L477 47.6406L475 47.6406L475 51.6094L477 51.6094ZM477 43.6719L477 39.7031L475 39.7031L475 43.6719L477 43.6719ZM477 35.7344L477 31.7656L475 31.7656L475 35.7344L477 35.7344ZM477 27.7969L477 23.8281L475 23.8281L475 27.7969L477 27.7969ZM477 19.8594L477 15.8906L475 15.8906L475 19.8594L477 19.8594ZM477 11.9219L477 7.95313L475 7.95312L475 11.9219L477 11.9219ZM477 3.98438L477 2L475 2L475 3.98437L477 3.98438Z" fill="#7D7D7D"/>
<line x1="146" y1="1" x2="474" y2="1" stroke="#7D7D7D" stroke-width="2" stroke-linecap="round" stroke-dasharray="4 4"/>
<line x1="147" y1="1522" x2="147" y2="1601" stroke="#7D7D7D" stroke-width="2" stroke-linecap="round" stroke-dasharray="4 4"/>
<path d="M150 1601C149.448 1601 149 1601.45 149 1602C149 1602.55 149.448 1603 150 1603V1601ZM318.773 1602L313 1596.23L307.227 1602L313 1607.77L318.773 1602ZM152.037 1603C152.59 1603 153.037 1602.55 153.037 1602C153.037 1601.45 152.59 1601 152.037 1601V1603ZM156.112 1601C155.56 1601 155.112 1601.45 155.112 1602C155.112 1602.55 155.56 1603 156.112 1603V1601ZM160.188 1603C160.74 1603 161.188 1602.55 161.188 1602C161.188 1601.45 160.74 1601 160.188 1601V1603ZM164.262 1601C163.71 1601 163.262 1601.45 163.262 1602C163.262 1602.55 163.71 1603 164.262 1603V1601ZM168.337 1603C168.89 1603 169.337 1602.55 169.337 1602C169.337 1601.45 168.89 1601 168.337 1601V1603ZM172.412 1601C171.86 1601 171.412 1601.45 171.412 1602C171.412 1602.55 171.86 1603 172.412 1603V1601ZM176.487 1603C177.04 1603 177.487 1602.55 177.487 1602C177.487 1601.45 177.04 1601 176.487 1601V1603ZM180.562 1601C180.01 1601 179.562 1601.45 179.562 1602C179.562 1602.55 180.01 1603 180.562 1603V1601ZM184.638 1603C185.19 1603 185.638 1602.55 185.638 1602C185.638 1601.45 185.19 1601 184.638 1601V1603ZM188.713 1601C188.16 1601 187.713 1601.45 187.713 1602C187.713 1602.55 188.16 1603 188.713 1603V1601ZM192.788 1603C193.34 1603 193.788 1602.55 193.788 1602C193.788 1601.45 193.34 1601 192.788 1601V1603ZM196.863 1601C196.31 1601 195.863 1601.45 195.863 1602C195.863 1602.55 196.31 1603 196.863 1603V1601ZM200.938 1603C201.49 1603 201.938 1602.55 201.938 1602C201.938 1601.45 201.49 1601 200.938 1601V1603ZM205.013 1601C204.46 1601 204.013 1601.45 204.013 1602C204.013 1602.55 204.46 1603 205.013 1603V1601ZM209.088 1603C209.64 1603 210.088 1602.55 210.088 1602C210.088 1601.45 209.64 1601 209.088 1601V1603ZM213.163 1601C212.61 1601 212.163 1601.45 212.163 1602C212.163 1602.55 212.61 1603 213.163 1603V1601ZM217.238 1603C217.79 1603 218.238 1602.55 218.238 1602C218.238 1601.45 217.79 1601 217.238 1601V1603ZM221.312 1601C220.76 1601 220.312 1601.45 220.312 1602C220.312 1602.55 220.76 1603 221.312 1603V1601ZM225.387 1603C225.94 1603 226.387 1602.55 226.387 1602C226.387 1601.45 225.94 1601 225.387 1601V1603ZM229.462 1601C228.91 1601 228.462 1601.45 228.462 1602C228.462 1602.55 228.91 1603 229.462 1603V1601ZM233.537 1603C234.09 1603 234.537 1602.55 234.537 1602C234.537 1601.45 234.09 1601 233.537 1601V1603ZM237.612 1601C237.06 1601 236.612 1601.45 236.612 1602C236.612 1602.55 237.06 1603 237.612 1603V1601ZM241.687 1603C242.24 1603 242.687 1602.55 242.687 1602C242.687 1601.45 242.24 1601 241.687 1601V1603ZM245.762 1601C245.21 1601 244.762 1601.45 244.762 1602C244.762 1602.55 245.21 1603 245.762 1603V1601ZM249.837 1603C250.39 1603 250.837 1602.55 250.837 1602C250.837 1601.45 250.39 1601 249.837 1601V1603ZM253.912 1601C253.36 1601 252.912 1601.45 252.912 1602C252.912 1602.55 253.36 1603 253.912 1603V1601ZM257.987 1603C258.54 1603 258.987 1602.55 258.987 1602C258.987 1601.45 258.54 1601 257.987 1601V1603ZM262.062 1601C261.51 1601 261.062 1601.45 261.062 1602C261.062 1602.55 261.51 1603 262.062 1603V1601ZM266.137 1603C266.69 1603 267.137 1602.55 267.137 1602C267.137 1601.45 266.69 1601 266.137 1601V1603ZM270.212 1601C269.66 1601 269.212 1601.45 269.212 1602C269.212 1602.55 269.66 1603 270.212 1603V1601ZM274.287 1603C274.84 1603 275.287 1602.55 275.287 1602C275.287 1601.45 274.84 1601 274.287 1601V1603ZM278.362 1601C277.81 1601 277.362 1601.45 277.362 1602C277.362 1602.55 277.81 1603 278.362 1603V1601ZM282.437 1603C282.99 1603 283.437 1602.55 283.437 1602C283.437 1601.45 282.99 1601 282.437 1601V1603ZM286.512 1601C285.96 1601 285.512 1601.45 285.512 1602C285.512 1602.55 285.96 1603 286.512 1603V1601ZM290.587 1603C291.14 1603 291.587 1602.55 291.587 1602C291.587 1601.45 291.14 1601 290.587 1601V1603ZM294.662 1601C294.11 1601 293.662 1601.45 293.662 1602C293.662 1602.55 294.11 1603 294.662 1603V1601ZM298.737 1603C299.29 1603 299.737 1602.55 299.737 1602C299.737 1601.45 299.29 1601 298.737 1601V1603ZM302.812 1601C302.26 1601 301.812 1601.45 301.812 1602C301.812 1602.55 302.26 1603 302.812 1603V1601ZM306.887 1603C307.44 1603 307.887 1602.55 307.887 1602C307.887 1601.45 307.44 1601 306.887 1601V1603ZM310.962 1601C310.41 1601 309.962 1601.45 309.962 1602C309.962 1602.55 310.41 1603 310.962 1603V1601ZM150 1603H152.037V1601H150V1603ZM156.112 1603H160.188V1601H156.112V1603ZM164.262 1603H168.337V1601H164.262V1603ZM172.412 1603H176.487V1601H172.412V1603ZM180.562 1603H184.638V1601H180.562V1603ZM188.713 1603H192.788V1601H188.713V1603ZM196.863 1603H200.938V1601H196.863V1603ZM205.013 1603H209.088V1601H205.013V1603ZM213.163 1603H217.238V1601H213.163V1603ZM221.312 1603H225.387V1601H221.312V1603ZM229.462 1603H233.537V1601H229.462V1603ZM237.612 1603H241.687V1601H237.612V1603ZM245.762 1603H249.837V1601H245.762V1603ZM253.912 1603H257.987V1601H253.912V1603ZM262.062 1603H266.137V1601H262.062V1603ZM270.212 1603H274.287V1601H270.212V1603ZM278.362 1603H282.437V1601H278.362V1603ZM286.512 1603H290.587V1601H286.512V1603ZM294.662 1603H298.737V1601H294.662V1603ZM302.812 1603H306.887V1601H302.812V1603ZM310.962 1603H313V1601H310.962V1603Z" fill="#7D7D7D"/>
<line x1="844" y1="2146" x2="844" y2="2391" stroke="#7D7D7D" stroke-width="2" stroke-linecap="round" stroke-dasharray="4 4"/>
<path d="M1167 1977.23L1161.23 1983L1167 1988.77L1172.77 1983L1167 1977.23ZM1166 2393C1166 2393.55 1166.45 2394 1167 2394C1167.55 2394 1168 2393.55 1168 2393L1166 2393ZM1166 1985.01C1166 1985.56 1166.45 1986.01 1167 1986.01C1167.55 1986.01 1168 1985.56 1168 1985.01L1166 1985.01ZM1168 1989.03C1168 1988.48 1167.55 1988.03 1167 1988.03C1166.45 1988.03 1166 1988.48 1166 1989.03L1168 1989.03ZM1166 1993.05C1166 1993.6 1166.45 1994.05 1167 1994.05C1167.55 1994.05 1168 1993.6 1168 1993.05L1166 1993.05ZM1168 1997.07C1168 1996.52 1167.55 1996.07 1167 1996.07C1166.45 1996.07 1166 1996.52 1166 1997.07L1168 1997.07ZM1166 2001.09C1166 2001.64 1166.45 2002.09 1167 2002.09C1167.55 2002.09 1168 2001.64 1168 2001.09L1166 2001.09ZM1168 2005.11C1168 2004.56 1167.55 2004.11 1167 2004.11C1166.45 2004.11 1166 2004.56 1166 2005.11L1168 2005.11ZM1166 2009.13C1166 2009.68 1166.45 2010.13 1167 2010.13C1167.55 2010.13 1168 2009.68 1168 2009.13L1166 2009.13ZM1168 2013.15C1168 2012.59 1167.55 2012.15 1167 2012.15C1166.45 2012.15 1166 2012.59 1166 2013.15L1168 2013.15ZM1166 2017.17C1166 2017.72 1166.45 2018.17 1167 2018.17C1167.55 2018.17 1168 2017.72 1168 2017.17L1166 2017.17ZM1168 2021.19C1168 2020.63 1167.55 2020.19 1167 2020.19C1166.45 2020.19 1166 2020.63 1166 2021.19L1168 2021.19ZM1166 2025.21C1166 2025.76 1166.45 2026.21 1167 2026.21C1167.55 2026.21 1168 2025.76 1168 2025.21L1166 2025.21ZM1168 2029.23C1168 2028.67 1167.55 2028.23 1167 2028.23C1166.45 2028.23 1166 2028.67 1166 2029.23L1168 2029.23ZM1166 2033.25C1166 2033.8 1166.45 2034.25 1167 2034.25C1167.55 2034.25 1168 2033.8 1168 2033.25L1166 2033.25ZM1168 2037.26C1168 2036.71 1167.55 2036.26 1167 2036.26C1166.45 2036.26 1166 2036.71 1166 2037.26L1168 2037.26ZM1166 2041.28C1166 2041.84 1166.45 2042.28 1167 2042.28C1167.55 2042.28 1168 2041.84 1168 2041.28L1166 2041.28ZM1168 2045.3C1168 2044.75 1167.55 2044.3 1167 2044.3C1166.45 2044.3 1166 2044.75 1166 2045.3L1168 2045.3ZM1166 2049.32C1166 2049.88 1166.45 2050.32 1167 2050.32C1167.55 2050.32 1168 2049.88 1168 2049.32L1166 2049.32ZM1168 2053.34C1168 2052.79 1167.55 2052.34 1167 2052.34C1166.45 2052.34 1166 2052.79 1166 2053.34L1168 2053.34ZM1166 2057.36C1166 2057.92 1166.45 2058.36 1167 2058.36C1167.55 2058.36 1168 2057.92 1168 2057.36L1166 2057.36ZM1168 2061.38C1168 2060.83 1167.55 2060.38 1167 2060.38C1166.45 2060.38 1166 2060.83 1166 2061.38L1168 2061.38ZM1166 2065.4C1166 2065.95 1166.45 2066.4 1167 2066.4C1167.55 2066.4 1168 2065.95 1168 2065.4L1166 2065.4ZM1168 2069.42C1168 2068.87 1167.55 2068.42 1167 2068.42C1166.45 2068.42 1166 2068.87 1166 2069.42L1168 2069.42ZM1166 2073.44C1166 2073.99 1166.45 2074.44 1167 2074.44C1167.55 2074.44 1168 2073.99 1168 2073.44L1166 2073.44ZM1168 2077.46C1168 2076.91 1167.55 2076.46 1167 2076.46C1166.45 2076.46 1166 2076.91 1166 2077.46L1168 2077.46ZM1166 2081.48C1166 2082.03 1166.45 2082.48 1167 2082.48C1167.55 2082.48 1168 2082.03 1168 2081.48L1166 2081.48ZM1168 2085.5C1168 2084.95 1167.55 2084.5 1167 2084.5C1166.45 2084.5 1166 2084.95 1166 2085.5L1168 2085.5ZM1166 2089.52C1166 2090.07 1166.45 2090.52 1167 2090.52C1167.55 2090.52 1168 2090.07 1168 2089.52L1166 2089.52ZM1168 2093.54C1168 2092.99 1167.55 2092.54 1167 2092.54C1166.45 2092.54 1166 2092.99 1166 2093.54L1168 2093.54ZM1166 2097.56C1166 2098.11 1166.45 2098.56 1167 2098.56C1167.55 2098.56 1168 2098.11 1168 2097.56L1166 2097.56ZM1168 2101.58C1168 2101.03 1167.55 2100.58 1167 2100.58C1166.45 2100.58 1166 2101.03 1166 2101.58L1168 2101.58ZM1166 2105.6C1166 2106.15 1166.45 2106.6 1167 2106.6C1167.55 2106.6 1168 2106.15 1168 2105.6L1166 2105.6ZM1168 2109.62C1168 2109.07 1167.55 2108.62 1167 2108.62C1166.45 2108.62 1166 2109.07 1166 2109.62L1168 2109.62ZM1166 2113.64C1166 2114.19 1166.45 2114.64 1167 2114.64C1167.55 2114.64 1168 2114.19 1168 2113.64L1166 2113.64ZM1168 2117.66C1168 2117.1 1167.55 2116.66 1167 2116.66C1166.45 2116.66 1166 2117.1 1166 2117.66L1168 2117.66ZM1166 2121.68C1166 2122.23 1166.45 2122.68 1167 2122.68C1167.55 2122.68 1168 2122.23 1168 2121.68L1166 2121.68ZM1168 2125.7C1168 2125.14 1167.55 2124.7 1167 2124.7C1166.45 2124.7 1166 2125.14 1166 2125.7L1168 2125.7ZM1166 2129.72C1166 2130.27 1166.45 2130.72 1167 2130.72C1167.55 2130.72 1168 2130.27 1168 2129.72L1166 2129.72ZM1168 2133.74C1168 2133.18 1167.55 2132.74 1167 2132.74C1166.45 2132.74 1166 2133.18 1166 2133.74L1168 2133.74ZM1166 2137.75C1166 2138.31 1166.45 2138.75 1167 2138.75C1167.55 2138.75 1168 2138.31 1168 2137.75L1166 2137.75ZM1168 2141.77C1168 2141.22 1167.55 2140.77 1167 2140.77C1166.45 2140.77 1166 2141.22 1166 2141.77L1168 2141.77ZM1166 2145.79C1166 2146.35 1166.45 2146.79 1167 2146.79C1167.55 2146.79 1168 2146.35 1168 2145.79L1166 2145.79ZM1168 2149.81C1168 2149.26 1167.55 2148.81 1167 2148.81C1166.45 2148.81 1166 2149.26 1166 2149.81L1168 2149.81ZM1166 2153.83C1166 2154.39 1166.45 2154.83 1167 2154.83C1167.55 2154.83 1168 2154.39 1168 2153.83L1166 2153.83ZM1168 2157.85C1168 2157.3 1167.55 2156.85 1167 2156.85C1166.45 2156.85 1166 2157.3 1166 2157.85L1168 2157.85ZM1166 2161.87C1166 2162.42 1166.45 2162.87 1167 2162.87C1167.55 2162.87 1168 2162.42 1168 2161.87L1166 2161.87ZM1168 2165.89C1168 2165.34 1167.55 2164.89 1167 2164.89C1166.45 2164.89 1166 2165.34 1166 2165.89L1168 2165.89ZM1166 2169.91C1166 2170.46 1166.45 2170.91 1167 2170.91C1167.55 2170.91 1168 2170.46 1168 2169.91L1166 2169.91ZM1168 2173.93C1168 2173.38 1167.55 2172.93 1167 2172.93C1166.45 2172.93 1166 2173.38 1166 2173.93L1168 2173.93ZM1166 2177.95C1166 2178.5 1166.45 2178.95 1167 2178.95C1167.55 2178.95 1168 2178.5 1168 2177.95L1166 2177.95ZM1168 2181.97C1168 2181.42 1167.55 2180.97 1167 2180.97C1166.45 2180.97 1166 2181.42 1166 2181.97L1168 2181.97ZM1166 2185.99C1166 2186.54 1166.45 2186.99 1167 2186.99C1167.55 2186.99 1168 2186.54 1168 2185.99L1166 2185.99ZM1168 2190.01C1168 2189.46 1167.55 2189.01 1167 2189.01C1166.45 2189.01 1166 2189.46 1166 2190.01L1168 2190.01ZM1166 2194.03C1166 2194.58 1166.45 2195.03 1167 2195.03C1167.55 2195.03 1168 2194.58 1168 2194.03L1166 2194.03ZM1168 2198.05C1168 2197.5 1167.55 2197.05 1167 2197.05C1166.45 2197.05 1166 2197.5 1166 2198.05L1168 2198.05ZM1166 2202.07C1166 2202.62 1166.45 2203.07 1167 2203.07C1167.55 2203.07 1168 2202.62 1168 2202.07L1166 2202.07ZM1168 2206.09C1168 2205.54 1167.55 2205.09 1167 2205.09C1166.45 2205.09 1166 2205.54 1166 2206.09L1168 2206.09ZM1166 2210.11C1166 2210.66 1166.45 2211.11 1167 2211.11C1167.55 2211.11 1168 2210.66 1168 2210.11L1166 2210.11ZM1168 2214.13C1168 2213.58 1167.55 2213.13 1167 2213.13C1166.45 2213.13 1166 2213.58 1166 2214.13L1168 2214.13ZM1166 2218.15C1166 2218.7 1166.45 2219.15 1167 2219.15C1167.55 2219.15 1168 2218.7 1168 2218.15L1166 2218.15ZM1168 2222.17C1168 2221.61 1167.55 2221.17 1167 2221.17C1166.45 2221.17 1166 2221.61 1166 2222.17L1168 2222.17ZM1166 2226.19C1166 2226.74 1166.45 2227.19 1167 2227.19C1167.55 2227.19 1168 2226.74 1168 2226.19L1166 2226.19ZM1168 2230.21C1168 2229.65 1167.55 2229.21 1167 2229.21C1166.45 2229.21 1166 2229.65 1166 2230.21L1168 2230.21ZM1166 2234.23C1166 2234.78 1166.45 2235.23 1167 2235.23C1167.55 2235.23 1168 2234.78 1168 2234.23L1166 2234.23ZM1168 2238.25C1168 2237.69 1167.55 2237.25 1167 2237.25C1166.45 2237.25 1166 2237.69 1166 2238.25L1168 2238.25ZM1166 2242.26C1166 2242.82 1166.45 2243.26 1167 2243.26C1167.55 2243.26 1168 2242.82 1168 2242.26L1166 2242.26ZM1168 2246.28C1168 2245.73 1167.55 2245.28 1167 2245.28C1166.45 2245.28 1166 2245.73 1166 2246.28L1168 2246.28ZM1166 2250.3C1166 2250.86 1166.45 2251.3 1167 2251.3C1167.55 2251.3 1168 2250.86 1168 2250.3L1166 2250.3ZM1168 2254.32C1168 2253.77 1167.55 2253.32 1167 2253.32C1166.45 2253.32 1166 2253.77 1166 2254.32L1168 2254.32ZM1166 2258.34C1166 2258.9 1166.45 2259.34 1167 2259.34C1167.55 2259.34 1168 2258.9 1168 2258.34L1166 2258.34ZM1168 2262.36C1168 2261.81 1167.55 2261.36 1167 2261.36C1166.45 2261.36 1166 2261.81 1166 2262.36L1168 2262.36ZM1166 2266.38C1166 2266.93 1166.45 2267.38 1167 2267.38C1167.55 2267.38 1168 2266.93 1168 2266.38L1166 2266.38ZM1168 2270.4C1168 2269.85 1167.55 2269.4 1167 2269.4C1166.45 2269.4 1166 2269.85 1166 2270.4L1168 2270.4ZM1166 2274.42C1166 2274.97 1166.45 2275.42 1167 2275.42C1167.55 2275.42 1168 2274.97 1168 2274.42L1166 2274.42ZM1168 2278.44C1168 2277.89 1167.55 2277.44 1167 2277.44C1166.45 2277.44 1166 2277.89 1166 2278.44L1168 2278.44ZM1166 2282.46C1166 2283.01 1166.45 2283.46 1167 2283.46C1167.55 2283.46 1168 2283.01 1168 2282.46L1166 2282.46ZM1168 2286.48C1168 2285.93 1167.55 2285.48 1167 2285.48C1166.45 2285.48 1166 2285.93 1166 2286.48L1168 2286.48ZM1166 2290.5C1166 2291.05 1166.45 2291.5 1167 2291.5C1167.55 2291.5 1168 2291.05 1168 2290.5L1166 2290.5ZM1168 2294.52C1168 2293.97 1167.55 2293.52 1167 2293.52C1166.45 2293.52 1166 2293.97 1166 2294.52L1168 2294.52ZM1166 2298.54C1166 2299.09 1166.45 2299.54 1167 2299.54C1167.55 2299.54 1168 2299.09 1168 2298.54L1166 2298.54ZM1168 2302.56C1168 2302.01 1167.55 2301.56 1167 2301.56C1166.45 2301.56 1166 2302.01 1166 2302.56L1168 2302.56ZM1166 2306.58C1166 2307.13 1166.45 2307.58 1167 2307.58C1167.55 2307.58 1168 2307.13 1168 2306.58L1166 2306.58ZM1168 2310.6C1168 2310.05 1167.55 2309.6 1167 2309.6C1166.45 2309.6 1166 2310.05 1166 2310.6L1168 2310.6ZM1166 2314.62C1166 2315.17 1166.45 2315.62 1167 2315.62C1167.55 2315.62 1168 2315.17 1168 2314.62L1166 2314.62ZM1168 2318.64C1168 2318.09 1167.55 2317.64 1167 2317.64C1166.45 2317.64 1166 2318.09 1166 2318.64L1168 2318.64ZM1166 2322.66C1166 2323.21 1166.45 2323.66 1167 2323.66C1167.55 2323.66 1168 2323.21 1168 2322.66L1166 2322.66ZM1168 2326.68C1168 2326.12 1167.55 2325.68 1167 2325.68C1166.45 2325.68 1166 2326.12 1166 2326.68L1168 2326.68ZM1166 2330.7C1166 2331.25 1166.45 2331.7 1167 2331.7C1167.55 2331.7 1168 2331.25 1168 2330.7L1166 2330.7ZM1168 2334.72C1168 2334.16 1167.55 2333.72 1167 2333.72C1166.45 2333.72 1166 2334.16 1166 2334.72L1168 2334.72ZM1166 2338.74C1166 2339.29 1166.45 2339.74 1167 2339.74C1167.55 2339.74 1168 2339.29 1168 2338.74L1166 2338.74ZM1168 2342.76C1168 2342.2 1167.55 2341.76 1167 2341.76C1166.45 2341.76 1166 2342.2 1166 2342.76L1168 2342.76ZM1166 2346.77C1166 2347.33 1166.45 2347.77 1167 2347.77C1167.55 2347.77 1168 2347.33 1168 2346.77L1166 2346.77ZM1168 2350.79C1168 2350.24 1167.55 2349.79 1167 2349.79C1166.45 2349.79 1166 2350.24 1166 2350.79L1168 2350.79ZM1166 2354.81C1166 2355.37 1166.45 2355.81 1167 2355.81C1167.55 2355.81 1168 2355.37 1168 2354.81L1166 2354.81ZM1168 2358.83C1168 2358.28 1167.55 2357.83 1167 2357.83C1166.45 2357.83 1166 2358.28 1166 2358.83L1168 2358.83ZM1166 2362.85C1166 2363.41 1166.45 2363.85 1167 2363.85C1167.55 2363.85 1168 2363.41 1168 2362.85L1166 2362.85ZM1168 2366.87C1168 2366.32 1167.55 2365.87 1167 2365.87C1166.45 2365.87 1166 2366.32 1166 2366.87L1168 2366.87ZM1166 2370.89C1166 2371.44 1166.45 2371.89 1167 2371.89C1167.55 2371.89 1168 2371.44 1168 2370.89L1166 2370.89ZM1168 2374.91C1168 2374.36 1167.55 2373.91 1167 2373.91C1166.45 2373.91 1166 2374.36 1166 2374.91L1168 2374.91ZM1166 2378.93C1166 2379.48 1166.45 2379.93 1167 2379.93C1167.55 2379.93 1168 2379.48 1168 2378.93L1166 2378.93ZM1168 2382.95C1168 2382.4 1167.55 2381.95 1167 2381.95C1166.45 2381.95 1166 2382.4 1166 2382.95L1168 2382.95ZM1166 2386.97C1166 2387.52 1166.45 2387.97 1167 2387.97C1167.55 2387.97 1168 2387.52 1168 2386.97L1166 2386.97ZM1168 2390.99C1168 2390.44 1167.55 2389.99 1167 2389.99C1166.45 2389.99 1166 2390.44 1166 2390.99L1168 2390.99ZM1166 1983L1166 1985.01L1168 1985.01L1168 1983L1166 1983ZM1166 1989.03L1166 1993.05L1168 1993.05L1168 1989.03L1166 1989.03ZM1166 1997.07L1166 2001.09L1168 2001.09L1168 1997.07L1166 1997.07ZM1166 2005.11L1166 2009.13L1168 2009.13L1168 2005.11L1166 2005.11ZM1166 2013.15L1166 2017.17L1168 2017.17L1168 2013.15L1166 2013.15ZM1166 2021.19L1166 2025.21L1168 2025.21L1168 2021.19L1166 2021.19ZM1166 2029.23L1166 2033.25L1168 2033.25L1168 2029.23L1166 2029.23ZM1166 2037.26L1166 2041.28L1168 2041.28L1168 2037.26L1166 2037.26ZM1166 2045.3L1166 2049.32L1168 2049.32L1168 2045.3L1166 2045.3ZM1166 2053.34L1166 2057.36L1168 2057.36L1168 2053.34L1166 2053.34ZM1166 2061.38L1166 2065.4L1168 2065.4L1168 2061.38L1166 2061.38ZM1166 2069.42L1166 2073.44L1168 2073.44L1168 2069.42L1166 2069.42ZM1166 2077.46L1166 2081.48L1168 2081.48L1168 2077.46L1166 2077.46ZM1166 2085.5L1166 2089.52L1168 2089.52L1168 2085.5L1166 2085.5ZM1166 2093.54L1166 2097.56L1168 2097.56L1168 2093.54L1166 2093.54ZM1166 2101.58L1166 2105.6L1168 2105.6L1168 2101.58L1166 2101.58ZM1166 2109.62L1166 2113.64L1168 2113.64L1168 2109.62L1166 2109.62ZM1166 2117.66L1166 2121.68L1168 2121.68L1168 2117.66L1166 2117.66ZM1166 2125.7L1166 2129.72L1168 2129.72L1168 2125.7L1166 2125.7ZM1166 2133.74L1166 2137.75L1168 2137.75L1168 2133.74L1166 2133.74ZM1166 2141.77L1166 2145.79L1168 2145.79L1168 2141.77L1166 2141.77ZM1166 2149.81L1166 2153.83L1168 2153.83L1168 2149.81L1166 2149.81ZM1166 2157.85L1166 2161.87L1168 2161.87L1168 2157.85L1166 2157.85ZM1166 2165.89L1166 2169.91L1168 2169.91L1168 2165.89L1166 2165.89ZM1166 2173.93L1166 2177.95L1168 2177.95L1168 2173.93L1166 2173.93ZM1166 2181.97L1166 2185.99L1168 2185.99L1168 2181.97L1166 2181.97ZM1166 2190.01L1166 2194.03L1168 2194.03L1168 2190.01L1166 2190.01ZM1166 2198.05L1166 2202.07L1168 2202.07L1168 2198.05L1166 2198.05ZM1166 2206.09L1166 2210.11L1168 2210.11L1168 2206.09L1166 2206.09ZM1166 2214.13L1166 2218.15L1168 2218.15L1168 2214.13L1166 2214.13ZM1166 2222.17L1166 2226.19L1168 2226.19L1168 2222.17L1166 2222.17ZM1166 2230.21L1166 2234.23L1168 2234.23L1168 2230.21L1166 2230.21ZM1166 2238.25L1166 2242.26L1168 2242.26L1168 2238.25L1166 2238.25ZM1166 2246.28L1166 2250.3L1168 2250.3L1168 2246.28L1166 2246.28ZM1166 2254.32L1166 2258.34L1168 2258.34L1168 2254.32L1166 2254.32ZM1166 2262.36L1166 2266.38L1168 2266.38L1168 2262.36L1166 2262.36ZM1166 2270.4L1166 2274.42L1168 2274.42L1168 2270.4L1166 2270.4ZM1166 2278.44L1166 2282.46L1168 2282.46L1168 2278.44L1166 2278.44ZM1166 2286.48L1166 2290.5L1168 2290.5L1168 2286.48L1166 2286.48ZM1166 2294.52L1166 2298.54L1168 2298.54L1168 2294.52L1166 2294.52ZM1166 2302.56L1166 2306.58L1168 2306.58L1168 2302.56L1166 2302.56ZM1166 2310.6L1166 2314.62L1168 2314.62L1168 2310.6L1166 2310.6ZM1166 2318.64L1166 2322.66L1168 2322.66L1168 2318.64L1166 2318.64ZM1166 2326.68L1166 2330.7L1168 2330.7L1168 2326.68L1166 2326.68ZM1166 2334.72L1166 2338.74L1168 2338.74L1168 2334.72L1166 2334.72ZM1166 2342.76L1166 2346.77L1168 2346.77L1168 2342.76L1166 2342.76ZM1166 2350.79L1166 2354.81L1168 2354.81L1168 2350.79L1166 2350.79ZM1166 2358.83L1166 2362.85L1168 2362.85L1168 2358.83L1166 2358.83ZM1166 2366.87L1166 2370.89L1168 2370.89L1168 2366.87L1166 2366.87ZM1166 2374.91L1166 2378.93L1168 2378.93L1168 2374.91L1166 2374.91ZM1166 2382.95L1166 2386.97L1168 2386.97L1168 2382.95L1166 2382.95ZM1166 2390.99L1166 2393L1168 2393L1168 2390.99L1166 2390.99Z" fill="#7D7D7D"/>
<line x1="846.952" y1="2392" x2="1167" y2="2392" stroke="#7D7D7D" stroke-width="2" stroke-linecap="round" stroke-dasharray="4 4"/>
<line x1="493" y1="2240" x2="493" y2="2439" stroke="#7D7D7D" stroke-width="2" stroke-linecap="round" stroke-dasharray="4 4"/>
<path d="M802 2139.23L796.226 2145L802 2150.77L807.774 2145L802 2139.23ZM801 2440C801 2440.55 801.448 2441 802 2441C802.552 2441 803 2440.55 803 2440L801 2440ZM801 2146.99C801 2147.55 801.448 2147.99 802 2147.99C802.552 2147.99 803 2147.55 803 2146.99L801 2146.99ZM803 2150.98C803 2150.43 802.552 2149.98 802 2149.98C801.448 2149.98 801 2150.43 801 2150.98L803 2150.98ZM801 2154.97C801 2155.52 801.448 2155.97 802 2155.97C802.552 2155.97 803 2155.52 803 2154.97L801 2154.97ZM803 2158.95C803 2158.4 802.552 2157.95 802 2157.95C801.448 2157.95 801 2158.4 801 2158.95L803 2158.95ZM801 2162.94C801 2163.49 801.448 2163.94 802 2163.94C802.552 2163.94 803 2163.49 803 2162.94L801 2162.94ZM803 2166.93C803 2166.37 802.552 2165.93 802 2165.93C801.448 2165.93 801 2166.37 801 2166.93L803 2166.93ZM801 2170.91C801 2171.46 801.448 2171.91 802 2171.91C802.552 2171.91 803 2171.46 803 2170.91L801 2170.91ZM803 2174.9C803 2174.35 802.552 2173.9 802 2173.9C801.448 2173.9 801 2174.35 801 2174.9L803 2174.9ZM801 2178.89C801 2179.44 801.448 2179.89 802 2179.89C802.552 2179.89 803 2179.44 803 2178.89L801 2178.89ZM803 2182.87C803 2182.32 802.552 2181.87 802 2181.87C801.448 2181.87 801 2182.32 801 2182.87L803 2182.87ZM801 2186.86C801 2187.41 801.448 2187.86 802 2187.86C802.552 2187.86 803 2187.41 803 2186.86L801 2186.86ZM803 2190.84C803 2190.29 802.552 2189.84 802 2189.84C801.448 2189.84 801 2190.29 801 2190.84L803 2190.84ZM801 2194.83C801 2195.38 801.448 2195.83 802 2195.83C802.552 2195.83 803 2195.38 803 2194.83L801 2194.83ZM803 2198.82C803 2198.27 802.552 2197.82 802 2197.82C801.448 2197.82 801 2198.27 801 2198.82L803 2198.82ZM801 2202.8C801 2203.36 801.448 2203.8 802 2203.8C802.552 2203.8 803 2203.36 803 2202.8L801 2202.8ZM803 2206.79C803 2206.24 802.552 2205.79 802 2205.79C801.448 2205.79 801 2206.24 801 2206.79L803 2206.79ZM801 2210.78C801 2211.33 801.448 2211.78 802 2211.78C802.552 2211.78 803 2211.33 803 2210.78L801 2210.78ZM803 2214.76C803 2214.21 802.552 2213.76 802 2213.76C801.448 2213.76 801 2214.21 801 2214.76L803 2214.76ZM801 2218.75C801 2219.3 801.448 2219.75 802 2219.75C802.552 2219.75 803 2219.3 803 2218.75L801 2218.75ZM803 2222.74C803 2222.18 802.552 2221.74 802 2221.74C801.448 2221.74 801 2222.18 801 2222.74L803 2222.74ZM801 2226.72C801 2227.28 801.448 2227.72 802 2227.72C802.552 2227.72 803 2227.28 803 2226.72L801 2226.72ZM803 2230.71C803 2230.16 802.552 2229.71 802 2229.71C801.448 2229.71 801 2230.16 801 2230.71L803 2230.71ZM801 2234.7C801 2235.25 801.448 2235.7 802 2235.7C802.552 2235.7 803 2235.25 803 2234.7L801 2234.7ZM803 2238.68C803 2238.13 802.552 2237.68 802 2237.68C801.448 2237.68 801 2238.13 801 2238.68L803 2238.68ZM801 2242.67C801 2243.22 801.448 2243.67 802 2243.67C802.552 2243.67 803 2243.22 803 2242.67L801 2242.67ZM803 2246.66C803 2246.1 802.552 2245.66 802 2245.66C801.448 2245.66 801 2246.1 801 2246.66L803 2246.66ZM801 2250.64C801 2251.19 801.448 2251.64 802 2251.64C802.552 2251.64 803 2251.19 803 2250.64L801 2250.64ZM803 2254.63C803 2254.08 802.552 2253.63 802 2253.63C801.448 2253.63 801 2254.08 801 2254.63L803 2254.63ZM801 2258.61C801 2259.17 801.448 2259.61 802 2259.61C802.552 2259.61 803 2259.17 803 2258.61L801 2258.61ZM803 2262.6C803 2262.05 802.552 2261.6 802 2261.6C801.448 2261.6 801 2262.05 801 2262.6L803 2262.6ZM801 2266.59C801 2267.14 801.448 2267.59 802 2267.59C802.552 2267.59 803 2267.14 803 2266.59L801 2266.59ZM803 2270.57C803 2270.02 802.552 2269.57 802 2269.57C801.448 2269.57 801 2270.02 801 2270.57L803 2270.57ZM801 2274.56C801 2275.11 801.448 2275.56 802 2275.56C802.552 2275.56 803 2275.11 803 2274.56L801 2274.56ZM803 2278.55C803 2278 802.552 2277.55 802 2277.55C801.448 2277.55 801 2278 801 2278.55L803 2278.55ZM801 2282.53C801 2283.09 801.448 2283.53 802 2283.53C802.552 2283.53 803 2283.09 803 2282.53L801 2282.53ZM803 2286.52C803 2285.97 802.552 2285.52 802 2285.52C801.448 2285.52 801 2285.97 801 2286.52L803 2286.52ZM801 2290.51C801 2291.06 801.448 2291.51 802 2291.51C802.552 2291.51 803 2291.06 803 2290.51L801 2290.51ZM803 2294.49C803 2293.94 802.552 2293.49 802 2293.49C801.448 2293.49 801 2293.94 801 2294.49L803 2294.49ZM801 2298.48C801 2299.03 801.448 2299.48 802 2299.48C802.552 2299.48 803 2299.03 803 2298.48L801 2298.48ZM803 2302.47C803 2301.91 802.552 2301.47 802 2301.47C801.448 2301.47 801 2301.91 801 2302.47L803 2302.47ZM801 2306.45C801 2307 801.448 2307.45 802 2307.45C802.552 2307.45 803 2307 803 2306.45L801 2306.45ZM803 2310.44C803 2309.89 802.552 2309.44 802 2309.44C801.448 2309.44 801 2309.89 801 2310.44L803 2310.44ZM801 2314.43C801 2314.98 801.448 2315.43 802 2315.43C802.552 2315.43 803 2314.98 803 2314.43L801 2314.43ZM803 2318.41C803 2317.86 802.552 2317.41 802 2317.41C801.448 2317.41 801 2317.86 801 2318.41L803 2318.41ZM801 2322.4C801 2322.95 801.448 2323.4 802 2323.4C802.552 2323.4 803 2322.95 803 2322.4L801 2322.4ZM803 2326.39C803 2325.83 802.552 2325.39 802 2325.39C801.448 2325.39 801 2325.83 801 2326.39L803 2326.39ZM801 2330.37C801 2330.92 801.448 2331.37 802 2331.37C802.552 2331.37 803 2330.92 803 2330.37L801 2330.37ZM803 2334.36C803 2333.81 802.552 2333.36 802 2333.36C801.448 2333.36 801 2333.81 801 2334.36L803 2334.36ZM801 2338.34C801 2338.9 801.448 2339.34 802 2339.34C802.552 2339.34 803 2338.9 803 2338.34L801 2338.34ZM803 2342.33C803 2341.78 802.552 2341.33 802 2341.33C801.448 2341.33 801 2341.78 801 2342.33L803 2342.33ZM801 2346.32C801 2346.87 801.448 2347.32 802 2347.32C802.552 2347.32 803 2346.87 803 2346.32L801 2346.32ZM803 2350.3C803 2349.75 802.552 2349.3 802 2349.3C801.448 2349.3 801 2349.75 801 2350.3L803 2350.3ZM801 2354.29C801 2354.84 801.448 2355.29 802 2355.29C802.552 2355.29 803 2354.84 803 2354.29L801 2354.29ZM803 2358.28C803 2357.72 802.552 2357.28 802 2357.28C801.448 2357.28 801 2357.72 801 2358.28L803 2358.28ZM801 2362.26C801 2362.82 801.448 2363.26 802 2363.26C802.552 2363.26 803 2362.82 803 2362.26L801 2362.26ZM803 2366.25C803 2365.7 802.552 2365.25 802 2365.25C801.448 2365.25 801 2365.7 801 2366.25L803 2366.25ZM801 2370.24C801 2370.79 801.448 2371.24 802 2371.24C802.552 2371.24 803 2370.79 803 2370.24L801 2370.24ZM803 2374.22C803 2373.67 802.552 2373.22 802 2373.22C801.448 2373.22 801 2373.67 801 2374.22L803 2374.22ZM801 2378.21C801 2378.76 801.448 2379.21 802 2379.21C802.552 2379.21 803 2378.76 803 2378.21L801 2378.21ZM803 2382.2C803 2381.64 802.552 2381.2 802 2381.2C801.448 2381.2 801 2381.64 801 2382.2L803 2382.2ZM801 2386.18C801 2386.73 801.448 2387.18 802 2387.18C802.552 2387.18 803 2386.73 803 2386.18L801 2386.18ZM803 2390.17C803 2389.62 802.552 2389.17 802 2389.17C801.448 2389.17 801 2389.62 801 2390.17L803 2390.17ZM801 2394.16C801 2394.71 801.448 2395.16 802 2395.16C802.552 2395.16 803 2394.71 803 2394.16L801 2394.16ZM803 2398.14C803 2397.59 802.552 2397.14 802 2397.14C801.448 2397.14 801 2397.59 801 2398.14L803 2398.14ZM801 2402.13C801 2402.68 801.448 2403.13 802 2403.13C802.552 2403.13 803 2402.68 803 2402.13L801 2402.13ZM803 2406.11C803 2405.56 802.552 2405.11 802 2405.11C801.448 2405.11 801 2405.56 801 2406.11L803 2406.11ZM801 2410.1C801 2410.65 801.448 2411.1 802 2411.1C802.552 2411.1 803 2410.65 803 2410.1L801 2410.1ZM803 2414.09C803 2413.54 802.552 2413.09 802 2413.09C801.448 2413.09 801 2413.54 801 2414.09L803 2414.09ZM801 2418.07C801 2418.63 801.448 2419.07 802 2419.07C802.552 2419.07 803 2418.63 803 2418.07L801 2418.07ZM803 2422.06C803 2421.51 802.552 2421.06 802 2421.06C801.448 2421.06 801 2421.51 801 2422.06L803 2422.06ZM801 2426.05C801 2426.6 801.448 2427.05 802 2427.05C802.552 2427.05 803 2426.6 803 2426.05L801 2426.05ZM803 2430.03C803 2429.48 802.552 2429.03 802 2429.03C801.448 2429.03 801 2429.48 801 2430.03L803 2430.03ZM801 2434.02C801 2434.57 801.448 2435.02 802 2435.02C802.552 2435.02 803 2434.57 803 2434.02L801 2434.02ZM803 2438.01C803 2437.45 802.552 2437.01 802 2437.01C801.448 2437.01 801 2437.45 801 2438.01L803 2438.01ZM801 2145L801 2146.99L803 2146.99L803 2145L801 2145ZM801 2150.98L801 2154.97L803 2154.97L803 2150.98L801 2150.98ZM801 2158.95L801 2162.94L803 2162.94L803 2158.95L801 2158.95ZM801 2166.93L801 2170.91L803 2170.91L803 2166.93L801 2166.93ZM801 2174.9L801 2178.89L803 2178.89L803 2174.9L801 2174.9ZM801 2182.87L801 2186.86L803 2186.86L803 2182.87L801 2182.87ZM801 2190.84L801 2194.83L803 2194.83L803 2190.84L801 2190.84ZM801 2198.82L801 2202.8L803 2202.8L803 2198.82L801 2198.82ZM801 2206.79L801 2210.78L803 2210.78L803 2206.79L801 2206.79ZM801 2214.76L801 2218.75L803 2218.75L803 2214.76L801 2214.76ZM801 2222.74L801 2226.72L803 2226.72L803 2222.74L801 2222.74ZM801 2230.71L801 2234.7L803 2234.7L803 2230.71L801 2230.71ZM801 2238.68L801 2242.67L803 2242.67L803 2238.68L801 2238.68ZM801 2246.66L801 2250.64L803 2250.64L803 2246.66L801 2246.66ZM801 2254.63L801 2258.61L803 2258.61L803 2254.63L801 2254.63ZM801 2262.6L801 2266.59L803 2266.59L803 2262.6L801 2262.6ZM801 2270.57L801 2274.56L803 2274.56L803 2270.57L801 2270.57ZM801 2278.55L801 2282.53L803 2282.53L803 2278.55L801 2278.55ZM801 2286.52L801 2290.51L803 2290.51L803 2286.52L801 2286.52ZM801 2294.49L801 2298.48L803 2298.48L803 2294.49L801 2294.49ZM801 2302.47L801 2306.45L803 2306.45L803 2302.47L801 2302.47ZM801 2310.44L801 2314.43L803 2314.43L803 2310.44L801 2310.44ZM801 2318.41L801 2322.4L803 2322.4L803 2318.41L801 2318.41ZM801 2326.39L801 2330.37L803 2330.37L803 2326.39L801 2326.39ZM801 2334.36L801 2338.34L803 2338.34L803 2334.36L801 2334.36ZM801 2342.33L801 2346.32L803 2346.32L803 2342.33L801 2342.33ZM801 2350.3L801 2354.29L803 2354.29L803 2350.3L801 2350.3ZM801 2358.28L801 2362.26L803 2362.26L803 2358.28L801 2358.28ZM801 2366.25L801 2370.24L803 2370.24L803 2366.25L801 2366.25ZM801 2374.22L801 2378.21L803 2378.21L803 2374.22L801 2374.22ZM801 2382.2L801 2386.18L803 2386.18L803 2382.2L801 2382.2ZM801 2390.17L801 2394.16L803 2394.16L803 2390.17L801 2390.17ZM801 2398.14L801 2402.13L803 2402.13L803 2398.14L801 2398.14ZM801 2406.11L801 2410.1L803 2410.1L803 2406.11L801 2406.11ZM801 2414.09L801 2418.07L803 2418.07L803 2414.09L801 2414.09ZM801 2422.06L801 2426.05L803 2426.05L803 2422.06L801 2422.06ZM801 2430.03L801 2434.02L803 2434.02L803 2430.03L801 2430.03ZM801 2438.01L801 2440L803 2440L803 2438.01L801 2438.01Z" fill="#7D7D7D"/>
<line x1="495.827" y1="2439" x2="802" y2="2439" stroke="#7D7D7D" stroke-width="2" stroke-linecap="round" stroke-dasharray="4 4"/>
<line x1="848.909" y1="50" x2="848.909" y2="3" stroke="#7D7D7D" stroke-width="2" stroke-linecap="round" stroke-dasharray="4 4"/>
<path d="M1150 134.774L1155.77 129L1150 123.226L1144.23 129L1150 134.774ZM1151 2C1151 1.44772 1150.55 1 1150 1C1149.45 1 1149 1.44772 1149 2L1151 2ZM1151 127.016C1151 126.463 1150.55 126.016 1150 126.016C1149.45 126.016 1149 126.463 1149 127.016L1151 127.016ZM1149 123.047C1149 123.599 1149.45 124.047 1150 124.047C1150.55 124.047 1151 123.599 1151 123.047L1149 123.047ZM1151 119.078C1151 118.526 1150.55 118.078 1150 118.078C1149.45 118.078 1149 118.526 1149 119.078L1151 119.078ZM1149 115.109C1149 115.662 1149.45 116.109 1150 116.109C1150.55 116.109 1151 115.662 1151 115.109L1149 115.109ZM1151 111.141C1151 110.588 1150.55 110.141 1150 110.141C1149.45 110.141 1149 110.588 1149 111.141L1151 111.141ZM1149 107.172C1149 107.724 1149.45 108.172 1150 108.172C1150.55 108.172 1151 107.724 1151 107.172L1149 107.172ZM1151 103.203C1151 102.651 1150.55 102.203 1150 102.203C1149.45 102.203 1149 102.651 1149 103.203L1151 103.203ZM1149 99.2344C1149 99.7867 1149.45 100.234 1150 100.234C1150.55 100.234 1151 99.7867 1151 99.2344L1149 99.2344ZM1151 95.2656C1151 94.7133 1150.55 94.2656 1150 94.2656C1149.45 94.2656 1149 94.7133 1149 95.2656L1151 95.2656ZM1149 91.2969C1149 91.8492 1149.45 92.2969 1150 92.2969C1150.55 92.2969 1151 91.8492 1151 91.2969L1149 91.2969ZM1151 87.3281C1151 86.7758 1150.55 86.3281 1150 86.3281C1149.45 86.3281 1149 86.7758 1149 87.3281L1151 87.3281ZM1149 83.3594C1149 83.9117 1149.45 84.3594 1150 84.3594C1150.55 84.3594 1151 83.9117 1151 83.3594L1149 83.3594ZM1151 79.3906C1151 78.8383 1150.55 78.3906 1150 78.3906C1149.45 78.3906 1149 78.8383 1149 79.3906L1151 79.3906ZM1149 75.4219C1149 75.9742 1149.45 76.4219 1150 76.4219C1150.55 76.4219 1151 75.9742 1151 75.4219L1149 75.4219ZM1151 71.4531C1151 70.9008 1150.55 70.4531 1150 70.4531C1149.45 70.4531 1149 70.9008 1149 71.4531L1151 71.4531ZM1149 67.4844C1149 68.0367 1149.45 68.4844 1150 68.4844C1150.55 68.4844 1151 68.0367 1151 67.4844L1149 67.4844ZM1151 63.5156C1151 62.9633 1150.55 62.5156 1150 62.5156C1149.45 62.5156 1149 62.9633 1149 63.5156L1151 63.5156ZM1149 59.5469C1149 60.0992 1149.45 60.5469 1150 60.5469C1150.55 60.5469 1151 60.0992 1151 59.5469L1149 59.5469ZM1151 55.5781C1151 55.0258 1150.55 54.5781 1150 54.5781C1149.45 54.5781 1149 55.0258 1149 55.5781L1151 55.5781ZM1149 51.6094C1149 52.1617 1149.45 52.6094 1150 52.6094C1150.55 52.6094 1151 52.1617 1151 51.6094L1149 51.6094ZM1151 47.6406C1151 47.0883 1150.55 46.6406 1150 46.6406C1149.45 46.6406 1149 47.0883 1149 47.6406L1151 47.6406ZM1149 43.6719C1149 44.2242 1149.45 44.6719 1150 44.6719C1150.55 44.6719 1151 44.2242 1151 43.6719L1149 43.6719ZM1151 39.7031C1151 39.1508 1150.55 38.7031 1150 38.7031C1149.45 38.7031 1149 39.1508 1149 39.7031L1151 39.7031ZM1149 35.7344C1149 36.2867 1149.45 36.7344 1150 36.7344C1150.55 36.7344 1151 36.2867 1151 35.7344L1149 35.7344ZM1151 31.7656C1151 31.2133 1150.55 30.7656 1150 30.7656C1149.45 30.7656 1149 31.2133 1149 31.7656L1151 31.7656ZM1149 27.7969C1149 28.3492 1149.45 28.7969 1150 28.7969C1150.55 28.7969 1151 28.3492 1151 27.7969L1149 27.7969ZM1151 23.8281C1151 23.2758 1150.55 22.8281 1150 22.8281C1149.45 22.8281 1149 23.2758 1149 23.8281L1151 23.8281ZM1149 19.8594C1149 20.4117 1149.45 20.8594 1150 20.8594C1150.55 20.8594 1151 20.4117 1151 19.8594L1149 19.8594ZM1151 15.8906C1151 15.3383 1150.55 14.8906 1150 14.8906C1149.45 14.8906 1149 15.3383 1149 15.8906L1151 15.8906ZM1149 11.9219C1149 12.4742 1149.45 12.9219 1150 12.9219C1150.55 12.9219 1151 12.4742 1151 11.9219L1149 11.9219ZM1151 7.95313C1151 7.40084 1150.55 6.95313 1150 6.95312C1149.45 6.95312 1149 7.40084 1149 7.95312L1151 7.95313ZM1149 3.98437C1149 4.53666 1149.45 4.98437 1150 4.98438C1150.55 4.98438 1151 4.53666 1151 3.98438L1149 3.98437ZM1151 129L1151 127.016L1149 127.016L1149 129L1151 129ZM1151 123.047L1151 119.078L1149 119.078L1149 123.047L1151 123.047ZM1151 115.109L1151 111.141L1149 111.141L1149 115.109L1151 115.109ZM1151 107.172L1151 103.203L1149 103.203L1149 107.172L1151 107.172ZM1151 99.2344L1151 95.2656L1149 95.2656L1149 99.2344L1151 99.2344ZM1151 91.2969L1151 87.3281L1149 87.3281L1149 91.2969L1151 91.2969ZM1151 83.3594L1151 79.3906L1149 79.3906L1149 83.3594L1151 83.3594ZM1151 75.4219L1151 71.4531L1149 71.4531L1149 75.4219L1151 75.4219ZM1151 67.4844L1151 63.5156L1149 63.5156L1149 67.4844L1151 67.4844ZM1151 59.5469L1151 55.5781L1149 55.5781L1149 59.5469L1151 59.5469ZM1151 51.6094L1151 47.6406L1149 47.6406L1149 51.6094L1151 51.6094ZM1151 43.6719L1151 39.7031L1149 39.7031L1149 43.6719L1151 43.6719ZM1151 35.7344L1151 31.7656L1149 31.7656L1149 35.7344L1151 35.7344ZM1151 27.7969L1151 23.8281L1149 23.8281L1149 27.7969L1151 27.7969ZM1151 19.8594L1151 15.8906L1149 15.8906L1149 19.8594L1151 19.8594ZM1151 11.9219L1151 7.95313L1149 7.95312L1149 11.9219L1151 11.9219ZM1151 3.98438L1151 2L1149 2L1149 3.98437L1151 3.98438Z" fill="#7D7D7D"/>
<line x1="850" y1="1" x2="1148.09" y2="1" stroke="#7D7D7D" stroke-width="2" stroke-linecap="round" stroke-dasharray="4 4"/>
<line x1="515.885" y1="128" x2="515.885" y2="3" stroke="#7D7D7D" stroke-width="2" stroke-linecap="round" stroke-dasharray="4 4"/>
<path d="M1134 1193C1134.55 1193 1135 1193.45 1135 1194C1135 1194.55 1134.55 1195 1134 1195L1134 1193ZM302.227 1194L308 1188.23L313.773 1194L308 1199.77L302.227 1194ZM1132 1195C1131.44 1195 1131 1194.55 1131 1194C1131 1193.45 1131.44 1193 1132 1193L1132 1195ZM1127.99 1193C1128.54 1193 1128.99 1193.45 1128.99 1194C1128.99 1194.55 1128.54 1195 1127.99 1195L1127.99 1193ZM1123.98 1195C1123.42 1195 1122.98 1194.55 1122.98 1194C1122.98 1193.45 1123.42 1193 1123.98 1193L1123.98 1195ZM1119.97 1193C1120.52 1193 1120.97 1193.45 1120.97 1194C1120.97 1194.55 1120.52 1195 1119.97 1195L1119.97 1193ZM1115.96 1195C1115.4 1195 1114.96 1194.55 1114.96 1194C1114.96 1193.45 1115.4 1193 1115.96 1193L1115.96 1195ZM1111.95 1193C1112.5 1193 1112.95 1193.45 1112.95 1194C1112.95 1194.55 1112.5 1195 1111.95 1195L1111.95 1193ZM1107.94 1195C1107.38 1195 1106.94 1194.55 1106.94 1194C1106.94 1193.45 1107.38 1193 1107.94 1193L1107.94 1195ZM1103.93 1193C1104.48 1193 1104.93 1193.45 1104.93 1194C1104.93 1194.55 1104.48 1195 1103.93 1195L1103.93 1193ZM1099.92 1195C1099.37 1195 1098.92 1194.55 1098.92 1194C1098.92 1193.45 1099.37 1193 1099.92 1193L1099.92 1195ZM1095.91 1193C1096.46 1193 1096.91 1193.45 1096.91 1194C1096.91 1194.55 1096.46 1195 1095.91 1195L1095.91 1193ZM1091.9 1195C1091.35 1195 1090.9 1194.55 1090.9 1194C1090.9 1193.45 1091.35 1193 1091.9 1193L1091.9 1195ZM1087.89 1193C1088.44 1193 1088.89 1193.45 1088.89 1194C1088.89 1194.55 1088.44 1195 1087.89 1195L1087.89 1193ZM1083.88 1195C1083.33 1195 1082.88 1194.55 1082.88 1194C1082.88 1193.45 1083.33 1193 1083.88 1193L1083.88 1195ZM1079.87 1193C1080.42 1193 1080.87 1193.45 1080.87 1194C1080.87 1194.55 1080.42 1195 1079.87 1195L1079.87 1193ZM1075.86 1195C1075.31 1195 1074.86 1194.55 1074.86 1194C1074.86 1193.45 1075.31 1193 1075.86 1193L1075.86 1195ZM1071.85 1193C1072.4 1193 1072.85 1193.45 1072.85 1194C1072.85 1194.55 1072.4 1195 1071.85 1195L1071.85 1193ZM1067.84 1195C1067.29 1195 1066.84 1194.55 1066.84 1194C1066.84 1193.45 1067.29 1193 1067.84 1193L1067.84 1195ZM1063.83 1193C1064.38 1193 1064.83 1193.45 1064.83 1194C1064.83 1194.55 1064.38 1195 1063.83 1195L1063.83 1193ZM1059.82 1195C1059.27 1195 1058.82 1194.55 1058.82 1194C1058.82 1193.45 1059.27 1193 1059.82 1193L1059.82 1195ZM1055.81 1193C1056.36 1193 1056.81 1193.45 1056.81 1194C1056.81 1194.55 1056.36 1195 1055.81 1195L1055.81 1193ZM1051.8 1195C1051.25 1195 1050.8 1194.55 1050.8 1194C1050.8 1193.45 1051.25 1193 1051.8 1193L1051.8 1195ZM1047.79 1193C1048.34 1193 1048.79 1193.45 1048.79 1194C1048.79 1194.55 1048.34 1195 1047.79 1195L1047.79 1193ZM1043.78 1195C1043.23 1195 1042.78 1194.55 1042.78 1194C1042.78 1193.45 1043.23 1193 1043.78 1193L1043.78 1195ZM1039.77 1193C1040.32 1193 1040.77 1193.45 1040.77 1194C1040.77 1194.55 1040.32 1195 1039.77 1195L1039.77 1193ZM1035.76 1195C1035.21 1195 1034.76 1194.55 1034.76 1194C1034.76 1193.45 1035.21 1193 1035.76 1193L1035.76 1195ZM1031.75 1193C1032.3 1193 1032.75 1193.45 1032.75 1194C1032.75 1194.55 1032.3 1195 1031.75 1195L1031.75 1193ZM1027.74 1195C1027.19 1195 1026.74 1194.55 1026.74 1194C1026.74 1193.45 1027.19 1193 1027.74 1193L1027.74 1195ZM1023.73 1193C1024.29 1193 1024.73 1193.45 1024.73 1194C1024.73 1194.55 1024.29 1195 1023.73 1195L1023.73 1193ZM1019.72 1195C1019.17 1195 1018.72 1194.55 1018.72 1194C1018.72 1193.45 1019.17 1193 1019.72 1193L1019.72 1195ZM1015.71 1193C1016.27 1193 1016.71 1193.45 1016.71 1194C1016.71 1194.55 1016.27 1195 1015.71 1195L1015.71 1193ZM1011.7 1195C1011.15 1195 1010.7 1194.55 1010.7 1194C1010.7 1193.45 1011.15 1193 1011.7 1193L1011.7 1195ZM1007.69 1193C1008.25 1193 1008.69 1193.45 1008.69 1194C1008.69 1194.55 1008.25 1195 1007.69 1195L1007.69 1193ZM1003.68 1195C1003.13 1195 1002.68 1194.55 1002.68 1194C1002.68 1193.45 1003.13 1193 1003.68 1193L1003.68 1195ZM999.675 1193C1000.23 1193 1000.67 1193.45 1000.67 1194C1000.67 1194.55 1000.23 1195 999.675 1195L999.675 1193ZM995.665 1195C995.113 1195 994.665 1194.55 994.665 1194C994.665 1193.45 995.113 1193 995.665 1193L995.665 1195ZM991.655 1193C992.208 1193 992.655 1193.45 992.655 1194C992.655 1194.55 992.208 1195 991.655 1195L991.655 1193ZM987.646 1195C987.093 1195 986.646 1194.55 986.646 1194C986.646 1193.45 987.093 1193 987.646 1193L987.646 1195ZM983.636 1193C984.188 1193 984.636 1193.45 984.636 1194C984.636 1194.55 984.188 1195 983.636 1195L983.636 1193ZM979.626 1195C979.074 1195 978.626 1194.55 978.626 1194C978.626 1193.45 979.074 1193 979.626 1193L979.626 1195ZM975.616 1193C976.169 1193 976.616 1193.45 976.616 1194C976.616 1194.55 976.169 1195 975.616 1195L975.616 1193ZM971.607 1195C971.055 1195 970.607 1194.55 970.607 1194C970.607 1193.45 971.055 1193 971.607 1193L971.607 1195ZM967.597 1193C968.149 1193 968.597 1193.45 968.597 1194C968.597 1194.55 968.149 1195 967.597 1195L967.597 1193ZM963.587 1195C963.035 1195 962.587 1194.55 962.587 1194C962.587 1193.45 963.035 1193 963.587 1193L963.587 1195ZM959.578 1193C960.13 1193 960.578 1193.45 960.578 1194C960.578 1194.55 960.13 1195 959.578 1195L959.578 1193ZM955.568 1195C955.016 1195 954.568 1194.55 954.568 1194C954.568 1193.45 955.016 1193 955.568 1193L955.568 1195ZM951.558 1193C952.111 1193 952.558 1193.45 952.558 1194C952.558 1194.55 952.111 1195 951.558 1195L951.558 1193ZM947.549 1195C946.996 1195 946.549 1194.55 946.549 1194C946.549 1193.45 946.996 1193 947.549 1193L947.549 1195ZM943.539 1193C944.091 1193 944.539 1193.45 944.539 1194C944.539 1194.55 944.091 1195 943.539 1195L943.539 1193ZM939.529 1195C938.977 1195 938.529 1194.55 938.529 1194C938.529 1193.45 938.977 1193 939.529 1193L939.529 1195ZM935.519 1193C936.072 1193 936.519 1193.45 936.519 1194C936.519 1194.55 936.072 1195 935.519 1195L935.519 1193ZM931.51 1195C930.957 1195 930.51 1194.55 930.51 1194C930.51 1193.45 930.957 1193 931.51 1193L931.51 1195ZM927.5 1193C928.052 1193 928.5 1193.45 928.5 1194C928.5 1194.55 928.052 1195 927.5 1195L927.5 1193ZM923.49 1195C922.938 1195 922.49 1194.55 922.49 1194C922.49 1193.45 922.938 1193 923.49 1193L923.49 1195ZM919.481 1193C920.033 1193 920.481 1193.45 920.481 1194C920.481 1194.55 920.033 1195 919.481 1195L919.481 1193ZM915.471 1195C914.919 1195 914.471 1194.55 914.471 1194C914.471 1193.45 914.919 1193 915.471 1193L915.471 1195ZM911.461 1193C912.014 1193 912.461 1193.45 912.461 1194C912.461 1194.55 912.014 1195 911.461 1195L911.461 1193ZM907.452 1195C906.899 1195 906.452 1194.55 906.452 1194C906.452 1193.45 906.899 1193 907.452 1193L907.452 1195ZM903.442 1193C903.994 1193 904.442 1193.45 904.442 1194C904.442 1194.55 903.994 1195 903.442 1195L903.442 1193ZM899.432 1195C898.88 1195 898.432 1194.55 898.432 1194C898.432 1193.45 898.88 1193 899.432 1193L899.432 1195ZM895.422 1193C895.975 1193 896.422 1193.45 896.422 1194C896.422 1194.55 895.975 1195 895.422 1195L895.422 1193ZM891.413 1195C890.86 1195 890.413 1194.55 890.413 1194C890.413 1193.45 890.86 1193 891.413 1193L891.413 1195ZM887.403 1193C887.955 1193 888.403 1193.45 888.403 1194C888.403 1194.55 887.955 1195 887.403 1195L887.403 1193ZM883.393 1195C882.841 1195 882.393 1194.55 882.393 1194C882.393 1193.45 882.841 1193 883.393 1193L883.393 1195ZM879.384 1193C879.936 1193 880.384 1193.45 880.384 1194C880.384 1194.55 879.936 1195 879.384 1195L879.384 1193ZM875.374 1195C874.822 1195 874.374 1194.55 874.374 1194C874.374 1193.45 874.822 1193 875.374 1193L875.374 1195ZM871.364 1193C871.916 1193 872.364 1193.45 872.364 1194C872.364 1194.55 871.916 1195 871.364 1195L871.364 1193ZM867.354 1195C866.802 1195 866.354 1194.55 866.354 1194C866.354 1193.45 866.802 1193 867.354 1193L867.354 1195ZM863.345 1193C863.897 1193 864.345 1193.45 864.345 1194C864.345 1194.55 863.897 1195 863.345 1195L863.345 1193ZM859.335 1195C858.783 1195 858.335 1194.55 858.335 1194C858.335 1193.45 858.783 1193 859.335 1193L859.335 1195ZM855.325 1193C855.878 1193 856.325 1193.45 856.325 1194C856.325 1194.55 855.878 1195 855.325 1195L855.325 1193ZM851.316 1195C850.763 1195 850.316 1194.55 850.316 1194C850.316 1193.45 850.763 1193 851.316 1193L851.316 1195ZM847.306 1193C847.858 1193 848.306 1193.45 848.306 1194C848.306 1194.55 847.858 1195 847.306 1195L847.306 1193ZM843.296 1195C842.744 1195 842.296 1194.55 842.296 1194C842.296 1193.45 842.744 1193 843.296 1193L843.296 1195ZM839.287 1193C839.839 1193 840.287 1193.45 840.287 1194C840.287 1194.55 839.839 1195 839.287 1195L839.287 1193ZM835.277 1195C834.725 1195 834.277 1194.55 834.277 1194C834.277 1193.45 834.725 1193 835.277 1193L835.277 1195ZM831.267 1193C831.819 1193 832.267 1193.45 832.267 1194C832.267 1194.55 831.819 1195 831.267 1195L831.267 1193ZM827.257 1195C826.705 1195 826.257 1194.55 826.257 1194C826.257 1193.45 826.705 1193 827.257 1193L827.257 1195ZM823.248 1193C823.8 1193 824.248 1193.45 824.248 1194C824.248 1194.55 823.8 1195 823.248 1195L823.248 1193ZM819.238 1195C818.686 1195 818.238 1194.55 818.238 1194C818.238 1193.45 818.686 1193 819.238 1193L819.238 1195ZM815.228 1193C815.781 1193 816.228 1193.45 816.228 1194C816.228 1194.55 815.781 1195 815.228 1195L815.228 1193ZM811.219 1195C810.666 1195 810.219 1194.55 810.219 1194C810.219 1193.45 810.666 1193 811.219 1193L811.219 1195ZM807.209 1193C807.761 1193 808.209 1193.45 808.209 1194C808.209 1194.55 807.761 1195 807.209 1195L807.209 1193ZM803.199 1195C802.647 1195 802.199 1194.55 802.199 1194C802.199 1193.45 802.647 1193 803.199 1193L803.199 1195ZM799.189 1193C799.742 1193 800.189 1193.45 800.189 1194C800.189 1194.55 799.742 1195 799.189 1195L799.189 1193ZM795.18 1195C794.628 1195 794.18 1194.55 794.18 1194C794.18 1193.45 794.628 1193 795.18 1193L795.18 1195ZM791.17 1193C791.722 1193 792.17 1193.45 792.17 1194C792.17 1194.55 791.722 1195 791.17 1195L791.17 1193ZM787.16 1195C786.608 1195 786.16 1194.55 786.16 1194C786.16 1193.45 786.608 1193 787.16 1193L787.16 1195ZM783.151 1193C783.703 1193 784.151 1193.45 784.151 1194C784.151 1194.55 783.703 1195 783.151 1195L783.151 1193ZM779.141 1195C778.589 1195 778.141 1194.55 778.141 1194C778.141 1193.45 778.589 1193 779.141 1193L779.141 1195ZM775.131 1193C775.684 1193 776.131 1193.45 776.131 1194C776.131 1194.55 775.684 1195 775.131 1195L775.131 1193ZM771.122 1195C770.569 1195 770.122 1194.55 770.122 1194C770.122 1193.45 770.569 1193 771.122 1193L771.122 1195ZM767.112 1193C767.664 1193 768.112 1193.45 768.112 1194C768.112 1194.55 767.664 1195 767.112 1195L767.112 1193ZM763.102 1195C762.55 1195 762.102 1194.55 762.102 1194C762.102 1193.45 762.55 1193 763.102 1193L763.102 1195ZM759.092 1193C759.645 1193 760.092 1193.45 760.092 1194C760.092 1194.55 759.645 1195 759.092 1195L759.092 1193ZM755.083 1195C754.53 1195 754.083 1194.55 754.083 1194C754.083 1193.45 754.53 1193 755.083 1193L755.083 1195ZM751.073 1193C751.625 1193 752.073 1193.45 752.073 1194C752.073 1194.55 751.625 1195 751.073 1195L751.073 1193ZM747.063 1195C746.511 1195 746.063 1194.55 746.063 1194C746.063 1193.45 746.511 1193 747.063 1193L747.063 1195ZM743.054 1193C743.606 1193 744.054 1193.45 744.054 1194C744.054 1194.55 743.606 1195 743.054 1195L743.054 1193ZM739.044 1195C738.492 1195 738.044 1194.55 738.044 1194C738.044 1193.45 738.492 1193 739.044 1193L739.044 1195ZM735.034 1193C735.586 1193 736.034 1193.45 736.034 1194C736.034 1194.55 735.586 1195 735.034 1195L735.034 1193ZM731.025 1195C730.472 1195 730.025 1194.55 730.025 1194C730.025 1193.45 730.472 1193 731.025 1193L731.025 1195ZM727.015 1193C727.567 1193 728.015 1193.45 728.015 1194C728.015 1194.55 727.567 1195 727.015 1195L727.015 1193ZM723.005 1195C722.453 1195 722.005 1194.55 722.005 1194C722.005 1193.45 722.453 1193 723.005 1193L723.005 1195ZM718.995 1193C719.548 1193 719.995 1193.45 719.995 1194C719.995 1194.55 719.548 1195 718.995 1195L718.995 1193ZM714.986 1195C714.433 1195 713.986 1194.55 713.986 1194C713.986 1193.45 714.433 1193 714.986 1193L714.986 1195ZM710.976 1193C711.528 1193 711.976 1193.45 711.976 1194C711.976 1194.55 711.528 1195 710.976 1195L710.976 1193ZM706.966 1195C706.414 1195 705.966 1194.55 705.966 1194C705.966 1193.45 706.414 1193 706.966 1193L706.966 1195ZM702.957 1193C703.509 1193 703.957 1193.45 703.957 1194C703.957 1194.55 703.509 1195 702.957 1195L702.957 1193ZM698.947 1195C698.395 1195 697.947 1194.55 697.947 1194C697.947 1193.45 698.395 1193 698.947 1193L698.947 1195ZM694.937 1193C695.489 1193 695.937 1193.45 695.937 1194C695.937 1194.55 695.489 1195 694.937 1195L694.937 1193ZM690.927 1195C690.375 1195 689.927 1194.55 689.927 1194C689.927 1193.45 690.375 1193 690.927 1193L690.927 1195ZM686.918 1193C687.47 1193 687.918 1193.45 687.918 1194C687.918 1194.55 687.47 1195 686.918 1195L686.918 1193ZM682.908 1195C682.356 1195 681.908 1194.55 681.908 1194C681.908 1193.45 682.356 1193 682.908 1193L682.908 1195ZM678.898 1193C679.451 1193 679.898 1193.45 679.898 1194C679.898 1194.55 679.451 1195 678.898 1195L678.898 1193ZM674.889 1195C674.336 1195 673.889 1194.55 673.889 1194C673.889 1193.45 674.336 1193 674.889 1193L674.889 1195ZM670.879 1193C671.431 1193 671.879 1193.45 671.879 1194C671.879 1194.55 671.431 1195 670.879 1195L670.879 1193ZM666.869 1195C666.317 1195 665.869 1194.55 665.869 1194C665.869 1193.45 666.317 1193 666.869 1193L666.869 1195ZM662.86 1193C663.412 1193 663.86 1193.45 663.86 1194C663.86 1194.55 663.412 1195 662.86 1195L662.86 1193ZM658.85 1195C658.298 1195 657.85 1194.55 657.85 1194C657.85 1193.45 658.298 1193 658.85 1193L658.85 1195ZM654.84 1193C655.392 1193 655.84 1193.45 655.84 1194C655.84 1194.55 655.392 1195 654.84 1195L654.84 1193ZM650.83 1195C650.278 1195 649.83 1194.55 649.83 1194C649.83 1193.45 650.278 1193 650.83 1193L650.83 1195ZM646.821 1193C647.373 1193 647.821 1193.45 647.821 1194C647.821 1194.55 647.373 1195 646.821 1195L646.821 1193ZM642.811 1195C642.259 1195 641.811 1194.55 641.811 1194C641.811 1193.45 642.259 1193 642.811 1193L642.811 1195ZM638.801 1193C639.354 1193 639.801 1193.45 639.801 1194C639.801 1194.55 639.354 1195 638.801 1195L638.801 1193ZM634.792 1195C634.239 1195 633.792 1194.55 633.792 1194C633.792 1193.45 634.239 1193 634.792 1193L634.792 1195ZM630.782 1193C631.334 1193 631.782 1193.45 631.782 1194C631.782 1194.55 631.334 1195 630.782 1195L630.782 1193ZM626.772 1195C626.22 1195 625.772 1194.55 625.772 1194C625.772 1193.45 626.22 1193 626.772 1193L626.772 1195ZM622.763 1193C623.315 1193 623.763 1193.45 623.763 1194C623.763 1194.55 623.315 1195 622.763 1195L622.763 1193ZM618.753 1195C618.2 1195 617.753 1194.55 617.753 1194C617.753 1193.45 618.2 1193 618.753 1193L618.753 1195ZM614.743 1193C615.295 1193 615.743 1193.45 615.743 1194C615.743 1194.55 615.295 1195 614.743 1195L614.743 1193ZM610.733 1195C610.181 1195 609.733 1194.55 609.733 1194C609.733 1193.45 610.181 1193 610.733 1193L610.733 1195ZM606.724 1193C607.276 1193 607.724 1193.45 607.724 1194C607.724 1194.55 607.276 1195 606.724 1195L606.724 1193ZM602.714 1195C602.162 1195 601.714 1194.55 601.714 1194C601.714 1193.45 602.162 1193 602.714 1193L602.714 1195ZM598.704 1193C599.257 1193 599.704 1193.45 599.704 1194C599.704 1194.55 599.257 1195 598.704 1195L598.704 1193ZM594.695 1195C594.142 1195 593.695 1194.55 593.695 1194C593.695 1193.45 594.142 1193 594.695 1193L594.695 1195ZM590.685 1193C591.237 1193 591.685 1193.45 591.685 1194C591.685 1194.55 591.237 1195 590.685 1195L590.685 1193ZM586.675 1195C586.123 1195 585.675 1194.55 585.675 1194C585.675 1193.45 586.123 1193 586.675 1193L586.675 1195ZM582.665 1193C583.218 1193 583.665 1193.45 583.665 1194C583.665 1194.55 583.218 1195 582.665 1195L582.665 1193ZM578.656 1195C578.103 1195 577.656 1194.55 577.656 1194C577.656 1193.45 578.103 1193 578.656 1193L578.656 1195ZM574.646 1193C575.198 1193 575.646 1193.45 575.646 1194C575.646 1194.55 575.198 1195 574.646 1195L574.646 1193ZM570.636 1195C570.084 1195 569.636 1194.55 569.636 1194C569.636 1193.45 570.084 1193 570.636 1193L570.636 1195ZM566.627 1193C567.179 1193 567.627 1193.45 567.627 1194C567.627 1194.55 567.179 1195 566.627 1195L566.627 1193ZM562.617 1195C562.065 1195 561.617 1194.55 561.617 1194C561.617 1193.45 562.065 1193 562.617 1193L562.617 1195ZM558.607 1193C559.159 1193 559.607 1193.45 559.607 1194C559.607 1194.55 559.159 1195 558.607 1195L558.607 1193ZM554.597 1195C554.045 1195 553.597 1194.55 553.597 1194C553.597 1193.45 554.045 1193 554.597 1193L554.597 1195ZM550.588 1193C551.14 1193 551.588 1193.45 551.588 1194C551.588 1194.55 551.14 1195 550.588 1195L550.588 1193ZM546.578 1195C546.026 1195 545.578 1194.55 545.578 1194C545.578 1193.45 546.026 1193 546.578 1193L546.578 1195ZM542.568 1193C543.121 1193 543.568 1193.45 543.568 1194C543.568 1194.55 543.121 1195 542.568 1195L542.568 1193ZM538.559 1195C538.006 1195 537.559 1194.55 537.559 1194C537.559 1193.45 538.006 1193 538.559 1193L538.559 1195ZM534.549 1193C535.101 1193 535.549 1193.45 535.549 1194C535.549 1194.55 535.101 1195 534.549 1195L534.549 1193ZM530.539 1195C529.987 1195 529.539 1194.55 529.539 1194C529.539 1193.45 529.987 1193 530.539 1193L530.539 1195ZM526.53 1193C527.082 1193 527.53 1193.45 527.53 1194C527.53 1194.55 527.082 1195 526.53 1195L526.53 1193ZM522.52 1195C521.968 1195 521.52 1194.55 521.52 1194C521.52 1193.45 521.968 1193 522.52 1193L522.52 1195ZM518.51 1193C519.062 1193 519.51 1193.45 519.51 1194C519.51 1194.55 519.062 1195 518.51 1195L518.51 1193ZM514.5 1195C513.948 1195 513.5 1194.55 513.5 1194C513.5 1193.45 513.948 1193 514.5 1193L514.5 1195ZM510.491 1193C511.043 1193 511.491 1193.45 511.491 1194C511.491 1194.55 511.043 1195 510.491 1195L510.491 1193ZM506.481 1195C505.929 1195 505.481 1194.55 505.481 1194C505.481 1193.45 505.929 1193 506.481 1193L506.481 1195ZM502.471 1193C503.024 1193 503.471 1193.45 503.471 1194C503.471 1194.55 503.024 1195 502.471 1195L502.471 1193ZM498.462 1195C497.909 1195 497.462 1194.55 497.462 1194C497.462 1193.45 497.909 1193 498.462 1193L498.462 1195ZM494.452 1193C495.004 1193 495.452 1193.45 495.452 1194C495.452 1194.55 495.004 1195 494.452 1195L494.452 1193ZM490.442 1195C489.89 1195 489.442 1194.55 489.442 1194C489.442 1193.45 489.89 1193 490.442 1193L490.442 1195ZM486.432 1193C486.985 1193 487.432 1193.45 487.432 1194C487.432 1194.55 486.985 1195 486.432 1195L486.432 1193ZM482.423 1195C481.87 1195 481.423 1194.55 481.423 1194C481.423 1193.45 481.87 1193 482.423 1193L482.423 1195ZM478.413 1193C478.965 1193 479.413 1193.45 479.413 1194C479.413 1194.55 478.965 1195 478.413 1195L478.413 1193ZM474.403 1195C473.851 1195 473.403 1194.55 473.403 1194C473.403 1193.45 473.851 1193 474.403 1193L474.403 1195ZM470.394 1193C470.946 1193 471.394 1193.45 471.394 1194C471.394 1194.55 470.946 1195 470.394 1195L470.394 1193ZM466.384 1195C465.832 1195 465.384 1194.55 465.384 1194C465.384 1193.45 465.832 1193 466.384 1193L466.384 1195ZM462.374 1193C462.927 1193 463.374 1193.45 463.374 1194C463.374 1194.55 462.927 1195 462.374 1195L462.374 1193ZM458.365 1195C457.812 1195 457.365 1194.55 457.365 1194C457.365 1193.45 457.812 1193 458.365 1193L458.365 1195ZM454.355 1193C454.907 1193 455.355 1193.45 455.355 1194C455.355 1194.55 454.907 1195 454.355 1195L454.355 1193ZM450.345 1195C449.793 1195 449.345 1194.55 449.345 1194C449.345 1193.45 449.793 1193 450.345 1193L450.345 1195ZM446.335 1193C446.888 1193 447.335 1193.45 447.335 1194C447.335 1194.55 446.888 1195 446.335 1195L446.335 1193ZM442.326 1195C441.773 1195 441.326 1194.55 441.326 1194C441.326 1193.45 441.773 1193 442.326 1193L442.326 1195ZM438.316 1193C438.868 1193 439.316 1193.45 439.316 1194C439.316 1194.55 438.868 1195 438.316 1195L438.316 1193ZM434.306 1195C433.754 1195 433.306 1194.55 433.306 1194C433.306 1193.45 433.754 1193 434.306 1193L434.306 1195ZM430.297 1193C430.849 1193 431.297 1193.45 431.297 1194C431.297 1194.55 430.849 1195 430.297 1195L430.297 1193ZM426.287 1195C425.735 1195 425.287 1194.55 425.287 1194C425.287 1193.45 425.735 1193 426.287 1193L426.287 1195ZM422.277 1193C422.829 1193 423.277 1193.45 423.277 1194C423.277 1194.55 422.829 1195 422.277 1195L422.277 1193ZM418.268 1195C417.715 1195 417.268 1194.55 417.268 1194C417.268 1193.45 417.715 1193 418.268 1193L418.268 1195ZM414.258 1193C414.81 1193 415.258 1193.45 415.258 1194C415.258 1194.55 414.81 1195 414.258 1195L414.258 1193ZM410.248 1195C409.696 1195 409.248 1194.55 409.248 1194C409.248 1193.45 409.696 1193 410.248 1193L410.248 1195ZM406.238 1193C406.791 1193 407.238 1193.45 407.238 1194C407.238 1194.55 406.791 1195 406.238 1195L406.238 1193ZM402.229 1195C401.676 1195 401.229 1194.55 401.229 1194C401.229 1193.45 401.676 1193 402.229 1193L402.229 1195ZM398.219 1193C398.771 1193 399.219 1193.45 399.219 1194C399.219 1194.55 398.771 1195 398.219 1195L398.219 1193ZM394.209 1195C393.657 1195 393.209 1194.55 393.209 1194C393.209 1193.45 393.657 1193 394.209 1193L394.209 1195ZM390.2 1193C390.752 1193 391.2 1193.45 391.2 1194C391.2 1194.55 390.752 1195 390.2 1195L390.2 1193ZM386.19 1195C385.638 1195 385.19 1194.55 385.19 1194C385.19 1193.45 385.638 1193 386.19 1193L386.19 1195ZM382.18 1193C382.732 1193 383.18 1193.45 383.18 1194C383.18 1194.55 382.732 1195 382.18 1195L382.18 1193ZM378.17 1195C377.618 1195 377.17 1194.55 377.17 1194C377.17 1193.45 377.618 1193 378.17 1193L378.17 1195ZM374.161 1193C374.713 1193 375.161 1193.45 375.161 1194C375.161 1194.55 374.713 1195 374.161 1195L374.161 1193ZM370.151 1195C369.599 1195 369.151 1194.55 369.151 1194C369.151 1193.45 369.599 1193 370.151 1193L370.151 1195ZM366.141 1193C366.694 1193 367.141 1193.45 367.141 1194C367.141 1194.55 366.694 1195 366.141 1195L366.141 1193ZM362.132 1195C361.579 1195 361.132 1194.55 361.132 1194C361.132 1193.45 361.579 1193 362.132 1193L362.132 1195ZM358.122 1193C358.674 1193 359.122 1193.45 359.122 1194C359.122 1194.55 358.674 1195 358.122 1195L358.122 1193ZM354.112 1195C353.56 1195 353.112 1194.55 353.112 1194C353.112 1193.45 353.56 1193 354.112 1193L354.112 1195ZM350.103 1193C350.655 1193 351.103 1193.45 351.103 1194C351.103 1194.55 350.655 1195 350.103 1195L350.103 1193ZM346.093 1195C345.541 1195 345.093 1194.55 345.093 1194C345.093 1193.45 345.541 1193 346.093 1193L346.093 1195ZM342.083 1193C342.635 1193 343.083 1193.45 343.083 1194C343.083 1194.55 342.635 1195 342.083 1195L342.083 1193ZM338.073 1195C337.521 1195 337.073 1194.55 337.073 1194C337.073 1193.45 337.521 1193 338.073 1193L338.073 1195ZM334.064 1193C334.616 1193 335.064 1193.45 335.064 1194C335.064 1194.55 334.616 1195 334.064 1195L334.064 1193ZM330.054 1195C329.502 1195 329.054 1194.55 329.054 1194C329.054 1193.45 329.502 1193 330.054 1193L330.054 1195ZM326.044 1193C326.597 1193 327.044 1193.45 327.044 1194C327.044 1194.55 326.597 1195 326.044 1195L326.044 1193ZM322.035 1195C321.482 1195 321.035 1194.55 321.035 1194C321.035 1193.45 321.482 1193 322.035 1193L322.035 1195ZM318.025 1193C318.577 1193 319.025 1193.45 319.025 1194C319.025 1194.55 318.577 1195 318.025 1195L318.025 1193ZM314.015 1195C313.463 1195 313.015 1194.55 313.015 1194C313.015 1193.45 313.463 1193 314.015 1193L314.015 1195ZM310.005 1193C310.558 1193 311.005 1193.45 311.005 1194C311.005 1194.55 310.558 1195 310.005 1195L310.005 1193ZM1134 1195L1132 1195L1132 1193L1134 1193L1134 1195ZM1127.99 1195L1123.98 1195L1123.98 1193L1127.99 1193L1127.99 1195ZM1119.97 1195L1115.96 1195L1115.96 1193L1119.97 1193L1119.97 1195ZM1111.95 1195L1107.94 1195L1107.94 1193L1111.95 1193L1111.95 1195ZM1103.93 1195L1099.92 1195L1099.92 1193L1103.93 1193L1103.93 1195ZM1095.91 1195L1091.9 1195L1091.9 1193L1095.91 1193L1095.91 1195ZM1087.89 1195L1083.88 1195L1083.88 1193L1087.89 1193L1087.89 1195ZM1079.87 1195L1075.86 1195L1075.86 1193L1079.87 1193L1079.87 1195ZM1071.85 1195L1067.84 1195L1067.84 1193L1071.85 1193L1071.85 1195ZM1063.83 1195L1059.82 1195L1059.82 1193L1063.83 1193L1063.83 1195ZM1055.81 1195L1051.8 1195L1051.8 1193L1055.81 1193L1055.81 1195ZM1047.79 1195L1043.78 1195L1043.78 1193L1047.79 1193L1047.79 1195ZM1039.77 1195L1035.76 1195L1035.76 1193L1039.77 1193L1039.77 1195ZM1031.75 1195L1027.74 1195L1027.74 1193L1031.75 1193L1031.75 1195ZM1023.73 1195L1019.72 1195L1019.72 1193L1023.73 1193L1023.73 1195ZM1015.71 1195L1011.7 1195L1011.7 1193L1015.71 1193L1015.71 1195ZM1007.69 1195L1003.68 1195L1003.68 1193L1007.69 1193L1007.69 1195ZM999.675 1195L995.665 1195L995.665 1193L999.675 1193L999.675 1195ZM991.655 1195L987.646 1195L987.646 1193L991.655 1193L991.655 1195ZM983.636 1195L979.626 1195L979.626 1193L983.636 1193L983.636 1195ZM975.616 1195L971.607 1195L971.607 1193L975.616 1193L975.616 1195ZM967.597 1195L963.587 1195L963.587 1193L967.597 1193L967.597 1195ZM959.578 1195L955.568 1195L955.568 1193L959.578 1193L959.578 1195ZM951.558 1195L947.549 1195L947.549 1193L951.558 1193L951.558 1195ZM943.539 1195L939.529 1195L939.529 1193L943.539 1193L943.539 1195ZM935.519 1195L931.51 1195L931.51 1193L935.519 1193L935.519 1195ZM927.5 1195L923.49 1195L923.49 1193L927.5 1193L927.5 1195ZM919.481 1195L915.471 1195L915.471 1193L919.481 1193L919.481 1195ZM911.461 1195L907.452 1195L907.452 1193L911.461 1193L911.461 1195ZM903.442 1195L899.432 1195L899.432 1193L903.442 1193L903.442 1195ZM895.422 1195L891.413 1195L891.413 1193L895.422 1193L895.422 1195ZM887.403 1195L883.393 1195L883.393 1193L887.403 1193L887.403 1195ZM879.384 1195L875.374 1195L875.374 1193L879.384 1193L879.384 1195ZM871.364 1195L867.354 1195L867.354 1193L871.364 1193L871.364 1195ZM863.345 1195L859.335 1195L859.335 1193L863.345 1193L863.345 1195ZM855.325 1195L851.316 1195L851.316 1193L855.325 1193L855.325 1195ZM847.306 1195L843.296 1195L843.296 1193L847.306 1193L847.306 1195ZM839.287 1195L835.277 1195L835.277 1193L839.287 1193L839.287 1195ZM831.267 1195L827.257 1195L827.257 1193L831.267 1193L831.267 1195ZM823.248 1195L819.238 1195L819.238 1193L823.248 1193L823.248 1195ZM815.228 1195L811.219 1195L811.219 1193L815.228 1193L815.228 1195ZM807.209 1195L803.199 1195L803.199 1193L807.209 1193L807.209 1195ZM799.189 1195L795.18 1195L795.18 1193L799.189 1193L799.189 1195ZM791.17 1195L787.16 1195L787.16 1193L791.17 1193L791.17 1195ZM783.151 1195L779.141 1195L779.141 1193L783.151 1193L783.151 1195ZM775.131 1195L771.122 1195L771.122 1193L775.131 1193L775.131 1195ZM767.112 1195L763.102 1195L763.102 1193L767.112 1193L767.112 1195ZM759.092 1195L755.083 1195L755.083 1193L759.092 1193L759.092 1195ZM751.073 1195L747.063 1195L747.063 1193L751.073 1193L751.073 1195ZM743.054 1195L739.044 1195L739.044 1193L743.054 1193L743.054 1195ZM735.034 1195L731.025 1195L731.025 1193L735.034 1193L735.034 1195ZM727.015 1195L723.005 1195L723.005 1193L727.015 1193L727.015 1195ZM718.995 1195L714.986 1195L714.986 1193L718.995 1193L718.995 1195ZM710.976 1195L706.966 1195L706.966 1193L710.976 1193L710.976 1195ZM702.957 1195L698.947 1195L698.947 1193L702.957 1193L702.957 1195ZM694.937 1195L690.927 1195L690.927 1193L694.937 1193L694.937 1195ZM686.918 1195L682.908 1195L682.908 1193L686.918 1193L686.918 1195ZM678.898 1195L674.889 1195L674.889 1193L678.898 1193L678.898 1195ZM670.879 1195L666.869 1195L666.869 1193L670.879 1193L670.879 1195ZM662.86 1195L658.85 1195L658.85 1193L662.86 1193L662.86 1195ZM654.84 1195L650.83 1195L650.83 1193L654.84 1193L654.84 1195ZM646.821 1195L642.811 1195L642.811 1193L646.821 1193L646.821 1195ZM638.801 1195L634.792 1195L634.792 1193L638.801 1193L638.801 1195ZM630.782 1195L626.772 1195L626.772 1193L630.782 1193L630.782 1195ZM622.763 1195L618.753 1195L618.753 1193L622.763 1193L622.763 1195ZM614.743 1195L610.733 1195L610.733 1193L614.743 1193L614.743 1195ZM606.724 1195L602.714 1195L602.714 1193L606.724 1193L606.724 1195ZM598.704 1195L594.695 1195L594.695 1193L598.704 1193L598.704 1195ZM590.685 1195L586.675 1195L586.675 1193L590.685 1193L590.685 1195ZM582.665 1195L578.656 1195L578.656 1193L582.665 1193L582.665 1195ZM574.646 1195L570.636 1195L570.636 1193L574.646 1193L574.646 1195ZM566.627 1195L562.617 1195L562.617 1193L566.627 1193L566.627 1195ZM558.607 1195L554.597 1195L554.597 1193L558.607 1193L558.607 1195ZM550.588 1195L546.578 1195L546.578 1193L550.588 1193L550.588 1195ZM542.568 1195L538.559 1195L538.559 1193L542.568 1193L542.568 1195ZM534.549 1195L530.539 1195L530.539 1193L534.549 1193L534.549 1195ZM526.53 1195L522.52 1195L522.52 1193L526.53 1193L526.53 1195ZM518.51 1195L514.5 1195L514.5 1193L518.51 1193L518.51 1195ZM510.491 1195L506.481 1195L506.481 1193L510.491 1193L510.491 1195ZM502.471 1195L498.462 1195L498.462 1193L502.471 1193L502.471 1195ZM494.452 1195L490.442 1195L490.442 1193L494.452 1193L494.452 1195ZM486.432 1195L482.423 1195L482.423 1193L486.432 1193L486.432 1195ZM478.413 1195L474.403 1195L474.403 1193L478.413 1193L478.413 1195ZM470.394 1195L466.384 1195L466.384 1193L470.394 1193L470.394 1195ZM462.374 1195L458.365 1195L458.365 1193L462.374 1193L462.374 1195ZM454.355 1195L450.345 1195L450.345 1193L454.355 1193L454.355 1195ZM446.335 1195L442.326 1195L442.326 1193L446.335 1193L446.335 1195ZM438.316 1195L434.306 1195L434.306 1193L438.316 1193L438.316 1195ZM430.297 1195L426.287 1195L426.287 1193L430.297 1193L430.297 1195ZM422.277 1195L418.268 1195L418.268 1193L422.277 1193L422.277 1195ZM414.258 1195L410.248 1195L410.248 1193L414.258 1193L414.258 1195ZM406.238 1195L402.229 1195L402.229 1193L406.238 1193L406.238 1195ZM398.219 1195L394.209 1195L394.209 1193L398.219 1193L398.219 1195ZM390.2 1195L386.19 1195L386.19 1193L390.2 1193L390.2 1195ZM382.18 1195L378.17 1195L378.17 1193L382.18 1193L382.18 1195ZM374.161 1195L370.151 1195L370.151 1193L374.161 1193L374.161 1195ZM366.141 1195L362.132 1195L362.132 1193L366.141 1193L366.141 1195ZM358.122 1195L354.112 1195L354.112 1193L358.122 1193L358.122 1195ZM350.103 1195L346.093 1195L346.093 1193L350.103 1193L350.103 1195ZM342.083 1195L338.073 1195L338.073 1193L342.083 1193L342.083 1195ZM334.064 1195L330.054 1195L330.054 1193L334.064 1193L334.064 1195ZM326.044 1195L322.035 1195L322.035 1193L326.044 1193L326.044 1195ZM318.025 1195L314.015 1195L314.015 1193L318.025 1193L318.025 1195ZM310.005 1195L308 1195L308 1193L310.005 1193L310.005 1195Z" fill="#7D7D7D"/>
<line x1="1133" y1="1193" x2="1133" y2="1149" stroke="#7D7D7D" stroke-width="2" stroke-linecap="round" stroke-dasharray="4 4"/>
<path d="M809 56.7735L814.774 51L809 45.2265L803.226 51L809 56.7735ZM810 2C810 1.44772 809.552 1 809 1C808.448 1 808 1.44772 808 2L810 2ZM810 48.9583C810 48.406 809.552 47.9583 809 47.9583C808.448 47.9583 808 48.406 808 48.9583L810 48.9583ZM808 44.875C808 45.4273 808.448 45.875 809 45.875C809.552 45.875 810 45.4273 810 44.875L808 44.875ZM810 40.7917C810 40.2394 809.552 39.7917 809 39.7917C808.448 39.7917 808 40.2394 808 40.7917L810 40.7917ZM808 36.7083C808 37.2606 808.448 37.7083 809 37.7083C809.552 37.7083 810 37.2606 810 36.7083L808 36.7083ZM810 32.625C810 32.0727 809.552 31.625 809 31.625C808.448 31.625 808 32.0727 808 32.625L810 32.625ZM808 28.5417C808 29.0939 808.448 29.5417 809 29.5417C809.552 29.5417 810 29.0939 810 28.5417L808 28.5417ZM810 24.4583C810 23.906 809.552 23.4583 809 23.4583C808.448 23.4583 808 23.906 808 24.4583L810 24.4583ZM808 20.375C808 20.9273 808.448 21.375 809 21.375C809.552 21.375 810 20.9273 810 20.375L808 20.375ZM810 16.2917C810 15.7394 809.552 15.2917 809 15.2917C808.448 15.2917 808 15.7394 808 16.2917L810 16.2917ZM808 12.2083C808 12.7606 808.448 13.2083 809 13.2083C809.552 13.2083 810 12.7606 810 12.2083L808 12.2083ZM810 8.125C810 7.57272 809.552 7.125 809 7.125C808.448 7.125 808 7.57272 808 8.125L810 8.125ZM808 4.04167C808 4.59395 808.448 5.04167 809 5.04167C809.552 5.04167 810 4.59395 810 4.04167L808 4.04167ZM810 51L810 48.9583L808 48.9583L808 51L810 51ZM810 44.875L810 40.7917L808 40.7917L808 44.875L810 44.875ZM810 36.7083L810 32.625L808 32.625L808 36.7083L810 36.7083ZM810 28.5417L810 24.4583L808 24.4583L808 28.5417L810 28.5417ZM810 20.375L810 16.2917L808 16.2917L808 20.375L810 20.375ZM810 12.2083L810 8.125L808 8.125L808 12.2083L810 12.2083ZM810 4.04167L810 2L808 2L808 4.04167L810 4.04167Z" fill="#7D7D7D"/>
<line x1="517" y1="1" x2="807.115" y2="1" stroke="#7D7D7D" stroke-width="2" stroke-linecap="round" stroke-dasharray="4 4"/>
</svg>
